<?xml version="1.0" encoding="UTF-8" standalone="no"?>
<!-- Created with Inkscape (http://www.inkscape.org/) -->

<svg
   width="1920"
   height="1080"
   viewBox="0 0 1920 1080"
   version="1.1"
   id="svg1"
   xmlns="http://www.w3.org/2000/svg"
   xmlns:svg="http://www.w3.org/2000/svg">
  <defs
     id="defs1">
    <clipPath
       clipPathUnits="userSpaceOnUse"
       id="clipPath49">
      <path
         d="m 252.89,380.21 h 86.304 v 16.44 H 252.89 Z"
         transform="matrix(1,0,0,-1,-276.89001,386.21001)"
         clip-rule="evenodd"
         id="path49" />
    </clipPath>
    <clipPath
       clipPathUnits="userSpaceOnUse"
       id="clipPath52">
      <path
         d="m 206.21,351.89 h 179.42 v 10.32 H 206.21 Z"
         transform="matrix(1,0,0,-1,-213.41001,354.65001)"
         clip-rule="evenodd"
         id="path52" />
    </clipPath>
    <clipPath
       clipPathUnits="userSpaceOnUse"
       id="clipPath62">
      <path
         d="m 205.97,333.89 h 172.34 v 10.32 H 205.97 Z"
         transform="matrix(1,0,0,-1,-213.17001,336.65001)"
         clip-rule="evenodd"
         id="path62" />
    </clipPath>
    <clipPath
       clipPathUnits="userSpaceOnUse"
       id="clipPath64">
      <path
         d="m 205.97,333.89 h 172.34 v 10.32 H 205.97 Z"
         transform="matrix(1,0,0,-1,-254.33001,336.65001)"
         clip-rule="evenodd"
         id="path64" />
    </clipPath>
    <clipPath
       clipPathUnits="userSpaceOnUse"
       id="clipPath66">
      <path
         d="m 205.97,333.89 h 172.34 v 10.32 H 205.97 Z"
         transform="matrix(1,0,0,-1,-260.09001,336.65001)"
         clip-rule="evenodd"
         id="path66" />
    </clipPath>
  </defs>
  <g
     id="layer1">
    <g
       id="g1"
       transform="matrix(3.1768288,0,0,3.1768288,-1948.9162,334.5651)">
      <g
         id="g45"
         transform="translate(522.4,-605.96002)">
        <path
           id="path46"
           d="m 69.95,221.95 h 450 v 234 h -450 z"
           style="fill:#d0cece;fill-opacity:1;fill-rule:evenodd;stroke:#c00000;stroke-width:1;stroke-linecap:butt;stroke-linejoin:miter;stroke-miterlimit:10;stroke-dasharray:none;stroke-opacity:1"
           transform="matrix(1.3333333,0,0,-1.3333333,0,1122.56)" />
      </g>
      <g
         id="g46"
         transform="translate(522.4,-605.96002)">
        <path
           id="path47"
           d="m 251,397.55 c 0,2.51 2.04,4.55 4.55,4.55 h 80.9 c 2.51,0 4.55,-2.04 4.55,-4.55 v -18.2 c 0,-2.52 -2.04,-4.55 -4.55,-4.55 h -80.9 c -2.51,0 -4.55,2.03 -4.55,4.55 z"
           style="fill:#ffffff;fill-opacity:1;fill-rule:evenodd;stroke:#172c51;stroke-width:1;stroke-linecap:butt;stroke-linejoin:miter;stroke-miterlimit:10;stroke-dasharray:none;stroke-opacity:1"
           transform="matrix(1.3333333,0,0,-1.3333333,0,1122.56)" />
      </g>
      <g
         id="g47"
         transform="translate(522.4,-605.96002)">
        <path
           id="path48"
           d="m 5.3092188,-5.0273828 c 0,0.3603515 -0.058594,0.6855469 -0.1757813,0.9726562 -0.1171875,0.28125 -0.2871094,0.5244141 -0.5039062,0.7265625 -0.2109375,0.1962891 -0.4775391,0.3486328 -0.796875,0.4570313 -0.3222657,0.1113281 -0.7001954,0.1640625 -1.1367188,0.1640625 H 1.8873438 v 2.56640624 c 0,0.0322266 -0.00879,0.05859375 -0.023437,0.08203125 -0.017578,0.01757812 -0.043945,0.03222656 -0.082031,0.046875 -0.032227,0.00878906 -0.079102,0.01464843 -0.140625,0.0234375 -0.055664,0.01464843 -0.1289062,0.0234375 -0.2226562,0.0234375 -0.09375,0 -0.1728516,-0.0087891 -0.234375,-0.0234375 C 1.1285556,0.00289062 1.0816805,-0.00296875 1.0435946,-0.01175781 1.0025786,-0.02640625 0.9762117,-0.04105469 0.9615633,-0.05863281 0.9527743,-0.08207031 0.9498445,-0.1084375 0.9498445,-0.14066406 V -6.7031641 c 0,-0.1464843 0.0351563,-0.2519531 0.1054687,-0.3164062 0.076172,-0.061523 0.1669922,-0.09375 0.2695313,-0.09375 h 1.5117188 c 0.1552734,0 0.3046875,0.00879 0.4453125,0.023437 0.140625,0.017578 0.3046875,0.043945 0.4921875,0.082031 0.1933594,0.041016 0.3896483,0.1171875 0.5859374,0.234375 0.2021484,0.1171875 0.375,0.2636719 0.515625,0.4335938 0.140625,0.1640625 0.2460938,0.3603515 0.3164063,0.5859375 0.076172,0.2197265 0.1171875,0.4628906 0.1171868,0.7265632 z m -0.9960938,0.082031 c 0,-0.2871093 -0.055664,-0.5302734 -0.1640625,-0.7265625 C 4.0465234,-5.8652734 3.9146875,-6.0117578 3.750625,-6.1055078 3.5924219,-6.1992578 3.4283594,-6.2578516 3.2584375,-6.2812891 3.0855859,-6.3105859 2.9215234,-6.3281641 2.76625,-6.3281641 H 1.8873438 v 2.8476563 h 0.8554687 c 0.28125,0 0.515625,-0.035156 0.703125,-0.1054688 0.1933594,-0.070312 0.3544922,-0.1699218 0.4804688,-0.3046875 0.1318359,-0.1318359 0.2285156,-0.2871093 0.2929687,-0.46875 0.061523,-0.1787109 0.09375,-0.375 0.09375,-0.5859377 z m 5.1650391,0.1875 c 0,0.079102 -0.00586,0.1464844 -0.011719,0.1992188 0,0.055664 -0.00586,0.099609 -0.011719,0.1289062 -0.00879,0.032227 -0.023437,0.058594 -0.046875,0.082031 -0.017578,0.017578 -0.035156,0.023437 -0.058594,0.023437 -0.032227,0 -0.070312,-0.00586 -0.1171875,-0.023437 -0.041016,-0.023437 -0.087891,-0.041016 -0.140625,-0.058594 -0.055664,-0.014648 -0.1142578,-0.029297 -0.1757812,-0.046875 -0.064453,-0.014648 -0.1347657,-0.023437 -0.2109375,-0.023437 -0.09375,0 -0.1845703,0.020508 -0.2695313,0.058594 -0.087891,0.041016 -0.1816406,0.102539 -0.28125,0.1875 -0.09375,0.079102 -0.196289,0.1875 -0.3046875,0.328125 -0.1113281,0.140625 -0.2285156,0.3134765 -0.3515625,0.515625 v 3.24609374 c 0,0.0322266 -0.00879,0.05859375 -0.023437,0.08203125 -0.017578,0.01757812 -0.041016,0.03222656 -0.070312,0.046875 -0.032227,0.01464843 -0.079102,0.02636718 -0.140625,0.03515625 -0.055664,0.0058594 -0.1289062,0.01171875 -0.2226562,0.01171875 -0.087891,0 -0.1611328,-0.0058594 -0.2226563,-0.01171875 -0.055664,-0.0087891 -0.102539,-0.02050782 -0.140625,-0.03515625 -0.032227,-0.01464844 -0.055664,-0.02929688 -0.070312,-0.046875 -0.00879,-0.0234375 -0.011719,-0.04980469 -0.011719,-0.08203125 V -5.0859766 c 0,-0.023437 0.00293,-0.046875 0.011719,-0.070312 0.014648,-0.023437 0.038086,-0.041016 0.070312,-0.058594 0.029297,-0.014648 0.070312,-0.023437 0.1171875,-0.023437 0.052734,-0.00586 0.1230469,-0.011719 0.2109375,-0.011719 0.076172,0 0.1435547,0.00586 0.1992188,0.011719 0.052734,0 0.09375,0.00879 0.1171875,0.023437 0.029297,0.017578 0.052734,0.035156 0.070312,0.058594 0.014648,0.023437 0.023437,0.046875 0.023437,0.070312 v 0.7265625 c 0.1318359,-0.2021484 0.2578125,-0.3632812 0.375,-0.4804687 0.1171875,-0.1230469 0.2285156,-0.2226563 0.3398437,-0.2929688 0.1083985,-0.076172 0.2138672,-0.1289062 0.3164063,-0.1523437 0.099609,-0.029297 0.2050781,-0.046875 0.3164062,-0.046875 0.046875,0 0.09668,0.00586 0.1523438,0.011719 0.061523,0.00879 0.1230468,0.020508 0.1875,0.035156 0.070312,0.00879 0.1318359,0.023437 0.1875,0.046875 0.052734,0.017578 0.09375,0.035156 0.1171875,0.058594 0.023437,0.017578 0.035156,0.032227 0.035156,0.046875 0.00586,0.017578 0.014648,0.041016 0.023437,0.070312 0.00586,0.023437 0.011719,0.058594 0.011719,0.1054688 0,0.046875 0,0.1142578 0,0.1992187 z m 5.0566409,1.9335938 c 0,0.140625 -0.04102,0.243164 -0.117188,0.3046875 -0.07031,0.064453 -0.149414,0.09375 -0.234375,0.09375 h -3.246094 c 0,0.2753906 0.02637,0.5214844 0.08203,0.7382812 0.05273,0.2197266 0.143554,0.4101563 0.269531,0.5742188 0.131836,0.15820311 0.298828,0.2783203 0.503906,0.36328124 0.210938,0.0791016 0.462891,0.1171875 0.761719,0.1171875 0.234375,0 0.439453,-0.0175781 0.621094,-0.0585938 0.178711,-0.0380859 0.333984,-0.0820313 0.46875,-0.12890625 0.140625,-0.046875 0.251953,-0.0878906 0.339843,-0.12890625 0.08496,-0.0380859 0.146485,-0.0585938 0.1875,-0.0585938 0.0293,0 0.05274,0.008789 0.07031,0.0234375 0.02344,0.008789 0.03809,0.0292969 0.04687,0.0585938 0.01465,0.0234375 0.02344,0.0585938 0.02344,0.10546875 0.0059,0.046875 0.01172,0.10253906 0.01172,0.1640625 0,0.046875 -0.0059,0.0908203 -0.01172,0.12890625 0,0.0322266 -0.0059,0.0644531 -0.01172,0.09375 0,0.0234375 -0.0088,0.046875 -0.02344,0.0703125 -0.01758,0.0234375 -0.03516,0.046875 -0.05859,0.0703125 -0.01758,0.0175781 -0.07617,0.046875 -0.175781,0.09375 -0.09375,0.046875 -0.219726,0.09375 -0.375,0.140625 -0.158203,0.04101562 -0.339844,0.07324218 -0.550781,0.10546875 -0.205078,0.03808593 -0.421875,0.05859375 -0.65625,0.05859375 -0.407227,0 -0.767578,-0.05566407 -1.078125,-0.1640625 -0.304688,-0.1171875 -0.5625,-0.28417969 -0.773438,-0.50390625 C 10.403945,-0.788125 10.248672,-1.069375 10.140273,-1.4062891 10.037734,-1.7490625 9.9879297,-2.1445703 9.9879297,-2.5898828 c 0,-0.421875 0.052734,-0.7998047 0.1640623,-1.1367188 0.108399,-0.3427734 0.263672,-0.6328125 0.46875,-0.8671875 0.210938,-0.234375 0.459961,-0.4130859 0.75,-0.5390625 0.295899,-0.1318359 0.624024,-0.1992187 0.984375,-0.1992187 0.389649,0 0.720703,0.064453 0.996094,0.1875 0.272461,0.1259765 0.495117,0.2929687 0.667969,0.5039062 0.178711,0.2109375 0.307617,0.4628907 0.386718,0.75 0.08496,0.28125 0.128907,0.5830078 0.128907,0.9023438 z m -0.914063,-0.2695313 c 0.0059,-0.4746093 -0.09961,-0.8466797 -0.316406,-1.1132812 -0.219727,-0.272461 -0.547852,-0.4101563 -0.984375,-0.4101563 -0.228516,0 -0.427734,0.043945 -0.597656,0.1289063 -0.164063,0.079102 -0.304688,0.1875 -0.421875,0.328125 -0.111328,0.140625 -0.196289,0.3046875 -0.257813,0.4921875 -0.06445,0.1816406 -0.09961,0.3720703 -0.105469,0.5742187 z m 6.149414,-2.0039062 c 0,0.017578 -0.0059,0.035156 -0.01172,0.058594 0,0.017578 -0.0059,0.032227 -0.01172,0.046875 0,0.017578 -0.0059,0.035156 -0.01172,0.058594 0,0.023437 -0.0059,0.046875 -0.01172,0.070312 l -1.6875,4.69921874 c -0.01758,0.0410156 -0.03516,0.07617187 -0.05859,0.10546875 -0.02344,0.0234375 -0.05859,0.04394531 -0.105469,0.0585937475 -0.04687,0.0058593725 -0.111328,0.0146484325 -0.1875,0.0234375025 -0.07031,0.0058594 -0.161133,0.01171875 -0.269531,0.01171875 -0.111329,0 -0.205079,-0.0058594 -0.28125,-0.01171875 -0.07031,-0.0087891 -0.128907,-0.02050782 -0.175782,-0.03515625 -0.04102,-0.01464844 -0.07617,-0.03515625 -0.105468,-0.05859375 -0.02344,-0.0234375 -0.04395,-0.05273438 -0.05859,-0.09375 L 15.117813,-4.8633203 c -0.01758,-0.038086 -0.03223,-0.073242 -0.04687,-0.1054688 -0.0088,-0.038086 -0.01172,-0.064453 -0.01172,-0.082031 0,-0.014648 0,-0.029297 0,-0.046875 0,-0.023437 0.0059,-0.046875 0.02344,-0.070312 0.01465,-0.023437 0.03809,-0.038086 0.07031,-0.046875 0.03809,-0.014648 0.08496,-0.023437 0.140625,-0.023437 0.05273,-0.00586 0.123047,-0.011719 0.210937,-0.011719 0.108399,0 0.19336,0.00586 0.257813,0.011719 0.06152,0 0.108398,0.00879 0.140625,0.023437 0.03809,0.017578 0.06445,0.035156 0.08203,0.058594 0.01465,0.023437 0.0293,0.052734 0.04687,0.082031 l 1.394531,4.07812499 0.02344,0.0585938 0.01172,-0.0585938 1.382812,-4.07812499 c 0.0059,-0.029297 0.01758,-0.058594 0.03516,-0.082031 0.02344,-0.023437 0.0498,-0.041016 0.08203,-0.058594 0.0293,-0.014648 0.07617,-0.023437 0.140625,-0.023437 0.06152,-0.00586 0.143554,-0.011719 0.246093,-0.011719 0.07617,0 0.143555,0.00586 0.199219,0.011719 0.05273,0 0.09668,0.00879 0.128906,0.023437 0.0293,0.017578 0.05273,0.035156 0.07031,0.058594 0.01465,0.017578 0.02344,0.035156 0.02344,0.058594 z m 1.88086,4.95703124 c 0,0.0322266 -0.0088,0.05859375 -0.02344,0.08203125 -0.01758,0.01757812 -0.04101,0.03222656 -0.07031,0.046875 -0.03223,0.01464843 -0.0791,0.02636718 -0.140625,0.03515625 -0.05566,0.0058594 -0.128907,0.01171875 -0.222657,0.01171875 -0.08789,0 -0.161132,-0.0058594 -0.222656,-0.01171875 -0.05566,-0.0087891 -0.102539,-0.02050782 -0.140625,-0.03515625 -0.03223,-0.01464844 -0.05566,-0.02929688 -0.07031,-0.046875 -0.0088,-0.0234375 -0.01172,-0.04980469 -0.01172,-0.08203125 V -5.0859766 c 0,-0.023437 0.0029,-0.046875 0.01172,-0.070312 0.01465,-0.023437 0.03809,-0.038086 0.07031,-0.046875 0.03809,-0.014648 0.08496,-0.026367 0.140625,-0.035156 0.06152,-0.00586 0.134766,-0.011719 0.222656,-0.011719 0.09375,0 0.166993,0.00586 0.222657,0.011719 0.06152,0.00879 0.108398,0.020508 0.140625,0.035156 0.0293,0.00879 0.05273,0.023437 0.07031,0.046875 0.01465,0.023437 0.02344,0.046875 0.02344,0.070312 z m 0.105468,-6.60937504 c 0,0.2109375 -0.04395,0.3574219 -0.128906,0.4335938 -0.0791,0.079102 -0.222656,0.1171875 -0.433594,0.1171875 -0.210937,0 -0.360351,-0.035156 -0.445312,-0.1054688 -0.0791,-0.076172 -0.117188,-0.2226562 -0.117188,-0.4335937 0,-0.2109375 0.03809,-0.3544922 0.117188,-0.4335938 0.08496,-0.076172 0.237305,-0.1171875 0.457031,-0.1171875 0.210938,0 0.354492,0.041016 0.433594,0.1171875 0.07617,0.070312 0.117187,0.2109375 0.117187,0.421875 z m 5.982422,4.0898438 c 0,0.3984375 -0.05566,0.7705078 -0.164062,1.1132812 -0.102539,0.3369141 -0.257813,0.62988285 -0.46875,0.87890629 -0.210938,0.24316406 -0.477539,0.43359375 -0.796875,0.57421875 -0.313477,0.13183593 -0.679688,0.19921875 -1.101563,0.19921875 -0.407226,0 -0.761718,-0.05859375 -1.066406,-0.17578125 -0.298828,-0.12304688 -0.547852,-0.29882813 -0.75,-0.52734375 -0.196289,-0.234375 -0.345703,-0.51562499 -0.445312,-0.84374999 -0.10254,-0.328125 -0.152344,-0.703125 -0.152344,-1.125 0,-0.3984375 0.0498,-0.7646485 0.152344,-1.1015625 0.108398,-0.3427735 0.269531,-0.6357422 0.480468,-0.8789063 0.210938,-0.2490234 0.47168,-0.4394531 0.785157,-0.5742187 0.310546,-0.140625 0.679687,-0.2109375 1.101562,-0.2109375 0.404297,0 0.761719,0.064453 1.066406,0.1875 0.304688,0.1171875 0.553711,0.2929687 0.75,0.5273437 0.202149,0.2285157 0.354492,0.5097657 0.457032,0.84375 0.09961,0.328125 0.152343,0.7001953 0.152343,1.1132813 z m -0.949218,0.058594 c 0,-0.2636718 -0.0293,-0.515625 -0.08203,-0.75 -0.04687,-0.2402343 -0.128906,-0.4511718 -0.246093,-0.6328125 -0.111329,-0.1787109 -0.263672,-0.3193359 -0.457032,-0.421875 -0.196289,-0.1083984 -0.439453,-0.1640625 -0.726562,-0.1640625 -0.266602,0 -0.498047,0.046875 -0.691406,0.140625 -0.1875,0.09375 -0.345704,0.2314453 -0.46875,0.4101563 -0.125977,0.1728515 -0.219727,0.3808594 -0.28125,0.6210937 -0.06445,0.234375 -0.09375,0.4921875 -0.09375,0.7734375 0,0.2753907 0.02344,0.5332032 0.07031,0.7734375 0.05273,0.234375 0.134766,0.4423828 0.246094,0.6210938 0.117187,0.1728515 0.272461,0.31347655 0.46875,0.42187499 0.193359,0.10253906 0.436523,0.15234375 0.726562,0.15234375 0.263672,0 0.495117,-0.046875 0.691407,-0.140625 0.193359,-0.0996094 0.354492,-0.23730474 0.480468,-0.41015624 0.123047,-0.1699219 0.213867,-0.375 0.269532,-0.609375 0.06152,-0.2402344 0.09375,-0.5039063 0.09375,-0.7851563 z m 6.45996,2.46093754 c 0,0.0322266 -0.0088,0.05859375 -0.02344,0.08203125 -0.0088,0.01757812 -0.03223,0.03222656 -0.07031,0.046875 -0.03223,0.01464843 -0.07617,0.02636718 -0.128906,0.03515625 -0.04687,0.0058594 -0.111328,0.01171875 -0.1875,0.01171875 -0.08789,0 -0.158203,-0.0058594 -0.210937,-0.01171875 -0.04687,-0.0087891 -0.08789,-0.02050782 -0.117188,-0.03515625 -0.03223,-0.01464844 -0.05566,-0.02929688 -0.07031,-0.046875 -0.0088,-0.0234375 -0.01172,-0.04980469 -0.01172,-0.08203125 v -0.65625 c -0.28125,0.31347656 -0.5625,0.54492187 -0.84375,0.69140625 -0.275391,0.140625 -0.550781,0.2109375 -0.832031,0.2109375 -0.328125,0 -0.606446,-0.05566407 -0.832032,-0.1640625 -0.228515,-0.10839844 -0.410156,-0.2578125 -0.550781,-0.4453125 -0.134765,-0.19335938 -0.231445,-0.41601563 -0.292969,-0.66796879 -0.06445,-0.2490234 -0.09375,-0.5537109 -0.09375,-0.9140625 v -3 c 0,-0.023437 0.0059,-0.046875 0.02344,-0.070312 0.01465,-0.023437 0.03809,-0.041016 0.07031,-0.058594 0.03809,-0.014648 0.08496,-0.023437 0.140625,-0.023437 0.06152,-0.00586 0.134766,-0.011719 0.222657,-0.011719 0.09375,0 0.166992,0.00586 0.222656,0.011719 0.06152,0 0.108398,0.00879 0.140625,0.023437 0.0293,0.017578 0.05273,0.035156 0.07031,0.058594 0.01465,0.023437 0.02344,0.046875 0.02344,0.070312 v 2.8828125 c 0,0.2900391 0.01758,0.5244141 0.05859,0.703125 0.04687,0.1728516 0.111328,0.3222657 0.199218,0.4453125 0.08496,0.11718754 0.19336,0.21093754 0.328125,0.28125004 0.131836,0.0644531 0.28418,0.09375 0.457032,0.09375 0.225586,0 0.451172,-0.0761719 0.679687,-0.234375 0.225586,-0.16406254 0.462891,-0.40136724 0.714844,-0.71484374 v -3.4570313 c 0,-0.023437 0.0059,-0.046875 0.02344,-0.070312 0.01465,-0.023437 0.03809,-0.041016 0.07031,-0.058594 0.03809,-0.014648 0.08496,-0.023437 0.140625,-0.023437 0.06152,-0.00586 0.134766,-0.011719 0.222656,-0.011719 0.08496,0 0.155274,0.00586 0.210938,0.011719 0.06152,0 0.108398,0.00879 0.140625,0.023437 0.03809,0.017578 0.06445,0.035156 0.08203,0.058594 0.01465,0.023437 0.02344,0.046875 0.02344,0.070312 z m 4.637696,-1.34765624 c 0,0.2578125 -0.04687,0.4863281 -0.140625,0.67968749 -0.09375,0.19628906 -0.228516,0.36328125 -0.398438,0.50390625 -0.172851,0.13476562 -0.380859,0.234375 -0.621093,0.3046874975 C 36.492813,0.07027344 36.229141,0.10542969 35.942031,0.10542969 c -0.172851,0 -0.339843,-0.01757813 -0.503906,-0.046875 -0.158203,-0.0234375 -0.301758,-0.05566407 -0.433594,-0.09375 -0.125976,-0.046875 -0.231445,-0.09375 -0.316406,-0.140625 -0.08789,-0.046875 -0.149414,-0.0849609 -0.1875,-0.1171875 -0.04102,-0.0380859 -0.07031,-0.0878906 -0.09375,-0.15234375 -0.01758,-0.0703125 -0.02344,-0.15820313 -0.02344,-0.26953125 0,-0.0703125 0.0029,-0.12890625 0.01172,-0.17578125 0.0059,-0.0527344 0.01465,-0.09375 0.02344,-0.11718754 0.01465,-0.029297 0.0293,-0.049805 0.04687,-0.058594 0.02344,-0.014649 0.04687,-0.023437 0.07031,-0.023437 0.03809,0 0.09668,0.023437 0.175782,0.070312 0.07617,0.046875 0.175781,0.10253905 0.292968,0.16406249 0.117188,0.0556641 0.251953,0.11132812 0.410157,0.1640625 0.155273,0.046875 0.339843,0.0703125 0.550781,0.0703125 0.146484,0 0.284179,-0.0146484 0.410156,-0.046875 0.123047,-0.0292969 0.234375,-0.0761719 0.328125,-0.140625 0.09375,-0.0703125 0.164063,-0.15234375 0.210938,-0.24609379 0.04687,-0.099609 0.07031,-0.2167968 0.07031,-0.3515625 0,-0.140625 -0.03516,-0.2578125 -0.105469,-0.3515625 -0.07031,-0.099609 -0.164062,-0.1875 -0.28125,-0.2578125 -0.117187,-0.070312 -0.251953,-0.1318359 -0.398437,-0.1875 -0.149414,-0.061523 -0.301758,-0.1230468 -0.457031,-0.1875 -0.149415,-0.061523 -0.298829,-0.1318359 -0.445313,-0.2109375 -0.149414,-0.076172 -0.28125,-0.1699218 -0.398437,-0.28125 -0.117188,-0.1171875 -0.216797,-0.2519531 -0.292969,-0.4101562 -0.07031,-0.1552735 -0.105469,-0.3457031 -0.105469,-0.5742188 0,-0.1875 0.03809,-0.3691406 0.117188,-0.5507812 0.07617,-0.178711 0.190429,-0.3339844 0.339843,-0.46875 0.146485,-0.131836 0.333985,-0.2373047 0.5625,-0.3164063 0.225586,-0.084961 0.486328,-0.1289062 0.785157,-0.1289062 0.131835,0 0.263671,0.011719 0.398437,0.035156 0.131836,0.023437 0.249023,0.052734 0.351563,0.082031 0.108398,0.032227 0.199218,0.067383 0.269531,0.1054687 0.07617,0.041016 0.134765,0.076172 0.175781,0.1054688 0.03809,0.032227 0.06152,0.058594 0.07031,0.082031 0.01465,0.017578 0.02637,0.041016 0.03516,0.070312 0.0059,0.023437 0.01172,0.058594 0.01172,0.1054688 0.0059,0.041016 0.01172,0.087891 0.01172,0.140625 0,0.064453 -0.0059,0.1171875 -0.01172,0.1640625 0,0.046875 -0.0088,0.087891 -0.02344,0.1171875 -0.01758,0.023437 -0.03223,0.043945 -0.04687,0.058594 -0.01758,0.017578 -0.03516,0.023437 -0.05859,0.023437 -0.03223,0 -0.0791,-0.017578 -0.140625,-0.058594 -0.06445,-0.046875 -0.146484,-0.087891 -0.246093,-0.1289063 -0.10254,-0.046875 -0.219727,-0.087891 -0.351563,-0.1289062 -0.134766,-0.046875 -0.287109,-0.070312 -0.457031,-0.070312 -0.158203,0 -0.292969,0.020508 -0.410156,0.058594 -0.117188,0.032227 -0.216797,0.082031 -0.292969,0.1523438 -0.07031,0.064453 -0.125977,0.1376953 -0.164063,0.2226562 -0.04102,0.087891 -0.05859,0.1816407 -0.05859,0.28125 0,0.1494141 0.03516,0.2695313 0.105468,0.3632813 0.07617,0.09375 0.175782,0.1816406 0.292969,0.2578125 0.117188,0.070312 0.249023,0.1376953 0.398438,0.1992187 0.155273,0.055664 0.307617,0.1142578 0.457031,0.1757813 0.155273,0.064453 0.307617,0.1347656 0.457031,0.2109375 0.155273,0.079101 0.292969,0.1728515 0.410156,0.28125 0.117188,0.1113281 0.210938,0.243164 0.28125,0.3984375 0.07617,0.149414 0.117188,0.328125 0.117188,0.5390625 z m 0,0"
           style="fill:#000000;fill-opacity:1;fill-rule:nonzero;stroke:none"
           aria-label=" Previous"
           transform="matrix(1.3333333,0,0,1.3333333,369.18667,607.61333)"
           clip-path="url(#clipPath49)" />
      </g>
      <g
         id="g50"
         transform="translate(522.4,-605.96002)">
        <path
           id="path50"
           d="M 205.85,348.15 H 385.8 v 18 H 205.85 Z"
           style="fill:#d6dce5;fill-opacity:1;fill-rule:evenodd;stroke:#000000;stroke-width:0.5;stroke-linecap:butt;stroke-linejoin:round;stroke-miterlimit:10;stroke-dasharray:none;stroke-opacity:1"
           transform="matrix(1.3333333,0,0,-1.3333333,0,1122.56)" />
      </g>
      <g
         id="g51"
         transform="translate(522.4,-605.96002)">
        <path
           id="path51"
           d="m 3.3985938,-1.4311328 c 0,0.2431641 -0.043945,0.45703124 -0.1289063,0.64453124 -0.087891,0.18164062 -0.2080078,0.33691406 -0.3632812,0.46875 -0.1582032,0.13476562 -0.3398438,0.23144531 -0.5507813,0.29296875 -0.2109375,0.06152344 -0.4394531,0.09375 -0.6796875,0.09375 -0.1728516,0 -0.3339844,-0.01757813 -0.4804687,-0.046875 -0.140625,-0.0234375 -0.2695313,-0.05273438 -0.3867188,-0.09375 -0.11132812,-0.046875 -0.20507812,-0.08789063 -0.28125,-0.12890625 -0.0791016,-0.046875 -0.13476562,-0.0849609 -0.1640625,-0.1171875 -0.0322266,-0.0292969 -0.0556641,-0.0703125 -0.0703125,-0.1171875 -0.008789,-0.0527344 -0.0117188,-0.12011719 -0.0117188,-0.19921875 0,-0.0527344 0,-0.0996094 0,-0.140625 0.005859,-0.0380859 0.0146484,-0.0703125 0.0234375,-0.09375 0.0146484,-0.0234375 0.0292969,-0.0380859 0.046875,-0.046875 0.0146484,-0.005859 0.0351563,-0.0117188 0.0585938,-0.0117188 0.0292969,0 0.0761719,0.0234375 0.140625,0.0703125 0.0703125,0.0410156 0.15527344,0.0878906 0.2578125,0.140625 0.10839844,0.046875 0.2373047,0.09375 0.3867188,0.140625 0.1464843,0.046875 0.3193359,0.0703125 0.515625,0.0703125 0.140625,0 0.2724609,-0.0175781 0.3984375,-0.0585938 0.1230468,-0.0380859 0.2285156,-0.09375 0.3164062,-0.1640625 0.084961,-0.0703125 0.1523438,-0.15527344 0.1992188,-0.2578125 0.046875,-0.10839839 0.070312,-0.22851559 0.070312,-0.36328129 0,-0.1464843 -0.035156,-0.2724609 -0.1054688,-0.375 -0.064453,-0.099609 -0.1494136,-0.1904295 -0.257812,-0.2695311 -0.1025391,-0.076172 -0.2226562,-0.1464844 -0.3632812,-0.2109375 -0.1347657,-0.061523 -0.2753907,-0.1230469 -0.421875,-0.1875 -0.140625,-0.070312 -0.28125,-0.1435547 -0.421875,-0.2226563 C 0.99039063,-2.6996875 0.87027344,-2.7963672 0.761875,-2.9076953 0.65933594,-3.0160937 0.574375,-3.145 0.5040625,-3.2944141 c -0.0644531,-0.1464843 -0.09375,-0.3222656 -0.09375,-0.5273437 0,-0.2109375 0.0351563,-0.3984375 0.10546875,-0.5625 0.0761719,-0.1699219 0.18164063,-0.3105469 0.31640625,-0.421875 0.140625,-0.1171875 0.3046875,-0.2021484 0.4921875,-0.2578125 0.1933594,-0.061523 0.4013672,-0.09375 0.6210938,-0.09375 0.1171875,0 0.2285156,0.011719 0.3398437,0.035156 0.1171875,0.017578 0.2226563,0.043945 0.3164063,0.082031 0.099609,0.032227 0.1904296,0.067383 0.2695312,0.1054687 0.084961,0.041016 0.140625,0.070312 0.1640625,0.09375 0.023437,0.023437 0.038086,0.043945 0.046875,0.058594 0.00586,0.017578 0.011719,0.035156 0.011719,0.058594 0.00586,0.023437 0.011719,0.052734 0.011719,0.082031 0.00586,0.032227 0.011719,0.070312 0.011719,0.1171875 0,0.046875 -0.00586,0.09082 -0.011719,0.1289062 0,0.041016 -0.00586,0.070312 -0.011719,0.09375 -0.00879,0.023437 -0.020508,0.043945 -0.035156,0.058594 -0.017578,0.00879 -0.032227,0.011719 -0.046875,0.011719 -0.032227,0 -0.079102,-0.014648 -0.140625,-0.046875 C 2.8067969,-4.316875 2.7335547,-4.3608203 2.6485938,-4.4076953 2.5607031,-4.4545703 2.4552344,-4.4955859 2.3321875,-4.5366016 2.215,-4.5746875 2.0773047,-4.5951953 1.9220313,-4.5951953 c -0.140625,0 -0.2666016,0.020508 -0.375,0.058594 -0.1025391,0.041016 -0.1875,0.09082 -0.2578125,0.1523438 -0.064453,0.064453 -0.1142579,0.1376953 -0.1523438,0.2226562 -0.032227,0.08789 -0.046875,0.175781 -0.046875,0.269531 0,0.140625 0.029297,0.2666016 0.09375,0.375 0.070312,0.1025391 0.1582031,0.1933594 0.2695313,0.2695312 0.1083984,0.079102 0.2285156,0.1494141 0.3632812,0.2109375 0.140625,0.064453 0.28125,0.1289063 0.421875,0.1992188 0.1464844,0.070312 0.2929688,0.1464844 0.4335938,0.2226562 0.140625,0.079102 0.2607421,0.1728516 0.3632812,0.28125 0.1083984,0.1113282 0.1933594,0.2402344 0.2578125,0.3867188 0.070312,0.1494141 0.1054688,0.3222656 0.1054688,0.515625 z m 3.5742187,1.33593749 c 0,0.03222656 -0.011719,0.05566406 -0.035156,0.0703125 -0.017578,0.01757812 -0.043945,0.02636719 -0.082031,0.03515625 -0.032227,0.0058594 -0.082031,0.01171875 -0.1523437,0.01171875 -0.070312,0 -0.1289063,-0.0058594 -0.1757813,-0.01171875 -0.041016,-0.00878906 -0.067383,-0.01757813 -0.082031,-0.03515625 -0.017578,-0.01464844 -0.023437,-0.03808594 -0.023437,-0.0703125 v -0.3515625 c -0.1582032,0.1640625 -0.3339844,0.29296875 -0.5273438,0.38671875 -0.1875,0.08496094 -0.3867187,0.12890625 -0.5976562,0.12890625 -0.1816407,0 -0.3486329,-0.0234375 -0.5039063,-0.0703125 -0.1494141,-0.046875 -0.2783203,-0.11132813 -0.3867187,-0.19921875 -0.1025391,-0.09375 -0.1845704,-0.20507813 -0.2460938,-0.33984375 -0.055664,-0.140625 -0.082031,-0.29296875 -0.082031,-0.45703125 0,-0.20214844 0.038086,-0.37500004 0.1171875,-0.51562504 0.084961,-0.1464843 0.2021484,-0.2695312 0.3515625,-0.3632812 0.1464843,-0.099609 0.3310546,-0.1757813 0.5507812,-0.2226563 0.2255859,-0.052734 0.4746094,-0.082031 0.75,-0.082031 h 0.4804688 v -0.2695313 c 0,-0.1318359 -0.017578,-0.2490234 -0.046875,-0.3515625 C 6.2579688,-2.910625 6.2140234,-3.0014453 6.1525,-3.0717578 6.0880469,-3.1420703 6.0060156,-3.191875 5.9064063,-3.2241016 c -0.1025391,-0.038086 -0.2314454,-0.058594 -0.3867188,-0.058594 -0.1582031,0 -0.3017578,0.020508 -0.4335937,0.058594 -0.1259766,0.041016 -0.234375,0.082031 -0.328125,0.1289063 -0.09375,0.041016 -0.1728516,0.079102 -0.234375,0.1171875 -0.064453,0.041016 -0.1113282,0.058594 -0.140625,0.058594 -0.023437,0 -0.043945,-0.00293 -0.058594,-0.011719 -0.017578,-0.014648 -0.032227,-0.029297 -0.046875,-0.046875 -0.00879,-0.023437 -0.017578,-0.049805 -0.023437,-0.082031 0,-0.029297 0,-0.064453 0,-0.1054687 0,-0.070312 0.00293,-0.1201172 0.011719,-0.1523438 0.00586,-0.038086 0.026367,-0.073242 0.058594,-0.1054687 0.038086,-0.038086 0.099609,-0.082031 0.1875,-0.1289063 0.084961,-0.046875 0.1816406,-0.087891 0.2929688,-0.1289062 0.1171875,-0.038086 0.2402343,-0.070312 0.375,-0.09375 0.1318359,-0.023437 0.2636718,-0.035156 0.3984375,-0.035156 0.2578125,0 0.4716796,0.032227 0.6445312,0.09375 0.1787109,0.055664 0.3222656,0.1376954 0.4335938,0.2460938 0.1171875,0.1113281 0.1992187,0.2519531 0.2460937,0.421875 0.046875,0.1640625 0.070312,0.3574219 0.070312,0.5742187 z M 6.3282813,-1.7123828 H 5.7775 c -0.1816406,0 -0.3369141,0.017578 -0.46875,0.046875 -0.1259766,0.032227 -0.2314453,0.079102 -0.3164062,0.140625 -0.087891,0.055664 -0.1523438,0.1259766 -0.1992188,0.2109375 -0.041016,0.079102 -0.058594,0.1728516 -0.058594,0.28125 0,0.18164061 0.058594,0.3251953 0.1757812,0.43359374 0.1171875,0.11132812 0.28125,0.1640625 0.4921875,0.1640625 0.1699219,0 0.328125,-0.0410156 0.46875,-0.12890625 0.1464844,-0.0849609 0.2988281,-0.21679688 0.4570313,-0.3984375 z m 4.5996097,-1.9335938 c 0,0.017578 0,0.032227 0,0.046875 0,0.00879 -0.0059,0.020508 -0.01172,0.035156 0,0.00879 -0.0059,0.020508 -0.01172,0.035156 0,0.017578 0,0.035156 0,0.058594 l -1.2070311,3.35156249 c -0.00879,0.03222656 -0.023437,0.05566406 -0.046875,0.0703125 -0.017578,0.01757812 -0.041016,0.03222656 -0.070312,0.046875 -0.032227,0.00585937 -0.076172,0.01171875 -0.1289063,0.01171875 -0.055664,0.0058594 -0.1230468,0.01171875 -0.1992187,0.01171875 -0.079102,0 -0.1464844,-0.0058594 -0.1992188,-0.01171875 -0.046875,0 -0.09082,-0.00585938 -0.1289062,-0.01171875 -0.032227,-0.01464844 -0.055664,-0.02929688 -0.070312,-0.046875 -0.017578,-0.0234375 -0.032227,-0.046875 -0.046875,-0.0703125 L 7.6114844,-3.4701953 c -0.017578,-0.029297 -0.029297,-0.058594 -0.035156,-0.082031 0,-0.023437 -0.00586,-0.041016 -0.011719,-0.058594 0,-0.014648 0,-0.026367 0,-0.035156 0,-0.014648 0.00293,-0.029297 0.011719,-0.046875 0.014649,-0.014648 0.035156,-0.026367 0.058594,-0.035156 0.023437,-0.014648 0.052734,-0.023437 0.09375,-0.023437 0.046875,0 0.099609,0 0.1640625,0 0.070312,0 0.1289062,0.00586 0.1757812,0.011719 0.046875,0 0.082031,0.00586 0.1054688,0.011719 0.023437,0.00879 0.038086,0.020508 0.046875,0.035156 0.014648,0.017578 0.029297,0.035156 0.046875,0.058594 l 0.9960937,2.91796874 0.011719,0.046875 0.011719,-0.046875 0.9843754,-2.91796874 c 0.0059,-0.023437 0.01465,-0.041016 0.02344,-0.058594 0.01465,-0.014648 0.03516,-0.026367 0.05859,-0.035156 0.0293,-0.00586 0.06445,-0.011719 0.105469,-0.011719 0.04687,-0.00586 0.105468,-0.011719 0.175781,-0.011719 0.05273,0 0.09961,0 0.140625,0 0.03809,0 0.07031,0.00879 0.09375,0.023437 0.02344,0.00879 0.03809,0.020508 0.04687,0.035156 0.0059,0.017578 0.01172,0.032227 0.01172,0.046875 z m 3.720703,1.6289063 c 0,0.1025391 -0.0293,0.1757812 -0.08203,0.2226562 -0.04687,0.041016 -0.10254,0.058594 -0.164063,0.058594 h -2.320312 c 0,0.1962891 0.01758,0.3720703 0.05859,0.5273437 0.03809,0.1582032 0.105469,0.29296879 0.199219,0.41015629 0.09375,0.11132812 0.210938,0.19628906 0.351563,0.2578125 0.146484,0.0556641 0.331054,0.0820313 0.550781,0.0820313 0.164062,0 0.310547,-0.0117188 0.445312,-0.0351563 0.131836,-0.0292969 0.246094,-0.0615234 0.339844,-0.09375 0.09375,-0.0292969 0.169922,-0.0585938 0.234375,-0.0820313 0.06152,-0.0292969 0.108398,-0.046875 0.140625,-0.046875 0.01465,0 0.0293,0.005859 0.04687,0.0117188 0.01465,0.008789 0.02637,0.0234375 0.03516,0.046875 0.0059,0.0175781 0.01172,0.0410156 0.01172,0.0703125 0.0059,0.0322266 0.01172,0.0703125 0.01172,0.1171875 0,0.0322266 -0.0059,0.0644531 -0.01172,0.09375 0,0.0234375 -0.0059,0.046875 -0.01172,0.0703125 0,0.0175781 -0.0059,0.0322266 -0.01172,0.046875 -0.0088,0.0175781 -0.02051,0.0322266 -0.03516,0.046875 -0.01758,0.0175781 -0.05859,0.0410156 -0.128906,0.0703125 -0.07031,0.0322266 -0.164062,0.06445312 -0.28125,0.09375 -0.111328,0.03222656 -0.240234,0.05859375 -0.386719,0.08203125 -0.149414,0.0234375 -0.304687,0.03515625 -0.46875,0.03515625 -0.290039,0 -0.544922,-0.04101563 -0.761718,-0.1171875 -0.219727,-0.07617188 -0.404297,-0.19335938 -0.550782,-0.3515625 -0.149414,-0.1640625 -0.263672,-0.36621094 -0.339843,-0.60937499 -0.0791,-0.2402344 -0.117188,-0.5214844 -0.117188,-0.84375 0,-0.3046875 0.03809,-0.5771484 0.117188,-0.8203125 0.07617,-0.2402344 0.190429,-0.4453125 0.339843,-0.609375 0.146485,-0.1699219 0.328125,-0.2988281 0.539063,-0.3867188 0.210937,-0.09375 0.445312,-0.140625 0.703125,-0.140625 0.272461,0 0.506836,0.046875 0.703125,0.140625 0.193359,0.087891 0.354492,0.2050782 0.480469,0.3515625 0.123046,0.1494141 0.213867,0.3251954 0.269531,0.5273438 0.06152,0.2050781 0.09375,0.421875 0.09375,0.65625 z m -0.644531,-0.1992188 c 0.0059,-0.3339843 -0.07031,-0.6005859 -0.234375,-0.796875 -0.158204,-0.1933593 -0.386719,-0.2929687 -0.691407,-0.2929687 -0.164062,0 -0.310547,0.032227 -0.433593,0.09375 -0.117188,0.064453 -0.219727,0.1464844 -0.304688,0.2460937 -0.0791,0.09375 -0.140625,0.2080079 -0.1875,0.3398438 -0.04102,0.1347656 -0.06445,0.2695312 -0.07031,0.4101562 z m 6.541992,-2.6015625 c 0,0.070312 -0.0088,0.1347657 -0.02344,0.1875 -0.0088,0.046875 -0.0293,0.087891 -0.05859,0.1171875 -0.02344,0.023437 -0.06445,0.043945 -0.117187,0.058594 -0.04687,0.017578 -0.111328,0.023437 -0.1875,0.023437 -0.0791,0 -0.146484,-0.00586 -0.199219,-0.023437 -0.04687,-0.014648 -0.08789,-0.035156 -0.117187,-0.058594 -0.03223,-0.029297 -0.05566,-0.070312 -0.07031,-0.1171875 -0.0088,-0.052734 -0.01172,-0.1171875 -0.01172,-0.1875 0,-0.076172 0.0029,-0.140625 0.01172,-0.1875 0.01465,-0.046875 0.03809,-0.084961 0.07031,-0.1171875 0.0293,-0.029297 0.07031,-0.049805 0.117187,-0.058594 0.05273,-0.014648 0.120117,-0.023437 0.199219,-0.023437 0.07617,0 0.140625,0.00879 0.1875,0.023437 0.05273,0.00879 0.09375,0.029297 0.117187,0.058594 0.0293,0.032227 0.0498,0.070312 0.05859,0.1171875 0.01465,0.046875 0.02344,0.1113282 0.02344,0.1875 z m -0.07031,4.72265629 c 0,0.01757812 -0.0059,0.03222656 -0.01172,0.046875 -0.0088,0.01757812 -0.0293,0.03222656 -0.05859,0.046875 -0.02344,0.00585937 -0.05859,0.01171875 -0.105469,0.01171875 -0.04102,0.0058594 -0.09082,0.01171875 -0.152344,0.01171875 -0.06445,0 -0.114258,-0.0058594 -0.152344,-0.01171875 -0.04102,0 -0.07617,-0.00585938 -0.105468,-0.01171875 -0.02344,-0.01464844 -0.04102,-0.02929688 -0.04687,-0.046875 -0.0088,-0.01464844 -0.01172,-0.02929688 -0.01172,-0.046875 V -3.2006641 h -1.59375 v 3.10546879 c 0,0.01757812 -0.0059,0.03222656 -0.01172,0.046875 -0.0088,0.01757812 -0.0293,0.03222656 -0.05859,0.046875 -0.02344,0.00585937 -0.05859,0.01171875 -0.105468,0.01171875 -0.04102,0.0058594 -0.09082,0.01171875 -0.152344,0.01171875 -0.06445,0 -0.114258,-0.0058594 -0.152344,-0.01171875 -0.04102,0 -0.07617,-0.00585938 -0.105469,-0.01171875 -0.02344,-0.01464844 -0.04102,-0.02929688 -0.04687,-0.046875 -0.0088,-0.01464844 -0.01172,-0.02929688 -0.01172,-0.046875 V -3.2006641 h -0.503907 c -0.04102,0 -0.07031,-0.017578 -0.09375,-0.058594 -0.02344,-0.038086 -0.03516,-0.1054688 -0.03516,-0.1992188 0,-0.052734 0.0029,-0.09668 0.01172,-0.1289062 0.0059,-0.038086 0.01465,-0.064453 0.02344,-0.082031 0.0059,-0.023437 0.01758,-0.038086 0.03516,-0.046875 0.01465,-0.014648 0.03516,-0.023437 0.05859,-0.023437 h 0.503907 v -0.375 c 0,-0.2402343 0.02344,-0.4482421 0.07031,-0.6210937 0.04687,-0.1787109 0.111328,-0.3222656 0.199219,-0.4335938 0.09375,-0.1171875 0.210937,-0.1992187 0.351562,-0.2460937 0.140625,-0.052734 0.295899,-0.082031 0.46875,-0.082031 0.06152,0 0.120118,0.00586 0.175782,0.011719 0.06152,0 0.117187,0.00879 0.164062,0.023437 0.04687,0.00879 0.08496,0.020508 0.117188,0.035156 0.03809,0.00879 0.06152,0.020508 0.07031,0.035156 0.01465,0.00879 0.02637,0.020508 0.03516,0.035156 0.0059,0.017578 0.01172,0.035156 0.01172,0.058594 0.0059,0.017578 0.01172,0.041016 0.01172,0.070312 0.0059,0.032227 0.01172,0.070312 0.01172,0.1171875 0,0.087891 -0.0088,0.1494141 -0.02344,0.1875 -0.0088,0.032227 -0.0293,0.046875 -0.05859,0.046875 -0.02344,0 -0.04687,-0.00293 -0.07031,-0.011719 -0.02344,-0.00586 -0.05273,-0.014648 -0.08203,-0.023437 -0.03223,-0.014648 -0.07617,-0.026367 -0.128907,-0.035156 -0.04687,-0.00586 -0.105468,-0.011719 -0.175781,-0.011719 -0.18164,0 -0.310547,0.067383 -0.386719,0.1992188 -0.0791,0.1347656 -0.117187,0.3457031 -0.117187,0.6328125 v 0.3867187 h 2.039062 c 0.07031,0 0.120118,0.020508 0.152344,0.058594 0.0293,0.032227 0.04687,0.082031 0.04687,0.1523437 z m 1.778321,0 c 0,0.01757812 -0.0088,0.03222656 -0.02344,0.046875 -0.0088,0.01757812 -0.02344,0.03222656 -0.04687,0.046875 -0.02344,0.00585937 -0.05859,0.01171875 -0.105469,0.01171875 -0.04102,0.0058594 -0.09082,0.01171875 -0.152343,0.01171875 -0.06445,0 -0.117188,-0.0058594 -0.164063,-0.01171875 -0.04102,0 -0.07031,-0.00585938 -0.09375,-0.01171875 -0.02344,-0.01464844 -0.04395,-0.02929688 -0.05859,-0.046875 -0.0088,-0.01464844 -0.01172,-0.02929688 -0.01172,-0.046875 V -5.3451953 c 0,-0.023437 0.0029,-0.041016 0.01172,-0.058594 0.01465,-0.014648 0.03516,-0.026367 0.05859,-0.035156 0.02344,-0.00586 0.05273,-0.014648 0.09375,-0.023437 0.04687,-0.00586 0.09961,-0.011719 0.164063,-0.011719 0.06152,0 0.111328,0.00586 0.152343,0.011719 0.04687,0.00879 0.08203,0.017578 0.105469,0.023437 0.02344,0.00879 0.03809,0.020508 0.04687,0.035156 0.01465,0.017578 0.02344,0.035156 0.02344,0.058594 z m 4.157226,-1.92187499 c 0,0.1025391 -0.0293,0.1757812 -0.08203,0.2226562 -0.04687,0.041016 -0.102539,0.058594 -0.164063,0.058594 h -2.320312 c 0,0.1962891 0.01758,0.3720703 0.05859,0.5273437 0.03809,0.1582032 0.105468,0.29296879 0.199218,0.41015629 0.09375,0.11132812 0.210938,0.19628906 0.351563,0.2578125 0.146484,0.0556641 0.331055,0.0820313 0.550781,0.0820313 0.164063,0 0.310547,-0.0117188 0.445313,-0.0351563 0.131836,-0.0292969 0.246093,-0.0615234 0.339843,-0.09375 0.09375,-0.0292969 0.169922,-0.0585938 0.234375,-0.0820313 0.06152,-0.0292969 0.108399,-0.046875 0.140625,-0.046875 0.01465,0 0.0293,0.005859 0.04687,0.0117188 0.01465,0.008789 0.02637,0.0234375 0.03516,0.046875 0.0059,0.0175781 0.01172,0.0410156 0.01172,0.0703125 0.0059,0.0322266 0.01172,0.0703125 0.01172,0.1171875 0,0.0322266 -0.0059,0.0644531 -0.01172,0.09375 0,0.0234375 -0.0059,0.046875 -0.01172,0.0703125 0,0.0175781 -0.0059,0.0322266 -0.01172,0.046875 -0.0088,0.0175781 -0.02051,0.0322266 -0.03516,0.046875 -0.01758,0.0175781 -0.05859,0.0410156 -0.128907,0.0703125 -0.07031,0.0322266 -0.164062,0.06445312 -0.28125,0.09375 -0.111328,0.03222656 -0.240234,0.05859375 -0.386718,0.08203125 -0.149414,0.0234375 -0.304688,0.03515625 -0.46875,0.03515625 -0.290039,0 -0.544922,-0.04101563 -0.761719,-0.1171875 -0.219727,-0.07617188 -0.404297,-0.19335938 -0.550781,-0.3515625 -0.149414,-0.1640625 -0.263672,-0.36621094 -0.339844,-0.60937499 -0.0791,-0.2402344 -0.117188,-0.5214844 -0.117188,-0.84375 0,-0.3046875 0.03809,-0.5771484 0.117188,-0.8203125 0.07617,-0.2402344 0.19043,-0.4453125 0.339844,-0.609375 0.146484,-0.1699219 0.328125,-0.2988281 0.539062,-0.3867188 0.210938,-0.09375 0.445313,-0.140625 0.703125,-0.140625 0.272461,0 0.506836,0.046875 0.703125,0.140625 0.193359,0.087891 0.354492,0.2050782 0.480469,0.3515625 0.123047,0.1494141 0.213867,0.3251954 0.269531,0.5273438 0.06152,0.2050781 0.09375,0.421875 0.09375,0.65625 z m -0.644531,-0.1992188 c 0.0059,-0.3339843 -0.07031,-0.6005859 -0.234375,-0.796875 -0.158203,-0.1933593 -0.386719,-0.2929687 -0.691406,-0.2929687 -0.164063,0 -0.310547,0.032227 -0.433594,0.09375 -0.117188,0.064453 -0.219727,0.1464844 -0.304688,0.2460937 -0.0791,0.09375 -0.140625,0.2080079 -0.1875,0.3398438 -0.04102,0.1347656 -0.06445,0.2695312 -0.07031,0.4101562 z M 29.59,-1.0561328 c 0,0.18164061 -0.03516,0.33984374 -0.105469,0.48046874 -0.07031,0.140625 -0.169922,0.26367187 -0.292968,0.36328125 -0.117188,0.09375 -0.263672,0.1640625 -0.433594,0.2109375 -0.172852,0.046875 -0.360352,0.0703125 -0.5625,0.0703125 -0.125977,0 -0.246094,-0.01171875 -0.363281,-0.03515625 -0.111329,-0.01757813 -0.210938,-0.03515625 -0.304688,-0.05859375 -0.08789,-0.02929688 -0.161133,-0.06152344 -0.222656,-0.09375 -0.06445,-0.0380859 -0.111328,-0.0703125 -0.140625,-0.09375 -0.03223,-0.0234375 -0.05566,-0.0585937 -0.07031,-0.10546875 -0.0088,-0.046875 -0.01172,-0.11132813 -0.01172,-0.19921875 0,-0.046875 0,-0.0849609 0,-0.1171875 0.0059,-0.0380859 0.01465,-0.0644531 0.02344,-0.0820313 0.0059,-0.0234375 0.01758,-0.0380859 0.03516,-0.046875 0.01465,-0.0146484 0.03516,-0.0234375 0.05859,-0.0234375 0.02344,0 0.06152,0.0205078 0.117188,0.0585938 0.06152,0.0322266 0.131835,0.0703125 0.210937,0.1171875 0.08496,0.0410156 0.181641,0.0791016 0.292969,0.1171875 0.117187,0.0322266 0.246094,0.046875 0.386719,0.046875 0.108398,0 0.205078,-0.0117188 0.292968,-0.0351563 0.09375,-0.0234375 0.169922,-0.0585938 0.234375,-0.10546875 0.07031,-0.046875 0.120117,-0.10546875 0.152344,-0.17578125 0.03809,-0.0703125 0.05859,-0.15234375 0.05859,-0.24609369 0,-0.099609 -0.0293,-0.1816406 -0.08203,-0.2460938 -0.04687,-0.070312 -0.114258,-0.1318359 -0.199219,-0.1875 -0.08789,-0.052734 -0.181641,-0.099609 -0.28125,-0.140625 -0.102539,-0.038086 -0.210938,-0.076172 -0.328125,-0.1171875 -0.111328,-0.046875 -0.219727,-0.09668 -0.328125,-0.1523437 -0.102539,-0.061523 -0.196289,-0.1318359 -0.28125,-0.2109376 -0.0791,-0.084961 -0.146485,-0.1816406 -0.199219,-0.2929688 -0.04687,-0.1083984 -0.07031,-0.2402343 -0.07031,-0.3984375 0,-0.140625 0.02344,-0.2724609 0.07031,-0.3984375 0.05273,-0.1318359 0.134766,-0.2460937 0.246094,-0.3398437 0.108398,-0.09375 0.240234,-0.1669922 0.398437,-0.2226563 0.164063,-0.061523 0.351563,-0.09375 0.5625,-0.09375 0.09375,0 0.1875,0.00879 0.28125,0.023437 0.09961,0.017578 0.1875,0.035156 0.257813,0.058594 0.07617,0.023437 0.143554,0.052734 0.199219,0.082031 0.05273,0.023437 0.09375,0.046875 0.117187,0.070312 0.0293,0.023437 0.0498,0.043945 0.05859,0.058594 0.0059,0.017578 0.01172,0.035156 0.01172,0.058594 0.0059,0.017578 0.01172,0.041016 0.01172,0.070312 0.0059,0.023437 0.01172,0.055664 0.01172,0.09375 0,0.046875 -0.0059,0.087891 -0.01172,0.1171875 0,0.032227 -0.0059,0.058594 -0.01172,0.082031 -0.0088,0.023437 -0.02051,0.041016 -0.03516,0.046875 -0.01758,0.00879 -0.03223,0.011719 -0.04687,0.011719 -0.02344,0 -0.05859,-0.011719 -0.105468,-0.035156 -0.04102,-0.029297 -0.09375,-0.061523 -0.164063,-0.09375 -0.07031,-0.038086 -0.158203,-0.070312 -0.257812,-0.09375 -0.09375,-0.029297 -0.199219,-0.046875 -0.316407,-0.046875 -0.111328,0 -0.208008,0.011719 -0.292968,0.035156 -0.08789,0.023437 -0.158204,0.058594 -0.210938,0.1054688 -0.05566,0.046875 -0.09961,0.1025391 -0.128906,0.1640625 -0.02344,0.064453 -0.03516,0.1347656 -0.03516,0.2109375 0,0.1025391 0.02637,0.1875 0.08203,0.2578125 0.05273,0.064453 0.120117,0.1230469 0.199219,0.1757812 0.08496,0.055664 0.18164,0.1025391 0.292968,0.140625 0.108399,0.041016 0.216797,0.082031 0.328125,0.1289063 0.108399,0.046875 0.216797,0.099609 0.328125,0.1523437 0.108399,0.055664 0.202149,0.1230469 0.28125,0.1992188 0.08496,0.079102 0.155274,0.1728516 0.210938,0.28125 0.05273,0.1113281 0.08203,0.2431641 0.08203,0.3984375 z m 1.87793,-2.0859375 c 0,0.087891 -0.0088,0.1582031 -0.02344,0.2109375 -0.0088,0.055664 -0.0293,0.1025391 -0.05859,0.140625 -0.03223,0.041016 -0.07617,0.067383 -0.128906,0.082031 -0.05566,0.00879 -0.123047,0.011719 -0.199219,0.011719 -0.08789,0 -0.158203,-0.00293 -0.210937,-0.011719 -0.04687,-0.014648 -0.08789,-0.041016 -0.117188,-0.082031 -0.03223,-0.038086 -0.05566,-0.084961 -0.07031,-0.140625 -0.0088,-0.052734 -0.01172,-0.1230469 -0.01172,-0.2109375 0,-0.084961 0.0029,-0.1552734 0.01172,-0.2109375 0.01465,-0.061523 0.03809,-0.1083984 0.07031,-0.140625 0.0293,-0.038086 0.07031,-0.064453 0.117188,-0.082031 0.05273,-0.014648 0.123047,-0.023437 0.210937,-0.023437 0.07617,0 0.143555,0.00879 0.199219,0.023437 0.05273,0.017578 0.09668,0.043945 0.128906,0.082031 0.0293,0.032227 0.0498,0.079102 0.05859,0.140625 0.01465,0.055664 0.02344,0.1259766 0.02344,0.2109375 z m 0,2.71874999 c 0,0.09375 -0.0088,0.16992187 -0.02344,0.22265625 -0.0088,0.0556641 -0.0293,0.10253906 -0.05859,0.140625 -0.03223,0.03222656 -0.07617,0.05566406 -0.128906,0.0703125 -0.05566,0.01464844 -0.123047,0.0234375 -0.199219,0.0234375 -0.08789,0 -0.158203,-0.0087891 -0.210937,-0.0234375 C 30.799968,-0.004375 30.758948,-0.0278125 30.72965,-0.06003906 30.69742,-0.098125 30.67399,-0.145 30.65934,-0.20066406 c -0.0088,-0.0527344 -0.01172,-0.12890625 -0.01172,-0.22265625 0,-0.0849609 0.0029,-0.15527344 0.01172,-0.2109375 0.01465,-0.0615234 0.03809,-0.10839844 0.07031,-0.140625 0.0293,-0.0292969 0.07031,-0.0527344 0.117188,-0.0703125 0.05273,-0.0146484 0.123047,-0.0234375 0.210937,-0.0234375 0.07617,0 0.143555,0.008789 0.199219,0.0234375 0.05273,0.0175781 0.09668,0.0410156 0.128906,0.0703125 0.0293,0.0322266 0.0498,0.0791016 0.05859,0.140625 0.01465,0.0556641 0.02344,0.12597656 0.02344,0.2109375 z m 0,0"
           style="fill:#000000;fill-opacity:1;fill-rule:nonzero;stroke:none"
           aria-label="  Save fles:"
           transform="matrix(1.3333333,0,0,1.3333333,284.54667,649.69333)"
           clip-path="url(#clipPath52)" />
      </g>
      <g
         id="g52"
         transform="translate(522.4,-605.96002)">
        <path
           id="path53"
           d="m 205.7,258.1 h 172.9 v 90.05 H 205.7 Z"
           style="fill:#ffffff;fill-opacity:1;fill-rule:evenodd;stroke:#172c51;stroke-width:1;stroke-linecap:butt;stroke-linejoin:miter;stroke-miterlimit:8;stroke-dasharray:none;stroke-opacity:1"
           transform="matrix(1.3333333,0,0,-1.3333333,0,1122.56)" />
      </g>
      <g
         id="g53"
         transform="translate(522.4,-605.96002)">
        <path
           id="path54"
           d="m 378.6,258.1 h 7.05 v 90.1 h -7.05 z"
           style="fill:#dae3f3;fill-opacity:1;fill-rule:evenodd;stroke:#172c51;stroke-width:1;stroke-linecap:butt;stroke-linejoin:miter;stroke-miterlimit:8;stroke-dasharray:none;stroke-opacity:1"
           transform="matrix(1.3333333,0,0,-1.3333333,0,1122.56)" />
      </g>
      <g
         id="g54"
         transform="translate(522.4,-605.96002)">
        <path
           id="path55"
           d="m 378.5,319.93 c 0,0.67 0.54,1.22 1.22,1.22 h 4.86 c 0.68,0 1.22,-0.55 1.22,-1.22 v -15.57 c 0,-0.67 -0.54,-1.21 -1.22,-1.21 h -4.86 c -0.68,0 -1.22,0.54 -1.22,1.21 z"
           style="fill:#4472c4;fill-opacity:1;fill-rule:evenodd;stroke:#172c51;stroke-width:1;stroke-linecap:butt;stroke-linejoin:miter;stroke-miterlimit:8;stroke-dasharray:none;stroke-opacity:1"
           transform="matrix(1.3333333,0,0,-1.3333333,0,1122.56)" />
      </g>
      <g
         id="g55"
         transform="translate(522.4,-605.96002)">
        <path
           id="path56"
           d="M 205.7,330.05 H 378.45"
           style="fill:none;stroke:#4472c4;stroke-width:0.5;stroke-linecap:butt;stroke-linejoin:miter;stroke-miterlimit:8;stroke-dasharray:none;stroke-opacity:1"
           transform="matrix(1.3333333,0,0,-1.3333333,0,1122.56)" />
      </g>
      <g
         id="g56"
         transform="translate(522.4,-605.96002)">
        <path
           id="path57"
           d="M 205.7,312.05 H 378.45"
           style="fill:none;stroke:#4472c4;stroke-width:0.5;stroke-linecap:butt;stroke-linejoin:miter;stroke-miterlimit:8;stroke-dasharray:none;stroke-opacity:1"
           transform="matrix(1.3333333,0,0,-1.3333333,0,1122.56)" />
      </g>
      <g
         id="g57"
         transform="translate(522.4,-605.96002)">
        <path
           id="path58"
           d="M 205.7,294.05 H 378.45"
           style="fill:none;stroke:#4472c4;stroke-width:0.5;stroke-linecap:butt;stroke-linejoin:miter;stroke-miterlimit:8;stroke-dasharray:none;stroke-opacity:1"
           transform="matrix(1.3333333,0,0,-1.3333333,0,1122.56)" />
      </g>
      <g
         id="g58"
         transform="translate(522.4,-605.96002)">
        <path
           id="path59"
           d="m 205.85,276.05 h 172.8"
           style="fill:none;stroke:#4472c4;stroke-width:0.5;stroke-linecap:butt;stroke-linejoin:miter;stroke-miterlimit:8;stroke-dasharray:none;stroke-opacity:1"
           transform="matrix(1.3333333,0,0,-1.3333333,0,1122.56)" />
      </g>
      <g
         id="g59"
         transform="translate(522.4,-605.96002)">
        <path
           id="path60"
           d="m 205.7,330.15 h 172.75 v 18 H 205.7 Z"
           style="fill:#ffffff;fill-opacity:1;fill-rule:evenodd;stroke:none"
           transform="matrix(1.3333333,0,0,-1.3333333,0,1122.56)" />
      </g>
      <g
         id="g60"
         transform="translate(522.4,-605.96002)">
        <path
           id="path61"
           d="m 4.5116406,-0.28269531 c 0,0.0556641 -0.00879,0.10253906 -0.023437,0.140625 -0.017578,0.0322266 -0.041016,0.05859375 -0.070312,0.08203125 -0.023437,0.0234375 -0.055664,0.04394531 -0.09375,0.05859375 -0.032227,0.00585937 -0.064453,0.01171875 -0.09375,0.01171875 H 4.0077344 c -0.064453,0 -0.1230469,-0.00878906 -0.1757813,-0.0234375 -0.046875,-0.01464844 -0.09375,-0.03808594 -0.140625,-0.0703125 -0.046875,-0.03808594 -0.09375,-0.08789063 -0.140625,-0.15234375 -0.046875,-0.0703125 -0.099609,-0.15527344 -0.1523437,-0.2578125 L 1.7928906,-3.3881641 C 1.7137891,-3.5346484 1.6317578,-3.6928516 1.5467969,-3.8569141 1.4589063,-4.0209766 1.3827344,-4.17625 1.3124219,-4.3256641 h -0.011719 c 0.00586,0.1875 0.011719,0.3808594 0.011719,0.5742188 0,0.1962891 0,0.3925781 0,0.5859375 v 3.05859374 c 0,0.0234375 -0.00586,0.04394531 -0.011719,0.05859375 -0.00879,0.01757812 -0.029297,0.02929687 -0.058594,0.03515625 -0.023437,0.00878906 -0.055664,0.01464844 -0.09375,0.0234375 -0.041016,0.0058594 -0.09082,0.01171875 -0.15234377,0.01171875 -0.0644531,0 -0.1171875,-0.0058594 -0.1640625,-0.01171875 -0.0410156,-0.00878906 -0.0703125,-0.01464844 -0.09375,-0.0234375 -0.0234375,-0.0058594 -0.0410156,-0.01757813 -0.046875,-0.03515625 -0.008789,-0.01464844 -0.0117188,-0.03515625 -0.0117188,-0.05859375 V -4.7944141 c 0,-0.099609 0.0263672,-0.1699218 0.0820313,-0.2109375 0.0527344,-0.046875 0.1171875,-0.070312 0.1875,-0.070312 H 1.2772656 c 0.070312,0 0.1289063,0.00879 0.1757813,0.023437 0.052734,0.00879 0.099609,0.029297 0.140625,0.058594 0.046875,0.032227 0.084961,0.076172 0.1171875,0.1289062 0.038086,0.046875 0.082031,0.1142579 0.1289062,0.1992188 l 1.2304688,2.2265625 c 0.076172,0.1347656 0.1523437,0.2666016 0.2226562,0.3984375 0.070312,0.1347656 0.1347657,0.2636719 0.1992188,0.3867187 0.070312,0.1259766 0.1347656,0.2519532 0.1992187,0.375 0.061524,0.1171875 0.1230469,0.2402344 0.1875,0.36328129 h 0.011719 c -0.00879,-0.21093749 -0.011719,-0.42480469 -0.011719,-0.64453129 0,-0.2255859 0,-0.4453125 0,-0.65625 v -2.7539062 c 0,-0.014648 0.00293,-0.029297 0.011719,-0.046875 0.00586,-0.014648 0.023437,-0.026367 0.046875,-0.035156 0.029297,-0.014648 0.064453,-0.023437 0.1054687,-0.023437 0.038086,-0.00586 0.087891,-0.011719 0.1523438,-0.011719 0.061523,0 0.1113281,0.00586 0.1523437,0.011719 0.038086,0 0.070312,0.00879 0.09375,0.023437 0.029297,0.00879 0.049805,0.020508 0.058594,0.035156 0.00586,0.017578 0.011719,0.032227 0.011719,0.046875 z M 8.7714063,-2.0170703 c 0,0.1025391 -0.029297,0.1757812 -0.082031,0.2226562 -0.046875,0.041016 -0.1025391,0.058594 -0.1640625,0.058594 H 6.205 c 0,0.1962891 0.017578,0.3720703 0.058594,0.5273437 0.038086,0.1582032 0.1054687,0.29296879 0.1992187,0.41015629 0.09375,0.11132812 0.2109375,0.19628906 0.3515625,0.2578125 0.1464844,0.0556641 0.3310547,0.0820313 0.5507813,0.0820313 0.1640625,0 0.3105468,-0.0117188 0.4453125,-0.0351563 0.1318359,-0.0292969 0.2460937,-0.0615234 0.3398437,-0.09375 0.09375,-0.0292969 0.1699219,-0.0585938 0.234375,-0.0820313 0.061523,-0.0292969 0.1083984,-0.046875 0.140625,-0.046875 0.014648,0 0.029297,0.005859 0.046875,0.0117188 0.014648,0.008789 0.026367,0.0234375 0.035156,0.046875 0.00586,0.0175781 0.011719,0.0410156 0.011719,0.0703125 0.00586,0.0322266 0.011719,0.0703125 0.011719,0.1171875 0,0.0322266 -0.00586,0.0644531 -0.011719,0.09375 0,0.0234375 -0.00586,0.046875 -0.011719,0.0703125 0,0.0175781 -0.00586,0.0322266 -0.011719,0.046875 -0.00879,0.0175781 -0.020508,0.0322266 -0.035156,0.046875 -0.017578,0.0175781 -0.058594,0.0410156 -0.1289063,0.0703125 -0.070312,0.0322266 -0.1640625,0.06445312 -0.28125,0.09375 -0.1113281,0.03222656 -0.2402344,0.05859375 -0.3867187,0.08203125 -0.1494141,0.0234375 -0.3046875,0.03515625 -0.46875,0.03515625 -0.2900391,0 -0.5449219,-0.04101563 -0.7617188,-0.1171875 C 6.3133984,-0.12449219 6.1288281,-0.24167969 5.9823438,-0.39988281 5.8329297,-0.56394531 5.7186719,-0.76609375 5.6425,-1.0092578 5.563398,-1.2494922 5.5253125,-1.5307422 5.5253125,-1.8530078 c 0,-0.3046875 0.038086,-0.5771484 0.1171875,-0.8203125 0.076172,-0.2402344 0.1904297,-0.4453125 0.3398438,-0.609375 0.1464843,-0.1699219 0.328125,-0.2988281 0.5390625,-0.3867188 0.2109375,-0.09375 0.4453125,-0.140625 0.703125,-0.140625 0.2724609,0 0.5068359,0.046875 0.703125,0.140625 0.1933593,0.087891 0.3544921,0.2050782 0.4804687,0.3515625 0.1230469,0.1494141 0.2138672,0.3251954 0.2695313,0.5273438 0.061523,0.2050781 0.09375,0.421875 0.09375,0.65625 z M 8.126875,-2.2162891 C 8.1327344,-2.5502734 8.0565625,-2.816875 7.8925,-3.0131641 7.7342969,-3.2065234 7.5057813,-3.3061328 7.2010938,-3.3061328 c -0.1640625,0 -0.3105469,0.032227 -0.4335938,0.09375 -0.1171875,0.064453 -0.2197266,0.1464844 -0.3046875,0.2460937 -0.079102,0.09375 -0.140625,0.2080079 -0.1875,0.3398438 -0.041016,0.1347656 -0.064453,0.2695312 -0.070312,0.4101562 z m 6.541992,-1.4296875 c 0,0.023437 -0.0059,0.052734 -0.01172,0.082031 0,0.023437 -0.0088,0.055664 -0.02344,0.09375 l -1.042969,3.35156249 c -0.0088,0.03222656 -0.02051,0.05566406 -0.03516,0.0703125 -0.01758,0.01757812 -0.04102,0.03222656 -0.07031,0.046875 -0.03223,0.00585937 -0.07617,0.01171875 -0.128906,0.01171875 -0.04687,0.0058594 -0.111328,0.01171875 -0.1875,0.01171875 -0.08789,0 -0.158203,-0.0058594 -0.210937,-0.01171875 -0.05566,0 -0.09961,-0.00585938 -0.128907,-0.01171875 -0.03223,-0.01464844 -0.05566,-0.02929688 -0.07031,-0.046875 -0.01758,-0.0234375 -0.0293,-0.046875 -0.03516,-0.0703125 l -0.738282,-2.56640629 -0.01172,-0.035156 -0.01172,0.035156 -0.679688,2.56640629 c -0.0088,0.03222656 -0.02344,0.05566406 -0.04687,0.0703125 -0.01758,0.01757812 -0.04394,0.03222656 -0.08203,0.046875 -0.03223,0.00585937 -0.07617,0.01171875 -0.128906,0.01171875 -0.04687,0.0058594 -0.111328,0.01171875 -0.1875,0.01171875 -0.08789,0 -0.158203,-0.0058594 -0.210938,-0.01171875 -0.04687,0 -0.08789,-0.00585938 -0.117187,-0.01171875 -0.03223,-0.01464844 -0.05566,-0.02929688 -0.07031,-0.046875 -0.01758,-0.0234375 -0.0293,-0.046875 -0.03516,-0.0703125 L 9.3719922,-3.4701953 c -0.017578,-0.038086 -0.029297,-0.070312 -0.035156,-0.09375 0,-0.029297 0,-0.058594 0,-0.082031 0,-0.023437 0.00293,-0.038086 0.011719,-0.046875 0.00586,-0.014648 0.023437,-0.026367 0.046875,-0.035156 0.029297,-0.014648 0.064453,-0.023437 0.1054687,-0.023437 0.046875,0 0.09668,0 0.1523438,0 0.076172,0 0.1347656,0.00586 0.1757812,0.011719 0.046875,0 0.082031,0.00586 0.1054688,0.011719 0.023437,0.00879 0.038086,0.020508 0.046875,0.035156 0.014648,0.017578 0.026367,0.035156 0.035156,0.058594 l 0.84375,2.91796874 0.01172,0.0351563 0.01172,-0.0351563 0.773437,-2.91796874 c 0.0059,-0.023437 0.01465,-0.041016 0.02344,-0.058594 0.01465,-0.014648 0.03516,-0.026367 0.05859,-0.035156 0.02344,-0.00586 0.05273,-0.011719 0.09375,-0.011719 0.03809,-0.00586 0.09375,-0.011719 0.164062,-0.011719 0.06152,0 0.111328,0.00586 0.152344,0.011719 0.03809,0 0.07031,0.00586 0.09375,0.011719 0.02344,0.00879 0.03809,0.020508 0.04687,0.035156 0.01465,0.017578 0.02637,0.035156 0.03516,0.058594 l 0.84375,2.91796874 v 0.0351563 l 0.01172,-0.0351563 0.832031,-2.91796874 c 0.0059,-0.023437 0.01465,-0.041016 0.02344,-0.058594 0.01465,-0.014648 0.03516,-0.026367 0.05859,-0.035156 0.02344,-0.00586 0.05274,-0.011719 0.09375,-0.011719 0.04687,-0.00586 0.105469,-0.011719 0.175782,-0.011719 0.06152,0 0.111328,0 0.152343,0 0.03809,0 0.07031,0.00879 0.09375,0.023437 0.02344,0.00879 0.03809,0.020508 0.04687,0.035156 0.0059,0.00879 0.01172,0.023437 0.01172,0.046875 z m 7.564453,0 c 0,0.023437 -0.0059,0.052734 -0.01172,0.082031 0,0.023437 -0.0088,0.055664 -0.02344,0.09375 l -1.042969,3.35156249 c -0.0088,0.03222656 -0.02051,0.05566406 -0.03516,0.0703125 -0.01758,0.01757812 -0.04102,0.03222656 -0.07031,0.046875 -0.03223,0.00585937 -0.07617,0.01171875 -0.128907,0.01171875 -0.04687,0.0058594 -0.111328,0.01171875 -0.1875,0.01171875 -0.08789,0 -0.158203,-0.0058594 -0.210937,-0.01171875 -0.05566,0 -0.09961,-0.00585938 -0.128906,-0.01171875 -0.03223,-0.01464844 -0.05566,-0.02929688 -0.07031,-0.046875 -0.01758,-0.0234375 -0.0293,-0.046875 -0.03516,-0.0703125 L 19.54972,-2.6850394 19.538,-2.7201954 l -0.01172,0.035156 -0.679687,2.56640629 c -0.0088,0.03222656 -0.02344,0.05566406 -0.04687,0.0703125 -0.01758,0.01757812 -0.04395,0.03222656 -0.08203,0.046875 -0.03223,0.00585937 -0.07617,0.01171875 -0.128906,0.01171875 -0.04687,0.0058594 -0.111328,0.01171875 -0.1875,0.01171875 -0.08789,0 -0.158203,-0.0058594 -0.210937,-0.01171875 -0.04687,0 -0.08789,-0.00585938 -0.117188,-0.01171875 -0.03223,-0.01464844 -0.05566,-0.02929688 -0.07031,-0.046875 -0.01758,-0.0234375 -0.0293,-0.046875 -0.03516,-0.0703125 l -1.03125,-3.35156249 c -0.01758,-0.038086 -0.0293,-0.070312 -0.03516,-0.09375 0,-0.029297 0,-0.058594 0,-0.082031 0,-0.023437 0.0029,-0.038086 0.01172,-0.046875 0.0059,-0.014648 0.02344,-0.026367 0.04687,-0.035156 0.0293,-0.014648 0.06445,-0.023437 0.105469,-0.023437 0.04687,0 0.09668,0 0.152343,0 0.07617,0 0.134766,0.00586 0.175782,0.011719 0.04687,0 0.08203,0.00586 0.105468,0.011719 0.02344,0.00879 0.03809,0.020508 0.04687,0.035156 0.01465,0.017578 0.02637,0.035156 0.03516,0.058594 l 0.84375,2.91796874 0.01172,0.0351563 0.01172,-0.0351563 0.773438,-2.91796874 c 0.0059,-0.023437 0.01465,-0.041016 0.02344,-0.058594 0.01465,-0.014648 0.03516,-0.026367 0.05859,-0.035156 0.02344,-0.00586 0.05273,-0.011719 0.09375,-0.011719 0.03809,-0.00586 0.09375,-0.011719 0.164062,-0.011719 0.06152,0 0.111328,0.00586 0.152344,0.011719 0.03809,0 0.07031,0.00586 0.09375,0.011719 0.02344,0.00879 0.03809,0.020508 0.04687,0.035156 0.01465,0.017578 0.02637,0.035156 0.03516,0.058594 l 0.84375,2.91796874 v 0.0351563 l 0.01172,-0.0351563 0.832031,-2.91796874 c 0.0059,-0.023437 0.01465,-0.041016 0.02344,-0.058594 0.01465,-0.014648 0.03516,-0.026367 0.05859,-0.035156 0.02344,-0.00586 0.05273,-0.011719 0.09375,-0.011719 0.04687,-0.00586 0.105468,-0.011719 0.175781,-0.011719 0.06152,0 0.111328,0 0.152344,0 0.03809,0 0.07031,0.00879 0.09375,0.023437 0.02344,0.00879 0.03809,0.020508 0.04687,0.035156 0.0059,0.00879 0.01172,0.023437 0.01172,0.046875 z m 3.984375,1.7460938 c 0,0.28125 -0.04101,0.5449219 -0.117187,0.7851562 -0.0791,0.2431641 -0.19336,0.4541016 -0.339844,0.63281254 -0.149414,0.17285156 -0.336914,0.31054687 -0.5625,0.41015625 -0.228516,0.09375 -0.489258,0.140625 -0.785156,0.140625 -0.298828,0 -0.556641,-0.04394531 -0.773438,-0.12890625 -0.210937,-0.08496094 -0.392578,-0.2109375 -0.539062,-0.375 -0.140625,-0.1640625 -0.246094,-0.36328125 -0.316406,-0.59765624 -0.07031,-0.234375 -0.105469,-0.4980469 -0.105469,-0.796875 0,-0.2871094 0.03516,-0.5537109 0.105469,-0.796875 0.07617,-0.2402344 0.190429,-0.4482422 0.339843,-0.6210938 0.155274,-0.1787109 0.342774,-0.3164062 0.5625,-0.4101562 0.225586,-0.099609 0.492188,-0.1523438 0.796875,-0.1523438 0.28711,0 0.539063,0.043945 0.75,0.1289063 0.216797,0.087891 0.398438,0.2109375 0.539063,0.375 0.146484,0.1640625 0.257812,0.3691406 0.328125,0.609375 0.07617,0.234375 0.117187,0.5009766 0.117187,0.796875 z m -0.691406,0.035156 c 0,-0.1875 -0.02051,-0.3662109 -0.05859,-0.5390625 -0.03223,-0.1699218 -0.08789,-0.3193359 -0.164062,-0.4453125 -0.0791,-0.1318359 -0.1875,-0.234375 -0.328125,-0.3046875 -0.140625,-0.076172 -0.313477,-0.1171875 -0.515625,-0.1171875 -0.196289,0 -0.363281,0.035156 -0.503906,0.1054688 -0.134766,0.070312 -0.246094,0.1699219 -0.339844,0.2929687 -0.08789,0.1259766 -0.152344,0.2753907 -0.199219,0.4453125 -0.04102,0.1640625 -0.05859,0.3486329 -0.05859,0.5507813 0,0.1962891 0.01465,0.3808594 0.04687,0.5507812 0.03809,0.1640625 0.09668,0.3134766 0.175782,0.44531254 0.08496,0.12597656 0.199218,0.22851562 0.339843,0.3046875 0.140625,0.0703125 0.310547,0.10546875 0.515625,0.10546875 0.1875,0 0.351563,-0.0351563 0.492188,-0.10546875 0.140625,-0.0703125 0.251953,-0.1640625 0.339844,-0.28125 0.09375,-0.12304688 0.158203,-0.27246094 0.199218,-0.44531254 0.03809,-0.1699218 0.05859,-0.3574218 0.05859,-0.5625 z m 3.65918,-1.5351562 c 0,0.055664 0,0.1025391 0,0.140625 0,0.041016 -0.0059,0.070312 -0.01172,0.09375 -0.0088,0.023437 -0.02051,0.043945 -0.03516,0.058594 -0.0088,0.00879 -0.02344,0.011719 -0.04687,0.011719 -0.02344,0 -0.05274,-0.00293 -0.08203,-0.011719 -0.02344,-0.014648 -0.05567,-0.026367 -0.09375,-0.035156 -0.04102,-0.014648 -0.08203,-0.026367 -0.128907,-0.035156 -0.04687,-0.014648 -0.09961,-0.023437 -0.152343,-0.023437 -0.06445,0 -0.128907,0.017578 -0.199219,0.046875 -0.06445,0.023437 -0.128906,0.067383 -0.199219,0.1289063 -0.06445,0.055664 -0.134766,0.1347656 -0.210937,0.234375 -0.0791,0.1025391 -0.161133,0.2226562 -0.246094,0.3632812 v 2.33203129 c 0,0.01757812 -0.0088,0.03222656 -0.02344,0.046875 -0.0088,0.01757812 -0.02344,0.03222656 -0.04687,0.046875 -0.02344,0.00585937 -0.05859,0.01171875 -0.105468,0.01171875 -0.04102,0.0058594 -0.09082,0.01171875 -0.152344,0.01171875 -0.06445,0 -0.117188,-0.0058594 -0.164063,-0.01171875 -0.04101,0 -0.07031,-0.00585938 -0.09375,-0.01171875 -0.02344,-0.01464844 -0.04394,-0.02929688 -0.05859,-0.046875 -0.0088,-0.01464844 -0.01172,-0.02929688 -0.01172,-0.046875 V -3.6342578 c 0,-0.023437 0.0029,-0.038086 0.01172,-0.046875 0.0059,-0.014648 0.02344,-0.026367 0.04687,-0.035156 0.02344,-0.014648 0.05273,-0.023437 0.09375,-0.023437 0.03808,-0.00586 0.08496,-0.011719 0.140625,-0.011719 0.06152,0 0.108398,0.00586 0.140625,0.011719 0.03808,0 0.07031,0.00879 0.09375,0.023437 0.02344,0.00879 0.03808,0.020508 0.04687,0.035156 0.0059,0.00879 0.01172,0.023437 0.01172,0.046875 v 0.515625 c 0.09961,-0.140625 0.19043,-0.2519531 0.269532,-0.3398438 0.08496,-0.09375 0.166992,-0.1640625 0.246093,-0.2109375 0.07617,-0.052734 0.152344,-0.087891 0.222657,-0.1054687 0.07617,-0.023437 0.155273,-0.035156 0.234375,-0.035156 0.0293,0 0.06445,0.00586 0.105468,0.011719 0.04687,0 0.09375,0.00879 0.140625,0.023437 0.04687,0.00879 0.08789,0.020508 0.128907,0.035156 0.03808,0.00879 0.06445,0.020508 0.08203,0.035156 0.01465,0.00879 0.02344,0.020508 0.02344,0.035156 0.0059,0.00879 0.01172,0.023437 0.01172,0.046875 0.0059,0.017578 0.01172,0.043945 0.01172,0.082031 0,0.032227 0,0.079102 0,0.140625 z m 1.350586,3.30468749 c 0,0.01757812 -0.0088,0.03222656 -0.02344,0.046875 -0.0088,0.01757812 -0.02344,0.03222656 -0.04687,0.046875 -0.02344,0.00585937 -0.05859,0.01171875 -0.105469,0.01171875 -0.04101,0.0058594 -0.09082,0.01171875 -0.152343,0.01171875 -0.06445,0 -0.117188,-0.0058594 -0.164063,-0.01171875 -0.04101,0 -0.07031,-0.00585938 -0.09375,-0.01171875 -0.02344,-0.01464844 -0.04394,-0.02929688 -0.05859,-0.046875 -0.0088,-0.01464844 -0.01172,-0.02929688 -0.01172,-0.046875 V -5.3451953 c 0,-0.023437 0.0029,-0.041016 0.01172,-0.058594 0.01465,-0.014648 0.03516,-0.026367 0.05859,-0.035156 0.02344,-0.00586 0.05274,-0.014648 0.09375,-0.023437 0.04687,-0.00586 0.09961,-0.011719 0.164063,-0.011719 0.06152,0 0.111328,0.00586 0.152343,0.011719 0.04687,0.00879 0.08203,0.017578 0.105469,0.023437 0.02344,0.00879 0.03809,0.020508 0.04687,0.035156 0.01465,0.017578 0.02344,0.035156 0.02344,0.058594 z m 4.180664,0 c 0,0.01757812 -0.0088,0.03222656 -0.02344,0.046875 -0.0088,0.01757812 -0.02344,0.03222656 -0.04687,0.046875 -0.02344,0.00585937 -0.05566,0.01171875 -0.09375,0.01171875 -0.03223,0.0058594 -0.07617,0.01171875 -0.128906,0.01171875 -0.05566,0 -0.102539,-0.0058594 -0.140625,-0.01171875 -0.03223,0 -0.05859,-0.00585938 -0.08203,-0.01171875 -0.02344,-0.01464844 -0.04395,-0.02929688 -0.05859,-0.046875 -0.0088,-0.01464844 -0.01172,-0.02929688 -0.01172,-0.046875 v -0.46875 c -0.1875,0.20507812 -0.383789,0.36035156 -0.585937,0.46875 -0.196289,0.10839844 -0.410156,0.1640625 -0.644531,0.1640625 -0.257813,0 -0.480469,-0.046875 -0.667969,-0.140625 -0.181641,-0.09960938 -0.328125,-0.23730469 -0.445313,-0.41015625 -0.111328,-0.16992188 -0.193359,-0.375 -0.246093,-0.60937504 -0.05567,-0.234375 -0.08203,-0.4746093 -0.08203,-0.7265625 0,-0.3046875 0.0293,-0.5771484 0.09375,-0.8203125 0.07031,-0.2490234 0.166992,-0.4599609 0.292969,-0.6328125 0.131836,-0.1699218 0.292969,-0.3046875 0.480469,-0.3984375 0.1875,-0.09375 0.404297,-0.140625 0.65625,-0.140625 0.210937,0 0.398437,0.046875 0.5625,0.140625 0.169922,0.087891 0.342773,0.2197266 0.515625,0.3984375 v -2.0625 c 0,-0.014648 0.0029,-0.029297 0.01172,-0.046875 0.0059,-0.014648 0.02344,-0.026367 0.04687,-0.035156 0.0293,-0.014648 0.06445,-0.023437 0.105468,-0.023437 0.03809,-0.00586 0.08789,-0.011719 0.152344,-0.011719 0.07031,0 0.123047,0.00586 0.164063,0.011719 0.03809,0 0.07031,0.00879 0.09375,0.023437 0.02344,0.00879 0.04102,0.020508 0.05859,0.035156 0.01465,0.017578 0.02344,0.032227 0.02344,0.046875 z m -0.65625,-2.48437499 c -0.181641,-0.2167969 -0.351563,-0.3808594 -0.515625,-0.4921875 -0.158203,-0.1171875 -0.325196,-0.1757813 -0.503906,-0.1757813 -0.164063,0 -0.304688,0.041016 -0.421875,0.1171875 -0.117188,0.079102 -0.210938,0.1845704 -0.28125,0.3164063 -0.07031,0.1259766 -0.125977,0.2695312 -0.164063,0.4335937 -0.03223,0.1582032 -0.04687,0.3222657 -0.04687,0.4921875 0,0.1728516 0.01172,0.3457032 0.03516,0.515625 0.0293,0.1728516 0.08203,0.3251954 0.152344,0.45703129 0.07031,0.13476562 0.158203,0.24023437 0.269531,0.31640625 0.117188,0.0791016 0.257813,0.1171875 0.421875,0.1171875 0.09375,0 0.178711,-0.0117188 0.257813,-0.0351563 0.07617,-0.0234375 0.155273,-0.0615234 0.234375,-0.1171875 0.08496,-0.0527344 0.175781,-0.12304688 0.269531,-0.2109375 0.09375,-0.0849609 0.19043,-0.19335944 0.292969,-0.32812504 z m 4.886719,2.30859374 c 0,0.0556641 -0.0088,0.0996094 -0.02344,0.12890625 -0.0088,0.0322266 -0.02051,0.05859375 -0.03516,0.08203125 -0.0088,0.0234375 -0.02051,0.04101562 -0.03516,0.046875 -0.01758,0.00878906 -0.03516,0.01171875 -0.05859,0.01171875 H 36.1464 c -0.01758,0 -0.03223,-0.00292969 -0.04687,-0.01171875 -0.01758,-0.0058594 -0.03223,-0.0234375 -0.04687,-0.046875 -0.01758,-0.0234375 -0.0293,-0.04980469 -0.03516,-0.08203125 -0.0088,-0.0292969 -0.01172,-0.0732422 -0.01172,-0.12890625 0,-0.046875 0.0029,-0.0849609 0.01172,-0.1171875 0.0059,-0.0380859 0.01465,-0.0644531 0.02344,-0.0820313 0.01465,-0.0234375 0.0293,-0.0380859 0.04687,-0.046875 0.01465,-0.0146484 0.03516,-0.0234375 0.05859,-0.0234375 h 1.054688 V -4.4076953 l -0.972656,0.5859375 c -0.05566,0.023437 -0.09961,0.041016 -0.128907,0.046875 -0.02344,0.00879 -0.04687,0.00586 -0.07031,-0.011719 -0.01758,-0.023437 -0.0293,-0.052734 -0.03516,-0.09375 -0.0088,-0.038086 -0.01172,-0.084961 -0.01172,-0.140625 0,-0.046875 0,-0.084961 0,-0.1171875 0.0059,-0.029297 0.01465,-0.052734 0.02344,-0.070312 0.0059,-0.023437 0.01758,-0.041016 0.03516,-0.058594 0.01465,-0.014648 0.03516,-0.029297 0.05859,-0.046875 l 1.171875,-0.75 c 0.0059,-0.00586 0.01758,-0.014648 0.03516,-0.023437 0.01465,-0.00586 0.03516,-0.011719 0.05859,-0.011719 0.02344,-0.00586 0.0498,-0.011719 0.08203,-0.011719 0.0293,0 0.07031,0 0.117187,0 0.06152,0 0.111328,0.00586 0.152344,0.011719 0.04687,0 0.08203,0.00586 0.105469,0.011719 0.02344,0.00879 0.03809,0.020508 0.04687,0.035156 0.0059,0.017578 0.01172,0.032227 0.01172,0.046875 v 4.46484379 h 0.914063 c 0.02344,0 0.04102,0.008789 0.05859,0.0234375 0.02344,0.008789 0.03809,0.0234375 0.04687,0.046875 0.01465,0.0175781 0.02637,0.0439453 0.03516,0.0820313 0.0059,0.0322266 0.01172,0.0703125 0.01172,0.1171875 z m 0,0"
           style="fill:#000000;fill-opacity:1;fill-rule:nonzero;stroke:none"
           aria-label=" New world1 "
           transform="matrix(1.3333333,0,0,1.3333333,284.22667,673.69333)"
           clip-path="url(#clipPath62)" />
        <path
           id="path63"
           d="m 4.0303516,-2.2280078 c 0,0.1025391 -0.017578,0.1757812 -0.046875,0.2226562 -0.023437,0.046875 -0.058594,0.070312 -0.1054688,0.070312 H 0.10457031 c -0.046875,0 -0.08203125,-0.023437 -0.1054687475,-0.070312 C -0.02433594,-2.0522266 -0.03605469,-2.1254687 -0.03605469,-2.2280078 c 0,-0.09375 0.01171875,-0.1640625 0.0351562525,-0.2109375 C 0.02253906,-2.4858203 0.05769531,-2.5092578 0.10457031,-2.5092578 H 3.8780078 c 0.023437,0 0.041016,0.00879 0.058594,0.023437 0.023437,0.00879 0.038086,0.023437 0.046875,0.046875 0.014648,0.023437 0.026367,0.055664 0.035156,0.09375 0.00586,0.032227 0.011719,0.070312 0.011719,0.117188 z m 0,0"
           style="fill:#000000;fill-opacity:1;fill-rule:nonzero;stroke:none"
           aria-label=""
           transform="matrix(1.3333333,0,0,1.3333333,339.10667,673.69333)"
           clip-path="url(#clipPath64)" />
        <path
           id="path65"
           d="m 3.6433984,-0.27097656 c 0,0.0556641 -0.00879,0.0996094 -0.023437,0.12890625 -0.00879,0.0322266 -0.020508,0.05859375 -0.035156,0.08203125 -0.00879,0.0234375 -0.020508,0.04101562 -0.035156,0.046875 -0.017578,0.00878906 -0.035156,0.01171875 -0.058594,0.01171875 H 0.84261719 c -0.0175781,0 -0.0322266,-0.00292969 -0.046875,-0.01171875 -0.0175781,-0.0058594 -0.0322266,-0.0234375 -0.046875,-0.046875 -0.0175781,-0.0234375 -0.0292969,-0.04980469 -0.0351563,-0.08203125 -0.008789,-0.0292969 -0.0117188,-0.0732422 -0.0117188,-0.12890625 0,-0.046875 0.00293,-0.0849609 0.0117188,-0.1171875 0.005859,-0.0380859 0.0146484,-0.0644531 0.0234375,-0.0820313 0.0146484,-0.0234375 0.0292969,-0.0380859 0.046875,-0.046875 0.0146484,-0.0146484 0.0351563,-0.0234375 0.0585938,-0.0234375 H 1.8973047 V -4.4076953 l -0.97265626,0.5859375 c -0.0556641,0.023437 -0.0996094,0.041016 -0.12890625,0.046875 -0.0234375,0.00879 -0.046875,0.00586 -0.0703125,-0.011719 -0.0175781,-0.023437 -0.0292969,-0.052734 -0.0351563,-0.09375 -0.008789,-0.038086 -0.0117188,-0.084961 -0.0117188,-0.140625 0,-0.046875 0,-0.084961 0,-0.1171875 0.005859,-0.029297 0.0146484,-0.052734 0.0234375,-0.070312 0.005859,-0.023437 0.0175781,-0.041016 0.0351563,-0.058594 0.0146484,-0.014648 0.0351563,-0.029297 0.0585938,-0.046875 l 1.17187501,-0.75 c 0.00586,-0.00586 0.017578,-0.014648 0.035156,-0.023437 0.014648,-0.00586 0.035156,-0.011719 0.058594,-0.011719 0.023437,-0.00586 0.049805,-0.011719 0.082031,-0.011719 0.029297,0 0.070312,0 0.1171875,0 0.061523,0 0.1113282,0.00586 0.1523438,0.011719 0.046875,0 0.082031,0.00586 0.1054687,0.011719 0.023437,0.00879 0.038086,0.020508 0.046875,0.035156 0.00586,0.017578 0.011719,0.032227 0.011719,0.046875 v 4.46484379 h 0.9140625 c 0.023437,0 0.041016,0.008789 0.058594,0.0234375 0.023437,0.008789 0.038086,0.0234375 0.046875,0.046875 0.014648,0.0175781 0.026367,0.0439453 0.035156,0.0820313 0.00586,0.0322266 0.011719,0.0703125 0.011719,0.11718715 z m 1.875,-0.1640625 c 0,0.1875 -0.032226,0.31347656 -0.09375,0.375 -0.064453,0.06152344 -0.1757812,0.09375 -0.3398437,0.09375 -0.1582031,0 -0.2666016,-0.02929688 -0.328125,-0.08203125 -0.055664,-0.06152344 -0.082031,-0.1875 -0.082031,-0.375 0,-0.17871094 0.026367,-0.29882813 0.082031,-0.36328125 0.061523,-0.0615234 0.1757812,-0.09375 0.3398437,-0.09375 0.1552735,0 0.2636719,0.0322266 0.328125,0.09375 0.061524,0.0556641 0.09375,0.17285156 0.09375,0.3515625 z M 10.744961,-1.0561328 c 0,0.18164061 -0.03516,0.33984374 -0.105469,0.48046874 -0.07031,0.140625 -0.169922,0.26367187 -0.292969,0.36328125 -0.117187,0.09375 -0.263671,0.1640625 -0.4335933,0.2109375 -0.1728516,0.046875 -0.3603516,0.0703125 -0.5625,0.0703125 -0.1259766,0 -0.2460938,-0.01171875 -0.3632813,-0.03515625 -0.1113281,-0.01757813 -0.2109375,-0.03515625 -0.3046875,-0.05859375 -0.087891,-0.02929688 -0.1611328,-0.06152344 -0.2226562,-0.09375 -0.064453,-0.0380859 -0.1113281,-0.0703125 -0.140625,-0.09375 -0.032227,-0.0234375 -0.055664,-0.0585937 -0.070312,-0.10546875 -0.00879,-0.046875 -0.011719,-0.11132813 -0.011719,-0.19921875 0,-0.046875 0,-0.0849609 0,-0.1171875 0.00586,-0.0380859 0.014648,-0.0644531 0.023437,-0.0820313 0.00586,-0.0234375 0.017578,-0.0380859 0.035156,-0.046875 0.014648,-0.0146484 0.035156,-0.0234375 0.058594,-0.0234375 0.023437,0 0.061523,0.0205078 0.1171875,0.0585938 0.061523,0.0322266 0.131836,0.0703125 0.2109375,0.1171875 0.084961,0.0410156 0.1816407,0.0791016 0.2929688,0.1171875 0.1171875,0.0322266 0.2460937,0.046875 0.3867187,0.046875 0.1083985,0 0.2050782,-0.0117188 0.2929688,-0.0351563 0.09375,-0.0234375 0.1699219,-0.0585938 0.234375,-0.10546875 0.070312,-0.046875 0.120117,-0.10546875 0.152344,-0.17578125 0.03809,-0.0703125 0.05859,-0.15234375 0.05859,-0.24609369 0,-0.099609 -0.0293,-0.1816406 -0.08203,-0.2460938 -0.046875,-0.070312 -0.1142576,-0.1318359 -0.1992185,-0.1875 -0.087891,-0.052734 -0.1816406,-0.099609 -0.28125,-0.140625 -0.1025391,-0.038086 -0.2109375,-0.076172 -0.328125,-0.1171875 -0.1113281,-0.046875 -0.2197266,-0.09668 -0.328125,-0.1523437 -0.1025391,-0.061523 -0.1962891,-0.1318359 -0.28125,-0.2109376 -0.079102,-0.084961 -0.1464844,-0.1816406 -0.1992188,-0.2929688 -0.046875,-0.1083984 -0.070312,-0.2402343 -0.070312,-0.3984375 0,-0.140625 0.023437,-0.2724609 0.070312,-0.3984375 0.052734,-0.1318359 0.1347657,-0.2460937 0.2460938,-0.3398437 0.1083984,-0.09375 0.2402344,-0.1669922 0.3984375,-0.2226563 0.1640625,-0.061523 0.3515625,-0.09375 0.5625,-0.09375 0.09375,0 0.1875,0.00879 0.28125,0.023437 0.099609,0.017578 0.1875,0.035156 0.257813,0.058594 0.07617,0.023437 0.143554,0.052734 0.199218,0.082031 0.05274,0.023437 0.09375,0.046875 0.117188,0.070312 0.0293,0.023437 0.0498,0.043945 0.05859,0.058594 0.0059,0.017578 0.01172,0.035156 0.01172,0.058594 0.0059,0.017578 0.01172,0.041016 0.01172,0.070312 0.0059,0.023437 0.01172,0.055664 0.01172,0.09375 0,0.046875 -0.0059,0.087891 -0.01172,0.1171875 0,0.032227 -0.0059,0.058594 -0.01172,0.082031 -0.0088,0.023437 -0.02051,0.041016 -0.03516,0.046875 -0.01758,0.00879 -0.03223,0.011719 -0.04687,0.011719 -0.02344,0 -0.05859,-0.011719 -0.105469,-0.035156 -0.04101,-0.029297 -0.09375,-0.061523 -0.164062,-0.09375 -0.07031,-0.038086 -0.158203,-0.070312 -0.2578128,-0.09375 -0.09375,-0.029297 -0.1992187,-0.046875 -0.3164062,-0.046875 -0.1113281,0 -0.2080078,0.011719 -0.2929688,0.035156 -0.087891,0.023437 -0.1582031,0.058594 -0.2109375,0.1054688 -0.055664,0.046875 -0.099609,0.1025391 -0.1289062,0.1640625 -0.023437,0.064453 -0.035156,0.1347656 -0.035156,0.2109375 0,0.1025391 0.026367,0.1875 0.082031,0.2578125 0.052734,0.064453 0.1201172,0.1230469 0.1992187,0.1757812 0.084961,0.055664 0.1816407,0.1025391 0.2929688,0.140625 0.1083984,0.041016 0.2167969,0.082031 0.328125,0.1289063 0.1083984,0.046875 0.216797,0.099609 0.328125,0.1523437 0.108399,0.055664 0.202149,0.1230469 0.28125,0.1992188 0.08496,0.079102 0.155274,0.1728516 0.210938,0.28125 0.05273,0.1113281 0.08203,0.2431641 0.08203,0.3984375 z m 3.577148,0.96093749 c 0,0.03222656 -0.01172,0.05566406 -0.03516,0.0703125 -0.01758,0.01757812 -0.04395,0.02636719 -0.08203,0.03515625 -0.03223,0.0058594 -0.08203,0.01171875 -0.152344,0.01171875 -0.07031,0 -0.128906,-0.0058594 -0.175781,-0.01171875 -0.04102,-0.00878906 -0.06738,-0.01757813 -0.08203,-0.03515625 -0.01758,-0.01464844 -0.02344,-0.03808594 -0.02344,-0.0703125 v -0.3515625 c -0.158203,0.1640625 -0.333984,0.29296875 -0.527344,0.38671875 -0.1875,0.08496094 -0.386718,0.12890625 -0.597656,0.12890625 -0.18164,0 -0.348633,-0.0234375 -0.503906,-0.0703125 -0.149414,-0.046875 -0.27832,-0.11132813 -0.386719,-0.19921875 -0.102539,-0.09375 -0.18457,-0.20507813 -0.246094,-0.33984375 -0.05566,-0.140625 -0.08203,-0.29296875 -0.08203,-0.45703125 0,-0.20214844 0.03809,-0.37500004 0.117188,-0.51562504 0.08496,-0.1464843 0.202148,-0.2695312 0.351562,-0.3632812 0.146485,-0.099609 0.331055,-0.1757813 0.550781,-0.2226563 0.225586,-0.052734 0.47461,-0.082031 0.75,-0.082031 h 0.480469 v -0.2695313 c 0,-0.1318359 -0.01758,-0.2490234 -0.04687,-0.3515625 -0.02344,-0.1083984 -0.06738,-0.1992187 -0.128906,-0.2695312 -0.06445,-0.070312 -0.146484,-0.1201172 -0.246094,-0.1523438 -0.102539,-0.038086 -0.231445,-0.058594 -0.386719,-0.058594 -0.158203,0 -0.301757,0.020508 -0.433593,0.058594 -0.125977,0.041016 -0.234375,0.082031 -0.328125,0.1289063 -0.09375,0.041016 -0.172852,0.079102 -0.234375,0.1171875 -0.06445,0.041016 -0.111328,0.058594 -0.140625,0.058594 -0.02344,0 -0.04395,-0.00293 -0.05859,-0.011719 -0.01758,-0.014648 -0.03223,-0.029297 -0.04687,-0.046875 -0.0088,-0.023437 -0.01758,-0.049805 -0.02344,-0.082031 0,-0.029297 0,-0.064453 0,-0.1054687 0,-0.070312 0.0029,-0.1201172 0.01172,-0.1523438 0.0059,-0.038086 0.02637,-0.073242 0.05859,-0.1054687 0.03809,-0.038086 0.09961,-0.082031 0.1875,-0.1289063 0.08496,-0.046875 0.181641,-0.087891 0.292969,-0.1289062 0.117187,-0.038086 0.240234,-0.070312 0.375,-0.09375 0.131836,-0.023437 0.263672,-0.035156 0.398437,-0.035156 0.257813,0 0.47168,0.032227 0.644531,0.09375 0.178711,0.055664 0.322266,0.1376954 0.433594,0.2460938 0.117188,0.1113281 0.199219,0.2519531 0.246094,0.421875 0.04687,0.1640625 0.07031,0.3574219 0.07031,0.5742187 z M 13.677578,-1.7123828 h -0.550781 c -0.181641,0 -0.336914,0.017578 -0.46875,0.046875 -0.125977,0.032227 -0.231445,0.079102 -0.316406,0.140625 -0.08789,0.055664 -0.152344,0.1259766 -0.199219,0.2109375 -0.04102,0.079102 -0.05859,0.1728516 -0.05859,0.28125 0,0.18164061 0.05859,0.3251953 0.175781,0.43359374 0.117188,0.11132812 0.28125,0.1640625 0.492188,0.1640625 0.169922,0 0.328125,-0.0410156 0.46875,-0.12890625 0.146484,-0.0849609 0.298828,-0.21679688 0.457031,-0.3984375 z m 4.576172,-1.9335938 c 0,0.017578 0,0.032227 0,0.046875 0,0.00879 -0.0059,0.020508 -0.01172,0.035156 0,0.00879 -0.0059,0.020508 -0.01172,0.035156 0,0.017578 0,0.035156 0,0.058594 l -1.207032,3.35156249 c -0.0088,0.03222656 -0.02344,0.05566406 -0.04687,0.0703125 -0.01758,0.01757812 -0.04102,0.03222656 -0.07031,0.046875 -0.03223,0.00585937 -0.07617,0.01171875 -0.128906,0.01171875 -0.05566,0.0058594 -0.123047,0.01171875 -0.199219,0.01171875 -0.0791,0 -0.146485,-0.0058594 -0.199219,-0.01171875 -0.04687,0 -0.09082,-0.00585938 -0.128906,-0.01171875 -0.03223,-0.01464844 -0.05566,-0.02929688 -0.07031,-0.046875 -0.01758,-0.0234375 -0.03223,-0.046875 -0.04687,-0.0703125 L 14.937344,-3.4701953 c -0.01758,-0.029297 -0.0293,-0.058594 -0.03516,-0.082031 0,-0.023437 -0.0059,-0.041016 -0.01172,-0.058594 0,-0.014648 0,-0.026367 0,-0.035156 0,-0.014648 0.0029,-0.029297 0.01172,-0.046875 0.01465,-0.014648 0.03516,-0.026367 0.05859,-0.035156 0.02344,-0.014648 0.05273,-0.023437 0.09375,-0.023437 0.04687,0 0.09961,0 0.164063,0 0.07031,0 0.128906,0.00586 0.175781,0.011719 0.04687,0 0.08203,0.00586 0.105469,0.011719 0.02344,0.00879 0.03809,0.020508 0.04687,0.035156 0.01465,0.017578 0.0293,0.035156 0.04687,0.058594 l 0.996094,2.91796874 0.01172,0.046875 0.01172,-0.046875 0.984375,-2.91796874 c 0.0059,-0.023437 0.01465,-0.041016 0.02344,-0.058594 0.01465,-0.014648 0.03516,-0.026367 0.05859,-0.035156 0.0293,-0.00586 0.06445,-0.011719 0.105469,-0.011719 0.04687,-0.00586 0.105469,-0.011719 0.175781,-0.011719 0.05273,0 0.09961,0 0.140625,0 0.03809,0 0.07031,0.00879 0.09375,0.023437 0.02344,0.00879 0.03809,0.020508 0.04687,0.035156 0.0059,0.017578 0.01172,0.032227 0.01172,0.046875 z m 3.717773,1.6289063 c 0,0.1025391 -0.0293,0.1757812 -0.08203,0.2226562 -0.04687,0.041016 -0.102539,0.058594 -0.164062,0.058594 h -2.320313 c 0,0.1962891 0.01758,0.3720703 0.05859,0.5273437 0.03809,0.1582032 0.105469,0.29296879 0.199219,0.41015629 0.09375,0.11132812 0.210937,0.19628906 0.351562,0.2578125 0.146485,0.0556641 0.331055,0.0820313 0.550781,0.0820313 0.164063,0 0.310547,-0.0117188 0.445313,-0.0351563 0.131836,-0.0292969 0.246094,-0.0615234 0.339844,-0.09375 0.09375,-0.0292969 0.169922,-0.0585938 0.234375,-0.0820313 0.06152,-0.0292969 0.108398,-0.046875 0.140625,-0.046875 0.01465,0 0.0293,0.005859 0.04687,0.0117188 0.01465,0.008789 0.02637,0.0234375 0.03516,0.046875 0.0059,0.0175781 0.01172,0.0410156 0.01172,0.0703125 0.0059,0.0322266 0.01172,0.0703125 0.01172,0.1171875 0,0.0322266 -0.0059,0.0644531 -0.01172,0.09375 0,0.0234375 -0.0059,0.046875 -0.01172,0.0703125 0,0.0175781 -0.0059,0.0322266 -0.01172,0.046875 -0.0088,0.0175781 -0.02051,0.0322266 -0.03516,0.046875 -0.01758,0.0175781 -0.05859,0.0410156 -0.128906,0.0703125 -0.07031,0.0322266 -0.164063,0.06445312 -0.28125,0.09375 -0.111328,0.03222656 -0.240235,0.05859375 -0.386719,0.08203125 -0.149414,0.0234375 -0.304688,0.03515625 -0.46875,0.03515625 -0.290039,0 -0.544922,-0.04101563 -0.761719,-0.1171875 -0.219726,-0.07617188 -0.404297,-0.19335938 -0.550781,-0.3515625 -0.149414,-0.1640625 -0.263672,-0.36621094 -0.339844,-0.60937499 -0.0791,-0.2402344 -0.117187,-0.5214844 -0.117187,-0.84375 0,-0.3046875 0.03809,-0.5771484 0.117187,-0.8203125 0.07617,-0.2402344 0.19043,-0.4453125 0.339844,-0.609375 0.146484,-0.1699219 0.328125,-0.2988281 0.539062,-0.3867188 0.210938,-0.09375 0.445313,-0.140625 0.703125,-0.140625 0.272461,0 0.506836,0.046875 0.703125,0.140625 0.19336,0.087891 0.354493,0.2050782 0.480469,0.3515625 0.123047,0.1494141 0.213867,0.3251954 0.269531,0.5273438 0.06152,0.2050781 0.09375,0.421875 0.09375,0.65625 z m -0.644531,-0.1992188 c 0.0059,-0.3339843 -0.07031,-0.6005859 -0.234375,-0.796875 -0.158203,-0.1933593 -0.386719,-0.2929687 -0.691406,-0.2929687 -0.164063,0 -0.310547,0.032227 -0.433594,0.09375 -0.117187,0.064453 -0.219726,0.1464844 -0.304687,0.2460937 -0.0791,0.09375 -0.140625,0.2080079 -0.1875,0.3398438 -0.04102,0.1347656 -0.06445,0.2695312 -0.07031,0.4101562 z m 4.763672,-3.1992187 c -0.251953,0.5332031 -0.439453,1.0751953 -0.5625,1.6289062 -0.117187,0.5478516 -0.175781,1.1015625 -0.175781,1.6640625 0,0.5625 0.06152,1.1220704 0.1875,1.67578129 0.123047,0.54492187 0.304687,1.08398437 0.539062,1.61718751 0.01465,0.038086 0.02344,0.064453 0.02344,0.082031 0,0.023437 -0.01172,0.041016 -0.03516,0.058594 -0.01758,0.014648 -0.04395,0.026367 -0.08203,0.035156 -0.03223,0.00586 -0.08203,0.011719 -0.152343,0.011719 -0.04687,0 -0.08789,-0.00586 -0.117188,-0.011719 -0.03223,0 -0.06445,-0.00586 -0.09375,-0.011719 -0.02344,-0.00879 -0.04395,-0.020508 -0.05859,-0.035156 -0.01758,-0.00879 -0.0293,-0.017578 -0.03516,-0.023437 -0.140625,-0.2753906 -0.266601,-0.54785152 -0.375,-0.82031246 -0.102539,-0.27539063 -0.193359,-0.55078125 -0.269531,-0.83203125 -0.07031,-0.28125 -0.125977,-0.56542969 -0.164063,-0.85546879 -0.03223,-0.2871093 -0.04687,-0.5800781 -0.04687,-0.8789062 0,-0.2958984 0.01758,-0.5859375 0.05859,-0.8671875 0.03809,-0.2871094 0.09375,-0.5742188 0.164063,-0.8554688 0.07617,-0.2871093 0.166992,-0.5683593 0.269531,-0.84375 0.108398,-0.2724609 0.234375,-0.5449218 0.375,-0.8203125 0,-0.00586 0.0029,-0.014648 0.01172,-0.023437 0.01465,-0.00586 0.0293,-0.014648 0.04687,-0.023437 0.02344,-0.00586 0.05273,-0.011719 0.09375,-0.011719 0.03809,-0.00586 0.08496,-0.011719 0.140625,-0.011719 0.06152,0 0.108398,0.00586 0.140625,0.011719 0.03809,0.00879 0.06445,0.020508 0.08203,0.035156 0.02344,0.00879 0.03516,0.023437 0.03516,0.046875 0.0059,0.017578 0.0059,0.035156 0,0.058593 z m 4.910156,5.17968749 c 0.02344,0.0556641 0.03516,0.10253906 0.03516,0.140625 0,0.03222656 -0.01172,0.05859375 -0.03516,0.08203125 -0.01758,0.01464844 -0.05273,0.0234375 -0.105468,0.0234375 -0.04687,0.0058594 -0.111329,0.01171875 -0.1875,0.01171875 -0.0791,0 -0.146485,-0.0058594 -0.199219,-0.01171875 -0.04687,0 -0.08203,-0.00585938 -0.105469,-0.01171875 -0.02344,-0.00585938 -0.04395,-0.01757813 -0.05859,-0.03515625 -0.0088,-0.01464844 -0.01758,-0.03515625 -0.02344,-0.05859375 L 29.87582,-1.3373828 h -2.109375 l -0.410156,1.21874999 c -0.0088,0.0234375 -0.02051,0.046875 -0.03516,0.0703125 -0.01758,0.01757812 -0.03516,0.03222656 -0.05859,0.046875 -0.02344,0.00585937 -0.05859,0.01171875 -0.105469,0.01171875 -0.04687,0.0058594 -0.105468,0.01171875 -0.175781,0.01171875 -0.0791,0 -0.140625,-0.0058594 -0.1875,-0.01171875 -0.04687,-0.00878906 -0.08203,-0.01757813 -0.105469,-0.03515625 -0.01758,-0.01464844 -0.02344,-0.03808594 -0.02344,-0.0703125 0,-0.03808594 0.01172,-0.08789063 0.03516,-0.15234375 l 1.699219,-4.71093754 c 0.0059,-0.029297 0.01758,-0.052734 0.03516,-0.070312 0.02344,-0.023437 0.0498,-0.038086 0.08203,-0.046875 0.0293,-0.00586 0.07031,-0.011719 0.117188,-0.011719 0.05273,-0.00586 0.120117,-0.011719 0.199219,-0.011719 0.08496,0 0.155273,0.00586 0.210937,0.011719 0.05273,0 0.09668,0.00586 0.128906,0.011719 0.03809,0.00879 0.06445,0.023437 0.08203,0.046875 0.01465,0.017578 0.0293,0.041016 0.04687,0.070312 z M 28.821133,-4.4076953 h -0.01172 l -0.867187,2.53125 h 1.757812 z m 6.761719,2.53125 c 0,0.3046875 -0.04687,0.5800781 -0.140625,0.8203125 -0.09375,0.24316405 -0.222657,0.45117186 -0.386719,0.62109374 -0.164063,0.1640625 -0.369141,0.29003906 -0.609375,0.375 -0.243164,0.08496094 -0.515625,0.12890625 -0.820313,0.12890625 -0.28125,0 -0.539062,-0.04101563 -0.773437,-0.1171875 -0.228516,-0.07617188 -0.421875,-0.19335938 -0.585938,-0.3515625 -0.164062,-0.1640625 -0.292968,-0.36328125 -0.386718,-0.59765625 C 31.791836,-1.2377734 31.75082,-1.5160937 31.75082,-1.8295703 v -3.1523438 c 0,-0.014648 0.0029,-0.029297 0.01172,-0.046875 0.01465,-0.014648 0.03516,-0.026367 0.05859,-0.035156 0.02344,-0.014648 0.05273,-0.023437 0.09375,-0.023437 0.04687,-0.00586 0.105469,-0.011719 0.175781,-0.011719 0.06152,0 0.111328,0.00586 0.152344,0.011719 0.04687,0 0.08203,0.00879 0.105469,0.023437 0.0293,0.00879 0.0498,0.020508 0.05859,0.035156 0.0059,0.017578 0.01172,0.032227 0.01172,0.046875 v 3.0703125 c 0,0.234375 0.02637,0.4423829 0.08203,0.6210938 0.06152,0.1728516 0.146485,0.31640624 0.257813,0.43359374 0.108398,0.1171875 0.237305,0.20800781 0.386719,0.26953125 0.155273,0.0556641 0.328125,0.0820313 0.515625,0.0820313 0.202148,0 0.377929,-0.0263672 0.527343,-0.0820313 0.155274,-0.0615234 0.28418,-0.14648438 0.386719,-0.2578125 0.108399,-0.1171875 0.19043,-0.26074219 0.246094,-0.43359379 0.05273,-0.1699218 0.08203,-0.3691406 0.08203,-0.5976562 v -3.1054688 c 0,-0.014648 0.0029,-0.029297 0.01172,-0.046875 0.01465,-0.014648 0.03516,-0.026367 0.05859,-0.035156 0.0293,-0.014648 0.06445,-0.023437 0.105468,-0.023437 0.04687,-0.00586 0.09961,-0.011719 0.164063,-0.011719 0.06152,0 0.111328,0.00586 0.152344,0.011719 0.04687,0 0.08203,0.00879 0.105468,0.023437 0.0293,0.00879 0.0498,0.020508 0.05859,0.035156 0.01465,0.017578 0.02344,0.032227 0.02344,0.046875 z m 4.517578,-2.9179688 c 0,0.055664 -0.0059,0.1025391 -0.01172,0.140625 0,0.032227 -0.0088,0.058594 -0.02344,0.082031 -0.0088,0.023437 -0.02051,0.041016 -0.03516,0.046875 -0.01758,0.00879 -0.03516,0.011719 -0.05859,0.011719 h -1.429687 v 4.40625004 c 0,0.0234375 -0.0088,0.04394531 -0.02344,0.05859375 -0.0088,0.01757812 -0.02344,0.02929687 -0.04687,0.03515625 -0.02344,0.00878906 -0.05859,0.01464844 -0.105468,0.0234375 -0.04102,0.0058594 -0.09375,0.01171875 -0.164063,0.01171875 -0.06445,0 -0.117187,-0.0058594 -0.164062,-0.01171875 -0.04102,-0.00878906 -0.07617,-0.01464844 -0.105469,-0.0234375 -0.02344,-0.0058594 -0.04395,-0.01757813 -0.05859,-0.03515625 -0.0088,-0.01464844 -0.01172,-0.03515625 -0.01172,-0.05859375 V -4.5131641 h -1.429687 c -0.01758,0 -0.03516,-0.00293 -0.05859,-0.011719 -0.01758,-0.00586 -0.0293,-0.023437 -0.03516,-0.046875 -0.0088,-0.023437 -0.01758,-0.049805 -0.02344,-0.082031 -0.0088,-0.038086 -0.01172,-0.084961 -0.01172,-0.140625 0,-0.046875 0.0029,-0.087891 0.01172,-0.1289062 0.0059,-0.038086 0.01465,-0.070312 0.02344,-0.09375 0.0059,-0.023437 0.01758,-0.038086 0.03516,-0.046875 0.02344,-0.00586 0.04102,-0.011719 0.05859,-0.011719 h 3.539062 c 0.02344,0 0.04102,0.00586 0.05859,0.011719 0.01465,0.00879 0.02637,0.023437 0.03516,0.046875 0.01465,0.023437 0.02344,0.055664 0.02344,0.09375 0.0059,0.041016 0.01172,0.082031 0.01172,0.1289062 z m 4.792968,2.1914063 c 0,0.4160156 -0.05273,0.7851562 -0.152343,1.1132812 -0.09375,0.328125 -0.240235,0.60937504 -0.433594,0.84375004 -0.1875,0.234375 -0.430664,0.41601562 -0.726563,0.5390625 -0.290039,0.1171875 -0.626953,0.17578125 -1.007812,0.17578125 -0.383789,0 -0.714844,-0.05566406 -0.996094,-0.1640625 -0.28125,-0.1171875 -0.512695,-0.28125 -0.691406,-0.4921875 -0.181641,-0.21679688 -0.316406,-0.48632809 -0.410156,-0.80859379 -0.08789,-0.328125 -0.128907,-0.6972656 -0.128907,-1.1132812 0,-0.4042969 0.04687,-0.7675781 0.140625,-1.0898438 0.09961,-0.328125 0.249024,-0.6035156 0.445313,-0.8320312 0.193359,-0.234375 0.436523,-0.4130859 0.726562,-0.5390625 0.28711,-0.1230469 0.624024,-0.1875 1.007813,-0.1875 0.375,0 0.697266,0.058594 0.972656,0.1757812 0.28125,0.1113282 0.515625,0.2753907 0.703125,0.4921875 0.1875,0.2109375 0.322266,0.4775391 0.410156,0.796875 0.09375,0.3222657 0.140625,0.6855469 0.140625,1.0898438 z m -0.714843,0.046875 c 0,-0.2871094 -0.0293,-0.5537109 -0.08203,-0.796875 -0.04687,-0.2490234 -0.128906,-0.4628906 -0.246093,-0.6445313 -0.117188,-0.1787109 -0.278321,-0.3193359 -0.480469,-0.421875 -0.196289,-0.1083984 -0.442383,-0.1640625 -0.738281,-0.1640625 -0.290039,0 -0.536133,0.058594 -0.738282,0.1757813 -0.196289,0.1113281 -0.357421,0.2548828 -0.480468,0.4335937 -0.125977,0.1816407 -0.216797,0.3955079 -0.269532,0.6445313 -0.05566,0.2431641 -0.08203,0.5009766 -0.08203,0.7734375 0,0.2988281 0.02344,0.5712891 0.07031,0.8203125 0.05273,0.2519531 0.140625,0.46875 0.257812,0.65625 0.117188,0.18164061 0.272461,0.32226561 0.46875,0.42187499 0.202149,0.09375 0.451172,0.140625 0.75,0.140625 0.295899,0 0.541992,-0.0527344 0.738281,-0.1640625 0.202149,-0.10839844 0.366211,-0.2578125 0.492188,-0.44531249 0.123047,-0.1875 0.210937,-0.4013672 0.257812,-0.6445313 0.05274,-0.2490234 0.08203,-0.5097656 0.08203,-0.7851562 z m 2.973633,0.4453125 c 0,0.2988281 -0.02051,0.5917969 -0.05859,0.8789062 -0.03223,0.2900391 -0.08789,0.57421879 -0.164063,0.85546879 -0.07031,0.28125 -0.161133,0.55664062 -0.269531,0.83203125 -0.102539,0.27246094 -0.222656,0.54492186 -0.363281,0.82031246 -0.0088,0.00586 -0.02051,0.014649 -0.03516,0.023437 -0.01758,0.014649 -0.04102,0.026367 -0.07031,0.035156 -0.02344,0.00586 -0.05273,0.011719 -0.08203,0.011719 -0.03223,0.00586 -0.07031,0.011719 -0.117188,0.011719 -0.07031,0 -0.125976,-0.00586 -0.164062,-0.011719 -0.04102,-0.00879 -0.06738,-0.020508 -0.08203,-0.035156 -0.01758,-0.017578 -0.02344,-0.035156 -0.02344,-0.058594 0,-0.017578 0.0059,-0.043945 0.02344,-0.082031 0.240234,-0.52441407 0.421875,-1.06347657 0.539062,-1.61718751 0.123047,-0.55371089 0.1875,-1.11328129 0.1875,-1.67578129 0,-0.5625 -0.06445,-1.1162109 -0.1875,-1.6640625 -0.117187,-0.5537109 -0.301758,-1.0957031 -0.550781,-1.6289062 -0.0088,-0.023437 -0.01172,-0.041016 -0.01172,-0.058594 0.0059,-0.023437 0.01758,-0.038086 0.03516,-0.046875 0.02344,-0.014648 0.04981,-0.026367 0.08203,-0.035156 0.03808,-0.00586 0.08789,-0.011719 0.152343,-0.011719 0.05274,0 0.09668,0.00586 0.128907,0.011719 0.03808,0 0.07031,0.00586 0.09375,0.011719 0.02344,0.00879 0.03808,0.017578 0.04687,0.023437 0.01465,0.00879 0.02344,0.017578 0.02344,0.023437 0.272461,0.5390625 0.483398,1.0957032 0.632813,1.6640625 0.155273,0.5625 0.234375,1.1367188 0.234375,1.7226563 z m 0,0"
           style="fill:#000000;fill-opacity:1;fill-rule:nonzero;stroke:none"
           aria-label=" 1. save (AUTO)"
           transform="matrix(1.3333333,0,0,1.3333333,346.78667,673.69333)"
           clip-path="url(#clipPath66)" />
      </g>
    </g>
  </g>
</svg>
