<?xml version="1.0" encoding="UTF-8" standalone="no"?>
<!-- Created with Inkscape (http://www.inkscape.org/) -->

<svg
   width="1910"
   height="995.23285"
   viewBox="0 0 1910 995.23285"
   version="1.1"
   id="svg1"
   sodipodi:docname="uidraw-06.svg"
   inkscape:version="1.4 (e7c3feb100, 2024-10-09)"
   xmlns:inkscape="http://www.inkscape.org/namespaces/inkscape"
   xmlns:sodipodi="http://sodipodi.sourceforge.net/DTD/sodipodi-0.dtd"
   xmlns="http://www.w3.org/2000/svg"
   xmlns:svg="http://www.w3.org/2000/svg">
  <sodipodi:namedview
     id="namedview1"
     pagecolor="#ffffff"
     bordercolor="#000000"
     borderopacity="0.25"
     inkscape:showpageshadow="2"
     inkscape:pageopacity="0.0"
     inkscape:pagecheckerboard="0"
     inkscape:deskcolor="#d1d1d1"
     inkscape:zoom="0.48795812"
     inkscape:cx="955"
     inkscape:cy="497.99356"
     inkscape:window-width="1920"
     inkscape:window-height="1011"
     inkscape:window-x="0"
     inkscape:window-y="0"
     inkscape:window-maximized="1"
     inkscape:current-layer="svg1" />
  <defs
     id="defs1">
    <clipPath
       clipPathUnits="userSpaceOnUse"
       id="clipPath129">
      <path
         d="m 252.29,74.064 h 86.304 v 16.44 H 252.29 Z"
         transform="matrix(1,0,0,-1,-265.61003,80.064002)"
         clip-rule="evenodd"
         id="path129" />
    </clipPath>
    <clipPath
       clipPathUnits="userSpaceOnUse"
       id="clipPath133">
      <path
         d="M 205.85,198.86 H 385.39 V 218.3 H 205.85 Z"
         transform="matrix(1,0,0,-1,-213.05003,207.86001)"
         clip-rule="evenodd"
         id="path133" />
    </clipPath>
    <clipPath
       clipPathUnits="userSpaceOnUse"
       id="clipPath135">
      <path
         d="M 205.85,198.86 H 385.39 V 218.3 H 205.85 Z"
         transform="matrix(1,0,0,-1,-235.37003,207.86001)"
         clip-rule="evenodd"
         id="path135" />
    </clipPath>
    <clipPath
       clipPathUnits="userSpaceOnUse"
       id="clipPath138">
      <path
         d="m 205.73,171.86 h 179.54 v 19.56 H 205.73 Z"
         transform="matrix(1,0,0,-1,-212.93003,180.98001)"
         clip-rule="evenodd"
         id="path138" />
    </clipPath>
    <clipPath
       clipPathUnits="userSpaceOnUse"
       id="clipPath142">
      <path
         d="m 255.17,108.74 h 80.544 v 19.32 H 255.17 Z"
         transform="matrix(1,0,0,-1,-281.93003,117.62001)"
         clip-rule="evenodd"
         id="path142" />
    </clipPath>
  </defs>
  <g
     id="layer1"
     transform="matrix(0.99476441,0,0,0.99476441,0.02619997,-39.556358)">
    <g
       id="g1"
       transform="matrix(3.176275,0,0,3.176275,-2501.0811,671.28604)">
      <g
         id="g126"
         transform="translate(-931.8533,-963.93334)">
        <path
           id="path126"
           d="m 70.5,32.97 h 450 v 234 h -450 z"
           style="fill:#d0cece;fill-opacity:1;fill-rule:evenodd;stroke:#c00000;stroke-width:1;stroke-linecap:butt;stroke-linejoin:miter;stroke-miterlimit:8;stroke-dasharray:none;stroke-opacity:1"
           transform="matrix(1.3333333,0,0,-1.3333333,1627.52,1122.56)" />
      </g>
      <g
         id="g127"
         transform="translate(-931.8533,-963.93334)">
        <path
           id="path127"
           d="m 250.35,91.47 c 0,2.513 2.04,4.55 4.55,4.55 h 80.9 c 2.51,0 4.55,-2.037 4.55,-4.55 v -18.2 c 0,-2.513 -2.04,-4.55 -4.55,-4.55 h -80.9 c -2.51,0 -4.55,2.037 -4.55,4.55 z"
           style="fill:#ffffff;fill-opacity:1;fill-rule:evenodd;stroke:#172c51;stroke-width:1;stroke-linecap:butt;stroke-linejoin:miter;stroke-miterlimit:8;stroke-dasharray:none;stroke-opacity:1"
           transform="matrix(1.3333333,0,0,-1.3333333,1627.52,1122.56)" />
      </g>
      <g
         id="g128"
         transform="translate(-931.8533,-963.93334)">
        <path
           id="path128"
           d="m 1.8880469,-0.14017969 c 0,0.0322266 -0.00879,0.05859375 -0.023437,0.08203125 -0.00879,0.01757813 -0.032227,0.03222657 -0.070312,0.046875 -0.041016,0.00878907 -0.09082,0.01464844 -0.1523438,0.0234375 -0.055664,0.01464844 -0.1289062,0.0234375 -0.2226562,0.0234375 -0.087891,0 -0.1611328,-0.0087891 -0.2226563,-0.0234375 C 1.1321886,0.003375 1.0823838,-0.00248437 1.0442979,-0.01127344 1.0032819,-0.02592187 0.9769151,-0.04057031 0.9622666,-0.05814844 0.9534776,-0.08158594 0.9505478,-0.10795312 0.9505478,-0.14017969 V -6.9604922 c 0,-0.029297 0.005859,-0.058594 0.0234375,-0.082031 0.0146484,-0.023437 0.0410156,-0.038086 0.0820312,-0.046875 0.038086,-0.014648 0.084961,-0.026367 0.140625,-0.035156 0.061523,-0.00586 0.1347656,-0.011719 0.2226563,-0.011719 0.09375,0 0.1669922,0.00586 0.2226562,0.011719 0.061523,0.00879 0.1113281,0.020508 0.1523438,0.035156 0.038086,0.00879 0.061523,0.023437 0.070312,0.046875 0.014648,0.023437 0.023437,0.052734 0.023437,0.082031 z m 9.0732421,0 c 0,0.0322266 -0.0088,0.05859375 -0.02344,0.08203125 -0.01758,0.01757813 -0.04395,0.03222657 -0.08203,0.046875 -0.03223,0.01464844 -0.0791,0.02636719 -0.140625,0.03515625 -0.05566,0.0058594 -0.125976,0.01171875 -0.210937,0.01171875 -0.09375,0 -0.172852,-0.0058594 -0.234375,-0.01171875 -0.05566,-0.0087891 -0.102539,-0.02050781 -0.140625,-0.03515625 -0.03223,-0.01464843 -0.05566,-0.02929687 -0.07031,-0.046875 -0.0088,-0.0234375 -0.01172,-0.04980468 -0.01172,-0.08203125 V -3.1401797 c 0,-0.2109375 -0.02051,-0.4013672 -0.058594,-0.5742187 -0.041016,-0.1699219 -0.099609,-0.319336 -0.1757812,-0.4453125 -0.079102,-0.1230469 -0.1816407,-0.2167969 -0.3046875,-0.28125 -0.1259766,-0.070312 -0.2753907,-0.1054688 -0.4453125,-0.1054688 -0.2050782,0 -0.4101563,0.082031 -0.6210938,0.2460938 -0.2109375,0.1640625 -0.4453125,0.3984375 -0.703125,0.703125 v 3.45703121 c 0,0.0322266 -0.00879,0.05859375 -0.023437,0.08203125 -0.00879,0.01757813 -0.032227,0.03222657 -0.070312,0.046875 C 7.6126562,0.003375 7.5657812,0.01509375 7.5042578,0.02388281 7.4485937,0.02974219 7.3753516,0.03560156 7.2816016,0.03560156 7.2025,0.03560156 7.1321875,0.02974219 7.0706641,0.02388281 7.0062109,0.01509375 6.9564062,0.003375 6.9183203,-0.01127344 c -0.032227,-0.01464843 -0.055664,-0.02929687 -0.070312,-0.046875 -0.00879,-0.0234375 -0.011719,-0.04980468 -0.011719,-0.08203125 V -3.1401797 c 0,-0.2109375 -0.020508,-0.4013672 -0.058594,-0.5742187 -0.041016,-0.1699219 -0.1025391,-0.319336 -0.1875,-0.4453125 -0.079102,-0.1230469 -0.1816406,-0.2167969 -0.3046875,-0.28125 -0.1171875,-0.070312 -0.2636719,-0.1054688 -0.4335937,-0.1054688 -0.2109375,0 -0.421875,0.082031 -0.6328125,0.2460938 -0.2109375,0.1640625 -0.4423829,0.3984375 -0.6914063,0.703125 v 3.45703121 c 0,0.0322266 -0.00879,0.05859375 -0.023437,0.08203125 -0.017578,0.01757813 -0.041016,0.03222657 -0.070312,0.046875 -0.032227,0.01464844 -0.079102,0.02636719 -0.140625,0.03515625 -0.055664,0.0058594 -0.1289062,0.01171875 -0.2226562,0.01171875 -0.087891,0 -0.1611329,-0.0058594 -0.2226563,-0.01171875 -0.055664,-0.0087891 -0.1025391,-0.02050781 -0.140625,-0.03515625 -0.032227,-0.01464843 -0.055664,-0.02929687 -0.070312,-0.046875 -0.00879,-0.0234375 -0.011719,-0.04980468 -0.011719,-0.08203125 V -5.0854922 c 0,-0.023437 0.00293,-0.046875 0.011719,-0.070312 0.014648,-0.023437 0.038086,-0.041016 0.070312,-0.058594 0.029297,-0.014648 0.070312,-0.023437 0.1171875,-0.023437 0.052734,-0.00586 0.1230469,-0.011719 0.2109375,-0.011719 0.076172,0 0.1435547,0.00586 0.1992188,0.011719 0.052734,0 0.09375,0.00879 0.1171875,0.023437 0.029297,0.017578 0.052734,0.035156 0.070312,0.058594 0.014648,0.023437 0.023437,0.046875 0.023437,0.070312 v 0.65625 c 0.2724609,-0.3105469 0.5390625,-0.5390625 0.796875,-0.6796875 0.2636718,-0.1464844 0.5302734,-0.2226562 0.796875,-0.2226562 0.2109375,0 0.3925781,0.023437 0.5507812,0.070312 0.1640625,0.046875 0.3076172,0.1171875 0.4335938,0.2109375 0.1230468,0.087891 0.2285156,0.1875 0.3164062,0.3046875 0.09375,0.1171875 0.1669922,0.2519531 0.2226563,0.3984375 0.1640625,-0.178711 0.3193359,-0.3310547 0.46875,-0.4570313 0.1464843,-0.1230469 0.2929687,-0.2255859 0.4335937,-0.3046875 0.140625,-0.076172 0.2724609,-0.1318359 0.3984375,-0.1640625 0.1318359,-0.038086 0.2636719,-0.058594 0.3984375,-0.058594 0.3105469,0 0.5771484,0.058594 0.7968747,0.1757812 0.216797,0.1113281 0.392578,0.2578125 0.527344,0.4453125 0.131836,0.1875 0.225586,0.4072266 0.28125,0.65625 0.06152,0.2519531 0.09375,0.515625 0.09375,0.796875 z m 5.944336,-2.54296871 c 0,0.430664 -0.04687,0.8173828 -0.140625,1.1601562 -0.09375,0.3457031 -0.231445,0.63867189 -0.410156,0.87890626 -0.181641,0.24316407 -0.407227,0.43066407 -0.679688,0.5625 -0.266601,0.12304688 -0.571289,0.1875 -0.914062,0.1875 -0.149414,0 -0.28711,-0.01757812 -0.410157,-0.046875 -0.125976,-0.03222656 -0.246093,-0.07617187 -0.363281,-0.140625 -0.117187,-0.06152343 -0.234375,-0.140625 -0.351562,-0.234375 -0.117188,-0.09375 -0.243164,-0.20214843 -0.375,-0.328125 V 1.8285703 c 0,0.023437 -0.0088,0.046875 -0.02344,0.070312 -0.01758,0.023437 -0.04101,0.041016 -0.07031,0.058594 -0.03223,0.014648 -0.0791,0.026367 -0.140625,0.035156 -0.05566,0.00586 -0.128907,0.011719 -0.222657,0.011719 -0.08789,0 -0.161132,-0.00586 -0.222656,-0.011719 -0.05566,-0.00879 -0.102539,-0.020508 -0.140625,-0.035156 -0.03223,-0.017578 -0.05566,-0.035156 -0.07031,-0.058594 -0.0088,-0.023437 -0.01172,-0.046875 -0.01172,-0.070312 v -6.9140625 c 0,-0.029297 0.0029,-0.052734 0.01172,-0.070312 0.01465,-0.023437 0.03809,-0.041016 0.07031,-0.058594 0.0293,-0.014648 0.07031,-0.023437 0.117188,-0.023437 0.05273,-0.00586 0.117187,-0.011719 0.1875,-0.011719 0.07617,0 0.140625,0.00586 0.1875,0.011719 0.05273,0 0.09668,0.00879 0.128906,0.023437 0.0293,0.017578 0.05273,0.035156 0.07031,0.058594 0.01465,0.017578 0.02344,0.041016 0.02344,0.070312 v 0.6679688 c 0.146484,-0.1552735 0.292969,-0.2871094 0.433594,-0.3984375 0.140625,-0.1171875 0.28125,-0.2109375 0.421875,-0.28125 0.140625,-0.076172 0.284179,-0.1347657 0.433593,-0.1757813 0.146485,-0.038086 0.304688,-0.058594 0.46875,-0.058594 0.357422,0 0.66211,0.070312 0.914063,0.2109375 0.249023,0.140625 0.451172,0.3339843 0.609375,0.5742187 0.164062,0.2431641 0.28125,0.5244141 0.351562,0.84375 0.07617,0.3222656 0.117188,0.6621094 0.117188,1.0195316 z m -0.960938,0.1054687 c 0,-0.2578125 -0.02051,-0.5039062 -0.05859,-0.7382812 -0.04102,-0.234375 -0.105469,-0.4394532 -0.199219,-0.6210938 -0.08789,-0.1875 -0.210938,-0.3339844 -0.375,-0.4453125 -0.158203,-0.1083984 -0.351563,-0.1640625 -0.585938,-0.1640625 -0.117187,0 -0.234375,0.020508 -0.351562,0.058594 -0.111328,0.032227 -0.222656,0.087891 -0.339844,0.1640625 -0.117187,0.070312 -0.243164,0.1699218 -0.375,0.2929687 -0.125976,0.1171875 -0.257812,0.2666016 -0.398437,0.4453125 v 1.96875 c 0.249023,0.3046875 0.483398,0.5390625 0.703125,0.70312501 0.225586,0.15820313 0.46289,0.234375 0.714843,0.234375 0.225586,0 0.416016,-0.0527344 0.574219,-0.1640625 0.164063,-0.10839843 0.295899,-0.25195311 0.398438,-0.43359371 0.09961,-0.1875 0.175781,-0.3925782 0.222656,-0.6210938 0.04687,-0.2255859 0.07031,-0.4511719 0.07031,-0.6796875 z m 6.770508,-0.082031 c 0,0.3984375 -0.05566,0.7705078 -0.164062,1.1132812 -0.102539,0.3369141 -0.257813,0.62988283 -0.46875,0.87890626 -0.210938,0.24316407 -0.477539,0.43359375 -0.796875,0.57421875 -0.313477,0.13183594 -0.679688,0.19921875 -1.101563,0.19921875 -0.407226,0 -0.761718,-0.05859375 -1.066406,-0.17578125 -0.298828,-0.12304687 -0.547852,-0.29882812 -0.75,-0.52734375 -0.196289,-0.234375 -0.345703,-0.51562496 -0.445312,-0.84374996 -0.10254,-0.328125 -0.152344,-0.703125 -0.152344,-1.125 0,-0.3984375 0.0498,-0.7646485 0.152344,-1.1015625 0.108398,-0.3427735 0.269531,-0.6357422 0.480468,-0.8789063 0.210938,-0.2490234 0.47168,-0.4394531 0.785157,-0.5742187 0.310546,-0.140625 0.679687,-0.2109375 1.101562,-0.2109375 0.404297,0 0.761719,0.064453 1.066406,0.1875 0.304688,0.1171875 0.553711,0.2929687 0.75,0.5273437 0.202149,0.2285156 0.354492,0.5097656 0.457032,0.84375 0.09961,0.328125 0.152343,0.7001953 0.152343,1.1132813 z m -0.949218,0.058594 c 0,-0.2636719 -0.0293,-0.515625 -0.08203,-0.75 -0.04687,-0.2402344 -0.128906,-0.4511719 -0.246093,-0.6328125 -0.111329,-0.1787109 -0.263672,-0.3193359 -0.457032,-0.421875 -0.196289,-0.1083984 -0.439453,-0.1640625 -0.726562,-0.1640625 -0.266602,0 -0.498047,0.046875 -0.691406,0.140625 -0.1875,0.09375 -0.345704,0.2314453 -0.46875,0.4101563 -0.125977,0.1728515 -0.219727,0.3808593 -0.28125,0.6210937 -0.06445,0.234375 -0.09375,0.4921875 -0.09375,0.7734375 0,0.2753906 0.02344,0.5332031 0.07031,0.7734375 0.05273,0.234375 0.134766,0.4423828 0.246094,0.6210938 0.117187,0.1728515 0.272461,0.31347653 0.46875,0.42187496 0.193359,0.10253907 0.436523,0.15234375 0.726562,0.15234375 0.263672,0 0.495117,-0.046875 0.691407,-0.140625 0.193359,-0.0996094 0.354492,-0.23730471 0.480468,-0.41015621 0.123047,-0.1699219 0.213867,-0.375 0.269532,-0.609375 0.06152,-0.2402344 0.09375,-0.5039063 0.09375,-0.7851563 z m 5.112304,-2.15625 c 0,0.079102 -0.0059,0.1464844 -0.01172,0.1992188 0,0.055664 -0.0059,0.099609 -0.01172,0.1289062 -0.0088,0.032227 -0.02344,0.058594 -0.04687,0.082031 -0.01758,0.017578 -0.03516,0.023437 -0.05859,0.023437 -0.03223,0 -0.07031,-0.00586 -0.117188,-0.023437 -0.04101,-0.023437 -0.08789,-0.041016 -0.140625,-0.058594 -0.05566,-0.014648 -0.114257,-0.029297 -0.175781,-0.046875 -0.06445,-0.014648 -0.134765,-0.023437 -0.210937,-0.023437 -0.09375,0 -0.184571,0.020508 -0.269532,0.058594 -0.08789,0.041016 -0.18164,0.102539 -0.28125,0.1875 -0.09375,0.079102 -0.196289,0.1875 -0.304687,0.328125 -0.111328,0.140625 -0.228516,0.3134765 -0.351563,0.515625 v 3.24609371 c 0,0.0322266 -0.0088,0.05859375 -0.02344,0.08203125 -0.01758,0.01757813 -0.04102,0.03222657 -0.07031,0.046875 -0.03223,0.01464844 -0.0791,0.02636719 -0.140625,0.03515625 -0.05566,0.0058594 -0.128906,0.01171875 -0.222656,0.01171875 -0.08789,0 -0.161133,-0.0058594 -0.222656,-0.01171875 -0.05566,-0.0087891 -0.102539,-0.02050781 -0.140625,-0.03515625 -0.03223,-0.01464843 -0.05566,-0.02929687 -0.07031,-0.046875 -0.0088,-0.0234375 -0.01172,-0.04980468 -0.01172,-0.08203125 V -5.0854922 c 0,-0.023437 0.0029,-0.046875 0.01172,-0.070312 0.01465,-0.023437 0.03809,-0.041016 0.07031,-0.058594 0.0293,-0.014648 0.07031,-0.023437 0.117187,-0.023437 0.05274,-0.00586 0.123047,-0.011719 0.210938,-0.011719 0.07617,0 0.143555,0.00586 0.199219,0.011719 0.05273,0 0.09375,0.00879 0.117187,0.023437 0.0293,0.017578 0.05273,0.035156 0.07031,0.058594 0.01465,0.023437 0.02344,0.046875 0.02344,0.070312 v 0.7265625 c 0.131836,-0.2021484 0.257813,-0.3632812 0.375,-0.4804687 0.117188,-0.1230469 0.228516,-0.2226563 0.339844,-0.2929688 0.108398,-0.076172 0.213867,-0.1289062 0.316406,-0.1523437 0.09961,-0.029297 0.205078,-0.046875 0.316406,-0.046875 0.04687,0 0.09668,0.00586 0.152344,0.011719 0.06152,0.00879 0.123047,0.020508 0.1875,0.035156 0.07031,0.00879 0.131836,0.023437 0.1875,0.046875 0.05273,0.017578 0.09375,0.035156 0.117188,0.058594 0.02344,0.017578 0.03516,0.032227 0.03516,0.046875 0.0059,0.017578 0.01465,0.041016 0.02344,0.070312 0.0059,0.023437 0.01172,0.058594 0.01172,0.1054688 0,0.046875 0,0.1142578 0,0.1992187 z m 3.536133,4.25390626 c 0,0.11132813 -0.0088,0.19628907 -0.02344,0.2578125 -0.01758,0.0644531 -0.04102,0.11132813 -0.07031,0.140625 -0.02344,0.0234375 -0.06738,0.05273438 -0.128906,0.08203125 -0.05566,0.0234375025 -0.123047,0.04101563 -0.199219,0.05859375 -0.07031,0.01464844 -0.149414,0.02636719 -0.234375,0.03515625 -0.08789,0.01464844 -0.172852,0.0234375 -0.257812,0.0234375 -0.257813,0 -0.47754,-0.03222656 -0.65625,-0.0937499975 C 28.662461,-0.06986719 28.515977,-0.17533594 28.398789,-0.31596094 c -0.117187,-0.140625 -0.205078,-0.31054687 -0.257812,-0.515625 -0.05567,-0.21093746 -0.08203,-0.45996096 -0.08203,-0.74999996 v -2.8945313 h -0.691406 c -0.05566,0 -0.102539,-0.026367 -0.140625,-0.082031 -0.03223,-0.061523 -0.04687,-0.1552735 -0.04687,-0.28125 0,-0.070312 0.0029,-0.1289063 0.01172,-0.1757813 0.01465,-0.052734 0.0293,-0.09668 0.04687,-0.1289062 0.01465,-0.029297 0.03516,-0.049805 0.05859,-0.058594 0.02344,-0.014648 0.04687,-0.023437 0.07031,-0.023437 h 0.691406 v -1.171875 c 0,-0.023437 0.0029,-0.046875 0.01172,-0.070312 0.01465,-0.023437 0.03809,-0.041016 0.07031,-0.058594 0.03808,-0.014648 0.08496,-0.026367 0.140625,-0.035156 0.06152,-0.00586 0.134765,-0.011719 0.222656,-0.011719 0.09375,0 0.166992,0.00586 0.222656,0.011719 0.06152,0.00879 0.108398,0.020508 0.140625,0.035156 0.03809,0.017578 0.06152,0.035156 0.07031,0.058594 0.01465,0.023437 0.02344,0.046875 0.02344,0.070312 v 1.171875 h 1.277344 c 0.02344,0 0.04687,0.00879 0.07031,0.023437 0.02344,0.00879 0.04102,0.029297 0.05859,0.058594 0.01465,0.032227 0.02637,0.076172 0.03516,0.1289062 0.0059,0.046875 0.01172,0.1054688 0.01172,0.1757813 0,0.1259765 -0.01758,0.2197265 -0.04687,0.28125 -0.03223,0.055664 -0.07617,0.082031 -0.128906,0.082031 h -1.277344 v 2.765625 c 0,0.3369141 0.0498,0.5947266 0.152344,0.77343751 0.09961,0.17285157 0.28125,0.2578125 0.539062,0.2578125 0.08496,0 0.158203,-0.005859 0.222657,-0.0234375 0.07031,-0.0146484 0.128906,-0.0292969 0.175781,-0.046875 0.05273,-0.0234375 0.09961,-0.0410156 0.140625,-0.0585938 0.03809,-0.0146484 0.07031,-0.0234375 0.09375,-0.0234375 0.02344,0 0.04102,0.005859 0.05859,0.0117188 0.01465,0.008789 0.02637,0.0292969 0.03516,0.0585938 0.0059,0.0234375 0.01465,0.0585938 0.02344,0.10546875 0.0059,0.0410156 0.01172,0.0908203 0.01172,0.15234375 z m 9.084961,-5.63671876 c 0,0.070312 -0.0059,0.1347656 -0.01172,0.1875 -0.0088,0.046875 -0.02051,0.09082 -0.03516,0.1289063 -0.0088,0.032227 -0.02344,0.055664 -0.04687,0.070312 -0.02344,0.017578 -0.04687,0.023437 -0.07031,0.023437 -0.04687,0 -0.123046,-0.035156 -0.222656,-0.1054688 -0.102539,-0.070312 -0.240234,-0.1435547 -0.410156,-0.2226562 -0.172852,-0.084961 -0.380859,-0.1640625 -0.621094,-0.234375 -0.243164,-0.070312 -0.527344,-0.1054688 -0.855469,-0.1054688 -0.392578,0 -0.74414,0.070312 -1.054687,0.2109375 -0.313477,0.140625 -0.580078,0.3398438 -0.796875,0.5976563 -0.210938,0.2519531 -0.375,0.5507812 -0.492188,0.9023437 -0.111328,0.3457031 -0.164062,0.7207031 -0.164062,1.125 0,0.4541016 0.06152,0.8554688 0.1875,1.2070313 0.123047,0.3515625 0.295898,0.6503906 0.515625,0.890625 0.225586,0.243164 0.492187,0.4277343 0.796875,0.55078121 0.310547,0.12597657 0.65625,0.1875 1.03125,0.1875 0.216797,0 0.436523,-0.0234375 0.65625,-0.0703125 0.225586,-0.0527344 0.436523,-0.13476562 0.632812,-0.24609371 v -2.0742188 h -1.640625 c -0.06445,0 -0.111328,-0.029297 -0.140625,-0.09375 -0.03223,-0.061523 -0.04687,-0.1582031 -0.04687,-0.2929687 0,-0.070312 0.0029,-0.1289063 0.01172,-0.1757813 0.0059,-0.046875 0.01758,-0.084961 0.03516,-0.1171875 0.01465,-0.029297 0.0293,-0.052734 0.04687,-0.070312 0.02344,-0.014648 0.05273,-0.023437 0.09375,-0.023437 h 2.25 c 0.03809,0 0.07617,0.00879 0.117188,0.023437 0.04687,0.017578 0.08496,0.041016 0.117187,0.070312 0.0293,0.023437 0.05273,0.064453 0.07031,0.1171875 0.02344,0.046875 0.03516,0.1054688 0.03516,0.1757813 v 2.70703121 c 0,0.09375 -0.02051,0.17578125 -0.05859,0.24609375 -0.03223,0.0703125 -0.102539,0.13476563 -0.210937,0.1875 -0.102539,0.0556641 -0.240234,0.11425782 -0.410156,0.17578125 -0.164063,0.0644531 -0.336914,0.1171875 -0.515625,0.1640625 -0.181641,0.03808594 -0.363282,0.06445313 -0.550782,0.08203125 -0.18164,0.0234375 -0.360351,0.03515625 -0.539062,0.03515625 -0.547852,0 -1.040039,-0.08203125 -1.476563,-0.24609375 -0.430664,-0.16992187 -0.793945,-0.41308593 -1.089843,-0.7265625 -0.298828,-0.31933596 -0.524414,-0.69726566 -0.679688,-1.13671876 -0.158203,-0.4365234 -0.234375,-0.9287109 -0.234375,-1.4765625 0,-0.5625 0.08203,-1.0693359 0.246094,-1.5234375 0.169922,-0.4599609 0.410156,-0.8496094 0.714844,-1.171875 0.310547,-0.328125 0.685547,-0.5771484 1.125,-0.75 0.436523,-0.1787109 0.916992,-0.2695312 1.441406,-0.2695312 0.272461,0 0.527344,0.023437 0.761719,0.070312 0.240234,0.046875 0.451172,0.1054687 0.632812,0.1757812 0.1875,0.064453 0.342774,0.1347656 0.46875,0.2109375 0.123047,0.070312 0.210938,0.1289063 0.257813,0.1757813 0.05273,0.046875 0.08789,0.102539 0.105468,0.1640625 0.01465,0.064453 0.02344,0.1523437 0.02344,0.2695312 z m 5.255859,6.01171876 c 0,0.04101563 -0.01758,0.0703125 -0.04687,0.09375 -0.03223,0.0234375 -0.07617,0.03808594 -0.128906,0.046875 -0.04687,0.01464844 -0.123047,0.0234375 -0.222656,0.0234375 -0.09375,0 -0.169922,-0.0087891 -0.222656,-0.0234375 -0.05566,-0.00878906 -0.09961,-0.0234375 -0.128907,-0.046875 -0.02344,-0.0234375 -0.03516,-0.05273437 -0.03516,-0.09375 v -0.4921875 c -0.219726,0.22851563 -0.462891,0.40722657 -0.726562,0.5390625 -0.266602,0.12304688 -0.547852,0.1875 -0.84375,0.1875 -0.257813,0 -0.492188,-0.03515625 -0.703125,-0.1054687475 C 41.485703,-0.06107812 41.304062,-0.15482812 41.157578,-0.28080469 c -0.149414,-0.13183593 -0.266601,-0.29296875 -0.351562,-0.48046875 -0.0791,-0.1875 -0.117188,-0.40136716 -0.117188,-0.64453126 0,-0.2724609 0.05273,-0.5097656 0.164063,-0.7148437 0.117187,-0.2109375 0.28125,-0.3808594 0.492187,-0.515625 0.216797,-0.131836 0.480469,-0.234375 0.785156,-0.3046875 0.304688,-0.070312 0.650391,-0.1054688 1.042969,-0.1054688 h 0.679688 v -0.3867187 c 0,-0.1875 -0.02344,-0.3515625 -0.07031,-0.4921875 -0.04102,-0.1464844 -0.105469,-0.2695313 -0.199219,-0.3632813 -0.08789,-0.099609 -0.199218,-0.1757812 -0.339843,-0.2226562 -0.140625,-0.052734 -0.316407,-0.082031 -0.527344,-0.082031 -0.219727,0 -0.418945,0.029297 -0.597656,0.082031 -0.181641,0.055664 -0.336914,0.1142578 -0.46875,0.1757812 -0.134766,0.064453 -0.246094,0.1230469 -0.339844,0.1757813 -0.08789,0.055664 -0.152344,0.082031 -0.199219,0.082031 -0.03223,0 -0.05859,-0.00586 -0.08203,-0.023437 -0.01758,-0.014648 -0.03223,-0.038086 -0.04687,-0.070312 -0.01758,-0.029297 -0.0293,-0.064453 -0.03516,-0.1054687 -0.0088,-0.046875 -0.01172,-0.09668 -0.01172,-0.1523438 0,-0.09375 0.0029,-0.1669922 0.01172,-0.2226562 0.01465,-0.052734 0.04687,-0.1054688 0.09375,-0.1523438 0.05273,-0.046875 0.140625,-0.099609 0.257812,-0.1640625 0.123047,-0.061523 0.263672,-0.1201172 0.421875,-0.1757812 0.155274,-0.052734 0.328125,-0.09668 0.515625,-0.1289063 0.1875,-0.038086 0.375,-0.058594 0.5625,-0.058594 0.357422,0 0.65918,0.043945 0.902344,0.1289062 0.249023,0.079102 0.451172,0.1962891 0.609375,0.3515625 0.155273,0.1582031 0.269531,0.3515625 0.339844,0.5859375 0.07031,0.2285156 0.105468,0.4921875 0.105468,0.796875 z M 43.852891,-2.3901797 h -0.773438 c -0.251953,0 -0.46875,0.023437 -0.65625,0.070312 -0.181641,0.041016 -0.333984,0.1025391 -0.457031,0.1875 -0.117188,0.079102 -0.208008,0.1757813 -0.269531,0.2929688 -0.05566,0.1113281 -0.08203,0.243164 -0.08203,0.3984375 0,0.2578125 0.08203,0.46289059 0.246094,0.60937496 0.164063,0.14941407 0.392578,0.22265625 0.691406,0.22265625 0.234375,0 0.451172,-0.0585938 0.65625,-0.17578125 0.202149,-0.12304687 0.416016,-0.30761716 0.644532,-0.55078126 z m 9.799804,2.25000001 c 0,0.0322266 -0.0088,0.05859375 -0.02344,0.08203125 -0.01758,0.01757813 -0.04395,0.03222657 -0.08203,0.046875 -0.03223,0.01464844 -0.0791,0.02636719 -0.140625,0.03515625 -0.05566,0.0058594 -0.125977,0.01171875 -0.210938,0.01171875 -0.09375,0 -0.172852,-0.0058594 -0.234375,-0.01171875 -0.05566,-0.0087891 -0.102539,-0.02050781 -0.140625,-0.03515625 -0.03223,-0.01464843 -0.05566,-0.02929687 -0.07031,-0.046875 -0.0088,-0.0234375 -0.01172,-0.04980468 -0.01172,-0.08203125 V -3.1401797 c 0,-0.2109375 -0.02051,-0.4013672 -0.05859,-0.5742187 -0.04102,-0.1699219 -0.09961,-0.319336 -0.175781,-0.4453125 -0.0791,-0.1230469 -0.181641,-0.2167969 -0.304688,-0.28125 -0.125976,-0.070312 -0.27539,-0.1054688 -0.445312,-0.1054688 -0.205078,0 -0.410156,0.082031 -0.621094,0.2460938 -0.210937,0.1640625 -0.445312,0.3984375 -0.703125,0.703125 v 3.45703121 c 0,0.0322266 -0.0088,0.05859375 -0.02344,0.08203125 -0.0088,0.01757813 -0.03223,0.03222657 -0.07031,0.046875 -0.03223,0.01464844 -0.0791,0.02636719 -0.140625,0.03515625 -0.05566,0.0058594 -0.128906,0.01171875 -0.222656,0.01171875 -0.0791,0 -0.149414,-0.0058594 -0.210938,-0.01171875 C 49.697623,0.01509371 49.647815,0.003375 49.60973,-0.01127344 49.5775,-0.02592187 49.55407,-0.04057031 49.53942,-0.05814844 49.53062,-0.08158594 49.5277,-0.10795312 49.5277,-0.14017969 V -3.1401797 c 0,-0.2109375 -0.02051,-0.4013672 -0.05859,-0.5742187 -0.04102,-0.1699219 -0.10254,-0.319336 -0.1875,-0.4453125 -0.0791,-0.1230469 -0.181641,-0.2167969 -0.304688,-0.28125 -0.117187,-0.070312 -0.263672,-0.1054688 -0.433594,-0.1054688 -0.210937,0 -0.421875,0.082031 -0.632812,0.2460938 -0.210938,0.1640625 -0.442383,0.3984375 -0.691406,0.703125 v 3.45703121 c 0,0.0322266 -0.0088,0.05859375 -0.02344,0.08203125 -0.01758,0.01757813 -0.04102,0.03222657 -0.07031,0.046875 -0.03223,0.01464844 -0.0791,0.02636719 -0.140625,0.03515625 -0.05566,0.0058594 -0.128907,0.01171875 -0.222657,0.01171875 -0.08789,0 -0.161133,-0.0058594 -0.222656,-0.01171875 -0.05566,-0.0087891 -0.102539,-0.02050781 -0.140625,-0.03515625 -0.03223,-0.01464843 -0.05566,-0.02929687 -0.07031,-0.046875 -0.0088,-0.0234375 -0.01172,-0.04980468 -0.01172,-0.08203125 V -5.0854922 c 0,-0.023437 0.0029,-0.046875 0.01172,-0.070312 0.01465,-0.023437 0.03809,-0.041016 0.07031,-0.058594 0.0293,-0.014648 0.07031,-0.023437 0.117188,-0.023437 0.05273,-0.00586 0.123046,-0.011719 0.210937,-0.011719 0.07617,0 0.143555,0.00586 0.199219,0.011719 0.05273,0 0.09375,0.00879 0.117187,0.023437 0.0293,0.017578 0.05273,0.035156 0.07031,0.058594 0.01465,0.023437 0.02344,0.046875 0.02344,0.070312 v 0.65625 c 0.272461,-0.3105469 0.539063,-0.5390625 0.796875,-0.6796875 0.263672,-0.1464844 0.530274,-0.2226562 0.796875,-0.2226562 0.210938,0 0.392578,0.023437 0.550782,0.070312 0.164062,0.046875 0.307617,0.1171875 0.433593,0.2109375 0.123047,0.087891 0.228516,0.1875 0.316407,0.3046875 0.09375,0.1171875 0.166992,0.2519531 0.222656,0.3984375 0.164062,-0.178711 0.319336,-0.3310547 0.46875,-0.4570313 0.146484,-0.1230469 0.292969,-0.2255859 0.433594,-0.3046875 0.140625,-0.076172 0.27246,-0.1318359 0.398437,-0.1640625 0.131836,-0.038086 0.263672,-0.058594 0.398438,-0.058594 0.310546,0 0.577148,0.058594 0.796875,0.1757812 0.216796,0.1113281 0.392578,0.2578125 0.527343,0.4453125 0.131836,0.1875 0.225586,0.4072266 0.28125,0.65625 0.06152,0.2519531 0.09375,0.515625 0.09375,0.796875 z m 5.62793,-2.68359371 c 0,0.140625 -0.04102,0.243164 -0.117188,0.3046875 -0.07031,0.064453 -0.149414,0.09375 -0.234375,0.09375 h -3.246093 c 0,0.2753906 0.02637,0.5214843 0.08203,0.7382812 0.05273,0.2197266 0.143555,0.4101563 0.269531,0.5742188 0.131836,0.15820309 0.298828,0.27832028 0.503906,0.36328121 0.210938,0.0791016 0.462891,0.1171875 0.761719,0.1171875 0.234375,0 0.439453,-0.0175781 0.621094,-0.0585938 0.178711,-0.0380859 0.333984,-0.0820313 0.46875,-0.12890625 0.140625,-0.046875 0.251953,-0.0878906 0.339844,-0.12890625 0.08496,-0.0380859 0.146484,-0.0585938 0.1875,-0.0585938 0.0293,0 0.05273,0.008789 0.07031,0.0234375 0.02344,0.008789 0.03809,0.0292969 0.04687,0.0585938 0.01465,0.0234375 0.02344,0.0585938 0.02344,0.10546875 0.0059,0.046875 0.01172,0.10253907 0.01172,0.1640625 0,0.046875 -0.0059,0.0908203 -0.01172,0.12890625 0,0.0322266 -0.0059,0.0644531 -0.01172,0.09375 0,0.0234375 -0.0088,0.046875 -0.02344,0.0703125 -0.01758,0.0234375 -0.03516,0.046875 -0.05859,0.0703125 -0.01758,0.0175781 -0.07617,0.046875 -0.175782,0.09375 -0.09375,0.046875 -0.219726,0.09375 -0.375,0.140625 -0.158203,0.04101563 -0.339843,0.07324219 -0.550781,0.10546875 -0.205078,0.03808594 -0.421875,0.05859375 -0.65625,0.05859375 -0.407226,0 -0.767578,-0.05566406 -1.078125,-0.1640625 -0.304687,-0.1171875 -0.5625,-0.28417968 -0.773437,-0.50390625 -0.205078,-0.22558593 -0.360352,-0.50683586 -0.46875,-0.84374996 -0.102539,-0.3427734 -0.152344,-0.7382813 -0.152344,-1.1835938 0,-0.421875 0.05273,-0.7998047 0.164062,-1.1367187 0.108399,-0.3427734 0.263672,-0.6328125 0.46875,-0.8671875 0.210938,-0.234375 0.459961,-0.4130859 0.75,-0.5390625 0.295899,-0.1318359 0.624024,-0.1992187 0.984375,-0.1992187 0.389649,0 0.720704,0.064453 0.996094,0.1875 0.272461,0.1259765 0.495117,0.2929687 0.667969,0.5039062 0.178711,0.2109375 0.307617,0.4628906 0.386719,0.75 0.08496,0.28125 0.128906,0.5830077 0.128906,0.9023438 z m -0.914063,-0.2695313 c 0.0059,-0.4746094 -0.09961,-0.8466797 -0.316406,-1.1132812 -0.219726,-0.272461 -0.547851,-0.4101563 -0.984375,-0.4101563 -0.228515,0 -0.427734,0.043945 -0.597656,0.1289063 -0.164063,0.079102 -0.304688,0.1875 -0.421875,0.328125 -0.111328,0.140625 -0.196289,0.3046875 -0.257813,0.4921875 -0.06445,0.1816406 -0.09961,0.3720703 -0.105468,0.5742187 z m 0,0"
           style="fill:#000000;fill-opacity:1;fill-rule:nonzero;stroke:none"
           aria-label="  Import Game"
           transform="matrix(1.3333333,0,0,1.3333333,1981.6667,1015.808)"
           clip-path="url(#clipPath129)" />
      </g>
      <g
         id="g130"
         transform="translate(-931.8533,-963.93334)">
        <path
           id="path130"
           d="m 205.5,168.07 h 180 v 54 h -180 z"
           style="fill:#ffffff;fill-opacity:1;fill-rule:evenodd;stroke:#172c51;stroke-width:1;stroke-linecap:butt;stroke-linejoin:miter;stroke-miterlimit:8;stroke-dasharray:none;stroke-opacity:1"
           transform="matrix(1.3333333,0,0,-1.3333333,1627.52,1122.56)" />
      </g>
      <g
         id="g131"
         transform="translate(-931.8533,-963.93334)">
        <path
           id="path131"
           d="m 205.6,195.12 h 180 v 27.1 h -180 z"
           style="fill:#d6dce5;fill-opacity:1;fill-rule:evenodd;stroke:#000000;stroke-width:0.5;stroke-linecap:butt;stroke-linejoin:round;stroke-miterlimit:8;stroke-dasharray:none;stroke-opacity:1"
           transform="matrix(1.3333333,0,0,-1.3333333,1627.52,1122.56)" />
      </g>
      <g
         id="g132"
         transform="translate(-931.8533,-963.93334)">
        <path
           id="path132"
           d="m 6.2810547,-6.1400781 c 0,0.070312 -0.00586,0.1347656 -0.011719,0.1875 -0.00879,0.046875 -0.020508,0.09082 -0.035156,0.1289062 -0.00879,0.032227 -0.023437,0.055664 -0.046875,0.070312 -0.023437,0.017578 -0.046875,0.023437 -0.070312,0.023437 -0.046875,0 -0.1230469,-0.035156 -0.2226563,-0.1054687 -0.102539,-0.070312 -0.2402343,-0.1435547 -0.4101562,-0.2226563 -0.1728516,-0.084961 -0.3808594,-0.1640625 -0.6210938,-0.234375 -0.243164,-0.070312 -0.5273437,-0.1054687 -0.8554687,-0.1054687 -0.3925781,0 -0.7441406,0.070312 -1.0546875,0.2109375 -0.3134766,0.140625 -0.5800781,0.3398437 -0.796875,0.5976562 -0.2109375,0.2519532 -0.375,0.5507813 -0.4921875,0.9023438 -0.1113281,0.3457031 -0.1640625,0.7207031 -0.1640625,1.125 0,0.4541015 0.061523,0.8554687 0.1875,1.2070312 0.1230469,0.3515625 0.2958984,0.6503907 0.515625,0.890625 0.2255859,0.2431641 0.4921875,0.4277344 0.796875,0.55078128 0.3105469,0.12597656 0.65625,0.1875 1.03125,0.1875 0.2167969,0 0.4365234,-0.0234375 0.65625,-0.0703125 0.2255859,-0.0527344 0.4365234,-0.13476563 0.6328125,-0.24609378 v -2.0742187 h -1.640625 c -0.064453,0 -0.1113281,-0.029297 -0.140625,-0.09375 -0.032227,-0.061523 -0.046875,-0.1582031 -0.046875,-0.2929688 0,-0.070312 0.00293,-0.1289062 0.011719,-0.1757812 0.00586,-0.046875 0.017578,-0.084961 0.035156,-0.1171875 0.014648,-0.029297 0.029297,-0.052734 0.046875,-0.070312 0.023437,-0.014648 0.052734,-0.023437 0.09375,-0.023437 h 2.25 c 0.038086,0 0.076172,0.00879 0.1171875,0.023437 0.046875,0.017578 0.084961,0.041016 0.1171875,0.070312 0.029297,0.023437 0.052734,0.064453 0.070312,0.1171875 0.023437,0.046875 0.035156,0.1054687 0.035156,0.1757812 v 2.70703128 c 0,0.09375 -0.020508,0.17578125 -0.058594,0.24609375 -0.032227,0.0703125 -0.1025391,0.13476562 -0.2109375,0.1875 -0.1025391,0.0556641 -0.2402344,0.11425781 -0.4101563,0.17578125 -0.1640625,0.0644531 -0.336914,0.1171875 -0.515625,0.1640625 C 4.8923828,0.01519531 4.7107422,0.0415625 4.5232422,0.05914063 4.3416016,0.08257813 4.1628906,0.09429688 3.9841797,0.09429688 c -0.5478516,0 -1.0400391,-0.08203125 -1.4765625,-0.24609375 C 2.0769531,-0.32171875 1.7136719,-0.56488281 1.4177734,-0.87835937 1.1189453,-1.1976953 0.89335937,-1.575625 0.73808594,-2.0150781 c -0.15820313,-0.4365235 -0.234375,-0.928711 -0.234375,-1.4765625 0,-0.5625 0.0820313,-1.069336 0.24609375,-1.5234375 0.16992187,-0.459961 0.41015621,-0.8496094 0.71484371,-1.171875 0.3105469,-0.328125 0.6855469,-0.5771485 1.125,-0.75 0.4365235,-0.178711 0.9169922,-0.2695313 1.4414063,-0.2695313 0.2724609,0 0.5273437,0.023437 0.7617187,0.070312 0.2402344,0.046875 0.4511719,0.1054688 0.6328125,0.1757813 0.1875,0.064453 0.3427735,0.1347656 0.46875,0.2109375 0.1230469,0.070312 0.2109375,0.1289062 0.2578125,0.1757812 0.052734,0.046875 0.087891,0.1025391 0.1054688,0.1640625 0.014648,0.064453 0.023437,0.1523438 0.023437,0.2695318 z m 2.4316406,5.99999998 c 0,0.0322266 -0.00879,0.05859375 -0.023437,0.08203125 -0.017578,0.01757812 -0.041016,0.03222656 -0.070312,0.046875 -0.032227,0.01464843 -0.079102,0.02636718 -0.140625,0.03515625 -0.055664,0.0058594 -0.1289062,0.01171875 -0.2226562,0.01171875 -0.087891,0 -0.1611329,-0.0058594 -0.2226563,-0.01171875 -0.055664,-0.0087891 -0.1025391,-0.02050782 -0.140625,-0.03515625 -0.032227,-0.01464844 -0.055664,-0.02929688 -0.070312,-0.046875 -0.00879,-0.0234375 -0.011719,-0.04980469 -0.011719,-0.08203125 V -5.0853906 c 0,-0.023437 0.00293,-0.046875 0.011719,-0.070312 0.014648,-0.023437 0.038086,-0.038086 0.070312,-0.046875 0.038086,-0.014648 0.084961,-0.026367 0.140625,-0.035156 0.061523,-0.00586 0.1347656,-0.011719 0.2226563,-0.011719 0.09375,0 0.1669921,0.00586 0.2226562,0.011719 0.061523,0.00879 0.1083984,0.020508 0.140625,0.035156 0.029297,0.00879 0.052734,0.023437 0.070312,0.046875 0.014648,0.023437 0.023437,0.046875 0.023437,0.070312 z M 8.8181641,-6.7494531 c 0,0.2109375 -0.043945,0.3574219 -0.1289063,0.4335937 -0.079102,0.079102 -0.2226562,0.1171875 -0.4335937,0.1171875 -0.2109375,0 -0.3603516,-0.035156 -0.4453125,-0.1054687 -0.079102,-0.076172 -0.1171875,-0.2226563 -0.1171875,-0.4335938 0,-0.2109375 0.038086,-0.3544922 0.1171875,-0.4335937 0.084961,-0.076172 0.2373046,-0.1171875 0.4570312,-0.1171875 0.2109375,0 0.3544922,0.041016 0.4335938,0.1171875 0.076172,0.070312 0.1171875,0.2109375 0.1171875,0.421875 z m 5.5869139,1.6523437 c 0,0.017578 -0.0059,0.035156 -0.01172,0.058594 0,0.017578 -0.0059,0.032227 -0.01172,0.046875 0,0.017578 -0.0059,0.035156 -0.01172,0.058594 0,0.023437 -0.0059,0.046875 -0.01172,0.070312 l -1.6875,4.69921878 c -0.01758,0.0410156 -0.03516,0.07617187 -0.05859,0.10546875 -0.02344,0.0234375 -0.05859,0.04394531 -0.105468,0.058593745 -0.04687,0.005859375 -0.111329,0.014648435 -0.1875,0.023437505 -0.07031,0.0058594 -0.161133,0.01171875 -0.269532,0.01171875 -0.111328,0 -0.205078,-0.0058594 -0.28125,-0.01171875 -0.07031,-0.0087891 -0.128906,-0.02050782 -0.175781,-0.03515625 -0.04102,-0.01464844 -0.07617,-0.03515625 -0.105469,-0.05859375 -0.02344,-0.0234375 -0.04395,-0.05273438 -0.05859,-0.09375 L 9.7527344,-4.8627344 c -0.017578,-0.038086 -0.032227,-0.073242 -0.046875,-0.1054687 -0.00879,-0.038086 -0.011719,-0.064453 -0.011719,-0.082031 0,-0.014648 0,-0.029297 0,-0.046875 0,-0.023437 0.00586,-0.046875 0.023437,-0.070312 0.014648,-0.023437 0.038086,-0.038086 0.070312,-0.046875 0.038086,-0.014648 0.084961,-0.023437 0.140625,-0.023437 0.052734,-0.00586 0.1230466,-0.011719 0.2109376,-0.011719 0.108399,0 0.193359,0.00586 0.257813,0.011719 0.06152,0 0.108398,0.00879 0.140625,0.023437 0.03809,0.017578 0.06445,0.035156 0.08203,0.058594 0.01465,0.023437 0.0293,0.052734 0.04687,0.082031 l 1.394531,4.07812503 0.02344,0.0585938 0.01172,-0.0585938 1.382813,-4.07812503 c 0.0059,-0.029297 0.01758,-0.058594 0.03516,-0.082031 0.02344,-0.023437 0.04981,-0.041016 0.08203,-0.058594 0.0293,-0.014648 0.07617,-0.023437 0.140625,-0.023437 0.06152,-0.00586 0.143555,-0.011719 0.246094,-0.011719 0.07617,0 0.143555,0.00586 0.199219,0.011719 0.05273,0 0.09668,0.00879 0.128906,0.023437 0.0293,0.017578 0.05273,0.035156 0.07031,0.058594 0.01465,0.017578 0.02344,0.035156 0.02344,0.058594 z m 5.053711,2.2734375 c 0,0.140625 -0.04102,0.2431641 -0.117187,0.3046875 -0.07031,0.064453 -0.149415,0.09375 -0.234375,0.09375 h -3.246094 c 0,0.2753907 0.02637,0.5214844 0.08203,0.7382813 0.05273,0.2197265 0.143555,0.4101562 0.269531,0.5742187 0.131836,0.15820315 0.298828,0.27832034 0.503907,0.36328128 0.210937,0.0791016 0.46289,0.1171875 0.761718,0.1171875 0.234375,0 0.439453,-0.0175781 0.621094,-0.0585938 0.178711,-0.0380859 0.333984,-0.0820313 0.46875,-0.12890625 0.140625,-0.046875 0.251953,-0.0878906 0.339844,-0.12890625 0.08496,-0.0380859 0.146484,-0.0585937 0.1875,-0.0585937 0.0293,0 0.05273,0.008789 0.07031,0.0234375 0.02344,0.008789 0.03809,0.0292969 0.04687,0.0585938 0.01465,0.0234375 0.02344,0.0585938 0.02344,0.10546875 0.0059,0.046875 0.01172,0.10253906 0.01172,0.1640625 0,0.046875 -0.0059,0.0908203 -0.01172,0.12890625 0,0.0322266 -0.0059,0.0644531 -0.01172,0.09375 0,0.0234375 -0.0088,0.046875 -0.02344,0.0703125 -0.01758,0.0234375 -0.03516,0.046875 -0.05859,0.0703125 -0.01758,0.0175781 -0.07617,0.046875 -0.175781,0.09375 -0.09375,0.046875 -0.219727,0.09375 -0.375,0.140625 -0.158204,0.04101562 -0.339844,0.07324218 -0.550782,0.10546875 -0.205078,0.03808593 -0.421875,0.05859375 -0.65625,0.05859375 -0.407226,0 -0.767578,-0.05566407 -1.078125,-0.1640625 -0.304687,-0.1171875 -0.5625,-0.28417969 -0.773437,-0.50390625 -0.205078,-0.22558594 -0.360352,-0.50683593 -0.46875,-0.84374993 -0.102539,-0.3427735 -0.152344,-0.7382813 -0.152344,-1.1835938 0,-0.421875 0.05273,-0.7998048 0.164063,-1.1367187 0.108398,-0.3427735 0.263671,-0.6328125 0.46875,-0.8671875 0.210937,-0.234375 0.45996,-0.413086 0.75,-0.5390625 0.295898,-0.131836 0.624023,-0.1992188 0.984375,-0.1992188 0.389648,0 0.720703,0.064453 0.996093,0.1875 0.272461,0.1259766 0.495117,0.2929688 0.667969,0.5039063 0.178711,0.2109375 0.307617,0.4628906 0.386719,0.75 0.08496,0.28125 0.128906,0.5830078 0.128906,0.9023437 z m -0.914062,-0.2695312 c 0.0059,-0.4746094 -0.09961,-0.8466797 -0.316407,-1.1132813 -0.219726,-0.2724609 -0.547851,-0.4101562 -0.984375,-0.4101562 -0.228515,0 -0.427734,0.043945 -0.597656,0.1289062 -0.164062,0.079102 -0.304687,0.1875 -0.421875,0.328125 -0.111328,0.140625 -0.196289,0.3046875 -0.257812,0.4921875 -0.06445,0.1816407 -0.09961,0.3720703 -0.105469,0.5742188 z m 0,0"
           style="fill:#000000;fill-opacity:1;fill-rule:nonzero;stroke:none"
           aria-label="  Give "
           transform="matrix(1.3333333,0,0,1.3333333,1911.5867,845.41333)"
           clip-path="url(#clipPath133)" />
        <path
           id="path134"
           d="m 7.7589062,-5.0971094 c 0,0.032227 -0.00586,0.067383 -0.011719,0.1054688 -0.00879,0.032227 -0.020508,0.076172 -0.035156,0.1289062 L 6.2471875,-0.16351562 C 6.2383984,-0.1225 6.22375,-0.08734375 6.2003125,-0.05804687 6.176875,-0.03460937 6.1417187,-0.01410156 6.0948437,5.46875e-4 6.0538281,0.00640625 5.9952344,0.01519531 5.9190625,0.02398438 5.84875,0.02984375 5.7579297,0.03570313 5.6495312,0.03570313 c -0.1113281,0 -0.2050781,-0.0058594 -0.28125,-0.01171875 -0.079102,-0.0087891 -0.140625,-0.02050782 -0.1875,-0.03515625 C 5.1339062,-0.02582031 5.09875,-0.04632812 5.0753125,-0.06976562 5.0577344,-0.09320312 5.0430859,-0.1225 5.0284375,-0.16351562 l -1.03125,-3.58593748 -0.011719,-0.046875 -0.011719,0.046875 -0.9609375,3.58593748 C 2.9952344,-0.1225 2.9776562,-0.08734375 2.9542187,-0.05804687 2.9307812,-0.03460937 2.895625,-0.01410156 2.84875,5.46875e-4 2.801875,0.00640625 2.7374219,0.01519531 2.66125,0.02398438 2.5909375,0.02984375 2.5001172,0.03570313 2.3917187,0.03570313 c -0.1171875,0 -0.2109375,-0.0058594 -0.28125,-0.01171875 C 2.0401562,0.01519531 1.9815625,0.00347656 1.9346875,-0.01117187 1.8878125,-0.02582031 1.8526562,-0.04632812 1.8292187,-0.06976562 1.8116406,-0.09320312 1.7969922,-0.1225 1.7823437,-0.16351562 L 0.3409375,-4.8627344 c -0.0175781,-0.052734 -0.0292969,-0.09668 -0.0351563,-0.1289062 -0.008789,-0.038086 -0.0117188,-0.073242 -0.0117188,-0.1054688 0,-0.029297 0.005859,-0.052734 0.0234375,-0.070312 0.0146484,-0.023437 0.0380859,-0.038086 0.0703125,-0.046875 0.0380859,-0.014648 0.0849609,-0.023437 0.140625,-0.023437 0.0615234,-0.00586 0.13183594,-0.011719 0.2109375,-0.011719 0.0996094,0 0.18164062,0.00586 0.24609375,0.011719 0.0615236,0 0.10839845,0.00879 0.14062495,0.023437 0.038086,0.017578 0.064453,0.035156 0.082031,0.058594 0.014648,0.023437 0.026367,0.052734 0.035156,0.082031 l 1.1953125,4.07812503 0.011719,0.046875 0.011719,-0.046875 1.0898438,-4.07812503 c 0.00586,-0.029297 0.017578,-0.058594 0.035156,-0.082031 0.014648,-0.023437 0.038086,-0.041016 0.070312,-0.058594 0.029297,-0.014648 0.073242,-0.023437 0.1289063,-0.023437 0.061523,-0.00586 0.140625,-0.011719 0.234375,-0.011719 0.084961,0 0.1552734,0.00586 0.2109375,0.011719 0.052734,0 0.09668,0.00879 0.1289062,0.023437 0.038086,0.017578 0.064453,0.035156 0.082031,0.058594 0.014648,0.017578 0.026367,0.041016 0.035156,0.070312 l 1.171875,4.08984373 0.011719,0.046875 0.011719,-0.046875 1.171875,-4.07812503 c 0.00586,-0.029297 0.017578,-0.058594 0.035156,-0.082031 0.014648,-0.023437 0.038086,-0.041016 0.070312,-0.058594 0.038086,-0.014648 0.087891,-0.023437 0.1523437,-0.023437 0.061523,-0.00586 0.140625,-0.011719 0.234375,-0.011719 0.084961,0 0.1552735,0.00586 0.2109375,0.011719 0.052734,0 0.09668,0.00879 0.1289063,0.023437 0.029297,0.017578 0.049805,0.032227 0.058594,0.046875 0.014648,0.017578 0.023437,0.041016 0.023437,0.070312 z m 5.4843748,2.4375 c 0,0.3984375 -0.05566,0.7705078 -0.164062,1.1132813 -0.102539,0.336914 -0.257813,0.62988279 -0.46875,0.87890623 -0.210938,0.24316406 -0.477539,0.43359375 -0.796875,0.57421875 -0.313477,0.13183593 -0.679688,0.19921875 -1.101563,0.19921875 -0.407226,0 -0.7617185,-0.05859375 -1.066406,-0.17578125 -0.2988281,-0.12304688 -0.5478516,-0.29882813 -0.75,-0.52734375 -0.1962891,-0.234375 -0.3457031,-0.51562503 -0.4453125,-0.84375003 -0.1025391,-0.328125 -0.1523438,-0.703125 -0.1523438,-1.125 0,-0.3984375 0.049805,-0.7646484 0.1523438,-1.1015625 0.1083984,-0.3427734 0.2695312,-0.6357422 0.4804687,-0.8789062 0.2109375,-0.2490235 0.4716797,-0.4394531 0.7851563,-0.5742188 0.3105465,-0.140625 0.6796875,-0.2109375 1.1015625,-0.2109375 0.404297,0 0.761719,0.064453 1.066406,0.1875 0.304688,0.1171875 0.553711,0.2929688 0.75,0.5273438 0.202149,0.2285156 0.354492,0.5097656 0.457031,0.84375 0.09961,0.328125 0.152344,0.7001953 0.152344,1.1132812 z m -0.949219,0.058594 c 0,-0.2636719 -0.0293,-0.515625 -0.08203,-0.75 -0.04687,-0.2402344 -0.128906,-0.4511719 -0.246094,-0.6328125 -0.111328,-0.178711 -0.263671,-0.319336 -0.457031,-0.421875 -0.196289,-0.1083985 -0.439453,-0.1640625 -0.726562,-0.1640625 -0.266602,0 -0.498047,0.046875 -0.691407,0.140625 -0.1874995,0.09375 -0.3457026,0.2314453 -0.4687495,0.4101562 -0.1259766,0.1728516 -0.2197266,0.3808594 -0.28125,0.6210938 -0.064453,0.234375 -0.09375,0.4921875 -0.09375,0.7734375 0,0.2753906 0.023437,0.5332031 0.070312,0.7734375 0.052734,0.234375 0.1347656,0.4423828 0.2460937,0.6210937 0.1171875,0.1728516 0.272461,0.31347659 0.4687508,0.42187503 0.193359,0.10253906 0.436523,0.15234375 0.726562,0.15234375 0.263672,0 0.495117,-0.046875 0.691406,-0.140625 0.19336,-0.0996094 0.354493,-0.23730468 0.480469,-0.41015628 0.123047,-0.1699218 0.213867,-0.375 0.269531,-0.609375 0.06152,-0.2402343 0.09375,-0.5039062 0.09375,-0.7851562 z m 5.112305,-2.15625 c 0,0.079102 -0.0059,0.1464844 -0.01172,0.1992187 0,0.055664 -0.0059,0.099609 -0.01172,0.1289063 -0.0088,0.032227 -0.02344,0.058594 -0.04687,0.082031 -0.01758,0.017578 -0.03516,0.023437 -0.05859,0.023437 -0.03223,0 -0.07031,-0.00586 -0.117188,-0.023437 -0.04102,-0.023437 -0.08789,-0.041016 -0.140625,-0.058594 -0.05566,-0.014648 -0.114257,-0.029297 -0.175781,-0.046875 -0.06445,-0.014648 -0.134765,-0.023437 -0.210937,-0.023437 -0.09375,0 -0.184571,0.020508 -0.269532,0.058594 -0.08789,0.041016 -0.18164,0.1025391 -0.28125,0.1875 -0.09375,0.079102 -0.196289,0.1875 -0.304687,0.328125 -0.111328,0.140625 -0.228516,0.3134766 -0.351563,0.515625 v 3.24609378 c 0,0.0322266 -0.0088,0.05859375 -0.02344,0.08203125 -0.01758,0.01757812 -0.04102,0.03222656 -0.07031,0.046875 -0.03223,0.01464843 -0.0791,0.02636718 -0.140625,0.03515625 -0.05566,0.0058594 -0.128906,0.01171875 -0.222656,0.01171875 -0.08789,0 -0.161133,-0.0058594 -0.222656,-0.01171875 -0.05566,-0.0087891 -0.102539,-0.02050782 -0.140625,-0.03515625 -0.03223,-0.01464844 -0.05566,-0.02929688 -0.07031,-0.046875 -0.0088,-0.0234375 -0.01172,-0.04980469 -0.01172,-0.08203125 V -5.0853906 c 0,-0.023437 0.0029,-0.046875 0.01172,-0.070312 0.01465,-0.023437 0.03809,-0.041016 0.07031,-0.058594 0.0293,-0.014648 0.07031,-0.023437 0.117187,-0.023437 0.05274,-0.00586 0.123047,-0.011719 0.210938,-0.011719 0.07617,0 0.143555,0.00586 0.199219,0.011719 0.05273,0 0.09375,0.00879 0.117187,0.023437 0.0293,0.017578 0.05274,0.035156 0.07031,0.058594 0.01465,0.023437 0.02344,0.046875 0.02344,0.070312 v 0.7265625 c 0.131836,-0.2021485 0.257813,-0.3632813 0.375,-0.4804688 0.117188,-0.1230468 0.228516,-0.2226562 0.339844,-0.2929687 0.108398,-0.076172 0.213867,-0.1289063 0.316406,-0.1523438 0.09961,-0.029297 0.205078,-0.046875 0.316406,-0.046875 0.04687,0 0.09668,0.00586 0.152344,0.011719 0.06152,0.00879 0.123047,0.020508 0.1875,0.035156 0.07031,0.00879 0.131836,0.023437 0.1875,0.046875 0.05274,0.017578 0.09375,0.035156 0.117188,0.058594 0.02344,0.017578 0.03516,0.032227 0.03516,0.046875 0.0059,0.017578 0.01465,0.041016 0.02344,0.070312 0.0059,0.023437 0.01172,0.058594 0.01172,0.1054687 0,0.046875 0,0.1142578 0,0.1992188 z m 1.87207,4.61718748 c 0,0.0322266 -0.0088,0.05859375 -0.02344,0.08203125 -0.01758,0.01757812 -0.04102,0.03222656 -0.07031,0.046875 -0.03223,0.01464843 -0.0791,0.02636718 -0.140625,0.03515625 -0.05566,0.0058594 -0.128906,0.01171875 -0.222656,0.01171875 -0.08789,0 -0.161133,-0.0058594 -0.222656,-0.01171875 -0.05566,-0.0087891 -0.102539,-0.02050782 -0.140625,-0.03515625 -0.03223,-0.01464844 -0.05566,-0.02929688 -0.07031,-0.046875 -0.0088,-0.0234375 -0.01172,-0.04980469 -0.01172,-0.08203125 V -7.4760156 c 0,-0.029297 0.0029,-0.052734 0.01172,-0.070312 0.01465,-0.023437 0.03809,-0.041016 0.07031,-0.058594 0.03809,-0.014648 0.08496,-0.026367 0.140625,-0.035156 0.06152,-0.00586 0.134766,-0.011719 0.222656,-0.011719 0.09375,0 0.166992,0.00586 0.222656,0.011719 0.06152,0.00879 0.108399,0.020508 0.140625,0.035156 0.0293,0.017578 0.05273,0.035156 0.07031,0.058594 0.01465,0.017578 0.02344,0.041016 0.02344,0.070312 z m 5.865235,0 c 0,0.0322266 -0.0088,0.05859375 -0.02344,0.08203125 -0.0088,0.0234375 -0.0293,0.04394531 -0.05859,0.058593745 -0.03223,0.005859375 -0.07617,0.014648435 -0.128907,0.023437505 -0.04687,0.0058594 -0.111328,0.01171875 -0.1875,0.01171875 -0.07031,0 -0.134765,-0.0058594 -0.1875,-0.01171875 -0.05566,-0.0087891 -0.09961,-0.01757813 -0.128906,-0.023437505 -0.03223,-0.014648435 -0.05566,-0.035156245 -0.07031,-0.058593745 -0.01758,-0.0234375 -0.02344,-0.04980469 -0.02344,-0.08203125 v -0.65625 c -0.257812,0.29003906 -0.527344,0.51269531 -0.808594,0.66796875 -0.28125,0.15527343 -0.585937,0.234375 -0.914062,0.234375 -0.369141,0 -0.679688,-0.0703125 -0.9375,-0.2109375 -0.251953,-0.140625 -0.457031,-0.33105469 -0.621094,-0.57421875 C 20.895625,-0.919375 20.778437,-1.200625 20.702266,-1.5228906 c -0.07031,-0.328125 -0.105469,-0.6708985 -0.105469,-1.03125 0,-0.421875 0.04102,-0.8027344 0.128906,-1.1484375 0.09375,-0.3427735 0.228516,-0.6328125 0.410156,-0.8671875 0.178711,-0.2402344 0.401368,-0.4277344 0.667969,-0.5625 0.263672,-0.131836 0.574219,-0.1992188 0.925781,-0.1992188 0.28711,0 0.550782,0.067383 0.785157,0.1992188 0.240234,0.1259765 0.480468,0.3105469 0.714843,0.5507812 v -2.8710937 c 0,-0.023437 0.0059,-0.046875 0.02344,-0.070312 0.01465,-0.023437 0.03809,-0.041016 0.07031,-0.058594 0.03809,-0.014648 0.08496,-0.026367 0.140625,-0.035156 0.06152,-0.00586 0.134766,-0.011719 0.222657,-0.011719 0.08496,0 0.155273,0.00586 0.210937,0.011719 0.06152,0.00879 0.108399,0.020508 0.140625,0.035156 0.03809,0.017578 0.06445,0.035156 0.08203,0.058594 0.01465,0.023437 0.02344,0.046875 0.02344,0.070312 z M 24.229609,-3.6088281 c -0.243164,-0.3046875 -0.480468,-0.5332031 -0.714843,-0.6914063 -0.228516,-0.1640625 -0.465821,-0.2460937 -0.714844,-0.2460937 -0.228516,0 -0.421875,0.055664 -0.585938,0.1640625 -0.158203,0.1113281 -0.287109,0.2548828 -0.386718,0.4335937 -0.102539,0.1816407 -0.175782,0.3837891 -0.222657,0.609375 -0.04687,0.2285157 -0.07031,0.4570313 -0.07031,0.6914063 0,0.2519531 0.01758,0.4980469 0.05859,0.7382812 0.03809,0.234375 0.105468,0.4453125 0.199218,0.6328125 0.09375,0.1816407 0.216797,0.32812503 0.375,0.44531253 0.164063,0.11132812 0.363282,0.1640625 0.597657,0.1640625 0.123046,0 0.240234,-0.0146484 0.351562,-0.046875 0.108399,-0.0380859 0.222656,-0.09375 0.339844,-0.1640625 0.117187,-0.0761719 0.237305,-0.17871093 0.363281,-0.30468753 0.131836,-0.1230468 0.269531,-0.2753906 0.410156,-0.4570312 z m 9.164063,3.46874998 c 0,0.0322266 -0.0088,0.05859375 -0.02344,0.08203125 -0.01758,0.01757812 -0.04102,0.03222656 -0.07031,0.046875 -0.03223,0.01464843 -0.0791,0.02636718 -0.140625,0.03515625 -0.05566,0.0058594 -0.125977,0.01171875 -0.210938,0.01171875 -0.09375,0 -0.172851,-0.0058594 -0.234375,-0.01171875 -0.05566,-0.0087891 -0.102539,-0.02050782 -0.140625,-0.03515625 -0.03223,-0.01464844 -0.05566,-0.02929688 -0.07031,-0.046875 -0.0088,-0.0234375 -0.01172,-0.04980469 -0.01172,-0.08203125 V -3.0346094 c 0,-0.28125 -0.02344,-0.5068359 -0.07031,-0.6796875 -0.04687,-0.1699218 -0.114258,-0.3193359 -0.199219,-0.4453125 -0.0791,-0.1230468 -0.18457,-0.2167968 -0.316406,-0.28125 -0.134766,-0.070312 -0.290039,-0.1054687 -0.46875,-0.1054687 -0.228516,0 -0.454102,0.082031 -0.679688,0.2460937 -0.228516,0.1640625 -0.46582,0.3984375 -0.714844,0.703125 v 3.45703128 c 0,0.0322266 -0.0088,0.05859375 -0.02344,0.08203125 -0.01758,0.01757812 -0.04102,0.03222656 -0.07031,0.046875 -0.03223,0.01464843 -0.0791,0.02636718 -0.140625,0.03515625 -0.05566,0.0058594 -0.128906,0.01171875 -0.222656,0.01171875 -0.08789,0 -0.161133,-0.0058594 -0.222656,-0.01171875 -0.05566,-0.0087891 -0.102539,-0.02050782 -0.140625,-0.03515625 -0.03223,-0.01464844 -0.05566,-0.02929688 -0.07031,-0.046875 -0.0088,-0.0234375 -0.01172,-0.04980469 -0.01172,-0.08203125 V -5.0853906 c 0,-0.023437 0.0029,-0.046875 0.01172,-0.070312 0.01465,-0.023437 0.03809,-0.041016 0.07031,-0.058594 0.0293,-0.014648 0.07031,-0.023437 0.117187,-0.023437 0.05273,-0.00586 0.123047,-0.011719 0.210938,-0.011719 0.07617,0 0.143555,0.00586 0.199219,0.011719 0.05273,0 0.09375,0.00879 0.117187,0.023437 0.0293,0.017578 0.05273,0.035156 0.07031,0.058594 0.01465,0.023437 0.02344,0.046875 0.02344,0.070312 v 0.65625 c 0.272461,-0.3105469 0.544922,-0.5390625 0.820313,-0.6796875 0.28125,-0.1464844 0.5625,-0.2226563 0.84375,-0.2226563 0.328125,0 0.603515,0.058594 0.832031,0.1757813 0.225586,0.1113281 0.410156,0.2578125 0.550781,0.4453125 0.140625,0.1875 0.237305,0.4072265 0.292969,0.65625 0.06152,0.2519531 0.09375,0.5507812 0.09375,0.9023437 z m 5.267578,0.0117188 c 0,0.04101562 -0.01758,0.0703125 -0.04687,0.09375 -0.03223,0.0234375 -0.07617,0.03808593 -0.128906,0.046875 -0.04687,0.01464843 -0.123047,0.0234375 -0.222657,0.0234375 -0.09375,0 -0.169921,-0.0087891 -0.222656,-0.0234375 -0.05566,-0.00878907 -0.09961,-0.0234375 -0.128906,-0.046875 -0.02344,-0.0234375 -0.03516,-0.05273438 -0.03516,-0.09375 v -0.4921875 c -0.219727,0.22851562 -0.462891,0.40722656 -0.726563,0.5390625 -0.266601,0.12304687 -0.547851,0.1875 -0.84375,0.1875 -0.257812,0 -0.492187,-0.03515625 -0.703125,-0.105468755 -0.210937,-0.061523435 -0.392578,-0.155273435 -0.539062,-0.281249995 -0.149414,-0.13183594 -0.266602,-0.29296875 -0.351563,-0.48046875 -0.0791,-0.1875 -0.117187,-0.40136728 -0.117187,-0.64453128 0,-0.272461 0.05273,-0.5097656 0.164062,-0.7148438 0.117188,-0.2109375 0.28125,-0.3808593 0.492188,-0.515625 0.216797,-0.1318359 0.480468,-0.234375 0.785156,-0.3046875 0.304687,-0.070312 0.650391,-0.1054687 1.042969,-0.1054687 h 0.679687 v -0.3867188 c 0,-0.1875 -0.02344,-0.3515625 -0.07031,-0.4921875 -0.04102,-0.1464842 -0.105469,-0.2695312 -0.199219,-0.3632812 -0.08789,-0.099609 -0.199219,-0.1757812 -0.339844,-0.2226562 -0.140625,-0.052734 -0.316406,-0.082031 -0.527344,-0.082031 -0.219726,0 -0.418945,0.029297 -0.597656,0.082031 -0.18164,0.055664 -0.336914,0.1142577 -0.46875,0.1757812 -0.134765,0.064453 -0.246094,0.123047 -0.339844,0.1757813 -0.08789,0.055664 -0.152343,0.082031 -0.199218,0.082031 -0.03223,0 -0.05859,-0.00586 -0.08203,-0.023437 -0.01758,-0.014648 -0.03223,-0.038086 -0.04687,-0.070312 -0.01758,-0.029297 -0.0293,-0.064453 -0.03516,-0.1054688 -0.0088,-0.046875 -0.01172,-0.09668 -0.01172,-0.1523437 0,-0.09375 0.0029,-0.1669922 0.01172,-0.2226563 0.01465,-0.052734 0.04687,-0.1054687 0.09375,-0.1523437 0.05273,-0.046875 0.140625,-0.099609 0.257813,-0.1640625 0.123047,-0.061523 0.263672,-0.1201172 0.421875,-0.1757813 0.155273,-0.052734 0.328125,-0.09668 0.515625,-0.1289062 0.1875,-0.038086 0.375,-0.058594 0.5625,-0.058594 0.357422,0 0.659179,0.043945 0.902343,0.1289063 0.249024,0.079102 0.451172,0.196289 0.609375,0.3515625 0.155274,0.1582031 0.269532,0.3515625 0.339844,0.5859375 0.07031,0.2285156 0.105469,0.4921875 0.105469,0.796875 z M 37.758906,-2.3900781 h -0.773437 c -0.251953,0 -0.46875,0.023437 -0.65625,0.070312 -0.181641,0.041016 -0.333985,0.102539 -0.457032,0.1875 -0.117187,0.079102 -0.208007,0.1757812 -0.269531,0.2929687 -0.05566,0.1113282 -0.08203,0.2431641 -0.08203,0.3984375 0,0.2578125 0.08203,0.46289065 0.246094,0.60937503 0.164062,0.14941406 0.392578,0.22265625 0.691406,0.22265625 0.234375,0 0.451172,-0.0585938 0.65625,-0.17578125 0.202148,-0.12304688 0.416016,-0.30761723 0.644531,-0.55078123 z m 9.799805,2.24999998 c 0,0.0322266 -0.0088,0.05859375 -0.02344,0.08203125 -0.01758,0.01757812 -0.04394,0.03222656 -0.08203,0.046875 -0.03223,0.01464843 -0.0791,0.02636718 -0.140625,0.03515625 -0.05566,0.0058594 -0.125976,0.01171875 -0.210937,0.01171875 -0.09375,0 -0.172852,-0.0058594 -0.234375,-0.01171875 -0.05566,-0.0087891 -0.102539,-0.02050782 -0.140625,-0.03515625 -0.03223,-0.01464844 -0.05566,-0.02929688 -0.07031,-0.046875 -0.0088,-0.0234375 -0.01172,-0.04980469 -0.01172,-0.08203125 V -3.1400781 c 0,-0.2109375 -0.02051,-0.4013672 -0.05859,-0.5742188 -0.04102,-0.1699218 -0.09961,-0.3193359 -0.175782,-0.4453125 -0.0791,-0.1230468 -0.18164,-0.2167968 -0.304687,-0.28125 -0.125977,-0.070312 -0.275391,-0.1054687 -0.445313,-0.1054687 -0.205078,0 -0.410156,0.082031 -0.621093,0.2460937 -0.210938,0.1640625 -0.445313,0.3984375 -0.703125,0.703125 v 3.45703128 c 0,0.0322266 -0.0088,0.05859375 -0.02344,0.08203125 -0.0088,0.01757812 -0.03223,0.03222656 -0.07031,0.046875 -0.03223,0.01464843 -0.0791,0.02636718 -0.140625,0.03515625 -0.05566,0.0058594 -0.128907,0.01171875 -0.222657,0.01171875 -0.0791,0 -0.149414,-0.0058594 -0.210937,-0.01171875 -0.06445,-0.0087891 -0.114258,-0.02050782 -0.152344,-0.03515625 -0.03223,-0.01464844 -0.05566,-0.02929688 -0.07031,-0.046875 -0.0088,-0.0234375 -0.01172,-0.04980469 -0.01172,-0.08203125 V -3.1400781 c 0,-0.2109375 -0.02051,-0.4013672 -0.05859,-0.5742188 -0.04102,-0.1699218 -0.102539,-0.3193359 -0.1875,-0.4453125 -0.0791,-0.1230468 -0.18164,-0.2167968 -0.304687,-0.28125 -0.117188,-0.070312 -0.263672,-0.1054687 -0.433594,-0.1054687 -0.210938,0 -0.421875,0.082031 -0.632813,0.2460937 -0.210937,0.1640625 -0.442382,0.3984375 -0.691406,0.703125 v 3.45703128 c 0,0.0322266 -0.0088,0.05859375 -0.02344,0.08203125 -0.01758,0.01757812 -0.04102,0.03222656 -0.07031,0.046875 -0.03223,0.01464843 -0.0791,0.02636718 -0.140625,0.03515625 -0.05566,0.0058594 -0.128906,0.01171875 -0.222656,0.01171875 -0.08789,0 -0.161133,-0.0058594 -0.222656,-0.01171875 -0.05566,-0.0087891 -0.102539,-0.02050782 -0.140625,-0.03515625 -0.03223,-0.01464844 -0.05566,-0.02929688 -0.07031,-0.046875 -0.0088,-0.0234375 -0.01172,-0.04980469 -0.01172,-0.08203125 V -5.0853906 c 0,-0.023437 0.0029,-0.046875 0.01172,-0.070312 0.01465,-0.023437 0.03809,-0.041016 0.07031,-0.058594 0.0293,-0.014648 0.07031,-0.023437 0.117187,-0.023437 0.05273,-0.00586 0.123047,-0.011719 0.210938,-0.011719 0.07617,0 0.143554,0.00586 0.199218,0.011719 0.05274,0 0.09375,0.00879 0.117188,0.023437 0.0293,0.017578 0.05273,0.035156 0.07031,0.058594 0.01465,0.023437 0.02344,0.046875 0.02344,0.070312 v 0.65625 c 0.272461,-0.3105469 0.539062,-0.5390625 0.796875,-0.6796875 0.263672,-0.1464844 0.530273,-0.2226563 0.796875,-0.2226563 0.210937,0 0.392578,0.023437 0.550781,0.070312 0.164063,0.046875 0.307617,0.1171875 0.433594,0.2109375 0.123047,0.087891 0.228516,0.1875 0.316406,0.3046875 0.09375,0.1171875 0.166992,0.2519532 0.222656,0.3984375 0.164063,-0.1787109 0.319336,-0.3310547 0.46875,-0.4570312 0.146485,-0.1230469 0.292969,-0.225586 0.433594,-0.3046875 0.140625,-0.076172 0.272461,-0.131836 0.398438,-0.1640625 0.131836,-0.038086 0.263672,-0.058594 0.398437,-0.058594 0.310547,0 0.577149,0.058594 0.796875,0.1757813 0.216797,0.1113281 0.392578,0.2578125 0.527344,0.4453125 0.131836,0.1875 0.225586,0.4072265 0.28125,0.65625 0.06152,0.2519531 0.09375,0.515625 0.09375,0.796875 z m 5.62793,-2.68359378 c 0,0.140625 -0.04102,0.2431641 -0.117188,0.3046875 -0.07031,0.064453 -0.149414,0.09375 -0.234375,0.09375 h -3.246094 c 0,0.2753907 0.02637,0.5214844 0.08203,0.7382813 0.05273,0.2197265 0.143554,0.4101562 0.269531,0.5742187 0.131836,0.15820315 0.298828,0.27832034 0.503906,0.36328128 0.210938,0.0791016 0.462891,0.1171875 0.761719,0.1171875 0.234375,0 0.439453,-0.0175781 0.621094,-0.0585938 0.178711,-0.0380859 0.333984,-0.0820313 0.46875,-0.12890625 0.140625,-0.046875 0.251953,-0.0878906 0.339843,-0.12890625 0.08496,-0.0380859 0.146485,-0.0585937 0.1875,-0.0585937 0.0293,0 0.05273,0.008789 0.07031,0.0234375 0.02344,0.008789 0.03809,0.0292969 0.04687,0.0585938 0.01465,0.0234375 0.02344,0.0585938 0.02344,0.10546875 0.0059,0.046875 0.01172,0.10253906 0.01172,0.1640625 0,0.046875 -0.0059,0.0908203 -0.01172,0.12890625 0,0.0322266 -0.0059,0.0644531 -0.01172,0.09375 0,0.0234375 -0.0088,0.046875 -0.02344,0.0703125 -0.01758,0.0234375 -0.03516,0.046875 -0.05859,0.0703125 -0.01758,0.0175781 -0.07617,0.046875 -0.175781,0.09375 -0.09375,0.046875 -0.219726,0.09375 -0.375,0.140625 -0.158203,0.04101562 -0.339844,0.07324218 -0.550781,0.10546875 -0.205078,0.03808593 -0.421875,0.05859375 -0.65625,0.05859375 -0.407227,0 -0.767578,-0.05566407 -1.078125,-0.1640625 -0.304688,-0.1171875 -0.5625,-0.28417969 -0.773438,-0.50390625 -0.205078,-0.22558594 -0.360351,-0.50683593 -0.46875,-0.84374993 -0.102539,-0.3427735 -0.152343,-0.7382813 -0.152343,-1.1835938 0,-0.421875 0.05273,-0.7998048 0.164062,-1.1367187 0.108399,-0.3427735 0.263672,-0.6328125 0.46875,-0.8671875 0.210938,-0.234375 0.459961,-0.413086 0.75,-0.5390625 0.295899,-0.131836 0.624024,-0.1992188 0.984375,-0.1992188 0.389649,0 0.720703,0.064453 0.996094,0.1875 0.272461,0.1259766 0.495117,0.2929688 0.667969,0.5039063 0.178711,0.2109375 0.307617,0.4628906 0.386718,0.75 0.08496,0.28125 0.128907,0.5830078 0.128907,0.9023437 z m -0.914063,-0.2695312 c 0.0059,-0.4746094 -0.09961,-0.8466797 -0.316406,-1.1132813 -0.219727,-0.2724609 -0.547852,-0.4101562 -0.984375,-0.4101562 -0.228516,0 -0.427735,0.043945 -0.597656,0.1289062 -0.164063,0.079102 -0.304688,0.1875 -0.421875,0.328125 -0.111329,0.140625 -0.196289,0.3046875 -0.257813,0.4921875 -0.06445,0.1816407 -0.09961,0.3720703 -0.105469,0.5742188 z m 3.427734,-1.3007813 c 0,0.1171875 -0.0088,0.2197266 -0.02344,0.3046875 -0.01758,0.079102 -0.04687,0.140625 -0.09375,0.1875 -0.04687,0.046875 -0.111328,0.082031 -0.1875,0.1054688 -0.07031,0.017578 -0.161133,0.023437 -0.269531,0.023437 -0.117188,0 -0.216797,-0.00586 -0.292969,-0.023437 -0.07031,-0.023437 -0.128906,-0.058594 -0.175781,-0.1054688 -0.04102,-0.046875 -0.06738,-0.1083984 -0.08203,-0.1875 -0.01758,-0.084961 -0.02344,-0.1875 -0.02344,-0.3046875 0,-0.1230468 0.0059,-0.2255859 0.02344,-0.3046875 0.01465,-0.084961 0.04102,-0.1523437 0.08203,-0.1992187 0.04687,-0.052734 0.105468,-0.087891 0.175781,-0.1054688 0.07617,-0.023437 0.175781,-0.035156 0.292969,-0.035156 0.108398,0 0.199218,0.011719 0.269531,0.035156 0.07617,0.017578 0.140625,0.052734 0.1875,0.1054688 0.04687,0.046875 0.07617,0.1142578 0.09375,0.1992187 0.01465,0.079102 0.02344,0.1816407 0.02344,0.3046875 z m 0,3.80859378 c 0,0.12597656 -0.0088,0.22851562 -0.02344,0.3046875 -0.01758,0.0791016 -0.04687,0.14648437 -0.09375,0.19921875 -0.04687,0.046875 -0.111328,0.07910156 -0.1875,0.09375 -0.07031,0.0234375 -0.161133,0.03515625 -0.269531,0.03515625 -0.117188,0 -0.216797,-0.01171875 -0.292969,-0.03515625 -0.07031,-0.01464844 -0.128906,-0.046875 -0.175781,-0.09375 -0.04102,-0.05273438 -0.06738,-0.12011719 -0.08203,-0.19921875 -0.01758,-0.0761719 -0.02344,-0.17871094 -0.02344,-0.3046875 0,-0.1171875 0.0059,-0.21386719 0.02344,-0.29296875 0.01465,-0.0849609 0.04102,-0.15234373 0.08203,-0.19921873 0.04687,-0.046875 0.105468,-0.082031 0.175781,-0.1054688 0.07617,-0.023437 0.175781,-0.035156 0.292969,-0.035156 0.108398,0 0.199218,0.011719 0.269531,0.035156 0.07617,0.023437 0.140625,0.058594 0.1875,0.1054688 0.04687,0.046875 0.07617,0.11425779 0.09375,0.19921873 0.01465,0.0791016 0.02344,0.17578125 0.02344,0.29296875 z m 0,0"
           style="fill:#000000;fill-opacity:1;fill-rule:nonzero;stroke:none"
           aria-label="world name:"
           transform="matrix(1.3333333,0,0,1.3333333,1941.3467,845.41333)"
           clip-path="url(#clipPath135)" />
      </g>
      <g
         id="g135"
         transform="translate(-931.8533,-963.93334)">
        <path
           id="path136"
           d="m 205.45,168.12 h 180 v 27.2 h -180 z"
           style="fill:#ffffff;fill-opacity:1;fill-rule:evenodd;stroke:#000000;stroke-width:0.5;stroke-linecap:butt;stroke-linejoin:round;stroke-miterlimit:8;stroke-dasharray:none;stroke-opacity:1"
           transform="matrix(1.3333333,0,0,-1.3333333,1627.52,1122.56)" />
      </g>
      <g
         id="g136"
         transform="translate(-931.8533,-963.93334)">
        <path
           id="path137"
           d="m 7.7457813,-0.21050781 c -0.00879,0.0556641 -0.029297,0.0996094 -0.058594,0.12890625 -0.032227,0.03222656 -0.076172,0.05566406 -0.1289062,0.0703125 -0.046875,0.01464843 -0.1113282,0.02636718 -0.1875,0.03515625 -0.070312,0.0058594 -0.1611329,0.01171875 -0.2695313,0.01171875 -0.1171875,0 -0.2167969,-0.0058594 -0.2929687,-0.01171875 C 6.7291797,0.01507812 6.6617969,0.00335937 6.6090625,-0.01128906 6.5621875,-0.0259375 6.5211719,-0.049375 6.491875,-0.08160156 6.4684375,-0.11089844 6.4479297,-0.15484375 6.4332813,-0.21050781 L 4.945,-5.5776953 H 4.933281 l -1.3710938,5.36718749 c -0.00879,0.0556641 -0.029297,0.0996094 -0.058594,0.12890625 C 3.4801563,-0.049375 3.445,-0.0259375 3.398125,-0.01128906 3.35125,0.00335937 3.2867969,0.01507812 3.210625,0.02386719 3.140313,0.02972659 3.0465625,0.03558594 2.929375,0.03558594 c -0.1259766,0 -0.2285156,-0.0058594 -0.3046875,-0.01171875 C 2.5455859,0.01507812 2.4782031,0.00335937 2.4254688,-0.01128906 2.3785938,-0.0259375 2.3375781,-0.049375 2.3082813,-0.08160156 2.2848438,-0.11089844 2.2643359,-0.15484375 2.2496875,-0.21050781 l -1.875,-6.56249999 C 0.35125,-6.8579688 0.3395312,-6.9253516 0.3395312,-6.9722266 c 0,-0.046875 0.0146484,-0.082031 0.046875,-0.1054687 0.0292969,-0.029297 0.0761719,-0.046875 0.140625,-0.046875 0.0703125,-0.00586 0.1640625,-0.011719 0.28125,-0.011719 0.1171875,0 0.2050781,0.00586 0.2695312,0.011719 0.070312,0 0.1201172,0.00879 0.1523438,0.023437 0.038086,0.017578 0.061523,0.035156 0.070312,0.058594 0.014648,0.023437 0.026367,0.055664 0.035156,0.09375 l 1.59375,5.96484379 h 0.011719 L 4.4528125,-6.9370703 c 0.014648,-0.038086 0.029297,-0.070312 0.046875,-0.09375 0.014648,-0.029297 0.038086,-0.052734 0.070312,-0.070312 0.038086,-0.014648 0.09375,-0.023437 0.1640625,-0.023437 0.070312,-0.00586 0.1582031,-0.011719 0.2695313,-0.011719 0.099609,0 0.1787109,0.00586 0.234375,0.011719 0.061523,0 0.1113281,0.00879 0.1523437,0.023437 0.038086,0.017578 0.064453,0.041016 0.082031,0.070312 0.014648,0.023437 0.026367,0.055664 0.035156,0.09375 l 1.6289063,5.95312499 h 0.01172 L 8.7184375,-6.9370703 c 0.00586,-0.038086 0.014648,-0.070312 0.023437,-0.09375 0.014648,-0.029297 0.038086,-0.052734 0.070312,-0.070312 0.038086,-0.014648 0.087891,-0.023437 0.1523438,-0.023437 0.061523,-0.00586 0.1464843,-0.011719 0.2578125,-0.011719 0.1083984,0 0.1933593,0.00586 0.2578125,0.011719 0.070312,0.00879 0.1171875,0.029297 0.140625,0.058594 0.029297,0.023437 0.046875,0.058594 0.046875,0.1054688 0,0.046875 -0.011719,0.1113281 -0.035156,0.1875 z M 14.800469,-2.6597266 c 0,0.3984375 -0.05566,0.7705078 -0.164063,1.1132813 -0.102539,0.336914 -0.257812,0.6298828 -0.46875,0.87890624 -0.210937,0.24316406 -0.477539,0.43359375 -0.796875,0.57421875 -0.313476,0.13183593 -0.679687,0.19921875 -1.101562,0.19921875 -0.407227,0 -0.761719,-0.05859375 -1.066406,-0.17578125 -0.298829,-0.12304688 -0.547852,-0.29882813 -0.75,-0.52734375 -0.19629,-0.234375 -0.345704,-0.51562504 -0.445313,-0.84375004 -0.1025391,-0.328125 -0.1523437,-0.703125 -0.1523437,-1.125 0,-0.3984375 0.049805,-0.7646484 0.1523437,-1.1015625 0.108398,-0.3427734 0.269531,-0.6357422 0.480469,-0.8789062 0.210937,-0.2490235 0.471679,-0.4394531 0.785156,-0.5742188 0.310547,-0.140625 0.679688,-0.2109375 1.101563,-0.2109375 0.404296,0 0.761718,0.064453 1.066406,0.1875 0.304687,0.1171875 0.553711,0.2929688 0.75,0.5273438 0.202148,0.2285156 0.354492,0.5097656 0.457031,0.84375 0.09961,0.328125 0.152344,0.7001953 0.152344,1.1132812 z m -0.949219,0.058594 c 0,-0.2636719 -0.0293,-0.515625 -0.08203,-0.75 -0.04687,-0.2402344 -0.128906,-0.4511719 -0.246094,-0.6328125 -0.111328,-0.178711 -0.263672,-0.319336 -0.457031,-0.421875 -0.196289,-0.1083985 -0.439453,-0.1640625 -0.726563,-0.1640625 -0.266601,0 -0.498047,0.046875 -0.691406,0.140625 -0.1875,0.09375 -0.345703,0.2314453 -0.46875,0.4101562 -0.125977,0.1728516 -0.219727,0.3808594 -0.28125,0.6210938 -0.06445,0.234375 -0.09375,0.4921875 -0.09375,0.7734375 0,0.2753906 0.02344,0.5332031 0.07031,0.7734375 0.05273,0.234375 0.134765,0.4423828 0.246093,0.6210937 0.117188,0.1728516 0.272461,0.3134766 0.46875,0.42187504 0.19336,0.10253906 0.436524,0.15234375 0.726563,0.15234375 0.263672,0 0.495117,-0.046875 0.691406,-0.140625 0.193359,-0.0996094 0.354492,-0.23730469 0.480469,-0.41015629 0.123047,-0.1699218 0.213867,-0.375 0.269531,-0.609375 0.06152,-0.2402343 0.09375,-0.5039062 0.09375,-0.7851562 z m 5.109375,-2.15625 c 0,0.079102 -0.0059,0.1464844 -0.01172,0.1992187 0,0.055664 -0.0059,0.099609 -0.01172,0.1289063 -0.0088,0.032227 -0.02344,0.058594 -0.04687,0.082031 -0.01758,0.017578 -0.03516,0.023437 -0.05859,0.023437 -0.03223,0 -0.07031,-0.00586 -0.117188,-0.023437 -0.04102,-0.023437 -0.08789,-0.041016 -0.140625,-0.058594 -0.05566,-0.014648 -0.114258,-0.029297 -0.175781,-0.046875 -0.06445,-0.014648 -0.134766,-0.023437 -0.210937,-0.023437 -0.09375,0 -0.184571,0.020508 -0.269532,0.058594 -0.08789,0.041016 -0.18164,0.1025391 -0.28125,0.1875 -0.09375,0.079102 -0.196289,0.1875 -0.304687,0.328125 -0.111328,0.140625 -0.228516,0.3134766 -0.351563,0.515625 v 3.24609379 c 0,0.0322266 -0.0088,0.05859375 -0.02344,0.08203125 -0.01758,0.01757812 -0.04102,0.03222656 -0.07031,0.046875 -0.03223,0.01464843 -0.0791,0.02636718 -0.140625,0.03515625 -0.05566,0.0058594 -0.128906,0.01171875 -0.222656,0.01171875 -0.08789,0 -0.161133,-0.0058594 -0.222656,-0.01171875 -0.05566,-0.0087891 -0.102539,-0.02050782 -0.140625,-0.03515625 -0.03223,-0.01464844 -0.05566,-0.02929688 -0.07031,-0.046875 -0.0088,-0.0234375 -0.01172,-0.04980469 -0.01172,-0.08203125 V -5.0855078 c 0,-0.023437 0.0029,-0.046875 0.01172,-0.070312 0.01465,-0.023437 0.03809,-0.041016 0.07031,-0.058594 0.0293,-0.014648 0.07031,-0.023437 0.117187,-0.023437 0.05273,-0.00586 0.123047,-0.011719 0.210938,-0.011719 0.07617,0 0.143554,0.00586 0.199219,0.011719 0.05273,0 0.09375,0.00879 0.117187,0.023437 0.0293,0.017578 0.05273,0.035156 0.07031,0.058594 0.01465,0.023437 0.02344,0.046875 0.02344,0.070312 v 0.7265625 c 0.131836,-0.2021485 0.257813,-0.3632813 0.375,-0.4804688 0.117188,-0.1230468 0.228516,-0.2226562 0.339844,-0.2929687 0.108398,-0.076172 0.213867,-0.1289063 0.316406,-0.1523438 0.09961,-0.029297 0.205078,-0.046875 0.316406,-0.046875 0.04687,0 0.09668,0.00586 0.152344,0.011719 0.06152,0.00879 0.123047,0.020508 0.1875,0.035156 0.07031,0.00879 0.131836,0.023437 0.1875,0.046875 0.05273,0.017578 0.09375,0.035156 0.117188,0.058594 0.02344,0.017578 0.03516,0.032227 0.03516,0.046875 0.0059,0.017578 0.01465,0.041016 0.02344,0.070312 0.0059,0.023437 0.01172,0.058594 0.01172,0.1054687 0,0.046875 0,0.1142578 0,0.1992188 z m 1.875,4.61718749 c 0,0.0322266 -0.0088,0.05859375 -0.02344,0.08203125 -0.01758,0.01757812 -0.04102,0.03222656 -0.07031,0.046875 -0.03223,0.01464843 -0.0791,0.02636718 -0.140625,0.03515625 -0.05566,0.0058594 -0.128906,0.01171875 -0.222656,0.01171875 -0.08789,0 -0.161133,-0.0058594 -0.222656,-0.01171875 -0.05566,-0.0087891 -0.10254,-0.02050782 -0.140625,-0.03515625 -0.03223,-0.01464844 -0.05566,-0.02929688 -0.07031,-0.046875 -0.0088,-0.0234375 -0.01172,-0.04980469 -0.01172,-0.08203125 V -7.4761328 c 0,-0.029297 0.0029,-0.052734 0.01172,-0.070312 0.01465,-0.023437 0.03809,-0.041016 0.07031,-0.058594 0.03809,-0.014648 0.08496,-0.026367 0.140625,-0.035156 0.06152,-0.00586 0.134765,-0.011719 0.222656,-0.011719 0.09375,0 0.166992,0.00586 0.222656,0.011719 0.06152,0.00879 0.108398,0.020508 0.140625,0.035156 0.0293,0.017578 0.05273,0.035156 0.07031,0.058594 0.01465,0.017578 0.02344,0.041016 0.02344,0.070312 z m 5.865234,0 c 0,0.0322266 -0.0088,0.05859375 -0.02344,0.08203125 -0.0088,0.0234375 -0.0293,0.04394531 -0.05859,0.0585937475 -0.03223,0.005859372 -0.07617,0.0146484325 -0.128906,0.0234375025 -0.04687,0.0058594 -0.111328,0.01171875 -0.1875,0.01171875 -0.07031,0 -0.134766,-0.0058594 -0.1875,-0.01171875 -0.05566,-0.0087891 -0.09961,-0.01757813 -0.128906,-0.0234375025 -0.03223,-0.0146484375 -0.05566,-0.0351562475 -0.07031,-0.0585937475 -0.01758,-0.0234375 -0.02344,-0.04980469 -0.02344,-0.08203125 v -0.65625 c -0.257813,0.29003906 -0.527344,0.51269531 -0.808594,0.66796875 -0.28125,0.15527343 -0.585938,0.234375 -0.914063,0.234375 -0.36914,0 -0.679687,-0.0703125 -0.9375,-0.2109375 -0.251953,-0.140625 -0.457031,-0.33105469 -0.621093,-0.57421875 -0.158203,-0.24023438 -0.275391,-0.52148439 -0.351563,-0.84374999 -0.07031,-0.328125 -0.105469,-0.6708985 -0.105469,-1.03125 0,-0.421875 0.04102,-0.8027344 0.128907,-1.1484375 0.09375,-0.3427735 0.228515,-0.6328125 0.410156,-0.8671875 0.178711,-0.2402344 0.401367,-0.4277344 0.667969,-0.5625 0.263672,-0.131836 0.574218,-0.1992188 0.925781,-0.1992188 0.287109,0 0.550781,0.067383 0.785156,0.1992188 0.240235,0.1259765 0.480469,0.3105469 0.714844,0.5507812 v -2.8710937 c 0,-0.023437 0.0059,-0.046875 0.02344,-0.070312 0.01465,-0.023437 0.03809,-0.041016 0.07031,-0.058594 0.03809,-0.014648 0.08496,-0.026367 0.140625,-0.035156 0.06152,-0.00586 0.134766,-0.011719 0.222656,-0.011719 0.08496,0 0.155274,0.00586 0.210938,0.011719 0.06152,0.00879 0.108398,0.020508 0.140625,0.035156 0.03809,0.017578 0.06445,0.035156 0.08203,0.058594 0.01465,0.023437 0.02344,0.046875 0.02344,0.070312 z M 25.786797,-3.6089453 c -0.243164,-0.3046875 -0.480469,-0.5332031 -0.714844,-0.6914063 -0.228515,-0.1640625 -0.46582,-0.2460937 -0.714844,-0.2460937 -0.228515,0 -0.421875,0.055664 -0.585937,0.1640625 -0.158203,0.1113281 -0.287109,0.2548828 -0.386719,0.4335937 -0.102539,0.1816407 -0.175781,0.3837891 -0.222656,0.609375 -0.04687,0.2285157 -0.07031,0.4570313 -0.07031,0.6914063 0,0.2519531 0.01758,0.4980469 0.05859,0.7382812 0.03809,0.234375 0.105469,0.4453125 0.199219,0.6328125 0.09375,0.1816407 0.216797,0.32812504 0.375,0.44531254 0.164062,0.11132812 0.363281,0.1640625 0.597656,0.1640625 0.123047,0 0.240235,-0.0146484 0.351563,-0.046875 0.108398,-0.0380859 0.222656,-0.09375 0.339843,-0.1640625 0.117188,-0.0761719 0.237305,-0.17871094 0.363282,-0.30468754 0.131836,-0.1230468 0.269531,-0.2753906 0.410156,-0.4570312 z m 9.164062,3.46874999 c 0,0.0322266 -0.0088,0.05859375 -0.02344,0.08203125 -0.01758,0.01757812 -0.04102,0.03222656 -0.07031,0.046875 -0.03223,0.01464843 -0.0791,0.02636718 -0.140625,0.03515625 -0.05566,0.0058594 -0.125976,0.01171875 -0.210937,0.01171875 -0.09375,0 -0.172852,-0.0058594 -0.234375,-0.01171875 -0.05566,-0.0087891 -0.102539,-0.02050782 -0.140625,-0.03515625 -0.03223,-0.01464844 -0.05566,-0.02929688 -0.07031,-0.046875 -0.0088,-0.0234375 -0.01172,-0.04980469 -0.01172,-0.08203125 V -3.0347266 c 0,-0.28125 -0.02344,-0.5068359 -0.07031,-0.6796875 -0.04687,-0.1699218 -0.114258,-0.3193359 -0.199219,-0.4453125 -0.0791,-0.1230468 -0.18457,-0.2167968 -0.316406,-0.28125 -0.134765,-0.070312 -0.290039,-0.1054687 -0.46875,-0.1054687 -0.228515,0 -0.454101,0.082031 -0.679687,0.2460937 -0.228516,0.1640625 -0.465821,0.3984375 -0.714844,0.703125 v 3.45703129 c 0,0.0322266 -0.0088,0.05859375 -0.02344,0.08203125 -0.01758,0.01757812 -0.04102,0.03222656 -0.07031,0.046875 -0.03223,0.01464843 -0.0791,0.02636718 -0.140625,0.03515625 -0.05566,0.0058594 -0.128906,0.01171875 -0.222656,0.01171875 -0.08789,0 -0.161133,-0.0058594 -0.222657,-0.01171875 -0.05566,-0.0087891 -0.102539,-0.02050782 -0.140625,-0.03515625 -0.03223,-0.01464844 -0.05566,-0.02929688 -0.07031,-0.046875 -0.0088,-0.0234375 -0.01172,-0.04980469 -0.01172,-0.08203125 V -5.0855078 c 0,-0.023437 0.0029,-0.046875 0.01172,-0.070312 0.01465,-0.023437 0.03809,-0.041016 0.07031,-0.058594 0.0293,-0.014648 0.07031,-0.023437 0.117188,-0.023437 0.05273,-0.00586 0.123047,-0.011719 0.210937,-0.011719 0.07617,0 0.143555,0.00586 0.199219,0.011719 0.05273,0 0.09375,0.00879 0.117188,0.023437 0.0293,0.017578 0.05273,0.035156 0.07031,0.058594 0.01465,0.023437 0.02344,0.046875 0.02344,0.070312 v 0.65625 c 0.272461,-0.3105469 0.544922,-0.5390625 0.820312,-0.6796875 0.28125,-0.1464844 0.5625,-0.2226563 0.84375,-0.2226563 0.328125,0 0.603516,0.058594 0.832031,0.1757813 0.225586,0.1113281 0.410157,0.2578125 0.550782,0.4453125 0.140625,0.1875 0.237304,0.4072265 0.292968,0.65625 0.06152,0.2519531 0.09375,0.5507812 0.09375,0.9023437 z m 5.267579,0.0117188 c 0,0.04101562 -0.01758,0.0703125 -0.04687,0.09375 -0.03223,0.0234375 -0.07617,0.03808593 -0.128907,0.046875 -0.04687,0.01464843 -0.123047,0.0234375 -0.222656,0.0234375 -0.09375,0 -0.169922,-0.0087891 -0.222656,-0.0234375 -0.05566,-0.00878907 -0.09961,-0.0234375 -0.128906,-0.046875 -0.02344,-0.0234375 -0.03516,-0.05273438 -0.03516,-0.09375 v -0.4921875 c -0.219726,0.22851562 -0.46289,0.40722656 -0.726562,0.5390625 -0.266602,0.12304687 -0.547852,0.1875 -0.84375,0.1875 -0.257813,0 -0.492188,-0.03515625 -0.703125,-0.1054687525 C 36.948906,-0.06109375 36.767266,-0.15484375 36.620781,-0.28082031 36.471367,-0.41265625 36.35418,-0.57378906 36.269219,-0.76128906 c -0.0791,-0.1875 -0.117188,-0.40136724 -0.117188,-0.64453124 0,-0.272461 0.05273,-0.5097656 0.164063,-0.7148438 0.117187,-0.2109375 0.28125,-0.3808593 0.492187,-0.515625 0.216797,-0.1318359 0.480469,-0.234375 0.785157,-0.3046875 0.304687,-0.070312 0.65039,-0.1054687 1.042968,-0.1054687 h 0.679688 v -0.3867188 c 0,-0.1875 -0.02344,-0.3515625 -0.07031,-0.4921875 -0.04102,-0.1464843 -0.105468,-0.2695312 -0.199218,-0.3632812 -0.08789,-0.099609 -0.199219,-0.1757813 -0.339844,-0.2226563 -0.140625,-0.052734 -0.316406,-0.082031 -0.527344,-0.082031 -0.219727,0 -0.418945,0.029297 -0.597656,0.082031 -0.181641,0.055664 -0.336914,0.1142578 -0.46875,0.1757813 -0.134766,0.064453 -0.246094,0.1230469 -0.339844,0.1757812 -0.08789,0.055664 -0.152344,0.082031 -0.199219,0.082031 -0.03223,0 -0.05859,-0.00586 -0.08203,-0.023437 -0.01758,-0.014648 -0.03223,-0.038086 -0.04687,-0.070312 -0.01758,-0.029297 -0.0293,-0.064453 -0.03516,-0.1054688 -0.0088,-0.046875 -0.01172,-0.09668 -0.01172,-0.1523437 0,-0.09375 0.0029,-0.1669922 0.01172,-0.2226563 0.01465,-0.052734 0.04687,-0.1054687 0.09375,-0.1523437 0.05273,-0.046875 0.140625,-0.099609 0.257812,-0.1640625 0.123047,-0.061523 0.263672,-0.1201172 0.421875,-0.1757813 0.155274,-0.052734 0.328125,-0.09668 0.515625,-0.1289062 0.1875,-0.038086 0.375,-0.058594 0.5625,-0.058594 0.357422,0 0.65918,0.043945 0.902344,0.1289063 0.249023,0.079102 0.451172,0.196289 0.609375,0.3515625 0.155273,0.1582031 0.269531,0.3515625 0.339844,0.5859375 0.07031,0.2285156 0.105469,0.4921875 0.105469,0.796875 z M 39.316094,-2.3901953 h -0.773438 c -0.251953,0 -0.46875,0.023437 -0.65625,0.070312 -0.18164,0.041016 -0.333984,0.102539 -0.457031,0.1875 -0.117187,0.079101 -0.208008,0.1757812 -0.269531,0.2929687 -0.05566,0.1113282 -0.08203,0.2431641 -0.08203,0.3984375 0,0.2578125 0.08203,0.46289066 0.246093,0.60937504 0.164063,0.14941406 0.392578,0.22265625 0.691407,0.22265625 0.234375,0 0.451171,-0.0585938 0.65625,-0.17578125 0.202148,-0.12304688 0.416015,-0.30761724 0.644531,-0.55078124 z m 9.799804,2.24999999 c 0,0.0322266 -0.0088,0.05859375 -0.02344,0.08203125 -0.01758,0.01757812 -0.04395,0.03222656 -0.08203,0.046875 -0.03223,0.01464843 -0.0791,0.02636718 -0.140625,0.03515625 -0.05566,0.0058594 -0.125977,0.01171875 -0.210938,0.01171875 -0.09375,0 -0.172851,-0.0058594 -0.234375,-0.01171875 -0.05566,-0.0087891 -0.102539,-0.02050782 -0.140625,-0.03515625 -0.03223,-0.01464844 -0.05566,-0.02929688 -0.07031,-0.046875 -0.0088,-0.0234375 -0.01172,-0.04980469 -0.01172,-0.08203125 V -3.1401953 c 0,-0.2109375 -0.02051,-0.4013672 -0.05859,-0.5742188 -0.04102,-0.1699218 -0.09961,-0.3193359 -0.175781,-0.4453125 -0.0791,-0.1230468 -0.181641,-0.2167968 -0.304688,-0.28125 -0.125976,-0.070312 -0.27539,-0.1054687 -0.445312,-0.1054687 -0.205078,0 -0.410156,0.082031 -0.621094,0.2460937 -0.210937,0.1640625 -0.445312,0.3984375 -0.703125,0.703125 v 3.45703129 c 0,0.0322266 -0.0088,0.05859375 -0.02344,0.08203125 -0.0088,0.01757812 -0.03223,0.03222656 -0.07031,0.046875 -0.03223,0.01464843 -0.0791,0.02636718 -0.140625,0.03515625 -0.05566,0.0058594 -0.128906,0.01171875 -0.222656,0.01171875 -0.0791,0 -0.149414,-0.0058594 -0.210938,-0.01171875 -0.06445,-0.0087891 -0.114257,-0.02050782 -0.152343,-0.03515625 -0.03223,-0.01464844 -0.05566,-0.02929688 -0.07031,-0.046875 -0.0088,-0.0234375 -0.01172,-0.04980469 -0.01172,-0.08203125 V -3.1401953 c 0,-0.2109375 -0.02051,-0.4013672 -0.05859,-0.5742188 -0.04102,-0.1699218 -0.102539,-0.3193359 -0.1875,-0.4453125 -0.0791,-0.1230468 -0.181641,-0.2167968 -0.304688,-0.28125 -0.117187,-0.070312 -0.263672,-0.1054687 -0.433594,-0.1054687 -0.210937,0 -0.421875,0.082031 -0.632812,0.2460937 -0.210938,0.1640625 -0.442383,0.3984375 -0.691406,0.703125 v 3.45703129 c 0,0.0322266 -0.0088,0.05859375 -0.02344,0.08203125 -0.01758,0.01757812 -0.04102,0.03222656 -0.07031,0.046875 -0.03223,0.01464843 -0.0791,0.02636718 -0.140625,0.03515625 -0.05566,0.0058594 -0.128907,0.01171875 -0.222657,0.01171875 -0.08789,0 -0.161132,-0.0058594 -0.222656,-0.01171875 -0.05566,-0.0087891 -0.102539,-0.02050782 -0.140625,-0.03515625 -0.03223,-0.01464844 -0.05566,-0.02929688 -0.07031,-0.046875 -0.0088,-0.0234375 -0.01172,-0.04980469 -0.01172,-0.08203125 V -5.0855078 c 0,-0.023437 0.0029,-0.046875 0.01172,-0.070312 0.01465,-0.023437 0.03809,-0.041016 0.07031,-0.058594 0.0293,-0.014648 0.07031,-0.023437 0.117188,-0.023437 0.05273,-0.00586 0.123047,-0.011719 0.210937,-0.011719 0.07617,0 0.143555,0.00586 0.199219,0.011719 0.05273,0 0.09375,0.00879 0.117187,0.023437 0.0293,0.017578 0.05273,0.035156 0.07031,0.058594 0.01465,0.023437 0.02344,0.046875 0.02344,0.070312 v 0.65625 c 0.272461,-0.3105469 0.539063,-0.5390625 0.796875,-0.6796875 0.263672,-0.1464844 0.530274,-0.2226563 0.796875,-0.2226563 0.210938,0 0.392579,0.023437 0.550782,0.070312 0.164062,0.046875 0.307617,0.1171875 0.433593,0.2109375 0.123047,0.087891 0.228516,0.1875 0.316407,0.3046875 0.09375,0.1171875 0.166992,0.2519532 0.222656,0.3984375 0.164062,-0.1787109 0.319336,-0.3310547 0.46875,-0.4570312 0.146484,-0.1230469 0.292969,-0.225586 0.433594,-0.3046875 0.140625,-0.076172 0.272461,-0.131836 0.398437,-0.1640625 0.131836,-0.038086 0.263672,-0.058594 0.398438,-0.058594 0.310547,0 0.577148,0.058594 0.796875,0.1757813 0.216797,0.1113281 0.392578,0.2578125 0.527343,0.4453125 0.131836,0.1875 0.225586,0.4072265 0.28125,0.65625 0.06152,0.2519531 0.09375,0.515625 0.09375,0.796875 z m 5.62793,-2.68359379 c 0,0.140625 -0.04102,0.2431641 -0.117187,0.3046875 -0.07031,0.064453 -0.149414,0.09375 -0.234375,0.09375 h -3.246094 c 0,0.2753907 0.02637,0.5214844 0.08203,0.7382813 0.05273,0.2197265 0.143555,0.4101562 0.269531,0.5742187 0.131836,0.15820316 0.298829,0.27832035 0.503907,0.36328129 0.210937,0.0791016 0.46289,0.1171875 0.761718,0.1171875 0.234375,0 0.439454,-0.0175781 0.621094,-0.0585938 0.178711,-0.0380859 0.333985,-0.0820313 0.46875,-0.12890625 0.140625,-0.046875 0.251953,-0.0878906 0.339844,-0.12890625 0.08496,-0.0380859 0.146484,-0.0585937 0.1875,-0.0585937 0.0293,0 0.05273,0.008789 0.07031,0.0234375 0.02344,0.008789 0.03809,0.0292969 0.04687,0.0585938 0.01465,0.0234375 0.02344,0.0585938 0.02344,0.10546875 0.0059,0.046875 0.01172,0.10253906 0.01172,0.1640625 0,0.046875 -0.0059,0.0908203 -0.01172,0.12890625 0,0.0322266 -0.0059,0.0644531 -0.01172,0.09375 0,0.0234375 -0.0088,0.046875 -0.02344,0.0703125 -0.01758,0.0234375 -0.03516,0.046875 -0.05859,0.0703125 -0.01758,0.0175781 -0.07617,0.046875 -0.175781,0.09375 -0.09375,0.046875 -0.219727,0.09375 -0.375,0.140625 -0.158203,0.04101562 -0.339844,0.07324218 -0.550782,0.10546875 -0.205078,0.03808593 -0.421875,0.05859375 -0.65625,0.05859375 -0.407226,0 -0.767578,-0.05566407 -1.078125,-0.1640625 -0.304687,-0.1171875 -0.5625,-0.28417969 -0.773437,-0.50390625 -0.205078,-0.22558594 -0.360352,-0.50683594 -0.46875,-0.84374994 -0.102539,-0.3427735 -0.152344,-0.7382813 -0.152344,-1.1835938 0,-0.421875 0.05273,-0.7998048 0.164063,-1.1367187 0.108398,-0.3427735 0.263672,-0.6328125 0.46875,-0.8671875 0.210937,-0.234375 0.459961,-0.413086 0.75,-0.5390625 0.295898,-0.131836 0.624023,-0.1992188 0.984375,-0.1992188 0.389648,0 0.720703,0.064453 0.996093,0.1875 0.272461,0.1259766 0.495118,0.2929688 0.667969,0.5039063 0.178711,0.2109375 0.307617,0.4628906 0.386719,0.75 0.08496,0.28125 0.128906,0.5830078 0.128906,0.9023437 z m -0.914062,-0.2695312 c 0.0059,-0.4746094 -0.09961,-0.8466797 -0.316407,-1.1132813 -0.219726,-0.2724609 -0.547851,-0.4101562 -0.984375,-0.4101562 -0.228515,0 -0.427734,0.043945 -0.597656,0.1289062 -0.164062,0.079102 -0.304687,0.1875 -0.421875,0.328125 -0.111328,0.140625 -0.196289,0.3046875 -0.257812,0.4921875 -0.06445,0.1816407 -0.09961,0.3720703 -0.105469,0.5742188 z m 0,0"
           style="fill:#000000;fill-opacity:1;fill-rule:nonzero;stroke:none"
           aria-label=" World name"
           transform="matrix(1.3333333,0,0,1.3333333,1911.4267,881.25333)"
           clip-path="url(#clipPath138)" />
      </g>
      <g
         id="g138"
         transform="translate(-931.8533,-963.93334)">
        <path
           id="path139"
           d="M 205.7,141.07 H 385.3"
           style="fill:none;stroke:#000000;stroke-width:5;stroke-linecap:butt;stroke-linejoin:miter;stroke-miterlimit:8;stroke-dasharray:none;stroke-opacity:1"
           transform="matrix(1.3333333,0,0,-1.3333333,1627.52,1122.56)" />
      </g>
      <g
         id="g139"
         transform="translate(-931.8533,-963.93334)">
        <path
           id="path140"
           d="m 254.95,148.53 c 0,0.82 0.67,1.49 1.49,1.49 h 5.97 c 0.82,0 1.49,-0.67 1.49,-1.49 v -15.02 c 0,-0.82 -0.67,-1.49 -1.49,-1.49 h -5.97 c -0.82,0 -1.49,0.67 -1.49,1.49 z"
           style="fill:#44546a;fill-opacity:1;fill-rule:evenodd;stroke:#44546a;stroke-width:1;stroke-linecap:butt;stroke-linejoin:miter;stroke-miterlimit:8;stroke-dasharray:none;stroke-opacity:1"
           transform="matrix(1.3333333,0,0,-1.3333333,1627.52,1122.56)" />
      </g>
      <g
         id="g141"
         transform="translate(-931.8533,-963.93334)">
        <path
           id="path141"
           d="m 6.2692188,-0.3390625 c 0.029297,0.0878906 0.046875,0.15234375 0.046875,0.19921875 0,0.046875 -0.017578,0.08789063 -0.046875,0.1171875 -0.023437,0.0234375 -0.070312,0.03808594 -0.140625,0.046875 C 6.0582818,0.03007815 5.9674609,0.0359375 5.8590625,0.0359375 5.741875,0.0359375 5.648125,0.0300781 5.5778125,0.02421875 5.5133594,0.01542969 5.4635547,0.00664063 5.4254688,7.8125e-4 5.3932422,-0.01386719 5.3698047,-0.034375 5.3551563,-0.0578125 5.3375781,-0.08125 5.3229297,-0.10761719 5.3082813,-0.13984375 L 4.6989063,-1.8625 h -2.953125 l -0.5859375,1.69921875 c -0.00879,0.0410156 -0.023437,0.0703125 -0.046875,0.09375 -0.017578,0.0234375 -0.043945,0.04394531 -0.082031,0.05859375 C 0.99871094,0.00371094 0.95183594,0.01542969 0.8903125,0.02421875 0.82585938,0.03007813 0.74089844,0.0359375 0.6325,0.0359375 0.52996094,0.0359375 0.445,0.02714844 0.3746875,0.0125 0.304375,0.00371094 0.25164063,-0.0109375 0.22234375,-0.034375 0.19890625,-0.0578125 0.1871875,-0.09296875 0.1871875,-0.13984375 0.1930465,-0.19257815 0.2135547,-0.25996094 0.2457813,-0.3390625 l 2.3789063,-6.609375 c 0.014648,-0.038086 0.035156,-0.070312 0.058594,-0.09375 0.023437,-0.023437 0.058594,-0.041016 0.1054687,-0.058594 0.046875,-0.014648 0.1054688,-0.023437 0.1757813,-0.023437 0.070312,-0.00586 0.1582032,-0.011719 0.2695312,-0.011719 0.1171875,0 0.2138672,0.00586 0.2929688,0.011719 0.076172,0 0.140625,0.00879 0.1875,0.023437 0.046875,0.017578 0.082031,0.041016 0.1054687,0.070312 0.029297,0.023437 0.049805,0.055664 0.058594,0.09375 z M 3.210625,-6.1632812 H 3.198906 l -1.21875,3.5390625 h 2.4726562 z m 8.255859,6.02343745 c 0,0.0322266 -0.0088,0.05859375 -0.02344,0.08203125 -0.0088,0.0234375 -0.0293,0.04394531 -0.05859,0.05859375 -0.03223,0.00585938 -0.07617,0.01464844 -0.128906,0.0234375 -0.04687,0.0058594 -0.111328,0.01171875 -0.1875,0.01171875 -0.07031,0 -0.134766,-0.0058594 -0.1875,-0.01171875 -0.05566,-0.0087891 -0.09961,-0.01757812 -0.128906,-0.0234375 -0.03223,-0.01464844 -0.05566,-0.03515625 -0.07031,-0.05859375 -0.01758,-0.0234375 -0.02344,-0.04980469 -0.02344,-0.08203125 v -0.65625 C 10.400078,-0.50605469 10.130547,-0.28339844 9.8492969,-0.128125 9.5680469,0.02714844 9.2633594,0.10625 8.9352344,0.10625 c -0.3691406,0 -0.6796875,-0.0703125 -0.9375,-0.2109375 C 7.7457813,-0.2453125 7.5407031,-0.43574219 7.3766406,-0.67890625 7.2184375,-0.91914062 7.10125,-1.2003906 7.0250781,-1.5226562 c -0.070312,-0.328125 -0.1054687,-0.6708985 -0.1054687,-1.03125 0,-0.421875 0.041016,-0.8027344 0.1289062,-1.1484375 0.09375,-0.3427735 0.2285157,-0.6328125 0.4101563,-0.8671875 0.1787109,-0.2402344 0.4013672,-0.4277344 0.6679687,-0.5625 0.2636719,-0.131836 0.5742188,-0.1992188 0.9257813,-0.1992188 0.2871094,0 0.5507812,0.067383 0.7851562,0.1992188 0.2402349,0.1259765 0.4804689,0.3105468 0.7148439,0.5507812 v -2.8710937 c 0,-0.023437 0.0059,-0.046875 0.02344,-0.070312 0.01465,-0.023437 0.03809,-0.041016 0.07031,-0.058594 0.03809,-0.014648 0.08496,-0.026367 0.140625,-0.035156 0.06152,-0.00586 0.134766,-0.011719 0.222656,-0.011719 0.08496,0 0.155274,0.00586 0.210938,0.011719 0.06152,0.00879 0.108398,0.020508 0.140625,0.035156 0.03809,0.017578 0.06445,0.035156 0.08203,0.058594 0.01465,0.023437 0.02344,0.046875 0.02344,0.070312 z M 10.552422,-3.6085937 C 10.309258,-3.9132812 10.071953,-4.1417969 9.8375781,-4.3 9.6090625,-4.4640625 9.3717578,-4.5460937 9.1227344,-4.5460937 c -0.2285156,0 -0.421875,0.055664 -0.5859375,0.1640625 -0.1582031,0.1113281 -0.2871094,0.2548828 -0.3867188,0.4335937 -0.102539,0.1816406 -0.1757812,0.3837891 -0.2226562,0.609375 -0.046875,0.2285156 -0.070312,0.4570313 -0.070312,0.6914063 0,0.2519531 0.017578,0.4980468 0.058594,0.7382812 0.038086,0.234375 0.1054688,0.4453125 0.1992188,0.6328125 0.09375,0.1816406 0.2167969,0.328125 0.375,0.4453125 0.1640625,0.11132813 0.3632812,0.1640625 0.5976562,0.1640625 0.1230469,0 0.2402344,-0.0146484 0.3515625,-0.046875 0.1083985,-0.0380859 0.2226563,-0.09375 0.3398438,-0.1640625 0.1171875,-0.0761719 0.2373048,-0.1787109 0.3632818,-0.3046875 0.131836,-0.1230469 0.269531,-0.2753906 0.410156,-0.4570312 z m 6.632812,0.7851562 c 0,0.140625 -0.04102,0.2431641 -0.117187,0.3046875 -0.07031,0.064453 -0.149414,0.09375 -0.234375,0.09375 h -3.246094 c 0,0.2753906 0.02637,0.5214844 0.08203,0.7382813 0.05274,0.2197265 0.143555,0.4101562 0.269532,0.5742187 0.131836,0.15820313 0.298828,0.27832031 0.503906,0.36328125 0.210937,0.0791016 0.462891,0.1171875 0.761719,0.1171875 0.234375,0 0.439453,-0.0175781 0.621093,-0.0585938 0.178711,-0.0380859 0.333985,-0.0820313 0.46875,-0.12890625 0.140625,-0.046875 0.251954,-0.0878906 0.339844,-0.12890625 0.08496,-0.0380859 0.146485,-0.058594 0.1875,-0.058594 0.0293,0 0.05273,0.008789 0.07031,0.0234375 0.02344,0.008789 0.03809,0.0292969 0.04687,0.0585938 0.01465,0.0234375 0.02344,0.0585938 0.02344,0.10546875 0.0059,0.046875 0.01172,0.10253906 0.01172,0.1640625 0,0.046875 -0.0059,0.0908203 -0.01172,0.12890625 0,0.0322266 -0.0059,0.0644531 -0.01172,0.09375 0,0.0234375 -0.0088,0.046875 -0.02344,0.0703125 -0.01758,0.0234375 -0.03516,0.046875 -0.05859,0.0703125 -0.01758,0.0175781 -0.07617,0.046875 -0.175781,0.09375 -0.09375,0.046875 -0.219727,0.09375 -0.375,0.140625 C 16.159838,-0.01679692 15.978197,0.01542964 15.76726,0.0476562 15.562188,0.08574219 15.345391,0.10625 15.111016,0.10625 c -0.407227,0 -0.767578,-0.05566406 -1.078125,-0.1640625 C 13.728203,-0.175 13.470391,-0.34199219 13.259453,-0.56171875 13.054375,-0.78730469 12.899102,-1.0685547 12.790703,-1.4054687 12.688164,-1.7482422 12.638359,-2.14375 12.638359,-2.5890625 c 0,-0.421875 0.05274,-0.7998047 0.164063,-1.1367187 0.108398,-0.3427735 0.263672,-0.6328125 0.46875,-0.8671875 0.210937,-0.234375 0.459961,-0.413086 0.75,-0.5390625 0.295898,-0.131836 0.624023,-0.1992188 0.984375,-0.1992188 0.389648,0 0.720703,0.064453 0.996094,0.1875 0.272461,0.1259766 0.495117,0.2929688 0.667968,0.5039063 0.178711,0.2109375 0.307618,0.4628906 0.386719,0.75 0.08496,0.28125 0.128906,0.5830078 0.128906,0.9023437 z m -0.914062,-0.2695312 c 0.0059,-0.4746094 -0.09961,-0.8466797 -0.316406,-1.1132813 -0.219727,-0.2724609 -0.547852,-0.4101562 -0.984375,-0.4101562 -0.228516,0 -0.427735,0.043945 -0.597657,0.1289062 -0.164062,0.079102 -0.304687,0.1875 -0.421875,0.328125 -0.111328,0.140625 -0.196289,0.3046875 -0.257812,0.4921875 -0.06445,0.1816406 -0.09961,0.3720703 -0.105469,0.5742188 z m 6.738281,0.4101562 c 0,0.4306641 -0.04687,0.8173828 -0.140625,1.1601563 -0.09375,0.3457031 -0.231445,0.63867183 -0.410156,0.8789062 -0.181641,0.24316406 -0.407227,0.43066406 -0.679688,0.5625 -0.266601,0.12304688 -0.571289,0.1875 -0.914062,0.1875 -0.149414,0 -0.287109,-0.01757812 -0.410156,-0.046875 -0.125977,-0.03222656 -0.246094,-0.07617187 -0.363282,-0.140625 -0.117187,-0.06152344 -0.234375,-0.140625 -0.351562,-0.234375 -0.117188,-0.09375 -0.243164,-0.20214844 -0.375,-0.328125 v 2.4726563 c 0,0.023437 -0.0088,0.046875 -0.02344,0.070312 -0.01758,0.023437 -0.04102,0.041016 -0.07031,0.058594 -0.03223,0.014648 -0.0791,0.026367 -0.140625,0.035156 -0.05566,0.00586 -0.128906,0.011719 -0.222656,0.011719 -0.08789,0 -0.161133,-0.00586 -0.222657,-0.011719 -0.05566,-0.00879 -0.102539,-0.020508 -0.140625,-0.035156 -0.03223,-0.017578 -0.05566,-0.035156 -0.07031,-0.058594 -0.0088,-0.023437 -0.01172,-0.046875 -0.01172,-0.070312 v -6.9140625 c 0,-0.029297 0.0029,-0.052734 0.01172,-0.070312 0.01465,-0.023437 0.03809,-0.041016 0.07031,-0.058594 0.0293,-0.014648 0.07031,-0.023437 0.117188,-0.023437 0.05273,-0.00586 0.117187,-0.011719 0.1875,-0.011719 0.07617,0 0.140625,0.00586 0.1875,0.011719 0.05273,0 0.09668,0.00879 0.128906,0.023437 0.0293,0.017578 0.05273,0.035156 0.07031,0.058594 0.01465,0.017578 0.02344,0.041016 0.02344,0.070312 v 0.6679687 c 0.146485,-0.1552734 0.292969,-0.2871094 0.433594,-0.3984375 0.140625,-0.1171875 0.28125,-0.2109375 0.421875,-0.28125 0.140625,-0.076172 0.28418,-0.1347656 0.433594,-0.1757812 0.146484,-0.038086 0.304687,-0.058594 0.46875,-0.058594 0.357422,0 0.662109,0.070312 0.914062,0.2109375 0.249024,0.140625 0.451172,0.3339844 0.609375,0.5742188 0.164063,0.243164 0.28125,0.524414 0.351563,0.84375 0.07617,0.3222656 0.117187,0.6621093 0.117187,1.0195314 z m -0.960937,0.1054688 c 0,-0.2578125 -0.02051,-0.5039063 -0.05859,-0.7382813 -0.04102,-0.234375 -0.105469,-0.4394531 -0.199219,-0.6210937 -0.08789,-0.1875 -0.210937,-0.3339844 -0.375,-0.4453125 -0.158203,-0.1083985 -0.351562,-0.1640625 -0.585937,-0.1640625 -0.117188,0 -0.234375,0.020508 -0.351563,0.058594 -0.111328,0.032227 -0.222656,0.087891 -0.339844,0.1640625 -0.117187,0.070312 -0.243164,0.1699219 -0.375,0.2929688 -0.125976,0.1171875 -0.257812,0.2666015 -0.398437,0.4453125 v 1.96875 c 0.249023,0.3046875 0.483398,0.5390625 0.703125,0.70312495 0.225586,0.15820313 0.462891,0.234375 0.714844,0.234375 0.225586,0 0.416015,-0.0527344 0.574218,-0.1640625 0.164063,-0.10839844 0.295899,-0.25195315 0.398438,-0.43359375 0.09961,-0.1875 0.175781,-0.3925781 0.222656,-0.6210937 0.04687,-0.225586 0.07031,-0.4511719 0.07031,-0.6796875 z m 4.77832,2.0742187 c 0,0.11132813 -0.0088,0.19628906 -0.02344,0.2578125 -0.01758,0.0644531 -0.04102,0.11132813 -0.07031,0.140625 -0.02344,0.0234375 -0.06738,0.05273438 -0.128906,0.08203125 -0.05566,0.0234375 -0.123047,0.04101563 -0.199219,0.05859375 -0.07031,0.01464844 -0.149414,0.02636719 -0.234375,0.03515625 -0.08789,0.01464844 -0.172852,0.0234375 -0.257813,0.0234375 -0.257812,0 -0.477539,-0.03222656 -0.65625,-0.09375 C 25.074883,-0.06953125 24.928398,-0.175 24.811211,-0.315625 24.694023,-0.45625 24.606133,-0.62617187 24.553398,-0.83125 c -0.05566,-0.2109375 -0.08203,-0.4599609 -0.08203,-0.75 v -2.8945312 h -0.691406 c -0.05566,0 -0.102539,-0.026367 -0.140625,-0.082031 -0.03223,-0.061523 -0.04687,-0.1552734 -0.04687,-0.28125 0,-0.070312 0.0029,-0.1289062 0.01172,-0.1757812 0.01465,-0.052734 0.0293,-0.09668 0.04687,-0.1289063 0.01465,-0.029297 0.03516,-0.049805 0.05859,-0.058594 0.02344,-0.014648 0.04687,-0.023437 0.07031,-0.023437 h 0.691406 v -1.171875 c 0,-0.023437 0.0029,-0.046875 0.01172,-0.070312 0.01465,-0.023437 0.03809,-0.041016 0.07031,-0.058594 0.03809,-0.014648 0.08496,-0.026367 0.140625,-0.035156 0.06152,-0.00586 0.134766,-0.011719 0.222657,-0.011719 0.09375,0 0.166992,0.00586 0.222656,0.011719 0.06152,0.00879 0.108398,0.020508 0.140625,0.035156 0.03809,0.017578 0.06152,0.035156 0.07031,0.058594 0.01465,0.023437 0.02344,0.046875 0.02344,0.070312 v 1.171875 h 1.277344 c 0.02344,0 0.04687,0.00879 0.07031,0.023437 0.02344,0.00879 0.04102,0.029297 0.05859,0.058594 0.01465,0.032227 0.02637,0.076172 0.03516,0.1289063 0.0059,0.046875 0.01172,0.1054687 0.01172,0.1757812 0,0.1259766 -0.01758,0.2197266 -0.04687,0.28125 -0.03223,0.055664 -0.07617,0.082031 -0.128906,0.082031 H 25.37371 v 2.765625 c 0,0.336914 0.0498,0.5947265 0.152344,0.77343745 0.09961,0.17285156 0.28125,0.2578125 0.539062,0.2578125 0.08496,0 0.158203,-0.005859 0.222656,-0.0234375 0.07031,-0.0146484 0.128907,-0.0292969 0.175782,-0.046875 0.05273,-0.0234375 0.09961,-0.0410156 0.140625,-0.0585938 0.03809,-0.0146484 0.07031,-0.0234375 0.09375,-0.0234375 0.02344,0 0.04102,0.005859 0.05859,0.0117188 0.01465,0.008789 0.02637,0.0292969 0.03516,0.0585938 0.0059,0.0234375 0.01465,0.0585938 0.02344,0.10546875 0.0059,0.0410156 0.01172,0.0908203 0.01172,0.15234375 z m 0,0"
           style="fill:#ffffff;fill-opacity:1;fill-rule:nonzero;stroke:none"
           aria-label=" Adept"
           transform="matrix(1.3333333,0,0,1.3333333,2003.4267,965.73333)"
           clip-path="url(#clipPath142)" />
      </g>
    </g>
  </g>
</svg>
