<svg xmlns="http://www.w3.org/2000/svg" xmlns:xlink="http://www.w3.org/1999/xlink" version="1.1" width="595.2756" height="115.088" viewBox="0 0 595.2756 115.088">
<defs>
<path id="font_0_1" d="M.82699587 0V.04699707H.7299957L.47399903 .67222598C.46299745 .6982269 .45098878 .6982269 .43399049 .6982269 .4059906 .6982269 .4019928 .6902313 .394989 .67222598L.14698792 .07002258C.14099121 .055007936 .13798523 .04699707 .06199646 .04699707H.040985109V0L.1579895 .0029907227C.19699097 .0029907227 .25299073 .0029907227 .2899933 0V.04699707C.2899933 .04699707 .20098877 .04699707 .20098877 .060012819L.20498657 .07203674 .25498963 .19322205H.522995L.58299258 .04699707H.48799134V0C.526001 .0029907227 .62098696 .0029907227 .6639862 .0029907227 .70399478 .0029907227 .7919922 .0029907227 .82699587 0M.5029907 .24023438H.2749939L.3889923 .51823428 .5029907 .24023438Z"/>
<path id="font_0_2" d="M.29299928 0V.04699707H.22399903V.69433596L.04699707 .6855469V.63853457C.10899353 .63853457 .115997318 .63853457 .115997318 .5995636V.04699707H.04699707V0L.16999817 .0029907227 .29299928 0Z"/>
<path id="font_0_3" d="M.5529938 .023986817C.5529938 .04699707 .5399933 .04699707 .5269928 .04699707 .46598817 .04798889 .46598817 .061019899 .46598817 .08406067V.2993164C.46598817 .38816834 .394989 .453125 .24598694 .453125 .18899536 .453125 .066986087 .44911195 .066986087 .36120606 .066986087 .317276 .101989749 .29830934 .1289978 .29830934 .1599884 .29830934 .19198609 .3192749 .19198609 .36120606 .19198609 .39115907 .17298889 .40812684 .16999817 .41012574 .19799805 .41612245 .22999573 .41711427 .24198914 .41711427 .31698609 .41711427 .35198976 .3751831 .35198976 .2993164V.2653656C.2809906 .26237489 .026992798 .2533722 .026992798 .10821533 .026992798 .012130737 .15098572-.005859375 .21998596-.005859375 .2999878-.005859375 .34700013 .03514099 .36898805 .077194217 .36898805 .04598999 .36898805 0 .47299195 0H.5209961C.54100039 0 .5529938 0 .5529938 .023986817M.35198976 .13917542C.35198976 .043151857 .2599945 .030136109 .23498535 .030136109 .18399048 .030136109 .14399719 .06517029 .14399719 .10922241 .14399719 .21734619 .3019867 .23136902 .35198976 .234375V.13917542Z"/>
<path id="font_0_4" d="M.59999087 .22315979C.59999087 .35617066 .5089874 .4501953 .36499024 .4501953 .2899933 .4501953 .23699951 .41918946 .21398926 .40118409V.4501953L.036987306 .4423828V.39537049C.09899902 .39537049 .10598755 .39537049 .10598755 .35734559V-.14648438H.036987306V-.1934967L.16299439-.19049073 .2889862-.1934967V-.14648438H.21998596V.039138795C.2630005 .004135132 .30699159-.005859375 .34799195-.005859375 .49798585-.005859375 .59999087 .08416748 .59999087 .2232666V.22315979M.47200013 .2232666C.47200013 .08216858 .4019928 .030136109 .33699037 .030136109 .32299806 .030136109 .27598573 .030136109 .23098755 .08416748 .21998596 .09718323 .21998596 .09817505 .21998596 .1171875V.32933045C.21998596 .3483429 .22099304 .34934999 .23498535 .36335755 .2749939 .40419007 .32699586 .41018678 .34899903 .41018678 .41600038 .41018678 .47200013 .34918214 .47200013 .22315979V.2232666Z"/>
<path id="font_0_5" d="M0 0Z"/>
<path id="font_0_6" d="M.85198977 0V.04699707H.82299807C.769989 .04699707 .7669983 .050994874 .7549896 .066970828L.4850006 .42070008 .72499087 .62054446C.746994 .63853457 .78900149 .63853457 .81900027 .63853457H.83599856V.6855469C.79599 .6825409 .7389984 .6825409 .73399356 .6825409 .69599917 .6825409 .6239929 .6825409 .58799746 .6855469V.63853457C.6009979 .63853457 .62098696 .63853457 .6459961 .6335449 .6619873 .6295471 .6499939 .63053897 .6589966 .6275482L.2889862 .31878663V.63853457H.39698792V.6855469C.35899354 .6825409 .26098634 .6825409 .21798706 .6825409 .1749878 .6825409 .07699585 .6825409 .038986207 .6855469V.63853457H.14698792V.04699707H.038986207V0C.07699585 .0029907227 .1749878 .0029907227 .21798706 .0029907227 .26098634 .0029907227 .35899354 .0029907227 .39698792 0V.04699707H.2889862V.25683595L.3889923 .33976747 .59498599 .06896973C.59999087 .06297302 .59999087 .06097412 .6029968 .054992677 .58499148 .04699707 .5649872 .04699707 .5299988 .04699707V0C.57099917 .0029907227 .6609955 .0029907227 .70599368 .0029907227 .74598696 .0029907227 .8149872 .0029907227 .85198977 0Z"/>
<path id="font_0_7" d="M.44198609 .3681488C.44198609 .42118836 .3880005 .4501953 .33599855 .4501953 .2659912 .4501953 .22599793 .400177 .20298767 .3371277V.4501953L.036987306 .4423828V.39537049C.09899902 .39537049 .10598755 .39537049 .10598755 .35632325V.046920778H.036987306V-.000076293948L.16299439 .0029296876C.20098877 .0029296876 .2649994 .0029296876 .30099488-.000076293948V.046920778H.21398926V.2220459C.21398926 .292099 .23899842 .41418458 .33898927 .41418458 .33898927 .41418458 .31999208 .39717103 .31999208 .3681488 .31999208 .32711793 .35198976 .30711366 .3809967 .30711366 .4099884 .30711366 .44198609 .328125 .44198609 .3681488Z"/>
<path id="font_0_8" d="M.6009979 0V.04699707C.5389862 .04699707 .5319977 .04699707 .5319977 .086013797V.69433596L.35499574 .6855469V.63853457C.4169922 .63853457 .42399598 .63853457 .42399598 .5996704V.40518189C.37399293 .44418336 .32199098 .4501953 .2889862 .4501953 .14299011 .4501953 .037994386 .36218263 .037994386 .22116089 .037994386 .089141849 .12998963-.005859375 .27799989-.005859375 .33898927-.005859375 .3869934 .018127442 .41799928 .043136598V-.005859375L.6009979 0M.41799928 .103149417C.40499879 .08514404 .3639984 .030136109 .28799439 .030136109 .1659851 .030136109 .1659851 .15115357 .1659851 .22116089 .1659851 .26916505 .1659851 .3231659 .19198609 .36218263 .22099304 .40419007 .2679901 .41418458 .29899598 .41418458 .35598756 .41418458 .3959961 .3821869 .41799928 .35317994V.103149417Z"/>
<path id="font_0_9" d="M.72299197 .27397157H.6759949C.6539917 .13598633 .6259918 .04699707 .44099427 .04699707H.2889862V.32896424H.34399415C.43998719 .32896424 .44999696 .28596498 .44999696 .2119751H.49699403V.4928894H.44999696C.44999696 .4189453 .44099427 .37597657 .34399415 .37597657H.2889862V.6328125H.44099427C.60198977 .6328125 .6279907 .559845 .6439972 .43893434H.69099429L.6599884 .6798096H.038986207V.6328125H.14698792V.04699707H.038986207V0H.6769867L.72299197 .27397157Z"/>
<path id="font_0_10" d="M.49398805 .11706543C.49398805 .13504029 .47499085 .13504029 .46998597 .13504029 .45298768 .13504029 .45098878 .13005066 .44499208 .11405945 .42399598 .066101077 .36698915 .03413391 .3019867 .03413391 .16099549 .03413391 .1599884 .16700745 .1599884 .2179718H.46199037C.48399354 .2179718 .49398805 .2179718 .49398805 .2449646 .49398805 .27598573 .48799134 .34906007 .43798829 .3991089 .40098573 .43511964 .34799195 .453125 .2789917 .453125 .11898804 .453125 .03199768 .35005189 .03199768 .22497559 .03199768 .09107971 .13198853-.005859375 .29299928-.005859375 .45098878-.005859375 .49398805 .10006714 .49398805 .11706543M.39898683 .25097657H.1599884C.1619873 .29000855 .16299439 .3320465 .18399048 .36506654 .20999146 .4051056 .25 .41711427 .2789917 .41711427 .3959961 .41711427 .397995 .28599549 .39898683 .25097657Z"/>
<path id="font_0_11" d="M.38198854 .124176029V.17721558H.33499146V.12619019C.33499146 .058151246 .30299378 .03413391 .2749939 .03413391 .21699524 .03413391 .21699524 .09817505 .21699524 .1211853V.3973236H.36299134V.44433595H.21699524V.6353302H.16999817C.16899109 .53544619 .11999512 .43644715 .020996094 .43345643V.39746095H.102996829V.12321472C.102996829 .01612854 .18998719-.005859375 .26098634-.005859375 .33699037-.005859375 .38198854 .05114746 .38198854 .12420654V.124176029Z"/>
<path id="font_0_12" d="M.7569885 .4338379 .73599246 .6748047H.06298828L.041992189 .4338379H.08898926C.09799194 .54681399 .10798645 .62779238 .2519989 .62779238H.32899476V.046920778H.17599488V-.000076293948C.22999573 .0029296876 .34098817 .0029296876 .3999939 .0029296876 .45899964 .0029296876 .56999209 .0029296876 .6239929-.000076293948V.046920778H.47099305V.62779238H.5469971C.6899872 .62779238 .69999697 .5478058 .70999148 .4338379H.7569885Z"/>
<path id="font_0_13" d="M.28599549 0V.04699707H.22399903V.4501953L.049987794 .4423828V.39537049C.10899353 .39537049 .115997318 .39537049 .115997318 .3563385V.04699707H.04699707V0L.16899109 .0029907227 .28599549 0M.30599977 .64237979C.30599977 .67337039 .27799989 .7043762 .24598694 .7043762 .22299195 .7043762 .21099854 .69137576 .19898987 .67837527L.08699036 .54637148 .116989139 .5093689 .2679901 .5903778C.28399659 .5993805 .30599977 .6103821 .30599977 .64237979Z"/>
<path id="font_0_14" d="M.61499026 0V.04699707C.5529938 .04699707 .54599 .04699707 .54599 .086013797V.4501953L.36299134 .4423828V.39537049C.4249878 .39537049 .43199159 .39537049 .43199159 .35635377V.16522217C.43199159 .0831604 .3809967 .030136109 .30799867 .030136109 .23098755 .030136109 .22799683 .055145265 .22799683 .109191898V.4501953L.04499817 .4423828V.39537049C.10699463 .39537049 .11399841 .39537049 .11399841 .35635377V.12319946C.11399841 .01612854 .19499207-.005859375 .2939911-.005859375 .31999208-.005859375 .3919983-.005859375 .43798829 .07215881V-.005859375L.61499026 0Z"/>
<path id="font_0_15" d="M.4149933 .14012146C.4149933 .18312073 .394989 .21812439 .3600006 .24612427 .32099916 .27511598 .2889862 .28112794 .21099854 .29412843 .17399597 .30111695 .10899353 .31211854 .10899353 .3591156 .10899353 .42111207 .20199585 .42111207 .22099304 .42111207 .29599 .42111207 .33399964 .39212037 .33898927 .33711244 .33999635 .32211305 .34098817 .3171234 .3619995 .3171234 .38598634 .3171234 .38598634 .32211305 .38598634 .3451233V.42510987C.38598634 .4441223 .38598634 .453125 .36799623 .453125 .3639984 .453125 .3619995 .453125 .32299806 .43411256 .29699708 .44711305 .2619934 .453125 .22200012 .453125 .19198609 .453125 .037994386 .453125 .037994386 .32211305 .037994386 .28211976 .057998659 .25512696 .07798767 .23812866 .117996219 .203125 .1559906 .1971283 .23298645 .18312073 .2689972 .17712403 .34399415 .16412354 .34399415 .10513306 .34399415 .030136109 .2519989 .030136109 .22999573 .030136109 .12399292 .030136109 .09799194 .103134158 .085998538 .14613343 .08099365 .16012573 .07598877 .16012573 .06199646 .16012573 .037994386 .16012573 .037994386 .15412903 .037994386 .13113404V.022140503C.037994386 .0031280518 .037994386-.005859375 .055999757-.005859375 .06298828-.005859375 .06498718-.005859375 .085998538 .009140015L.11199951 .026138306C.1579895-.005859375 .20999146-.005859375 .22999573-.005859375 .26098634-.005859375 .4149933-.005859375 .4149933 .14012146Z"/>
<path id="font_0_16" d="M.57398989 .20324707C.57398989 .31425477 .49299623 .39526368 .4019928 .41426087L.25698854 .44525147C.21699524 .45425416 .16099549 .48825074 .16099549 .5492554 .16099549 .59225466 .18899536 .6542511 .2889862 .6542511 .36898805 .6542511 .46998597 .6202545 .49299623 .48425294 .49699403 .46025086 .49699403 .45825196 .5179901 .45825196 .5419922 .45825196 .5419922 .46325685 .5419922 .48625184V.6692505C.5419922 .68826296 .5419922 .6972656 .5239868 .6972656 .5159912 .6972656 .5149994 .69625857 .5039978 .68626406L.45899964 .6422577C.40098573 .68826296 .33599855 .6972656 .28799439 .6972656 .13598633 .6972656 .06399536 .6012573 .06399536 .4962616 .06399536 .43125917 .09700012 .3852539 .117996219 .36325074 .16699219 .31425477 .20098877 .30725099 .30999757 .2832489 .397995 .2642517 .4149933 .261261 .43699647 .24024964 .45199586 .22525025 .47698976 .19924927 .47698976 .15325928 .47698976 .10525513 .45098878 .036254884 .34700013 .036254884 .2709961 .036254884 .11898804 .056243898 .11099243 .20524597 .10998535 .22325135 .10998535 .22825623 .08799744 .22825623 .06399536 .22825623 .06399536 .22225952 .06399536 .19924927V.01725769C.06399536-.0017547608 .06399536-.0107421879 .08198547-.0107421879 .09098816-.0107421879 .09298706-.008743286 .100997928-.0017547608L.14698792 .04425049C.21299744-.0047454836 .30599977-.0107421879 .34700013-.0107421879 .5119934-.0107421879 .57398989 .102249149 .57398989 .20324707Z"/>
<path id="font_0_17" d="M.59999087 .22315979C.59999087 .35617066 .5059967 .4501953 .36099244 .4501953 .28799439 .4501953 .23799134 .42118836 .21398926 .40118409V.69433596L.036987306 .6855469V.63853457C.09899902 .63853457 .10598755 .63853457 .10598755 .5996704V.0001373291H.15299988C.16899109 .019134522 .18598938 .037139894 .20199585 .056137086 .20999146 .04814148 .25898744-.005859375 .34799195-.005859375 .49699403-.005859375 .59999087 .08413696 .59999087 .22315979M.47200013 .22315979C.47200013 .17614746 .47200013 .12113953 .44599916 .08213806 .4169922 .041137697 .37098695 .030136109 .33898927 .030136109 .2689972 .030136109 .22999573 .08413696 .21998596 .09913635V.35017396C.24699402 .3851776 .29499818 .41418458 .34999085 .41418458 .47200013 .41418458 .47200013 .2931671 .47200013 .22315979Z"/>
<path id="font_0_18" d="M.46199037 .20213318H.4149933C.4059906 .1010437 .3899994 .039993287 .2579956 .039993287H.17199707L.44898988 .4013214C.45700074 .412323 .45899964 .4143219 .45899964 .42332459 .45899964 .44433595 .44499208 .44433595 .4269867 .44433595H.05999756L.04798889 .26919557H.09498596C.100997928 .3722992 .13198853 .4083252 .23498535 .4083252H.31999208L.040985109 .04399109C.03199768 .032989503 .03199768 .0309906 .03199768 .021987915 .03199768 0 .04499817 0 .06399536 0H.44400025L.46199037 .20213318Z"/>
<path id="font_0_19" d="M.49398805 .11706543C.49398805 .13504029 .47499085 .13504029 .46998597 .13504029 .45298768 .13504029 .45098878 .13005066 .44499208 .11405945 .42399598 .066101077 .36698915 .03413391 .3019867 .03413391 .16099549 .03413391 .1599884 .16700745 .1599884 .2179718H.46199037C.48399354 .2179718 .49398805 .2179718 .49398805 .2449646 .49398805 .27598573 .48799134 .34906007 .43798829 .3991089 .40098573 .43511964 .34799195 .453125 .2789917 .453125 .11898804 .453125 .03199768 .35005189 .03199768 .22497559 .03199768 .09107971 .13198853-.005859375 .29299928-.005859375 .45098878-.005859375 .49398805 .10006714 .49398805 .11706543M.39898683 .25097657H.1599884C.1619873 .29000855 .16299439 .3320465 .18399048 .36506654 .20999146 .4051056 .25 .41711427 .2789917 .41711427 .3959961 .41711427 .397995 .28599549 .39898683 .25097657M.4099884 .64212039C.4099884 .67311099 .38198854 .7041168 .34999085 .7041168 .32699586 .7041168 .31498719 .69111636 .30299378 .67811587L.19099427 .54611209 .22099304 .50912478 .37199403 .5901184C.3880005 .5991211 .4099884 .6101227 .4099884 .64212039Z"/>
<path id="font_0_20" d="M.28599549 0V.04699707H.22399903V.4501953L.049987794 .4423828V.39537049C.10899353 .39537049 .115997318 .39537049 .115997318 .3563385V.04699707H.04699707V0L.16899109 .0029907227 .28599549 0M.23799134 .60728457C.23799134 .6502838 .20298767 .6852875 .1599884 .6852875 .116989139 .6852875 .08198547 .6502838 .08198547 .60728457 .08198547 .5642853 .116989139 .5292969 .1599884 .5292969 .20298767 .5292969 .23799134 .5642853 .23799134 .60728457Z"/>
<path id="font_0_21" d="M.61499026 0V.04699707H.54599V.30613709C.54599 .41119386 .49198915 .4501953 .3919983 .4501953 .29599 .4501953 .24299622 .39317323 .21699524 .34214784V.4501953L.04499817 .4423828V.39537049C.10699463 .39537049 .11399841 .39537049 .11399841 .3563385V.04699707H.04499817V0L.17098999 .0029907227 .29699708 0V.04699707H.22799683V.25610353C.22799683 .36515809 .31399537 .41418458 .3769989 .41418458 .41099549 .41418458 .43199159 .39317323 .43199159 .31713868V.04699707H.36299134V0L.4889984 .0029907227 .61499026 0Z"/>
<path id="font_1_1" d="M.2749939 .64068606H.3929901C.46398927 .64068606 .5099945 .62571719 .5329895 .59677127 .5649872 .5578613 .56900027 .52093508 .5779877 .4500885H.61099246L.58200076 .6796875H.032989503V.64068606H.06098938C.09599304 .64068606 .116989139 .63868716 .12399292 .6336975 .1309967 .6287079 .1349945 .61672976 .1349945 .59877017V.08103943C.1349945 .0630188 .1309967 .05101013 .12399292 .04600525 .116989139 .041000368 .09599304 .038986207 .06098938 .038986207H.032989503V0C.05899048 .0019989014 .10998535 .0029907227 .18699646 .0029907227 .27398683 .0029907227 .32998658 .0019989014 .35699464 0V.038986207H.31999208C.2669983 .038986207 .23799134 .04399109 .23298645 .055007936 .23098755 .060012819 .22999573 .06903076 .22999573 .08203125V.32128907H.31098939C.35398866 .32128907 .38198854 .3132782 .3939972 .29826356 .4059906 .2832489 .4119873 .2532196 .4119873 .2061615H.44400025V.47503663H.4119873C.4119873 .42913819 .4059906 .39819337 .3939972 .38323976 .38198854 .36827088 .35398866 .36027528 .31098939 .36027528H.22999573V.60575869C.22999573 .64167788 .23599243 .64068606 .2749939 .64068606Z"/>
<path id="font_1_2" d="M.19400025 .60121157C.19400025 .6312256 .16899109 .65722659 .13899231 .65722659 .10899353 .65722659 .08299255 .6312256 .08299255 .60121157 .08299255 .57121279 .10798645 .54422 .13798523 .54422 .16899109 .54422 .19400025 .57022097 .19400025 .60121157M.14299011 .0029907227 .24699402 0V.038986207C.21398926 .038986207 .19400025 .041000368 .18798828 .04499817 .18199158 .04899597 .17999268 .060012819 .17999268 .07801819V.4453125L.036987306 .4326172V.39460755C.069992069 .39460755 .09098816 .39161683 .09799194 .3866272 .10499573 .3816223 .10798645 .36764527 .10798645 .34466554V.078948978C.10798645 .05996704 .10499573 .04798889 .09799194 .04399109 .09098816 .039993287 .068984989 .038986207 .032989503 .038986207V0L.14299011 .0029907227Z"/>
<path id="font_1_3" d="M.056991579 0H.38398744L.40098573 .19084168H.36898805C.3639984 .12890625 .35299684 .08694458 .33499146 .064956668 .31698609 .04298401 .2829895 .03199768 .22999573 .03199768H.12199402L.3889923 .39466859C.3959961 .403656 .39898683 .4096527 .39898683 .4136505 .39898683 .4246521 .3889923 .43066407 .36999513 .43066407H.052993776L.040985109 .26478578H.07398987C.07699585 .31973268 .08699036 .35569764 .102996829 .37368775 .11898804 .3916626 .1519928 .4016571 .20199585 .4016571H.30599977L.037994386 .037994386C.0309906 .0289917 .027999878 .022994996 .027999878 .017990113 .027999878 .0009918213 .034988405 0 .056991579 0Z"/>
<path id="font_1_4" d="M.42199708 .0029907227C.44198609 .0039978029 .47200013 .0029907227 .5109863 0V.038986207C.4869995 .038986207 .46899415 .041992189 .45700074 .04698181 .44499208 .051971437 .43099977 .065963748 .4149933 .08892822L.2899933 .2657318C.2869873 .27471925 .2849884 .27772523 .2849884 .27471925 .2849884 .27572633 .29499818 .28471376 .31599427 .3026886 .35099793 .33364869 .3769989 .3536377 .3939972 .36462403 .4249878 .3835907 .45599366 .3935852 .48799134 .3955841V.43359376C.46699525 .4315796 .44299317 .43058778 .41600038 .43058778 .36999513 .43058778 .33198548 .4315796 .30099488 .43359376V.3955841C.31999208 .3945923 .32998658 .3875885 .32998658 .37460328 .32998658 .36262513 .32299806 .3506317 .30999757 .33865357L.17799378 .2237854V.69433596L.027999878 .6826172V.64460757C.06399536 .64460757 .085998538 .64260867 .09399414 .63661196 .101989749 .6306 .10499573 .6156006 .10499573 .5926056V.078948978C.10499573 .05996704 .100997928 .048980714 .09399414 .04498291 .08699036 .040985109 .06498718 .038986207 .027999878 .038986207V0L.13899231 .0029907227 .25099183 0V.038986207C.21398926 .038986207 .19299317 .040985109 .18598938 .04498291 .1789856 .048980714 .1749878 .05996704 .1749878 .078948978V.17883301L.23298645 .22976685 .24899292 .20579529C.31399537 .11590576 .34700013 .065963748 .34700013 .05697632 .34700013 .04498291 .33499146 .038986207 .31098939 .038986207V0L.42199708 .0029907227Z"/>
<path id="font_1_5" d="M.48298646 .09118652V.15023804H.45098878V.09118652C.45098878 .05215454 .43998719 .03213501 .4189911 .03213501 .39898683 .03213501 .3869934 .057159425 .3869934 .077178958V.2743225C.3869934 .30929566 .3829956 .33528138 .37599183 .35327149 .35198976 .4122467 .2829895 .4482422 .21299744 .4482422 .13598633 .4482422 .05999756 .40524293 .05999756 .33328248 .05999756 .30030824 .07699585 .28330995 .10998535 .28330995 .14299011 .28330995 .15899658 .29930116 .15899658 .33229066 .15899658 .3612671 .14399719 .37826539 .11299133 .3812561 .1349945 .40625 .16799927 .41923524 .21099854 .41923524 .272995 .41923524 .31098939 .36227418 .31098939 .29730226V.264328C.23298645 .25932313 .17399597 .24731446 .1329956 .22831726 .06599426 .19728089 .03199768 .1542511 .03199768 .09719849 .03199768 .07116699 .041992189 .04914856 .06098938 .03213501 .09298706 .003250122 .13699341-.0107421879 .19299317-.0107421879 .2519989-.0107421879 .2939911 .014251709 .31999208 .06526184 .32699586 .027130127 .35499574-.005859375 .397995-.005859375 .45098878-.005859375 .48298646 .036132814 .48298646 .09118652M.19999695 .018249512C.1539917 .018249512 .115997318 .052261354 .115997318 .09828186 .115997318 .19129944 .21299744 .23132324 .31098939 .23632813V.14129639C.31098939 .07426453 .2669983 .018249512 .19999695 .018249512Z"/>
<path id="font_1_6" d="M0 0Z"/>
<path id="font_1_7" d="M.31698609-.25001527C.32598878-.25001527 .33099366-.24501038 .33099366-.23600769 .33099366-.23200989 .32499696-.22401428 .31298829-.2110138 .21299744-.10800171 .16299439 .04598999 .16299439 .25 .16299439 .45399476 .21398926 .60899356 .31698609 .71598818 .32598878 .7259979 .33099366 .73298647 .33099366 .73599246 .33099366 .7449951 .32598878 .75 .31698609 .75 .2999878 .75 .2689972 .7200012 .22299195 .6589966 .13999939 .5499878 .09899902 .4139862 .09899902 .25 .09899902 .08198547 .14099121-.056015016 .22599793-.16300965 .2709961-.2210083 .3019867-.25001527 .31698609-.25001527Z"/>
<path id="font_1_8" d="M.58299258 .0029907227 .71699526 0V.038986207H.69499209C.66999819 .038986207 .6529999 .039993287 .6459961 .041992189 .6309967 .04698181 .62098696 .05795288 .61499026 .07493591L.40098573 .69366458C.39698792 .70666506 .3899994 .7156677 .375 .7156677 .3619995 .7156677 .35299684 .70866397 .34799195 .69366458L.14299011 .101882938C.1289978 .060958864 .09199524 .038986207 .03199768 .037994386V0L.13699341 .0029907227 .2539978 0V.038986207C.20498657 .038986207 .17999268 .053970338 .17999268 .08491516 .17999268 .09190369 .18099976 .09588623 .18199158 .09788513L.22698975 .22467041H.46499635L.5159912 .076919559C.5179901 .07093811 .5189972 .06694031 .5189972 .063949588 .5189972 .04698181 .49198915 .038986207 .43699647 .038986207V0C.47898866 .0029907227 .5279999 .0039978029 .58299258 .0029907227M.34498597 .56866458 .45098878 .26367188H.23999024L.34498597 .56866458Z"/>
<path id="font_1_9" d="M.16499329-.15901184C.24798584-.05000305 .2889862 .085998538 .2889862 .25 .2889862 .41799928 .24699402 .55599978 .1619873 .6629944 .116989139 .72099307 .085998538 .75 .070999149 .75 .06199646 .75 .056991579 .7449951 .056991579 .73599246 .056991579 .73298647 .06298828 .723999 .07598877 .70999148 .1749878 .60798647 .22499085 .45498658 .22499085 .25 .22499085 .04598999 .17399597-.10900879 .070999149-.21600342 .06199646-.22601319 .056991579-.23300171 .056991579-.23600769 .056991579-.24501038 .06199646-.25001527 .070999149-.25001527 .08799744-.25001527 .11898804-.22000122 .16499329-.15901184Z"/>
<path id="font_1_10" d="M.23699951 .6660156C.18598938 .6660156 .14299011 .64801028 .10598755 .61203 .068984989 .5760803 .049987794 .53411868 .049987794 .48312379 .049987794 .4491272 .07499695 .42411805 .10598755 .42411805 .13598633 .42411805 .16099549 .45011903 .16099549 .4801178 .16099549 .51312258 .13699341 .5361328 .10499573 .5361328 .101989749 .5361328 .099990848 .5361328 .09799194 .53512576 .116989139 .58406069 .16099549 .62701418 .22399903 .62701418 .30599977 .62701418 .35198976 .55610659 .35198976 .4701233 .35198976 .40312196 .31799317 .3310852 .25 .25506593L.06199646 .042999269C.04899597 .027999878 .049987794 .0289917 .049987794 0H.42099L.44999696 .1800232H.4169922C.40899659 .12901306 .4019928 .1000061 .3959961 .09098816 .3909912 .085998538 .36099244 .083999637 .30599977 .083999637H.13899231L.23599243 .17903137C.3039856 .24305725 .3899994 .312088 .4189911 .36509706 .43899537 .40011598 .44898988 .43511964 .44898988 .4701233 .44898988 .5880585 .35699464 .6660156 .23699951 .6660156Z"/>
<path id="font_1_11" d="M0 .25390626H.49899293V.27690126H0V.25390626Z"/>
<path id="font_1_12" d="M.35299684 .6767578C.34399415 .6767578 .33599855 .6717529 .32998658 .66275027L.027999878 .19908142V.16308594H.2889862V.08102417C.2889862 .06300354 .2849884 .050994874 .27799989 .04598999 .2709961 .041000368 .2519989 .038986207 .21899414 .038986207H.19400025V0C.22299195 .0019989014 .2689972 .0029907227 .33099366 .0029907227 .3929901 .0029907227 .43899537 .0019989014 .46798707 0V.038986207H.44299317C.4099884 .038986207 .3909912 .041000368 .38398744 .04598999 .3769989 .050994874 .37298585 .06300354 .37298585 .08102417V.16308594H.47099305V.20207215H.37298585V.6597595C.37298585 .669754 .3659973 .6767578 .35299684 .6767578M.29499818 .5528259V.20207215H.066986087L.29499818 .5528259Z"/>
<path id="font_1_13" d="M.2689972 .6660156C.22799683 .6242981 .16799927 .60343936 .08898926 .60343936V.5644531C.14099121 .5644531 .18399048 .57244876 .21699524 .58843997V.08203125C.21699524 .06401062 .21299744 .052001954 .20399475 .04699707 .19499207 .041992189 .16999817 .038986207 .12998963 .038986207H.09498596V0C.11999512 .0019989014 .17399597 .0029907227 .25698854 .0029907227 .33999635 .0029907227 .3939972 .0019989014 .4189911 0V.038986207H.38398744C.34298707 .038986207 .31799317 .041992189 .30999757 .04699707 .3019867 .052001954 .29699708 .06401062 .29699708 .08203125V.6362152C.29699708 .66004946 .29499818 .6660156 .2689972 .6660156Z"/>
<path id="font_0_22" d="M.72099307 .49064637C.72099307 .6005707 .621994 .6855469 .45599366 .6855469H.038986207V.63853457H.14698792V.046920778H.038986207V-.000076293948C.07699585 .0029296876 .1749878 .0029296876 .21798706 .0029296876 .26098634 .0029296876 .35899354 .0029296876 .39698792-.000076293948V.046920778H.2889862V.30177308H.46598817C.6049957 .30177308 .72099307 .37374879 .72099307 .49064637M.56799319 .49064637C.56799319 .41970826 .56799319 .34277345 .4169922 .34277345H.2829895V.63853457H.41799928C.56799319 .63853457 .56799319 .56259158 .56799319 .49064637Z"/>
<path id="font_0_23" d="M.61499026 0V.04699707H.54599V.30613709C.54599 .41119386 .49198915 .4501953 .3919983 .4501953 .29599 .4501953 .24499512 .3921814 .22299195 .3541565H.22200012V.69433596L.04499817 .6855469V.63853457C.10699463 .63853457 .11399841 .63853457 .11399841 .5996704V.04699707H.04499817V0L.17098999 .0029907227 .29699708 0V.04699707H.22799683V.25610353C.22799683 .36515809 .31399537 .41418458 .3769989 .41418458 .41099549 .41418458 .43199159 .39317323 .43199159 .31713868V.04699707H.36299134V0L.4889984 .0029907227 .61499026 0Z"/>
<path id="font_0_24" d="M.7529907 .18592835C.7529907 .28189088 .6669922 .3488617 .5479889 .35786439 .6559906 .37686158 .72099307 .43678285 .72099307 .51368716 .72099307 .60557559 .6339874 .6855469 .47299195 .6855469H.038986207V.63853457H.14698792V.04699707H.038986207V0H.5029907C.6689911 0 .7529907 .08796692 .7529907 .18592835M.57899478 .51368716C.57899478 .43678285 .5309906 .37486268 .43399049 .37486268H.27799989V.63853457H.45999146C.5609894 .63853457 .57899478 .55963137 .57899478 .51368716M.60598757 .18693543C.60598757 .17492676 .60598757 .04699707 .46199037 .04699707H.27799989V.3388672H.47200013C.49198915 .3388672 .5389862 .3388672 .57299807 .29588319 .60598757 .253891 .60598757 .19792176 .60598757 .18693543Z"/>
<path id="font_0_25" d="M.47799684 .117126468C.47799684 .13113404 .46398927 .13113404 .45399476 .13113404 .43598939 .13113404 .43499757 .12913513 .42999269 .11613464 .4039917 .053131105 .35598756 .03413391 .30499269 .03413391 .1659851 .03413391 .1659851 .18112183 .1659851 .22712708 .1659851 .28312684 .1659851 .41311646 .29499818 .41311646 .32998658 .41311646 .34700013 .41011048 .3600006 .40711976 .34199525 .39111329 .33999635 .3701172 .33999635 .3611145 .33999635 .3171234 .375 .29812623 .4019928 .29812623 .43299867 .29812623 .46499635 .3191223 .46499635 .3611145 .46499635 .44711305 .34899903 .453125 .29100038 .453125 .11199951 .453125 .037994386 .3381195 .037994386 .22212219 .037994386 .08912659 .13198853-.005859375 .28599549-.005859375 .44799806-.005859375 .47799684 .11012268 .47799684 .117126468Z"/>
<path id="font_0_26" d="M.58699038 0V.04699707H.56999209C.5269928 .04699707 .5239868 .050994874 .5109863 .0670166L.34199525 .2782135 .47200013 .37930299C.48599244 .39031983 .49499513 .3973236 .56199648 .3973236V.44433595C.5349884 .44132997 .5099945 .44132997 .48399354 .44132997L.36898805 .44433595V.3973236C.3919983 .3973236 .394989 .39431764 .40299989 .38632203L.21398926 .23716736V.69433596L.036987306 .6855469V.63853457C.09899902 .63853457 .10598755 .63853457 .10598755 .5997009V.04699707H.036987306V0L.15699768 .0029907227 .27799989 0V.04699707H.20899964V.17411804C.23799134 .1971283 .24598694 .20314026 .2659912 .21714783L.36698915 .091033939C.37599183 .07902527 .3919983 .059005739 .3919983 .055999757 .3919983 .04699707 .37399293 .04699707 .36099244 .04699707V0C.3909912 .0019989014 .47799684 .0029907227 .48298646 .0029907227 .5189972 .0029907227 .5529938 .0019989014 .58699038 0Z"/>
<path id="font_0_27" d="M1.0509949 0V.04699707H.94299319V.63853457H1.0509949V.6855469H.8299866C.80799868 .6855469 .7969971 .6855469 .7859955 .6605377L.54599 .13192749 .30599977 .6605377C.29499818 .6855469 .28399659 .6855469 .2619934 .6855469H.039993287V.63853457H.147995V.07597351C.147995 .053985597 .14698792 .052993776 .11898804 .049987794 .09498596 .04699707 .09298706 .04699707 .06498718 .04699707H.039993287V0C.07798767 .0029907227 .1349945 .0029907227 .17399597 .0029907227 .21598816 .0029907227 .2679901 .0029907227 .30899049 0V.04699707H.28399659C.2659912 .04699707 .24899292 .04798889 .23098755 .049987794 .20199585 .052993776 .20098877 .053985597 .20098877 .07597351V.6255493H.20199585L.47399903 .024993897C.48298646 .004989624 .49499513 0 .5059967 0 .526001 0 .5339966 .01499939 .5379944 .023986817L.81700137 .63853457H.81799319V.04699707H.70999148V0C.74598696 .0029907227 .83898928 .0029907227 .8799896 .0029907227 .92099 .0029907227 1.0149994 .0029907227 1.0509949 0Z"/>
<path id="font_0_28" d="M.5419922 .21812439C.5419922 .35212709 .44999696 .453125 .2869873 .453125 .12298584 .453125 .03199768 .35112 .03199768 .21812439 .03199768 .09413147 .11999512-.005859375 .2869873-.005859375 .45498658-.005859375 .5419922 .09512329 .5419922 .21812439M.4139862 .22912598C.4139862 .14213562 .4139862 .03413391 .2869873 .03413391 .1599884 .03413391 .1599884 .14213562 .1599884 .22912598 .1599884 .27412416 .1599884 .32511903 .1769867 .3591156 .19599915 .39611817 .23799134 .41711427 .2869873 .41711427 .32899476 .41711427 .37098695 .40112306 .3929901 .36611939 .4139862 .3321228 .4139862 .27713014 .4139862 .22912598M.22898865 .60710147C.22898865 .6461029 .19799805 .67710879 .15899658 .67710879 .11999512 .67710879 .08898926 .6461029 .08898926 .60710147 .08898926 .56910708 .11999512 .5371094 .15899658 .5371094 .19799805 .5371094 .22898865 .56910708 .22898865 .60710147M.48599244 .60710147C.48599244 .6461029 .45498658 .67710879 .41600038 .67710879 .3769989 .67710879 .34599305 .6461029 .34599305 .60710147 .34599305 .56910708 .3769989 .5371094 .41600038 .5371094 .45498658 .5371094 .48599244 .56910708 .48599244 .60710147Z"/>
<path id="font_0_29" d="M.5799866 .3973236V.44433595C.5549927 .44232179 .526001 .44132997 .5009918 .44132997L.4099884 .44433595V.3973236C.42900086 .3973236 .45799256 .39431764 .45799256 .38632203 .45799256 .38632203 .45799256 .38432313 .45298768 .37431336L.33699037 .12416077 .20999146 .3973236H.2639923V.44433595L.13999939 .44132997 .025985718 .44433595V.3973236H.08999634L.2649994 .021102906C.2769928-.00390625 .2899933-.00390625 .30299378-.00390625 .31999208-.00390625 .32998658-.00091552737 .33999635 .020095826L.5059967 .37631227C.5119934 .39031983 .5159912 .3973236 .5799866 .3973236Z"/>
<path id="font_0_30" d="M.93499758 0V.04699707H.8659973V.30613709C.8659973 .40919496 .8149872 .4501953 .71199038 .4501953 .62098696 .4501953 .56900027 .400177 .54299929 .3541565 .522995 .44718934 .43099977 .4501953 .3929901 .4501953 .30599977 .4501953 .24899292 .40518189 .21699524 .34214784V.4501953L.04499817 .4423828V.39537049C.10699463 .39537049 .11399841 .39537049 .11399841 .3563385V.04699707H.04499817V0L.17098999 .0029907227 .29699708 0V.04699707H.22799683V.25610353C.22799683 .36515809 .31498719 .41418458 .3769989 .41418458 .41099549 .41418458 .43299867 .3941803 .43299867 .31713868V.04699707H.3639984V0L.48999024 .0029907227 .6159973 0V.04699707H.5469971V.25610353C.5469971 .36515809 .6339874 .41418458 .69599917 .41418458 .7299957 .41418458 .7519989 .3941803 .7519989 .31713868V.04699707H.68299868V0L.8089905 .0029907227 .93499758 0Z"/>
<path id="font_0_31" d="M.5799866 .3973236V.44433595C.55599978 .44232179 .526001 .44132997 .5009918 .44132997L.4099884 .44433595V.3973236C.4099884 .3973236 .45700074 .3973236 .45700074 .3853302L.45199586 .37332154 .33699037 .12713623 .20999146 .3973236H.2639923V.44433595L.13999939 .44132997 .025985718 .44433595V.3973236H.08999634L.2769928 .000045776369 .2539978-.04798889C.23199463-.09602356 .19999695-.1640625 .1289978-.1640625 .114990238-.1640625 .11299133-.16307068 .10499573-.1600647 .11399841-.1560669 .13699341-.14205933 .13699341-.10702515 .13699341-.07400513 .11299133-.049987794 .07899475-.049987794 .050994874-.049987794 .021987915-.069000247 .021987915-.10803223 .021987915-.15907288 .068984989-.20007324 .1289978-.20007324 .20599365-.20007324 .2639923-.13804627 .29100038-.08100891L.5059967 .37631227C.5130005 .39031983 .5159912 .3973236 .5799866 .3973236Z"/>
<path id="font_1_14" d="M.24899292-.022460938C.3899994-.022460938 .45999146 .09159851 .45999146 .31976319 .45999146 .47288514 .42799378 .57496646 .36499024 .625 .32998658 .65200808 .29100038 .6660156 .25 .6660156 .10899353 .6660156 .038986207 .5509491 .038986207 .31976319 .038986207 .13563538 .08799744-.022460938 .24899292-.022460938M.36099244 .5239258C.36799623 .4888916 .37098695 .42485047 .37098695 .33177186 .37098695 .23971558 .36698915 .17166138 .3600006 .12762451 .34700013 .047561647 .30999757 .007537842 .24899292 .007537842 .22599793 .007537842 .20298767 .016540528 .18199158 .033554079 .15499878 .05656433 .13899231 .10360718 .13198853 .17565918 .1289978 .2006836 .12799073 .25271607 .12799073 .33177186 .12799073 .4188385 .1309967 .47988893 .13598633 .51290896 .14498902 .56796267 .16299439 .60298159 .19099427 .6179962 .21299744 .6300049 .23199463 .6360016 .24899292 .6360016 .31399537 .6360016 .34999085 .58296206 .36099244 .5239258Z"/>
<path id="font_1_15" d="M.19198609 .052993776C.19198609 .08198547 .16799927 .10598755 .13899231 .10598755 .10998535 .10598755 .085998538 .08198547 .085998538 .052993776 .085998538 .023986817 .10998535 0 .13899231 0 .16799927 0 .19198609 .023986817 .19198609 .052993776Z"/>
<path id="font_1_16" d="M.117996219 .31480409C.12298584 .31480409 .1289978 .31880189 .13398743 .32580567 .1639862 .37083436 .20498657 .39283753 .25698854 .39283753 .2919922 .39283753 .31900025 .37283326 .33699037 .33180238 .34799195 .3047943 .35398866 .26376344 .35398866 .20874024 .35398866 .1457367 .34599305 .10171509 .33099366 .075668338 .30599977 .034576417 .27198792 .013534546 .22898865 .013534546 .1619873 .013534546 .10899353 .06163025 .09098816 .11373901 .09399414 .11274719 .09599304 .11373901 .099990848 .11373901 .12998963 .11373901 .15499878 .13674927 .15499878 .16674805 .15499878 .19773865 .12998963 .21875 .099990848 .21875 .06498718 .21875 .049987794 .19973755 .049987794 .16273499 .049987794 .06263733 .1309967-.022460938 .23098755-.022460938 .2919922-.022460938 .34399415-.00047302247 .38598634 .04359436 .42799378 .08769226 .44898988 .14074707 .44898988 .20173645 .44898988 .25976563 .43199159 .3097992 .397995 .35281373 .36099244 .3998413 .31498719 .42285157 .25898744 .42285157 .21199036 .42285157 .17098999 .4078369 .13798523 .37783814V.5559387C.16499329 .5479431 .19099427 .5439453 .21798706 .5439453 .2639923 .5439453 .3039856 .55493167 .33799745 .5779419 .36898805 .5969391 .3899994 .6159363 .4019928 .63394168 .4079895 .6419525 .41099549 .6479645 .41099549 .65097048 .41099549 .6609955 .4059906 .6660156 .3959961 .6660156 .34098817 .6449585 .2939911 .63394168 .2559967 .63394168 .21099854 .63394168 .16799927 .6429596 .1269989 .66200259 .12199402 .66400149 .117996219 .66500857 .11399841 .66500857 .10499573 .66500857 .099990848 .6559906 .099990848 .63694766V.34481813C.099990848 .32380677 .099990848 .31480409 .117996219 .31480409Z"/>
<path id="font_1_17" d="M0 .25390626H.9989929V.27690126H0V.25390626Z"/>
</defs>
<path transform="matrix(1,0,0,1,12,12)" d="M142.8189 36.464H285.6378V54.66H142.8189Z" fill="#ff4136"/>
<path transform="matrix(1,0,0,1,12,12)" stroke-width="1" stroke-linecap="butt" stroke-miterlimit="4" stroke-linejoin="miter" fill="none" stroke="#000000" d="M0-.5V91.588"/>
<path transform="matrix(1,0,0,1,12,12)" stroke-width="1" stroke-linecap="butt" stroke-miterlimit="4" stroke-linejoin="miter" fill="none" stroke="#000000" d="M142.8189 17.732V91.588008"/>
<path transform="matrix(1,0,0,1,12,12)" stroke-width="1" stroke-linecap="butt" stroke-miterlimit="4" stroke-linejoin="miter" fill="none" stroke="#000000" d="M285.6378 17.732V91.588008"/>
<path transform="matrix(1,0,0,1,12,12)" stroke-width="1" stroke-linecap="butt" stroke-miterlimit="4" stroke-linejoin="miter" fill="none" stroke="#000000" d="M428.4567 17.732V55.160005"/>
<path transform="matrix(1,0,0,1,12,12)" stroke-width="1" stroke-linecap="butt" stroke-miterlimit="4" stroke-linejoin="miter" fill="none" stroke="#000000" d="M571.2756-.5V91.588"/>
<path transform="matrix(1,0,0,1,12,12)" stroke-width="1" stroke-linecap="butt" stroke-miterlimit="4" stroke-linejoin="miter" fill="none" stroke="#000000" d="M-.5 0H571.7756"/>
<path transform="matrix(1,0,0,1,12,12)" stroke-width="1" stroke-linecap="butt" stroke-miterlimit="4" stroke-linejoin="miter" fill="none" stroke="#000000" d="M-.5 18.232H571.7756"/>
<path transform="matrix(1,0,0,1,12,12)" stroke-width="1" stroke-linecap="butt" stroke-miterlimit="4" stroke-linejoin="miter" fill="none" stroke="#000000" d="M-.5 36.464H571.7756"/>
<path transform="matrix(1,0,0,1,12,12)" stroke-width="1" stroke-linecap="butt" stroke-miterlimit="4" stroke-linejoin="miter" fill="none" stroke="#000000" d="M-.5 54.66H571.7756"/>
<path transform="matrix(1,0,0,1,12,12)" stroke-width="1" stroke-linecap="butt" stroke-miterlimit="4" stroke-linejoin="miter" fill="none" stroke="#000000" d="M-.5 72.892H571.7756"/>
<path transform="matrix(1,0,0,1,12,12)" stroke-width="1" stroke-linecap="butt" stroke-miterlimit="4" stroke-linejoin="miter" fill="none" stroke="#000000" d="M-.5 91.088H571.7756"/>
<use data-text="A" xlink:href="#font_0_1" transform="matrix(12,0,0,-12,265.58583,25.232)"/>
<use data-text="l" xlink:href="#font_0_2" transform="matrix(12,0,0,-12,276.0138,25.232)"/>
<use data-text="a" xlink:href="#font_0_3" transform="matrix(12,0,0,-12,279.8418,25.232)"/>
<use data-text="p" xlink:href="#font_0_4" transform="matrix(12,0,0,-12,286.5498,25.232)"/>
<use data-text=" " xlink:href="#font_0_5" transform="matrix(12,0,0,-12,294.2178,25.232)"/>
<use data-text="K" xlink:href="#font_0_6" transform="matrix(12,0,0,-12,298.8138,25.232)"/>
<use data-text="a" xlink:href="#font_0_3" transform="matrix(12,0,0,-12,309.62583,25.232)"/>
<use data-text="r" xlink:href="#font_0_7" transform="matrix(12,0,0,-12,316.33384,25.232)"/>
<use data-text="d" xlink:href="#font_0_8" transform="matrix(12,0,0,-12,322.02183,25.232)"/>
<use data-text="E" xlink:href="#font_0_9" transform="matrix(12,0,0,-12,63.18945,43.464)"/>
<use data-text="r" xlink:href="#font_0_7" transform="matrix(12,0,0,-12,72.26145,43.464)"/>
<use data-text="e" xlink:href="#font_0_10" transform="matrix(12,0,0,-12,77.949459,43.464)"/>
<use data-text="d" xlink:href="#font_0_8" transform="matrix(12,0,0,-12,84.27345,43.464)"/>
<use data-text="e" xlink:href="#font_0_10" transform="matrix(12,0,0,-12,91.94145,43.464)"/>
<use data-text="t" xlink:href="#font_0_11" transform="matrix(12,0,0,-12,98.26545,43.464)"/>
<use data-text="T" xlink:href="#font_0_12" transform="matrix(12,0,0,-12,209.12235,43.464)"/>
<use data-text="&#x00ed;" xlink:href="#font_0_13" transform="matrix(12,0,0,-12,218.72235,43.464)"/>
<use data-text="p" xlink:href="#font_0_4" transform="matrix(12,0,0,-12,222.55036,43.464)"/>
<use data-text="u" xlink:href="#font_0_14" transform="matrix(12,0,0,-12,230.21836,43.464)"/>
<use data-text="s" xlink:href="#font_0_15" transform="matrix(12,0,0,-12,237.88636,43.464)"/>
<use data-text="S" xlink:href="#font_0_16" transform="matrix(12,0,0,-12,349.26527,43.464)"/>
<use data-text="e" xlink:href="#font_0_10" transform="matrix(12,0,0,-12,356.93327,43.464)"/>
<use data-text="b" xlink:href="#font_0_17" transform="matrix(12,0,0,-12,363.25727,43.464)"/>
<use data-text="z" xlink:href="#font_0_18" transform="matrix(12,0,0,-12,370.92527,43.464)"/>
<use data-text="&#x00e9;" xlink:href="#font_0_19" transform="matrix(12,0,0,-12,377.05726,43.464)"/>
<use data-text="s" xlink:href="#font_0_15" transform="matrix(12,0,0,-12,383.38127,43.464)"/>
<use data-text="S" xlink:href="#font_0_16" transform="matrix(12,0,0,-12,496.72816,43.464)"/>
<use data-text="z" xlink:href="#font_0_18" transform="matrix(12,0,0,-12,504.39616,43.464)"/>
<use data-text="i" xlink:href="#font_0_20" transform="matrix(12,0,0,-12,510.52815,43.464)"/>
<use data-text="n" xlink:href="#font_0_21" transform="matrix(12,0,0,-12,514.35617,43.464)"/>
<use data-text="t" xlink:href="#font_0_11" transform="matrix(12,0,0,-12,521.64016,43.464)"/>
<use data-text="F" xlink:href="#font_1_1" transform="matrix(12,0,0,-12,65.65545,61.66)"/>
<use data-text="i" xlink:href="#font_1_2" transform="matrix(12,0,0,-12,73.49145,61.66)"/>
<use data-text="z" xlink:href="#font_1_3" transform="matrix(12,0,0,-12,76.827449,61.66)"/>
<use data-text="i" xlink:href="#font_1_2" transform="matrix(12,0,0,-12,82.15545,61.66)"/>
<use data-text="k" xlink:href="#font_1_4" transform="matrix(12,0,0,-12,85.49145,61.66)"/>
<use data-text="a" xlink:href="#font_1_5" transform="matrix(12,0,0,-12,91.827449,61.66)"/>
<use data-text="i" xlink:href="#font_1_2" transform="matrix(12,0,0,-12,97.827449,61.66)"/>
<use data-text="F" xlink:href="#font_1_1" transform="matrix(12,0,0,-12,197.30835,61.66)" fill="#ffffff"/>
<use data-text="i" xlink:href="#font_1_2" transform="matrix(12,0,0,-12,205.14435,61.66)" fill="#ffffff"/>
<use data-text="z" xlink:href="#font_1_3" transform="matrix(12,0,0,-12,208.48035,61.66)" fill="#ffffff"/>
<use data-text="i" xlink:href="#font_1_2" transform="matrix(12,0,0,-12,213.80835,61.66)" fill="#ffffff"/>
<use data-text="k" xlink:href="#font_1_4" transform="matrix(12,0,0,-12,217.14435,61.66)" fill="#ffffff"/>
<use data-text="a" xlink:href="#font_1_5" transform="matrix(12,0,0,-12,223.48035,61.66)" fill="#ffffff"/>
<use data-text="i" xlink:href="#font_1_2" transform="matrix(12,0,0,-12,229.48035,61.66)" fill="#ffffff"/>
<use data-text=" " xlink:href="#font_1_6" transform="matrix(12,0,0,-12,232.81635,61.66)" fill="#ffffff"/>
<use data-text="(" xlink:href="#font_1_7" transform="matrix(12,0,0,-12,236.81235,61.66)" fill="#ffffff"/>
<use data-text="A" xlink:href="#font_1_8" transform="matrix(12,0,0,-12,241.48035,61.66)" fill="#ffffff"/>
<use data-text=")" xlink:href="#font_1_9" transform="matrix(12,0,0,-12,250.48035,61.66)" fill="#ffffff"/>
<use data-text="2" xlink:href="#font_1_10" transform="matrix(12,0,0,-12,356.05125,61.66)"/>
<use data-text=" " xlink:href="#font_1_6" transform="matrix(12,0,0,-12,362.05125,61.66)"/>
<use data-text="&#x2013;" xlink:href="#font_1_11" transform="matrix(12,0,0,-12,366.04725,61.66)"/>
<use data-text=" " xlink:href="#font_1_6" transform="matrix(12,0,0,-12,372.04725,61.66)"/>
<use data-text="4" xlink:href="#font_1_12" transform="matrix(12,0,0,-12,376.04325,61.66)"/>
<use data-text="1" xlink:href="#font_1_13" transform="matrix(12,0,0,-12,508.86616,61.66)"/>
<use data-text="P" xlink:href="#font_0_22" transform="matrix(12,0,0,-12,53.52345,79.892)"/>
<use data-text="u" xlink:href="#font_0_14" transform="matrix(12,0,0,-12,62.95545,79.892)"/>
<use data-text="s" xlink:href="#font_0_15" transform="matrix(12,0,0,-12,70.62344,79.892)"/>
<use data-text="h" xlink:href="#font_0_23" transform="matrix(12,0,0,-12,76.07145,79.892)"/>
<use data-text="B" xlink:href="#font_0_24" transform="matrix(12,0,0,-12,83.73945,79.892)"/>
<use data-text="a" xlink:href="#font_0_3" transform="matrix(12,0,0,-12,93.55545,79.892)"/>
<use data-text="c" xlink:href="#font_0_25" transform="matrix(12,0,0,-12,100.26345,79.892)"/>
<use data-text="k" xlink:href="#font_0_26" transform="matrix(12,0,0,-12,106.01145,79.892)"/>
<use data-text="M" xlink:href="#font_0_27" transform="matrix(12,0,0,-12,205.30036,79.892)"/>
<use data-text="a" xlink:href="#font_0_3" transform="matrix(12,0,0,-12,218.40436,79.892)"/>
<use data-text="n" xlink:href="#font_0_21" transform="matrix(12,0,0,-12,225.11237,79.892)"/>
<use data-text="n" xlink:href="#font_0_21" transform="matrix(12,0,0,-12,232.78037,79.892)"/>
<use data-text="a" xlink:href="#font_0_3" transform="matrix(12,0,0,-12,240.44837,79.892)"/>
<use data-text="K" xlink:href="#font_0_6" transform="matrix(12,0,0,-12,394.8087,79.892)"/>
<use data-text="&#x00f6;" xlink:href="#font_0_28" transform="matrix(12,0,0,-12,405.2367,79.892)"/>
<use data-text="v" xlink:href="#font_0_29" transform="matrix(12,0,0,-12,411.7527,79.892)"/>
<use data-text="e" xlink:href="#font_0_10" transform="matrix(12,0,0,-12,418.65269,79.892)"/>
<use data-text="t" xlink:href="#font_0_11" transform="matrix(12,0,0,-12,424.97669,79.892)"/>
<use data-text="e" xlink:href="#font_0_10" transform="matrix(12,0,0,-12,430.3407,79.892)"/>
<use data-text="l" xlink:href="#font_0_2" transform="matrix(12,0,0,-12,436.6647,79.892)"/>
<use data-text="m" xlink:href="#font_0_30" transform="matrix(12,0,0,-12,440.4927,79.892)"/>
<use data-text="&#x00e9;" xlink:href="#font_0_19" transform="matrix(12,0,0,-12,451.9887,79.892)"/>
<use data-text="n" xlink:href="#font_0_21" transform="matrix(12,0,0,-12,458.3127,79.892)"/>
<use data-text="y" xlink:href="#font_0_31" transform="matrix(12,0,0,-12,465.5967,79.892)"/>
<use data-text="e" xlink:href="#font_0_10" transform="matrix(12,0,0,-12,472.4967,79.892)"/>
<use data-text="k" xlink:href="#font_0_26" transform="matrix(12,0,0,-12,478.8207,79.892)"/>
<use data-text="0" xlink:href="#font_1_14" transform="matrix(12,0,0,-12,75.74145,98.088)"/>
<use data-text="." xlink:href="#font_1_15" transform="matrix(12,0,0,-12,81.74145,98.088)"/>
<use data-text="5" xlink:href="#font_1_16" transform="matrix(12,0,0,-12,85.077449,98.088)"/>
<use data-text="0" xlink:href="#font_1_14" transform="matrix(12,0,0,-12,223.22835,98.088)"/>
<use data-text="&#x2014;" xlink:href="#font_1_17" transform="matrix(12,0,0,-12,434.4567,98.088)"/>
</svg>
