<?xml version="1.0" encoding="UTF-8" standalone="no"?>
<!-- Created with Inkscape (http://www.inkscape.org/) -->

<svg
   width="1910"
   height="995.23285"
   viewBox="0 0 1910 995.23285"
   version="1.1"
   id="svg1"
   xmlns:inkscape="http://www.inkscape.org/namespaces/inkscape"
   xmlns:sodipodi="http://sodipodi.sourceforge.net/DTD/sodipodi-0.dtd"
   xmlns="http://www.w3.org/2000/svg"
   xmlns:svg="http://www.w3.org/2000/svg">
  <sodipodi:namedview
     id="namedview1"
     pagecolor="#ffffff"
     bordercolor="#000000"
     borderopacity="0.25"
     inkscape:showpageshadow="2"
     inkscape:pageopacity="0.0"
     inkscape:pagecheckerboard="0"
     inkscape:deskcolor="#d1d1d1"
     inkscape:document-units="px">
    <inkscape:page
       x="0"
       y="0"
       width="1910"
       height="995.23285"
       id="page2"
       margin="0"
       bleed="0" />
  </sodipodi:namedview>
  <defs
     id="defs1">
    <clipPath
       clipPathUnits="userSpaceOnUse"
       id="clipPath72">
      <path
         d="m 253.85,672.94 h 86.304 v 16.32 H 253.85 Z"
         transform="matrix(1,0,0,-1,-271.25003,678.82001)"
         clip-rule="evenodd"
         id="path72" />
    </clipPath>
    <clipPath
       clipPathUnits="userSpaceOnUse"
       id="clipPath75">
      <path
         d="m 207.05,644.62 h 179.42 v 10.32 H 207.05 Z"
         transform="matrix(1,0,0,-1,-214.25003,647.38001)"
         clip-rule="evenodd"
         id="path75" />
    </clipPath>
    <clipPath
       clipPathUnits="userSpaceOnUse"
       id="clipPath81">
      <path
         d="m 206.93,626.62 h 172.22 v 10.32 H 206.93 Z"
         transform="matrix(1,0,0,-1,-214.13003,629.38001)"
         clip-rule="evenodd"
         id="path81" />
    </clipPath>
    <clipPath
       clipPathUnits="userSpaceOnUse"
       id="clipPath83">
      <path
         d="m 206.93,626.62 h 172.22 v 10.32 H 206.93 Z"
         transform="matrix(1,0,0,-1,-284.93003,629.38001)"
         clip-rule="evenodd"
         id="path83" />
    </clipPath>
  </defs>
  <g
     inkscape:label="Réteg 1"
     inkscape:groupmode="layer"
     id="layer1"
     transform="translate(-4.9999924,-42.383595)">
    <g
       id="g1"
       transform="matrix(3.176275,0,0,3.176275,-2396.2639,715.75388)">
      <g
         id="g69"
         transform="translate(-151.56,-335.72002)">
        <path
           id="path69"
           d="m 70.85,514.63 h 450 v 234 h -450 z"
           style="fill:#d0cece;fill-opacity:1;fill-rule:evenodd;stroke:#c00000;stroke-width:1;stroke-linecap:butt;stroke-linejoin:miter;stroke-miterlimit:10;stroke-dasharray:none;stroke-opacity:1"
           transform="matrix(1.3333333,0,0,-1.3333333,813.76,1122.56)" />
      </g>
      <g
         id="g70"
         transform="translate(-151.56,-335.72002)">
        <path
           id="path70"
           d="m 251.9,690.23 c 0,2.51 2.04,4.55 4.55,4.55 h 80.9 c 2.51,0 4.55,-2.04 4.55,-4.55 v -18.2 c 0,-2.51 -2.04,-4.55 -4.55,-4.55 h -80.9 c -2.51,0 -4.55,2.04 -4.55,4.55 z"
           style="fill:#ffffff;fill-opacity:1;fill-rule:evenodd;stroke:#172c51;stroke-width:1;stroke-linecap:butt;stroke-linejoin:miter;stroke-miterlimit:10;stroke-dasharray:none;stroke-opacity:1"
           transform="matrix(1.3333333,0,0,-1.3333333,813.76,1122.56)" />
      </g>
      <g
         id="g71"
         transform="translate(-151.56,-335.72002)">
        <path
           id="path71"
           d="m 8.6728516,-0.14199219 c 0,0.0322266 -0.00879,0.05859375 -0.023437,0.08203125 -0.017578,0.01757813 -0.043945,0.03222656 -0.082031,0.046875 -0.032227,0.00878906 -0.076173,0.01464844 -0.128907,0.0234375 C 8.3828125,0.025 8.3095703,0.03378906 8.2158203,0.03378906 8.1279297,0.03378906 8.0546875,0.025 7.9931641,0.01035156 7.9375,0.0015625 7.890625,-0.00429688 7.8525391,-0.01308594 7.8203125,-0.02773438 7.796875,-0.04238281 7.7822266,-0.05996094 7.7646484,-0.08339844 7.7587891,-0.10976563 7.7587891,-0.14199219 V -6.3294922 h -0.011719 l -2.53125,6.21093751 c -0.017578,0.0234375 -0.035156,0.046875 -0.058594,0.0703125 -0.017578,0.01757813 -0.043945,0.03222656 -0.082031,0.046875 -0.041016,0.00585938 -0.087891,0.01464844 -0.140625,0.0234375 -0.046875,0.0058594 -0.1113281,0.01171875 -0.1875,0.01171875 -0.070312,0 -0.1347656,-0.0058594 -0.1875,-0.01171875 -0.055664,-0.0087891 -0.1025391,-0.01757812 -0.140625,-0.0234375 -0.041016,-0.01464844 -0.070312,-0.02929687 -0.09375,-0.046875 -0.017578,-0.0234375 -0.029297,-0.046875 -0.035156,-0.0703125 L 1.8642578,-6.3294922 v 6.18750001 c 0,0.0322266 -0.00879,0.05859375 -0.023437,0.08203125 -0.017578,0.01757813 -0.043945,0.03222656 -0.082031,0.046875 -0.032227,0.00878906 -0.079102,0.01464844 -0.140625,0.0234375 C 1.5625,0.025 1.4892578,0.03378906 1.3955078,0.03378906 1.3076172,0.03378906 1.234375,0.025 1.1728516,0.01035156 1.1171875,0.0015625 1.0703125,-0.00429688 1.0322266,-0.01308594 1,-0.02773438 0.9765625,-0.04238281 0.96191406,-0.05996094 0.953125,-0.08339844 0.95019531,-0.10976563 0.95019531,-0.14199219 V -6.6810547 c 0,-0.1552734 0.0380859,-0.2636719 0.11718749,-0.328125 0.076172,-0.070312 0.1669922,-0.1054687 0.2695313,-0.1054687 h 0.5742187 c 0.1171875,0 0.2167969,0.011719 0.3046875,0.035156 0.084961,0.023437 0.1582031,0.058594 0.2226563,0.1054688 0.070312,0.046875 0.1230468,0.1113281 0.1640625,0.1875 0.046875,0.070312 0.087891,0.1582031 0.1289062,0.2578125 l 2.0507813,5.1445312 h 0.035156 l 2.1328125,-5.1328125 c 0.046875,-0.1083984 0.09375,-0.2021484 0.140625,-0.28125 0.046875,-0.076172 0.09668,-0.1347656 0.1523438,-0.1757812 0.052734,-0.046875 0.1171875,-0.082031 0.1875,-0.1054688 0.070312,-0.023437 0.1523437,-0.035156 0.2460937,-0.035156 h 0.5976563 c 0.052734,0 0.1054687,0.011719 0.1523437,0.035156 0.052734,0.017578 0.09668,0.043945 0.1289063,0.082031 0.038086,0.032227 0.064453,0.076172 0.082031,0.1289062 0.023437,0.046875 0.035156,0.1113281 0.035156,0.1875 z m 5.8740234,0 c 0,0.0322266 -0.0088,0.05859375 -0.02344,0.08203125 -0.0088,0.01757813 -0.03223,0.03222656 -0.07031,0.046875 -0.03223,0.01464844 -0.07617,0.02636719 -0.128906,0.03515625 -0.04687,0.0058594 -0.111328,0.01171875 -0.1875,0.01171875 -0.08789,0 -0.158203,-0.0058594 -0.210938,-0.01171875 -0.04687,-0.0087891 -0.08789,-0.02050781 -0.117187,-0.03515625 -0.03223,-0.01464844 -0.05566,-0.02929687 -0.07031,-0.046875 -0.0088,-0.0234375 -0.01172,-0.04980469 -0.01172,-0.08203125 v -0.65625 c -0.28125,0.31347656 -0.5625,0.54492188 -0.84375,0.69140625 -0.275391,0.140625 -0.550782,0.2109375 -0.832032,0.2109375 -0.328125,0 -0.606445,-0.05566406 -0.832031,-0.1640625 -0.228516,-0.10839844 -0.410156,-0.2578125 -0.550781,-0.4453125 C 10.533203,-0.69863281 10.436523,-0.92128906 10.375,-1.1732422 10.31055,-1.4222656 10.28125,-1.7269531 10.28125,-2.0873047 v -3 c 0,-0.023437 0.0059,-0.046875 0.02344,-0.070312 0.01465,-0.023437 0.03808,-0.041016 0.07031,-0.058594 0.03809,-0.014648 0.08496,-0.023437 0.140625,-0.023437 0.06152,-0.00586 0.134766,-0.011719 0.222656,-0.011719 0.09375,0 0.166992,0.00586 0.222657,0.011719 0.06152,0 0.108398,0.00879 0.140625,0.023437 0.0293,0.017578 0.05273,0.035156 0.07031,0.058594 0.01465,0.023437 0.02344,0.046875 0.02344,0.070312 v 2.8828125 c 0,0.2900391 0.01758,0.5244141 0.05859,0.703125 0.04687,0.1728516 0.111328,0.3222656 0.199219,0.4453125 0.08496,0.11718751 0.193359,0.21093751 0.328125,0.28125001 0.131836,0.0644531 0.28418,0.09375 0.457031,0.09375 0.225586,0 0.451172,-0.0761719 0.679688,-0.234375 0.225586,-0.16406251 0.46289,-0.40136721 0.714844,-0.71484371 v -3.4570313 c 0,-0.023437 0.0059,-0.046875 0.02344,-0.070312 0.01465,-0.023437 0.03809,-0.041016 0.07031,-0.058594 0.03808,-0.014648 0.08496,-0.023437 0.140625,-0.023437 0.06152,-0.00586 0.134765,-0.011719 0.222656,-0.011719 0.08496,0 0.155273,0.00586 0.210937,0.011719 0.06152,0 0.108399,0.00879 0.140625,0.023437 0.03809,0.017578 0.06445,0.035156 0.08203,0.058594 0.01465,0.023437 0.02344,0.046875 0.02344,0.070312 z m 2.43457,0 c 0,0.0322266 -0.0088,0.05859375 -0.02344,0.08203125 -0.01758,0.01757813 -0.04102,0.03222656 -0.07031,0.046875 -0.03223,0.01464844 -0.0791,0.02636719 -0.140625,0.03515625 -0.05566,0.0058594 -0.128906,0.01171875 -0.222656,0.01171875 -0.08789,0 -0.161133,-0.0058594 -0.222656,-0.01171875 -0.05566,-0.0087891 -0.102539,-0.02050781 -0.140625,-0.03515625 -0.03223,-0.01464844 -0.05566,-0.02929687 -0.07031,-0.046875 -0.0088,-0.0234375 -0.01172,-0.04980469 -0.01172,-0.08203125 V -7.4779297 c 0,-0.029297 0.0029,-0.052734 0.01172,-0.070312 0.01465,-0.023437 0.03809,-0.041016 0.07031,-0.058594 0.03809,-0.014648 0.08496,-0.026367 0.140625,-0.035156 0.06152,-0.00586 0.134765,-0.011719 0.222656,-0.011719 0.09375,0 0.166992,0.00586 0.222656,0.011719 0.06152,0.00879 0.108399,0.020508 0.140625,0.035156 0.0293,0.017578 0.05273,0.035156 0.07031,0.058594 0.01465,0.017578 0.02344,0.041016 0.02344,0.070312 z m 5.938477,-5.08593751 c 0.108398,0 0.18164,0.029297 0.222656,0.082031 0.03809,0.046875 0.05859,0.1171875 0.05859,0.2109375 v 4.79296871 c 0,0.0322266 -0.0088,0.05859375 -0.02344,0.08203125 -0.01758,0.01757813 -0.04395,0.03222656 -0.08203,0.046875 -0.03223,0.01464844 -0.0791,0.02636719 -0.140625,0.03515625 -0.05566,0.0058594 -0.123047,0.01171875 -0.199219,0.01171875 -0.09375,0 -0.172851,-0.0058594 -0.234375,-0.01171875 -0.05566,-0.0087891 -0.102539,-0.02050781 -0.140625,-0.03515625 -0.03223,-0.01464844 -0.05566,-0.02929687 -0.07031,-0.046875 -0.01758,-0.0234375 -0.02344,-0.04980469 -0.02344,-0.08203125 V -4.4779297 h -2.554687 v 2.765625 c 0,0.3369141 0.0498,0.5947266 0.152344,0.77343751 0.09961,0.17285156 0.28125,0.2578125 0.539062,0.2578125 0.08496,0 0.158203,-0.005859 0.222656,-0.0234375 0.07031,-0.0146484 0.128907,-0.0292969 0.175782,-0.046875 0.05273,-0.0234375 0.09961,-0.0410156 0.140625,-0.0585938 0.03809,-0.0146484 0.07031,-0.0234375 0.09375,-0.0234375 0.02344,0 0.04102,0.005859 0.05859,0.0117188 0.01465,0.008789 0.02637,0.0292969 0.03516,0.0585938 0.0059,0.0234375 0.01465,0.0585938 0.02344,0.10546875 0.0059,0.0410156 0.01172,0.0908203 0.01172,0.15234375 0,0.11132813 -0.0088,0.19628906 -0.02344,0.2578125 -0.01758,0.0556641 -0.04102,0.0996094 -0.07031,0.12890625 -0.02344,0.03222656 -0.06738,0.06445313 -0.128906,0.09375 -0.05566,0.0234375 -0.123047,0.04101563 -0.199219,0.05859375 -0.07031,0.01464844 -0.149414,0.02636719 -0.234375,0.03515625 -0.08789,0.01464844 -0.172852,0.0234375 -0.257813,0.0234375 -0.257812,0 -0.477539,-0.03222656 -0.65625,-0.09375 -0.18164,-0.0703125 -0.328125,-0.17578125 -0.445312,-0.31640625 -0.117188,-0.140625 -0.205078,-0.31054687 -0.257813,-0.515625 -0.05566,-0.21093741 -0.08203,-0.45996091 -0.08203,-0.74999991 v -2.8945313 h -0.691406 c -0.05566,0 -0.102539,-0.026367 -0.140625,-0.082031 -0.03223,-0.061523 -0.04687,-0.1552735 -0.04687,-0.28125 0,-0.070312 0.0029,-0.1289063 0.01172,-0.1757813 0.01465,-0.052734 0.0293,-0.09668 0.04687,-0.1289062 0.01465,-0.029297 0.03516,-0.049805 0.05859,-0.058594 0.02344,-0.014648 0.04687,-0.023437 0.07031,-0.023437 h 0.691406 v -1.171875 c 0,-0.023437 0.0029,-0.046875 0.01172,-0.070312 0.01465,-0.023437 0.03809,-0.041016 0.07031,-0.058594 0.03809,-0.014648 0.08496,-0.026367 0.140625,-0.035156 0.06152,-0.00586 0.134766,-0.011719 0.222657,-0.011719 0.09375,0 0.166992,0.00586 0.222656,0.011719 0.06152,0.00879 0.108398,0.020508 0.140625,0.035156 0.03809,0.017578 0.06152,0.035156 0.07031,0.058594 0.01465,0.023437 0.02344,0.046875 0.02344,0.070312 v 1.171875 z m 0.386719,-1.5234375 c 0,0.2109375 -0.04395,0.3574219 -0.128907,0.4335938 -0.0791,0.079102 -0.222656,0.1171875 -0.433593,0.1171875 -0.210938,0 -0.360352,-0.035156 -0.445313,-0.1054688 -0.0791,-0.076172 -0.117187,-0.2226562 -0.117187,-0.4335937 0,-0.2109375 0.03809,-0.3544922 0.117187,-0.4335938 0.08496,-0.076172 0.237305,-0.1171875 0.457031,-0.1171875 0.210938,0 0.354493,0.041016 0.433594,0.1171875 0.07617,0.070312 0.117188,0.2109375 0.117188,0.421875 z m -1.851563,1.5234375 z m 7.816406,2.5429688 c 0,0.430664 -0.04687,0.8173828 -0.140625,1.1601562 -0.09375,0.3457031 -0.231445,0.63867189 -0.410156,0.87890626 -0.181641,0.24316406 -0.407226,0.43066406 -0.679687,0.5625 -0.266602,0.12304688 -0.571289,0.1875 -0.914063,0.1875 -0.149414,0 -0.287109,-0.01757812 -0.410156,-0.046875 C 26.59082,0.025 26.470703,-0.01894531 26.353516,-0.08339844 c -0.117188,-0.06152344 -0.234375,-0.140625 -0.351563,-0.234375 -0.117187,-0.09375 -0.243164,-0.20214844 -0.375,-0.328125 V 1.8267578 c 0,0.023437 -0.0088,0.046875 -0.02344,0.070312 -0.01758,0.023437 -0.04102,0.041016 -0.07031,0.058594 -0.03223,0.014648 -0.0791,0.026367 -0.140625,0.035156 -0.05566,0.00586 -0.128906,0.011719 -0.222656,0.011719 -0.08789,0 -0.161133,-0.00586 -0.222656,-0.011719 -0.05566,-0.00879 -0.102539,-0.020508 -0.140625,-0.035156 -0.03223,-0.017578 -0.05566,-0.035156 -0.07031,-0.058594 -0.0088,-0.023437 -0.01172,-0.046875 -0.01172,-0.070312 v -6.9140625 c 0,-0.029297 0.0029,-0.052734 0.01172,-0.070312 0.01465,-0.023437 0.03809,-0.041016 0.07031,-0.058594 0.0293,-0.014648 0.07031,-0.023437 0.117187,-0.023437 0.05273,-0.00586 0.117188,-0.011719 0.1875,-0.011719 0.07617,0 0.140625,0.00586 0.1875,0.011719 0.05273,0 0.09668,0.00879 0.128906,0.023437 0.0293,0.017578 0.05273,0.035156 0.07031,0.058594 0.01465,0.017578 0.02344,0.041016 0.02344,0.070312 v 0.6679688 c 0.146485,-0.1552735 0.292969,-0.2871094 0.433594,-0.3984375 0.140625,-0.1171875 0.28125,-0.2109375 0.421875,-0.28125 0.140625,-0.076172 0.28418,-0.1347657 0.433594,-0.1757813 0.146484,-0.038086 0.304687,-0.058594 0.46875,-0.058594 0.357422,0 0.662109,0.070312 0.914062,0.2109375 0.249024,0.140625 0.451172,0.3339843 0.609375,0.5742187 0.164063,0.2431641 0.28125,0.5244141 0.351563,0.84375 0.07617,0.3222656 0.117187,0.6621094 0.117187,1.0195316 z m -0.960937,0.1054687 c 0,-0.2578125 -0.02051,-0.5039062 -0.05859,-0.7382812 -0.04102,-0.234375 -0.105469,-0.4394532 -0.199219,-0.6210938 -0.08789,-0.1875 -0.210937,-0.3339844 -0.375,-0.4453125 -0.158203,-0.1083984 -0.351562,-0.1640625 -0.585937,-0.1640625 -0.117188,0 -0.234375,0.020508 -0.351563,0.058594 -0.111328,0.032227 -0.222656,0.087891 -0.339843,0.1640625 -0.117188,0.070312 -0.243164,0.1699218 -0.375,0.2929687 -0.125977,0.1171875 -0.257813,0.2666016 -0.398438,0.4453125 v 1.96875 c 0.249024,0.3046875 0.483399,0.5390625 0.703125,0.70312501 0.225586,0.15820313 0.462891,0.234375 0.714844,0.234375 0.225586,0 0.416015,-0.0527344 0.574219,-0.1640625 0.164062,-0.10839844 0.295898,-0.25195311 0.398437,-0.43359371 0.09961,-0.1875 0.175781,-0.3925782 0.222656,-0.6210938 0.04687,-0.2255859 0.07031,-0.4511719 0.07031,-0.6796875 z m 3.079101,2.43750001 c 0,0.0322266 -0.0088,0.05859375 -0.02344,0.08203125 -0.01758,0.01757813 -0.04102,0.03222656 -0.07031,0.046875 -0.03223,0.01464844 -0.0791,0.02636719 -0.140625,0.03515625 -0.05566,0.0058594 -0.128906,0.01171875 -0.222656,0.01171875 -0.08789,0 -0.161133,-0.0058594 -0.222656,-0.01171875 -0.05566,-0.0087891 -0.102539,-0.02050781 -0.140625,-0.03515625 -0.03223,-0.01464844 -0.05566,-0.02929687 -0.07031,-0.046875 -0.0088,-0.0234375 -0.01172,-0.04980469 -0.01172,-0.08203125 V -7.4779297 c 0,-0.029297 0.0029,-0.052734 0.01172,-0.070312 0.01465,-0.023437 0.03809,-0.041016 0.07031,-0.058594 0.03809,-0.014648 0.08496,-0.026367 0.140625,-0.035156 0.06152,-0.00586 0.134766,-0.011719 0.222656,-0.011719 0.09375,0 0.166992,0.00586 0.222656,0.011719 0.06152,0.00879 0.108399,0.020508 0.140625,0.035156 0.0293,0.017578 0.05273,0.035156 0.07031,0.058594 0.01465,0.017578 0.02344,0.041016 0.02344,0.070312 z m 5.361329,0.0117188 c 0,0.04101563 -0.01758,0.0703125 -0.04687,0.09375 -0.03223,0.0234375 -0.07617,0.03808594 -0.128907,0.046875 -0.04687,0.01464844 -0.123047,0.0234375 -0.222656,0.0234375 -0.09375,0 -0.169922,-0.0087891 -0.222656,-0.0234375 -0.05566,-0.00878906 -0.09961,-0.0234375 -0.128906,-0.046875 -0.02344,-0.0234375 -0.03516,-0.05273437 -0.03516,-0.09375 v -0.4921875 c -0.219726,0.22851563 -0.46289,0.40722656 -0.726562,0.5390625 -0.266602,0.12304688 -0.547852,0.1875 -0.84375,0.1875 -0.257813,0 -0.492188,-0.03515625 -0.703125,-0.10546875 -0.210938,-0.06152344 -0.392578,-0.15527344 -0.539063,-0.28125 -0.149414,-0.13183594 -0.266601,-0.29296875 -0.351562,-0.48046875 -0.0791,-0.1875 -0.117188,-0.40136711 -0.117188,-0.64453121 0,-0.2724609 0.05273,-0.5097656 0.164063,-0.7148438 0.117187,-0.2109375 0.28125,-0.3808593 0.492187,-0.515625 0.216797,-0.1318359 0.480469,-0.234375 0.785157,-0.3046875 0.304687,-0.070312 0.65039,-0.1054688 1.042968,-0.1054688 h 0.679688 v -0.3867187 c 0,-0.1875 -0.02344,-0.3515625 -0.07031,-0.4921875 -0.04102,-0.1464843 -0.105468,-0.2695312 -0.199218,-0.3632812 -0.08789,-0.099609 -0.199219,-0.1757813 -0.339844,-0.2226563 -0.140625,-0.052734 -0.316406,-0.082031 -0.527344,-0.082031 -0.219727,0 -0.418945,0.029297 -0.597656,0.082031 -0.181641,0.055664 -0.336914,0.1142578 -0.46875,0.1757813 -0.134766,0.064453 -0.246094,0.1230469 -0.339844,0.1757812 -0.08789,0.055664 -0.152344,0.082031 -0.199219,0.082031 -0.03223,0 -0.05859,-0.00586 -0.08203,-0.023437 -0.01758,-0.014648 -0.03223,-0.038086 -0.04687,-0.070312 -0.01758,-0.029297 -0.0293,-0.064453 -0.03516,-0.1054687 -0.0088,-0.046875 -0.01172,-0.09668 -0.01172,-0.1523438 0,-0.09375 0.0029,-0.1669922 0.01172,-0.2226562 0.01465,-0.052734 0.04687,-0.1054688 0.09375,-0.1523438 0.05273,-0.046875 0.140625,-0.099609 0.257812,-0.1640625 0.123047,-0.061523 0.263672,-0.1201172 0.421875,-0.1757812 0.155274,-0.052734 0.328125,-0.09668 0.515625,-0.1289063 0.1875,-0.038086 0.375,-0.058594 0.5625,-0.058594 0.357422,0 0.65918,0.043945 0.902344,0.1289062 0.249023,0.079102 0.451172,0.1962891 0.609375,0.3515625 0.155273,0.1582031 0.269531,0.3515625 0.339844,0.5859375 0.07031,0.2285156 0.105469,0.4921875 0.105469,0.796875 z M 35.848633,-2.3919922 h -0.773438 c -0.251953,0 -0.46875,0.023437 -0.65625,0.070312 -0.18164,0.041016 -0.333984,0.1025391 -0.457031,0.1875 -0.117187,0.079102 -0.208008,0.1757813 -0.269531,0.2929688 -0.05566,0.1113281 -0.08203,0.243164 -0.08203,0.3984375 0,0.2578125 0.08203,0.46289059 0.246093,0.60937496 0.164063,0.14941406 0.392578,0.22265625 0.691407,0.22265625 0.234375,0 0.451171,-0.0585938 0.65625,-0.17578125 0.202148,-0.12304687 0.416015,-0.30761716 0.644531,-0.55078126 z m 4.450195,2.39062501 -0.65625,1.81640629 c -0.02344,0.061523 -0.08203,0.1083984 -0.175781,0.140625 -0.08789,0.029297 -0.222656,0.046875 -0.410156,0.046875 -0.09375,0 -0.172852,-0.00879 -0.234375,-0.023437 -0.05566,-0.00879 -0.09961,-0.023437 -0.128907,-0.046875 -0.03223,-0.017578 -0.05273,-0.043945 -0.05859,-0.082031 0,-0.041016 0.01172,-0.082031 0.03516,-0.1289062 l 0.679687,-1.72265629 c -0.03223,-0.01464844 -0.06445,-0.03808594 -0.09375,-0.0703125 -0.02344,-0.02929687 -0.04395,-0.06445312 -0.05859,-0.10546875 L 37.439453,-4.8998047 c -0.03223,-0.076172 -0.04687,-0.1347656 -0.04687,-0.1757812 0,-0.046875 0.01172,-0.082031 0.03516,-0.1054688 0.0293,-0.029297 0.07617,-0.049805 0.140625,-0.058594 0.07031,-0.00586 0.158203,-0.011719 0.269532,-0.011719 0.108398,0 0.193359,0.00586 0.257812,0.011719 0.06152,0 0.111328,0.00879 0.152344,0.023437 0.03809,0.017578 0.06445,0.041016 0.08203,0.070312 0.01465,0.023437 0.0293,0.058594 0.04687,0.1054687 l 1.417969,3.9726563 h 0.01172 l 1.359375,-3.9960938 c 0.02344,-0.070312 0.0498,-0.1113281 0.08203,-0.1289062 0.0293,-0.023437 0.07617,-0.038086 0.140625,-0.046875 0.06152,-0.00586 0.152344,-0.011719 0.269531,-0.011719 0.09961,0 0.181641,0.00586 0.246094,0.011719 0.07031,0.00879 0.120117,0.029297 0.152344,0.058594 0.0293,0.023437 0.04687,0.058594 0.04687,0.1054688 0,0.041016 -0.01172,0.09082 -0.03516,0.1523437 z m 6.893555,-2.82421871 c 0,0.140625 -0.04102,0.243164 -0.117188,0.3046875 -0.07031,0.064453 -0.149414,0.09375 -0.234375,0.09375 h -3.246093 c 0,0.2753906 0.02637,0.5214843 0.08203,0.7382812 0.05273,0.2197266 0.143554,0.4101563 0.269531,0.5742188 0.131836,0.15820309 0.298828,0.27832027 0.503906,0.36328121 0.210938,0.0791016 0.462891,0.1171875 0.761719,0.1171875 0.234375,0 0.439453,-0.0175781 0.621094,-0.0585938 0.178711,-0.0380859 0.333984,-0.0820313 0.46875,-0.12890625 0.140625,-0.046875 0.251953,-0.0878906 0.339844,-0.12890625 0.08496,-0.0380859 0.146484,-0.0585938 0.1875,-0.0585938 0.0293,0 0.05273,0.00879 0.07031,0.0234375 0.02344,0.008789 0.03809,0.0292969 0.04687,0.0585938 0.01465,0.0234375 0.02344,0.0585938 0.02344,0.10546875 0.0059,0.046875 0.01172,0.10253906 0.01172,0.1640625 0,0.046875 -0.0059,0.0908203 -0.01172,0.12890625 0,0.0322266 -0.0059,0.0644531 -0.01172,0.09375 0,0.0234375 -0.0088,0.046875 -0.02344,0.0703125 -0.01758,0.0234375 -0.03516,0.046875 -0.05859,0.0703125 -0.01758,0.0175781 -0.07617,0.046875 -0.175782,0.09375 -0.09375,0.046875 -0.219726,0.09375 -0.375,0.140625 -0.158203,0.04101563 -0.339843,0.07324219 -0.550781,0.10546875 -0.205078,0.03808594 -0.421875,0.05859375 -0.65625,0.05859375 -0.407227,0 -0.767578,-0.05566406 -1.078125,-0.1640625 -0.304687,-0.1171875 -0.5625,-0.28417969 -0.773437,-0.50390625 -0.205079,-0.22558594 -0.360352,-0.50683586 -0.46875,-0.84374996 -0.10254,-0.3427734 -0.152344,-0.7382812 -0.152344,-1.1835937 0,-0.421875 0.05273,-0.7998048 0.164062,-1.1367188 0.108399,-0.3427734 0.263672,-0.6328125 0.46875,-0.8671875 0.210938,-0.234375 0.459961,-0.4130859 0.75,-0.5390625 0.295899,-0.1318359 0.624024,-0.1992187 0.984375,-0.1992187 0.389649,0 0.720703,0.064453 0.996094,0.1875 0.272461,0.1259765 0.495117,0.2929687 0.667969,0.5039062 0.178711,0.2109375 0.307617,0.4628906 0.386719,0.75 0.08496,0.28125 0.128906,0.5830078 0.128906,0.9023438 z M 46.27832,-3.0951172 c 0.0059,-0.4746094 -0.09961,-0.8466797 -0.316406,-1.1132812 -0.219727,-0.272461 -0.547852,-0.4101563 -0.984375,-0.4101563 -0.228516,0 -0.427734,0.043945 -0.597656,0.1289063 -0.164063,0.079102 -0.304688,0.1875 -0.421875,0.328125 -0.111328,0.140625 -0.196289,0.3046875 -0.257813,0.4921875 -0.06445,0.1816406 -0.09961,0.3720703 -0.105468,0.5742187 z m 5.074219,-1.6640625 c 0,0.079102 -0.0059,0.1464844 -0.01172,0.1992188 0,0.055664 -0.0059,0.099609 -0.01172,0.1289062 -0.0088,0.032227 -0.02344,0.058594 -0.04687,0.082031 -0.01758,0.017578 -0.03516,0.023437 -0.05859,0.023437 -0.03223,0 -0.07031,-0.00586 -0.117188,-0.023437 -0.04102,-0.023437 -0.08789,-0.041016 -0.140625,-0.058594 -0.05566,-0.014648 -0.114258,-0.029297 -0.175781,-0.046875 -0.06445,-0.014648 -0.134766,-0.023437 -0.210937,-0.023437 -0.09375,0 -0.184571,0.020508 -0.269532,0.058594 -0.08789,0.041016 -0.18164,0.102539 -0.28125,0.1875 -0.09375,0.079102 -0.196289,0.1875 -0.304687,0.328125 -0.111328,0.140625 -0.228516,0.3134765 -0.351563,0.515625 v 3.24609371 c 0,0.0322266 -0.0088,0.05859375 -0.02344,0.08203125 -0.01758,0.01757813 -0.04102,0.03222656 -0.07031,0.046875 -0.03223,0.01464844 -0.0791,0.02636719 -0.140625,0.03515625 -0.05566,0.0058594 -0.128906,0.01171875 -0.222656,0.01171875 -0.08789,0 -0.161133,-0.0058594 -0.222656,-0.01171875 -0.05566,-0.0087891 -0.102539,-0.02050781 -0.140625,-0.03515625 -0.03223,-0.01464844 -0.05566,-0.02929687 -0.07031,-0.046875 -0.0088,-0.0234375 -0.01172,-0.04980469 -0.01172,-0.08203125 V -5.0873047 c 0,-0.023437 0.0029,-0.046875 0.01172,-0.070312 0.01465,-0.023437 0.03809,-0.041016 0.07031,-0.058594 0.0293,-0.014648 0.07031,-0.023437 0.117187,-0.023437 0.05273,-0.00586 0.123047,-0.011719 0.210938,-0.011719 0.07617,0 0.143554,0.00586 0.199219,0.011719 0.05273,0 0.09375,0.00879 0.117187,0.023437 0.0293,0.017578 0.05273,0.035156 0.07031,0.058594 0.01465,0.023437 0.02344,0.046875 0.02344,0.070312 v 0.7265625 c 0.131836,-0.2021484 0.257813,-0.3632812 0.375,-0.4804687 0.117188,-0.1230469 0.228516,-0.2226563 0.339844,-0.2929688 0.108398,-0.076172 0.213867,-0.1289062 0.316406,-0.1523437 0.09961,-0.029297 0.205078,-0.046875 0.316406,-0.046875 0.04687,0 0.09668,0.00586 0.152344,0.011719 0.06152,0.00879 0.123047,0.020508 0.1875,0.035156 0.07031,0.00879 0.131836,0.023437 0.1875,0.046875 0.05273,0.017578 0.09375,0.035156 0.117188,0.058594 0.02344,0.017578 0.03516,0.032227 0.03516,0.046875 0.0059,0.017578 0.01465,0.041016 0.02344,0.070312 0.0059,0.023437 0.01172,0.058594 0.01172,0.1054688 0,0.046875 0,0.1142578 0,0.1992187 z m 0,0"
           style="fill:#000000;fill-opacity:1;fill-rule:nonzero;stroke:none"
           aria-label="    Multplayer"
           transform="matrix(1.3333333,0,0,1.3333333,1175.4267,217.46667)"
           clip-path="url(#clipPath72)" />
      </g>
      <g
         id="g72"
         transform="translate(-151.56,-335.72002)">
        <path
           id="path73"
           d="M 206.75,640.83 H 386.7 v 18 H 206.75 Z"
           style="fill:#d6dce5;fill-opacity:1;fill-rule:evenodd;stroke:#000000;stroke-width:0.5;stroke-linecap:butt;stroke-linejoin:round;stroke-miterlimit:10;stroke-dasharray:none;stroke-opacity:1"
           transform="matrix(1.3333333,0,0,-1.3333333,813.76,1122.56)" />
      </g>
      <g
         id="g73"
         transform="translate(-151.56,-335.72002)">
        <path
           id="path74"
           d="m 4.3369141,-0.10542969 c 0,0.0234375 -0.00879,0.04394532 -0.023437,0.05859375 -0.00879,0.01757813 -0.029297,0.02929688 -0.058594,0.03515625 -0.023437,0.00878907 -0.058594,0.01464844 -0.1054687,0.0234375 -0.041016,0.0058594 -0.09082,0.01171875 -0.1523438,0.01171875 -0.064453,0 -0.1171875,-0.0058594 -0.1640625,-0.01171875 -0.041016,-0.00878906 -0.076172,-0.01464843 -0.1054687,-0.0234375 -0.023437,-0.0058594 -0.041016,-0.01757812 -0.046875,-0.03515625 -0.00879,-0.01464843 -0.011719,-0.03515625 -0.011719,-0.05859375 V -2.3554297 H 1.3486328 v 2.25000001 c 0,0.0234375 -0.00586,0.04394532 -0.011719,0.05859375 -0.00879,0.01757813 -0.029297,0.02929688 -0.058594,0.03515625 -0.023437,0.00878907 -0.058594,0.01464844 -0.1054687,0.0234375 -0.041016,0.0058594 -0.09375,0.01171875 -0.1640625,0.01171875 -0.0644532,0 -0.11718754,-0.0058594 -0.16406254,-0.01171875 -0.0410156,-0.00878906 -0.0761719,-0.01464843 -0.10546875,-0.0234375 -0.0234375,-0.0058594 -0.0410156,-0.01757812 -0.046875,-0.03515625 -0.008789,-0.01464843 -0.0117188,-0.03515625 -0.0117188,-0.05859375 V -4.9804297 c 0,-0.014648 0.00293,-0.029297 0.0117188,-0.046875 0.005859,-0.014648 0.0234375,-0.026367 0.046875,-0.035156 0.0292969,-0.014649 0.0644531,-0.023437 0.10546875,-0.023437 0.046875,-0.00586 0.0996094,-0.011719 0.16406254,-0.011719 0.070312,0 0.1230468,0.00586 0.1640625,0.011719 0.046875,0 0.082031,0.00879 0.1054687,0.023437 0.029297,0.00879 0.049805,0.020508 0.058594,0.035156 0.00586,0.017578 0.011719,0.032227 0.011719,0.046875 v 2.0390625 h 2.3203125 v -2.0390625 c 0,-0.014648 0.00293,-0.029297 0.011719,-0.046875 0.00586,-0.014648 0.023437,-0.026367 0.046875,-0.035156 0.029297,-0.014649 0.064453,-0.023437 0.1054687,-0.023437 0.046875,-0.00586 0.099609,-0.011719 0.1640625,-0.011719 0.061523,0 0.1113281,0.00586 0.1523438,0.011719 0.046875,0 0.082031,0.00879 0.1054687,0.023437 0.029297,0.00879 0.049805,0.020508 0.058594,0.035156 0.014648,0.017578 0.023437,0.032227 0.023437,0.046875 z M 8.9248047,-1.8983984 c 0,0.28125 -0.041016,0.5449218 -0.1171875,0.7851562 -0.079102,0.24316408 -0.1933594,0.45410158 -0.3398438,0.63281251 -0.149414,0.17285157 -0.336914,0.31054688 -0.5625,0.41015625 -0.2285156,0.09375 -0.4892578,0.140625 -0.7851562,0.140625 -0.2988281,0 -0.5566406,-0.04394531 -0.7734375,-0.12890625 -0.2109375,-0.08496093 -0.3925781,-0.2109375 -0.5390625,-0.375 -0.140625,-0.1640625 -0.2460938,-0.36328125 -0.3164063,-0.59765621 -0.070312,-0.234375 -0.1054687,-0.4980469 -0.1054687,-0.796875 0,-0.2871094 0.035156,-0.553711 0.1054687,-0.796875 0.076172,-0.2402344 0.1904297,-0.4482422 0.3398438,-0.6210938 0.1552734,-0.1787109 0.3427734,-0.3164062 0.5625,-0.4101562 0.2255859,-0.099609 0.4921875,-0.1523438 0.796875,-0.1523438 0.2871094,0 0.5390625,0.043945 0.75,0.1289063 0.2167969,0.087891 0.3984375,0.2109375 0.5390625,0.375 0.1464844,0.1640625 0.2578125,0.3691406 0.328125,0.609375 0.076172,0.234375 0.1171875,0.5009765 0.1171875,0.796875 z m -0.6914063,0.035156 c 0,-0.1875 -0.020508,-0.3662109 -0.058594,-0.5390625 -0.032227,-0.1699219 -0.087891,-0.3193359 -0.1640625,-0.4453125 -0.079102,-0.1318359 -0.1875,-0.234375 -0.328125,-0.3046875 -0.140625,-0.076172 -0.3134766,-0.1171875 -0.515625,-0.1171875 -0.1962891,0 -0.3632813,0.035156 -0.5039063,0.1054688 -0.1347656,0.070312 -0.2460937,0.1699218 -0.3398437,0.2929687 -0.087891,0.1259766 -0.1523438,0.2753906 -0.1992188,0.4453125 -0.041016,0.1640625 -0.058594,0.3486328 -0.058594,0.5507813 0,0.196289 0.014648,0.3808593 0.046875,0.5507812 0.038086,0.1640625 0.09668,0.3134766 0.1757812,0.44531251 0.084961,0.12597657 0.1992188,0.22851563 0.3398438,0.3046875 0.140625,0.0703125 0.3105469,0.10546875 0.515625,0.10546875 0.1875,0 0.3515625,-0.0351563 0.4921875,-0.10546875 0.140625,-0.0703125 0.2519531,-0.1640625 0.3398437,-0.28125 0.09375,-0.12304687 0.1582032,-0.27246091 0.1992188,-0.44531251 0.038086,-0.1699219 0.058594,-0.3574219 0.058594,-0.5625 z m 3.8203126,0.8085938 c 0,0.18164059 -0.03516,0.33984371 -0.105469,0.48046871 -0.07031,0.140625 -0.169922,0.26367188 -0.292969,0.36328125 -0.117187,0.09375 -0.263671,0.1640625 -0.433593,0.2109375025 C 11.048828,0.04691406 10.861328,0.07035156 10.65918,0.07035156 c -0.125977,0 -0.246094,-0.01171875 -0.363282,-0.03515625 C 10.18457,0.01761719 10.084961,3.90625e-5 9.9912109,-0.02339844 c -0.087891,-0.02929687 -0.1611328,-0.06152343 -0.2226562,-0.09375 -0.064453,-0.0380859 -0.1113281,-0.0703125 -0.140625,-0.09375 -0.032227,-0.0234375 -0.055664,-0.0585938 -0.070312,-0.10546875 -0.00879,-0.046875 -0.011719,-0.11132812 -0.011719,-0.19921875 0,-0.046875 0,-0.0849609 0,-0.1171875 0.00586,-0.0380859 0.014648,-0.0644531 0.023437,-0.0820313 0.00586,-0.0234375 0.017578,-0.0380859 0.035156,-0.046875 0.014648,-0.0146484 0.035156,-0.0234375 0.058594,-0.0234375 0.023437,0 0.061523,0.0205078 0.1171875,0.0585938 0.061523,0.0322266 0.131836,0.0703125 0.2109375,0.1171875 0.084961,0.0410156 0.1816413,0.0791016 0.2929693,0.1171875 0.117187,0.0322266 0.246093,0.046875 0.386718,0.046875 0.108399,0 0.205079,-0.0117188 0.292969,-0.0351563 0.09375,-0.0234375 0.169922,-0.0585938 0.234375,-0.10546875 0.07031,-0.046875 0.120117,-0.10546875 0.152344,-0.17578125 0.03809,-0.0703125 0.05859,-0.15234375 0.05859,-0.24609366 0,-0.099609 -0.0293,-0.1816407 -0.08203,-0.2460938 -0.04687,-0.070312 -0.114257,-0.1318359 -0.199218,-0.1875 -0.08789,-0.052734 -0.181641,-0.099609 -0.28125,-0.140625 -0.102539,-0.038086 -0.210938,-0.076172 -0.328125,-0.1171875 -0.111328,-0.046875 -0.219727,-0.09668 -0.328125,-0.1523437 -0.102539,-0.061524 -0.1962896,-0.131836 -0.2812505,-0.2109376 -0.079102,-0.084961 -0.1464844,-0.1816407 -0.1992188,-0.2929688 -0.046875,-0.1083984 -0.070312,-0.2402344 -0.070312,-0.3984375 0,-0.140625 0.023437,-0.2724609 0.070312,-0.3984375 0.052734,-0.1318359 0.1347657,-0.2460937 0.2460938,-0.3398437 0.1083985,-0.09375 0.2402345,-0.1669922 0.3984375,-0.2226563 0.164063,-0.061523 0.351563,-0.09375 0.5625,-0.09375 0.09375,0 0.1875,0.00879 0.28125,0.023437 0.09961,0.017578 0.1875,0.035156 0.257813,0.058594 0.07617,0.023437 0.143554,0.052734 0.199218,0.082031 0.05274,0.023437 0.09375,0.046875 0.117188,0.070312 0.0293,0.023437 0.04981,0.043945 0.05859,0.058594 0.0059,0.017578 0.01172,0.035156 0.01172,0.058594 0.0059,0.017578 0.01172,0.041016 0.01172,0.070312 0.0059,0.023437 0.01172,0.055664 0.01172,0.09375 0,0.046875 -0.0059,0.087891 -0.01172,0.1171875 0,0.032227 -0.0059,0.058594 -0.01172,0.082031 -0.0088,0.023437 -0.02051,0.041016 -0.03516,0.046875 -0.01758,0.00879 -0.03223,0.011719 -0.04687,0.011719 -0.02344,0 -0.05859,-0.011719 -0.105469,-0.035156 -0.04101,-0.029297 -0.09375,-0.061523 -0.164062,-0.09375 -0.07031,-0.038086 -0.158203,-0.070312 -0.257813,-0.09375 -0.09375,-0.029297 -0.199218,-0.046875 -0.316406,-0.046875 -0.111328,0 -0.208008,0.011719 -0.292969,0.035156 -0.08789,0.023437 -0.158203,0.058594 -0.210937,0.1054688 -0.05566,0.046875 -0.09961,0.102539 -0.128906,0.1640625 -0.02344,0.064453 -0.03516,0.1347656 -0.03516,0.2109375 0,0.102539 0.02637,0.1875 0.08203,0.2578125 0.05273,0.064453 0.120117,0.1230468 0.199218,0.1757812 0.08496,0.055664 0.181641,0.1025391 0.292969,0.140625 0.108399,0.041016 0.216797,0.082031 0.328125,0.1289063 0.108399,0.046875 0.216797,0.099609 0.328125,0.1523437 0.108399,0.055664 0.202149,0.1230469 0.28125,0.1992188 0.08496,0.079101 0.155274,0.1728515 0.210938,0.28125 0.05273,0.1113281 0.08203,0.243164 0.08203,0.3984375 z m 2.613281,0.70312496 c 0,0.0703125 -0.0088,0.12890625 -0.02344,0.17578125 -0.0088,0.046875 -0.02344,0.08203125 -0.04687,0.10546875 -0.01758,0.01757813 -0.04687,0.03515625 -0.09375,0.05859375 -0.04102,0.01464844 -0.08789,0.02636719 -0.140625,0.03515625 -0.04687,0.01464844 -0.102539,0.02636719 -0.164063,0.03515625 -0.06445,0.0058594 -0.125976,0.01171875 -0.1875,0.01171875 -0.18164,0 -0.336914,-0.0234375 -0.46875,-0.0703124975 C 13.407227,-0.05269531 13.298828,-0.12886719 13.213867,-0.22261719 c -0.0791,-0.0996094 -0.137695,-0.22558593 -0.175781,-0.375 -0.04102,-0.14648437 -0.05859,-0.32226562 -0.05859,-0.52734371 v -2.0742188 h -0.492187 c -0.04102,0 -0.07031,-0.017578 -0.09375,-0.058594 -0.02344,-0.038086 -0.03516,-0.1054688 -0.03516,-0.1992188 0,-0.052734 0.0029,-0.09668 0.01172,-0.1289062 0.0059,-0.038086 0.01465,-0.064453 0.02344,-0.082031 0.0059,-0.023437 0.01758,-0.038086 0.03516,-0.046875 0.02344,-0.014648 0.04102,-0.023437 0.05859,-0.023437 h 0.492187 v -0.8320312 c 0,-0.023437 0.0029,-0.041016 0.01172,-0.058594 0.01465,-0.014648 0.03516,-0.026367 0.05859,-0.035156 0.02344,-0.014649 0.05273,-0.023437 0.09375,-0.023437 0.04687,-0.00586 0.09961,-0.011719 0.164062,-0.011719 0.06152,0 0.111328,0.00586 0.152344,0.011719 0.04687,0 0.08203,0.00879 0.105469,0.023437 0.02344,0.00879 0.03809,0.020508 0.04687,0.035156 0.01465,0.017578 0.02344,0.035156 0.02344,0.058594 v 0.8320312 h 0.902344 c 0.02344,0 0.04102,0.00879 0.05859,0.023437 0.01465,0.00879 0.02637,0.023437 0.03516,0.046875 0.01465,0.017578 0.02344,0.043945 0.02344,0.082031 0.0059,0.032227 0.01172,0.076172 0.01172,0.1289062 0,0.09375 -0.01172,0.1611328 -0.03516,0.1992188 -0.02344,0.041016 -0.05566,0.058594 -0.09375,0.058594 h -0.902344 v 1.96875 c 0,0.25195314 0.03516,0.43945314 0.105469,0.56250001 0.07031,0.1171875 0.199219,0.17578125 0.386719,0.17578125 0.05273,0 0.105468,-0.00293 0.152343,-0.0117188 0.05274,-0.0146484 0.09668,-0.0263672 0.128907,-0.0351563 0.03809,-0.0146484 0.07031,-0.0263672 0.09375,-0.0351563 0.0293,-0.0146484 0.05273,-0.0234375 0.07031,-0.0234375 0.01465,0 0.02637,0.005859 0.03516,0.0117188 0.01465,0.008789 0.02637,0.0205078 0.03516,0.0351563 0.0059,0.0175781 0.01172,0.0410156 0.01172,0.0703125 0.0059,0.0322266 0.01172,0.0761719 0.01172,0.12890625 z m 3.808594,-1.66406246 c 0,0.102539 -0.0293,0.1757812 -0.08203,0.2226562 -0.04687,0.041016 -0.102539,0.058594 -0.164063,0.058594 H 15.90918 c 0,0.196289 0.01758,0.3720703 0.05859,0.5273437 0.03809,0.1582031 0.105469,0.29296876 0.199219,0.41015626 0.09375,0.11132813 0.210938,0.19628907 0.351563,0.2578125 0.146484,0.0556641 0.331054,0.0820313 0.550781,0.0820313 0.164062,0 0.310547,-0.0117188 0.445312,-0.0351563 0.131836,-0.0292969 0.246094,-0.0615234 0.339844,-0.09375 0.09375,-0.0292969 0.169922,-0.0585938 0.234375,-0.0820313 0.06152,-0.0292969 0.108399,-0.046875 0.140625,-0.046875 0.01465,0 0.0293,0.005859 0.04687,0.0117188 0.01465,0.008789 0.02637,0.0234375 0.03516,0.046875 0.0059,0.0175781 0.01172,0.0410156 0.01172,0.0703125 0.0059,0.0322266 0.01172,0.0703125 0.01172,0.1171875 0,0.0322266 -0.0059,0.0644531 -0.01172,0.09375 0,0.0234375 -0.0059,0.046875 -0.01172,0.0703125 0,0.0175781 -0.0059,0.0322266 -0.01172,0.046875 -0.0088,0.0175781 -0.02051,0.0322266 -0.03516,0.046875 -0.01758,0.0175781 -0.05859,0.0410156 -0.128906,0.0703125 -0.07031,0.0322266 -0.164062,0.06445313 -0.28125,0.09375 -0.111328,0.03222657 -0.240234,0.05859375 -0.386719,0.08203125 -0.149414,0.0234375 -0.304687,0.03515625 -0.46875,0.03515625 -0.290039,0 -0.544921,-0.04101562 -0.761718,-0.1171875 -0.219727,-0.07617187 -0.404297,-0.19335937 -0.550782,-0.3515625 -0.149414,-0.1640625 -0.263671,-0.36621093 -0.339843,-0.60937496 -0.0791,-0.2402344 -0.117188,-0.5214844 -0.117188,-0.84375 0,-0.3046875 0.03809,-0.5771485 0.117188,-0.8203125 0.07617,-0.2402344 0.190429,-0.4453125 0.339843,-0.609375 0.146485,-0.1699219 0.328125,-0.2988282 0.539063,-0.3867188 0.210937,-0.09375 0.445312,-0.140625 0.703125,-0.140625 0.272461,0 0.506836,0.046875 0.703125,0.140625 0.193359,0.087891 0.354492,0.2050781 0.480469,0.3515625 0.123047,0.1494141 0.213867,0.3251953 0.269531,0.5273438 0.06152,0.2050781 0.09375,0.421875 0.09375,0.65625 z m -0.644531,-0.1992188 c 0.0059,-0.3339844 -0.07031,-0.6005859 -0.234375,-0.796875 -0.158203,-0.1933594 -0.386719,-0.2929687 -0.691407,-0.2929687 -0.164062,0 -0.310546,0.032227 -0.433593,0.09375 -0.117188,0.064453 -0.219727,0.1464843 -0.304688,0.2460937 -0.0791,0.09375 -0.140625,0.2080078 -0.1875,0.3398438 -0.04101,0.1347656 -0.06445,0.2695312 -0.07031,0.4101562 z m 4.631836,2.12109376 c 0,0.01757813 -0.0088,0.03222657 -0.02344,0.046875 -0.0088,0.01757813 -0.02344,0.03222657 -0.04687,0.0468750025 -0.02344,0.0058593775 -0.05566,0.0117187475 -0.09375,0.0117187475 -0.03223,0.0058594 -0.07617,0.01171875 -0.128906,0.01171875 -0.05566,0 -0.102539,-0.0058594 -0.140625,-0.01171875 -0.03223,0 -0.05859,-0.00585937 -0.08203,-0.0117187475 C 21.92383,-0.01460957 21.90332,-0.02925801 21.88868,-0.04683614 c -0.0088,-0.01464843 -0.01172,-0.02929687 -0.01172,-0.046875 v -0.46875 c -0.1875,0.20507813 -0.383789,0.36035157 -0.585937,0.46875 -0.196289,0.10839844 -0.410157,0.1640625 -0.644532,0.1640625 -0.257812,0 -0.480468,-0.046875 -0.667968,-0.140625 -0.181641,-0.09960937 -0.328125,-0.23730468 -0.445313,-0.41015625 -0.111328,-0.16992187 -0.193359,-0.375 -0.246094,-0.60937501 -0.05566,-0.234375 -0.08203,-0.4746094 -0.08203,-0.7265625 0,-0.3046875 0.0293,-0.5771484 0.09375,-0.8203125 0.07031,-0.2490234 0.166992,-0.4599609 0.292969,-0.6328125 0.131836,-0.1699219 0.292969,-0.3046875 0.480469,-0.3984375 0.1875,-0.09375 0.404297,-0.140625 0.65625,-0.140625 0.210937,0 0.398437,0.046875 0.5625,0.140625 0.169922,0.087891 0.342773,0.2197266 0.515625,0.3984375 v -2.0625 c 0,-0.014648 0.0029,-0.029297 0.01172,-0.046875 0.0059,-0.014648 0.02344,-0.026367 0.04687,-0.035156 0.0293,-0.014649 0.06445,-0.023437 0.105469,-0.023437 0.03809,-0.00586 0.08789,-0.011719 0.152344,-0.011719 0.07031,0 0.123047,0.00586 0.164062,0.011719 0.03809,0 0.07031,0.00879 0.09375,0.023437 0.02344,0.00879 0.04102,0.020508 0.05859,0.035156 0.01465,0.017578 0.02344,0.032227 0.02344,0.046875 z M 21.806641,-2.5780859 C 21.625,-2.7948828 21.455078,-2.9589453 21.291016,-3.0702734 21.132813,-3.1874609 20.96582,-3.2460547 20.787109,-3.2460547 c -0.164062,0 -0.304687,0.041016 -0.421875,0.1171875 -0.117187,0.079102 -0.210937,0.1845703 -0.28125,0.3164063 -0.07031,0.1259765 -0.125976,0.2695312 -0.164062,0.4335937 -0.03223,0.1582031 -0.04687,0.3222656 -0.04687,0.4921875 0,0.1728516 0.01172,0.3457031 0.03516,0.515625 0.0293,0.1728516 0.08203,0.3251953 0.152344,0.45703126 0.07031,0.13476563 0.158203,0.24023438 0.269531,0.31640625 0.117188,0.0791016 0.257813,0.1171875 0.421875,0.1171875 0.09375,0 0.178711,-0.0117188 0.257813,-0.0351563 0.07617,-0.0234375 0.155273,-0.0615234 0.234375,-0.1171875 0.08496,-0.0527344 0.175781,-0.12304687 0.269531,-0.2109375 0.09375,-0.0849609 0.19043,-0.19335941 0.292969,-0.32812501 z m 7.508789,-1.8046875 c 0,0.046875 -0.0059,0.09082 -0.01172,0.1289062 0,0.041016 -0.0088,0.070312 -0.02344,0.09375 -0.0088,0.023437 -0.02051,0.043945 -0.03516,0.058594 -0.01758,0.00879 -0.03223,0.011719 -0.04687,0.011719 -0.03223,0 -0.08789,-0.023437 -0.164062,-0.070312 -0.07031,-0.052734 -0.169922,-0.1113281 -0.292969,-0.1757812 -0.117188,-0.061524 -0.263672,-0.1171875 -0.433594,-0.1640625 -0.172851,-0.046875 -0.375,-0.070312 -0.609375,-0.070312 -0.28125,0 -0.536133,0.052734 -0.761719,0.1523437 -0.219726,0.1025391 -0.407226,0.2431641 -0.5625,0.421875 -0.158203,0.1816406 -0.27832,0.3955078 -0.363281,0.6445313 -0.0791,0.2519531 -0.117187,0.5214843 -0.117187,0.8085937 0,0.3222656 0.04102,0.609375 0.128906,0.8671875 0.09375,0.2519531 0.216797,0.4628906 0.375,0.6328125 0.164062,0.17285158 0.354492,0.30468751 0.574219,0.39843751 0.225586,0.0878906 0.471679,0.12890625 0.738281,0.12890625 0.155273,0 0.310547,-0.0175781 0.46875,-0.0585938 0.164062,-0.0380859 0.316406,-0.0966797 0.457031,-0.17578125 V -2.2265234 h -1.183594 c -0.04687,0 -0.08203,-0.017578 -0.105468,-0.058594 -0.01758,-0.046875 -0.02344,-0.1171875 -0.02344,-0.2109375 0,-0.052734 0,-0.09668 0,-0.1289062 0.0059,-0.038086 0.01465,-0.064453 0.02344,-0.082031 0.01465,-0.023437 0.0293,-0.038086 0.04687,-0.046875 0.01465,-0.014648 0.03516,-0.023437 0.05859,-0.023437 h 1.617188 c 0.02344,0 0.0498,0.00879 0.08203,0.023437 0.0293,0.00879 0.05859,0.023437 0.08203,0.046875 0.02344,0.017578 0.03809,0.043945 0.04687,0.082031 0.01465,0.032227 0.02344,0.070312 0.02344,0.1171875 v 1.93359371 c 0,0.0703125 -0.01172,0.13476563 -0.03516,0.1875 -0.02344,0.046875 -0.07617,0.0908203 -0.152344,0.12890625 -0.07031,0.0410156 -0.169922,0.0820313 -0.292969,0.12890625 -0.117187,0.04101563 -0.243164,0.07617188 -0.375,0.10546875 -0.125976,0.02929688 -0.254883,0.05273438 -0.386719,0.0703125 -0.125976,0.01464844 -0.254882,0.0234375 -0.386718,0.0234375 -0.392578,0 -0.744141,-0.05859375 -1.054688,-0.17578125 -0.304687,-0.12304687 -0.568359,-0.29882812 -0.785156,-0.52734375 -0.210938,-0.22558593 -0.375,-0.49511716 -0.492188,-0.80859376 -0.111328,-0.3105469 -0.164062,-0.6621094 -0.164062,-1.0546875 0,-0.3984375 0.06152,-0.7617187 0.1875,-1.0898437 0.123047,-0.328125 0.295898,-0.6035157 0.515625,-0.8320313 0.216797,-0.234375 0.483398,-0.4130859 0.796875,-0.5390625 0.310547,-0.1230469 0.65625,-0.1875 1.03125,-0.1875 0.193359,0 0.375,0.017578 0.539062,0.046875 0.169922,0.032227 0.322266,0.070312 0.457032,0.1171875 0.131836,0.046875 0.240234,0.099609 0.328125,0.1523438 0.09375,0.055664 0.155273,0.099609 0.1875,0.1289062 0.03809,0.032227 0.06152,0.070312 0.07031,0.1171875 0.01465,0.046875 0.02344,0.1142578 0.02344,0.1992188 z m 3.811523,4.28906246 c 0,0.03222657 -0.01172,0.05566407 -0.03516,0.0703125 -0.01758,0.01757813 -0.04395,0.02636719 -0.08203,0.03515625 -0.03223,0.0058594 -0.08203,0.01171875 -0.152344,0.01171875 -0.07031,0 -0.128906,-0.0058594 -0.175781,-0.01171875 -0.04102,-0.00878906 -0.06738,-0.01757812 -0.08203,-0.03515625 -0.01758,-0.01464843 -0.02344,-0.03808593 -0.02344,-0.0703125 v -0.3515625 c -0.158203,0.1640625 -0.333984,0.29296875 -0.527344,0.38671875 -0.1875,0.08496094 -0.386719,0.12890625 -0.597656,0.12890625 -0.181641,0 -0.348633,-0.0234375 -0.503906,-0.0703124975 C 30.797852,-0.04683594 30.668945,-0.11128906 30.560547,-0.19917969 c -0.102539,-0.09375 -0.18457,-0.20507812 -0.246094,-0.33984375 -0.05566,-0.140625 -0.08203,-0.29296875 -0.08203,-0.45703125 0,-0.20214841 0.03809,-0.37500001 0.117187,-0.51562501 0.08496,-0.1464844 0.202149,-0.2695312 0.351563,-0.3632812 0.146484,-0.099609 0.331055,-0.1757813 0.550781,-0.2226563 0.225586,-0.052734 0.47461,-0.082031 0.75,-0.082031 h 0.480469 v -0.2695313 c 0,-0.1318359 -0.01758,-0.2490234 -0.04687,-0.3515625 -0.02344,-0.1083984 -0.06738,-0.1992187 -0.128906,-0.2695312 -0.06445,-0.070312 -0.146485,-0.1201172 -0.246094,-0.1523438 -0.102539,-0.038086 -0.231445,-0.058594 -0.386719,-0.058594 -0.158203,0 -0.301758,0.020508 -0.433594,0.058594 -0.125976,0.041016 -0.234375,0.082031 -0.328125,0.1289063 -0.09375,0.041016 -0.172851,0.079102 -0.234375,0.1171875 -0.06445,0.041016 -0.111328,0.058594 -0.140625,0.058594 -0.02344,0 -0.04395,-0.00293 -0.05859,-0.011719 -0.01758,-0.014648 -0.03223,-0.029297 -0.04687,-0.046875 -0.0088,-0.023437 -0.01758,-0.049805 -0.02344,-0.082031 0,-0.029297 0,-0.064453 0,-0.1054687 0,-0.070312 0.0029,-0.1201172 0.01172,-0.1523438 0.0059,-0.038086 0.02637,-0.073242 0.05859,-0.1054687 0.03809,-0.038086 0.09961,-0.082031 0.1875,-0.1289063 0.08496,-0.046875 0.18164,-0.087891 0.292968,-0.1289062 0.117188,-0.038086 0.240235,-0.070312 0.375,-0.09375 0.131836,-0.023437 0.263672,-0.035156 0.398438,-0.035156 0.257812,0 0.47168,0.032227 0.644531,0.09375 0.178711,0.055664 0.322266,0.1376953 0.433594,0.2460938 0.117187,0.1113281 0.199219,0.2519531 0.246094,0.421875 0.04687,0.1640625 0.07031,0.3574218 0.07031,0.5742187 z M 32.482422,-1.7108984 h -0.550781 c -0.181641,0 -0.336914,0.017578 -0.46875,0.046875 -0.125977,0.032226 -0.231446,0.079101 -0.316407,0.140625 -0.08789,0.055664 -0.152343,0.1259765 -0.199218,0.2109375 -0.04102,0.079101 -0.05859,0.1728515 -0.05859,0.28125 0,0.18164059 0.05859,0.32519528 0.175781,0.43359371 0.117188,0.11132813 0.28125,0.1640625 0.492188,0.1640625 0.169922,0 0.328125,-0.0410156 0.46875,-0.12890625 0.146484,-0.0849609 0.298828,-0.21679687 0.457031,-0.3984375 z m 7.072266,1.61718746 c 0,0.01757813 -0.0059,0.03222657 -0.01172,0.046875 -0.0088,0.01757813 -0.02344,0.03222657 -0.04687,0.0468750025 C 39.472656,0.00589844 39.4375,0.01175781 39.390625,0.01175781 c -0.04102,0.0058594 -0.09082,0.01171875 -0.152344,0.01171875 -0.06445,0 -0.117187,-0.0058594 -0.164062,-0.01171875 -0.04102,0 -0.07617,-0.00585937 -0.105469,-0.0117187475 C 38.94531,-0.01460937 38.92773,-0.02925781 38.92188,-0.04683594 c -0.0088,-0.01464843 -0.01172,-0.02929687 -0.01172,-0.046875 V -2.2499609 c 0,-0.1464844 -0.01758,-0.28125 -0.04687,-0.3984375 -0.02344,-0.1230469 -0.06738,-0.2285157 -0.128906,-0.3164063 -0.05566,-0.09375 -0.125977,-0.1640625 -0.210937,-0.2109375 -0.08789,-0.046875 -0.19336,-0.070312 -0.316407,-0.070312 -0.149414,0 -0.298828,0.058594 -0.445312,0.1757813 -0.149414,0.1113281 -0.316406,0.2783203 -0.503906,0.5039062 v 2.47265626 c 0,0.01757813 -0.0059,0.03222657 -0.01172,0.046875 -0.0088,0.01757813 -0.0293,0.03222657 -0.05859,0.0468750025 -0.02344,0.0058593775 -0.05566,0.0117187475 -0.09375,0.0117187475 -0.04102,0.0058594 -0.09082,0.01171875 -0.152344,0.01171875 -0.06445,0 -0.117187,-0.0058594 -0.164062,-0.01171875 -0.04102,0 -0.07031,-0.00585937 -0.09375,-0.0117187475 C 36.660156,-0.01460937 36.639648,-0.02925781 36.625,-0.04683594 36.6162,-0.06148437 36.61328,-0.07613281 36.61328,-0.09371094 V -2.2499609 c 0,-0.1464844 -0.01758,-0.28125 -0.04687,-0.3984375 -0.02344,-0.1230469 -0.06738,-0.2285157 -0.128906,-0.3164063 -0.05566,-0.09375 -0.125977,-0.1640625 -0.210937,-0.2109375 -0.08789,-0.046875 -0.19336,-0.070312 -0.316407,-0.070312 -0.149414,0 -0.301758,0.058594 -0.457031,0.1757813 -0.149414,0.1113281 -0.310547,0.2783203 -0.480469,0.5039062 v 2.47265626 c 0,0.01757813 -0.0088,0.03222657 -0.02344,0.046875 -0.0088,0.01757813 -0.02344,0.03222657 -0.04687,0.0468750025 C 34.87891,0.00589844 34.84375,0.01175781 34.796875,0.01175781 c -0.04102,0.0058594 -0.09082,0.01171875 -0.152344,0.01171875 -0.06445,0 -0.117187,-0.0058594 -0.164062,-0.01171875 -0.04102,0 -0.07031,-0.00585937 -0.09375,-0.0117187475 -0.02344,-0.0146484325 -0.04395,-0.0292968725 -0.05859,-0.0468750025 -0.0088,-0.01464843 -0.01172,-0.02929687 -0.01172,-0.046875 V -3.6327734 c 0,-0.023437 0.0029,-0.038086 0.01172,-0.046875 0.0059,-0.014648 0.02344,-0.026367 0.04687,-0.035156 0.02344,-0.014648 0.05273,-0.023437 0.09375,-0.023437 0.03809,-0.00586 0.08496,-0.011719 0.140625,-0.011719 0.06152,0 0.108398,0.00586 0.140625,0.011719 0.03809,0 0.07031,0.00879 0.09375,0.023437 0.02344,0.00879 0.03809,0.020508 0.04687,0.035156 0.0059,0.00879 0.01172,0.023437 0.01172,0.046875 v 0.46875 c 0.202148,-0.2167969 0.398437,-0.3779297 0.585937,-0.4804688 0.1875,-0.1083984 0.375,-0.1640625 0.5625,-0.1640625 0.146485,0 0.28125,0.020508 0.398438,0.058594 0.117187,0.032227 0.216797,0.079102 0.304687,0.140625 0.08496,0.064453 0.158203,0.1376953 0.222657,0.2226562 0.06152,0.079102 0.117187,0.1728516 0.164062,0.28125 0.117188,-0.1318359 0.225586,-0.2402344 0.328125,-0.328125 0.108398,-0.084961 0.210938,-0.1552734 0.304688,-0.2109375 0.09961,-0.061523 0.199218,-0.1054687 0.292968,-0.1289062 0.09375,-0.023437 0.1875,-0.035156 0.28125,-0.035156 0.225586,0 0.416016,0.043945 0.574219,0.1289063 0.155273,0.079102 0.28125,0.1845703 0.375,0.3164062 0.09375,0.1347656 0.158203,0.2900391 0.199219,0.46875 0.03809,0.1816406 0.05859,0.3691406 0.05859,0.5625 z m 4.239257,-1.92187496 c 0,0.102539 -0.0293,0.1757812 -0.08203,0.2226562 -0.04687,0.041016 -0.102539,0.058594 -0.164062,0.058594 H 41.22754 c 0,0.196289 0.01758,0.3720703 0.05859,0.5273437 0.03809,0.1582031 0.105469,0.29296876 0.199219,0.41015626 0.09375,0.11132813 0.210937,0.19628907 0.351562,0.2578125 0.146484,0.0556641 0.331055,0.0820313 0.550781,0.0820313 0.164063,0 0.310547,-0.0117188 0.445313,-0.0351563 0.131836,-0.0292969 0.246094,-0.0615234 0.339844,-0.09375 0.09375,-0.0292969 0.169921,-0.0585938 0.234375,-0.0820313 0.06152,-0.0292969 0.108398,-0.046875 0.140625,-0.046875 0.01465,0 0.0293,0.005859 0.04687,0.0117188 0.01465,0.008789 0.02637,0.0234375 0.03516,0.046875 0.0059,0.0175781 0.01172,0.0410156 0.01172,0.0703125 0.0059,0.0322266 0.01172,0.0703125 0.01172,0.1171875 0,0.0322266 -0.0059,0.0644531 -0.01172,0.09375 0,0.0234375 -0.0059,0.046875 -0.01172,0.0703125 0,0.0175781 -0.0059,0.0322266 -0.01172,0.046875 -0.0088,0.0175781 -0.02051,0.0322266 -0.03516,0.046875 -0.01758,0.0175781 -0.05859,0.0410156 -0.128906,0.0703125 -0.07031,0.0322266 -0.164063,0.06445313 -0.28125,0.09375 -0.111329,0.03222657 -0.240235,0.05859375 -0.386719,0.08203125 -0.149414,0.0234375 -0.304688,0.03515625 -0.46875,0.03515625 -0.290039,0 -0.544922,-0.04101562 -0.761719,-0.1171875 -0.219726,-0.07617187 -0.404297,-0.19335937 -0.550781,-0.3515625 -0.149414,-0.1640625 -0.263672,-0.36621093 -0.339844,-0.60937496 -0.0791,-0.2402344 -0.117187,-0.5214844 -0.117187,-0.84375 0,-0.3046875 0.03809,-0.5771485 0.117187,-0.8203125 0.07617,-0.2402344 0.19043,-0.4453125 0.339844,-0.609375 0.146484,-0.1699219 0.328125,-0.2988282 0.539062,-0.3867188 0.210938,-0.09375 0.445313,-0.140625 0.703125,-0.140625 0.272461,0 0.506836,0.046875 0.703125,0.140625 0.19336,0.087891 0.354493,0.2050781 0.480469,0.3515625 0.123047,0.1494141 0.213867,0.3251953 0.269531,0.5273438 0.06152,0.2050781 0.09375,0.421875 0.09375,0.65625 z m -0.644531,-0.1992188 c 0.0059,-0.3339844 -0.07031,-0.6005859 -0.234375,-0.796875 -0.158203,-0.1933594 -0.386719,-0.2929687 -0.691406,-0.2929687 -0.164063,0 -0.310547,0.032227 -0.433594,0.09375 -0.117187,0.064453 -0.219726,0.1464843 -0.304687,0.2460937 -0.0791,0.09375 -0.140625,0.2080078 -0.1875,0.3398438 -0.04102,0.1347656 -0.06445,0.2695312 -0.07031,0.4101562 z m 3.823242,1.1601563 c 0,0.18164059 -0.03516,0.33984371 -0.105468,0.48046871 -0.07031,0.140625 -0.169922,0.26367188 -0.292969,0.36328125 -0.117188,0.09375 -0.263672,0.1640625 -0.433594,0.2109375025 -0.172852,0.0468749975 -0.360352,0.0703124975 -0.5625,0.0703124975 -0.125977,0 -0.246094,-0.01171875 -0.363281,-0.03515625 -0.111328,-0.01757812 -0.210938,-0.0351562475 -0.304688,-0.05859375 -0.08789,-0.02929687 -0.161133,-0.06152343 -0.222656,-0.09375 -0.06445,-0.0380859 -0.111328,-0.0703125 -0.140625,-0.09375 -0.03223,-0.0234375 -0.05566,-0.0585938 -0.07031,-0.10546875 -0.0088,-0.046875 -0.01172,-0.11132812 -0.01172,-0.19921875 0,-0.046875 0,-0.0849609 0,-0.1171875 0.0059,-0.0380859 0.01465,-0.0644531 0.02344,-0.0820313 0.0059,-0.0234375 0.01758,-0.0380859 0.03516,-0.046875 0.01465,-0.0146484 0.03516,-0.0234375 0.05859,-0.0234375 0.02344,0 0.06152,0.0205078 0.117188,0.0585938 0.06152,0.0322266 0.131836,0.0703125 0.210937,0.1171875 0.08496,0.0410156 0.181641,0.0791016 0.292969,0.1171875 0.117188,0.0322266 0.246094,0.046875 0.386719,0.046875 0.108398,0 0.205078,-0.0117188 0.292969,-0.0351563 0.09375,-0.0234375 0.169921,-0.0585938 0.234375,-0.10546875 0.07031,-0.046875 0.120117,-0.10546875 0.152343,-0.17578125 0.03809,-0.0703125 0.05859,-0.15234375 0.05859,-0.24609376 0,-0.099609 -0.0293,-0.1816407 -0.08203,-0.2460938 -0.04687,-0.070312 -0.114258,-0.1318359 -0.199219,-0.1875 -0.08789,-0.052734 -0.181641,-0.099609 -0.28125,-0.140625 -0.102539,-0.038086 -0.210937,-0.076172 -0.328125,-0.1171875 -0.111328,-0.046875 -0.219727,-0.09668 -0.328125,-0.1523437 -0.102539,-0.061524 -0.196289,-0.131836 -0.28125,-0.2109375 -0.0791,-0.084961 -0.146484,-0.1816407 -0.199219,-0.2929688 -0.04687,-0.1083984 -0.07031,-0.2402344 -0.07031,-0.3984375 0,-0.140625 0.02344,-0.2724609 0.07031,-0.3984375 0.05273,-0.1318359 0.134766,-0.2460937 0.246094,-0.3398437 0.108398,-0.09375 0.240234,-0.1669922 0.398438,-0.2226563 0.164062,-0.061523 0.351562,-0.09375 0.5625,-0.09375 0.09375,0 0.1875,0.00879 0.28125,0.023437 0.09961,0.017578 0.1875,0.035156 0.257812,0.058594 0.07617,0.023437 0.143555,0.052734 0.199219,0.082031 0.05273,0.023437 0.09375,0.046875 0.117187,0.070312 0.0293,0.023437 0.0498,0.043945 0.05859,0.058594 0.0059,0.017578 0.01172,0.035156 0.01172,0.058594 0.0059,0.017578 0.01172,0.041016 0.01172,0.070312 0.0059,0.023437 0.01172,0.055664 0.01172,0.09375 0,0.046875 -0.0059,0.087891 -0.01172,0.1171875 0,0.032227 -0.0059,0.058594 -0.01172,0.082031 -0.0088,0.023437 -0.02051,0.041016 -0.03516,0.046875 -0.01758,0.00879 -0.03223,0.011719 -0.04687,0.011719 -0.02344,0 -0.05859,-0.011719 -0.105469,-0.035156 -0.04102,-0.029297 -0.09375,-0.061523 -0.164063,-0.09375 -0.07031,-0.038086 -0.158203,-0.070312 -0.257812,-0.09375 -0.09375,-0.029297 -0.199219,-0.046875 -0.316406,-0.046875 -0.111329,0 -0.208008,0.011719 -0.292969,0.035156 -0.08789,0.023437 -0.158203,0.058594 -0.210938,0.1054688 -0.05566,0.046875 -0.09961,0.102539 -0.128906,0.1640625 -0.02344,0.064453 -0.03516,0.1347656 -0.03516,0.2109375 0,0.102539 0.02637,0.1875 0.08203,0.2578125 0.05273,0.064453 0.120117,0.1230468 0.199219,0.1757812 0.08496,0.055664 0.18164,0.1025391 0.292969,0.140625 0.108398,0.041016 0.216796,0.082031 0.328125,0.1289063 0.108398,0.046875 0.216796,0.099609 0.328125,0.1523437 0.108398,0.055664 0.202148,0.1230469 0.28125,0.1992188 0.08496,0.079101 0.155273,0.1728515 0.210937,0.28125 0.05273,0.1113281 0.08203,0.243164 0.08203,0.3984375 z m 1.87793,-2.0859375 c 0,0.087891 -0.0088,0.1582031 -0.02344,0.2109375 -0.0088,0.055664 -0.0293,0.102539 -0.05859,0.140625 -0.03223,0.041016 -0.07617,0.067383 -0.128907,0.082031 -0.05566,0.00879 -0.123046,0.011719 -0.199218,0.011719 -0.08789,0 -0.158203,-0.00293 -0.210938,-0.011719 -0.04687,-0.014648 -0.08789,-0.041016 -0.117187,-0.082031 -0.03223,-0.038086 -0.05566,-0.084961 -0.07031,-0.140625 -0.0088,-0.052734 -0.01172,-0.1230469 -0.01172,-0.2109375 0,-0.084961 0.0029,-0.1552735 0.01172,-0.2109375 0.01465,-0.061523 0.03809,-0.1083985 0.07031,-0.140625 0.0293,-0.038086 0.07031,-0.064453 0.117187,-0.082031 0.05273,-0.014648 0.123047,-0.023437 0.210938,-0.023437 0.07617,0 0.143554,0.00879 0.199218,0.023437 0.05273,0.017578 0.09668,0.043945 0.128907,0.082031 0.0293,0.032227 0.0498,0.079102 0.05859,0.140625 0.01465,0.055664 0.02344,0.1259765 0.02344,0.2109375 z m 0,2.71874996 c 0,0.09375 -0.0088,0.16992188 -0.02344,0.22265625 -0.0088,0.0556641 -0.0293,0.10253907 -0.05859,0.140625 -0.03223,0.03222657 -0.07617,0.05566407 -0.128907,0.0703125 -0.05566,0.01464844 -0.123046,0.0234375 -0.199218,0.0234375 -0.08789,0 -0.158203,-0.0087891 -0.210938,-0.0234375 -0.04687,-0.01464843 -0.08789,-0.03808593 -0.117187,-0.0703125 -0.03223,-0.03808593 -0.05566,-0.08496093 -0.07031,-0.140625 -0.0088,-0.0527344 -0.01172,-0.12890625 -0.01172,-0.22265625 0,-0.0849609 0.0029,-0.15527343 0.01172,-0.2109375 0.01465,-0.0615234 0.03809,-0.10839843 0.07031,-0.140625 0.0293,-0.0292969 0.07031,-0.0527344 0.117187,-0.0703125 0.05273,-0.0146484 0.123047,-0.0234375 0.210938,-0.0234375 0.07617,0 0.143554,0.008789 0.199218,0.0234375 0.05273,0.0175781 0.09668,0.0410156 0.128907,0.0703125 0.0293,0.0322266 0.0498,0.0791016 0.05859,0.140625 0.01465,0.0556641 0.02344,0.12597657 0.02344,0.2109375 z m 0,0"
           style="fill:#000000;fill-opacity:1;fill-rule:nonzero;stroke:none"
           aria-label=" Hosted Games:"
           transform="matrix(1.3333333,0,0,1.3333333,1099.4267,259.38667)"
           clip-path="url(#clipPath75)" />
      </g>
      <g
         id="g75"
         transform="translate(-151.56,-335.72002)">
        <path
           id="path76"
           d="m 206.6,550.78 h 172.9 v 90.05 H 206.6 Z"
           style="fill:#ffffff;fill-opacity:1;fill-rule:evenodd;stroke:#172c51;stroke-width:1;stroke-linecap:butt;stroke-linejoin:miter;stroke-miterlimit:8;stroke-dasharray:none;stroke-opacity:1"
           transform="matrix(1.3333333,0,0,-1.3333333,813.76,1122.56)" />
      </g>
      <g
         id="g76"
         transform="translate(-151.56,-335.72002)">
        <path
           id="path77"
           d="m 379.5,550.78 h 7.05 v 90.1 h -7.05 z"
           style="fill:#dae3f3;fill-opacity:1;fill-rule:evenodd;stroke:#172c51;stroke-width:1;stroke-linecap:butt;stroke-linejoin:miter;stroke-miterlimit:8;stroke-dasharray:none;stroke-opacity:1"
           transform="matrix(1.3333333,0,0,-1.3333333,813.76,1122.56)" />
      </g>
      <g
         id="g77"
         transform="translate(-151.56,-335.72002)">
        <path
           id="path78"
           d="m 379.4,612.61 c 0,0.67 0.54,1.22 1.22,1.22 h 4.86 c 0.68,0 1.22,-0.55 1.22,-1.22 v -15.56 c 0,-0.68 -0.54,-1.22 -1.22,-1.22 h -4.86 c -0.68,0 -1.22,0.54 -1.22,1.22 z"
           style="fill:#4472c4;fill-opacity:1;fill-rule:evenodd;stroke:#172c51;stroke-width:1;stroke-linecap:butt;stroke-linejoin:miter;stroke-miterlimit:8;stroke-dasharray:none;stroke-opacity:1"
           transform="matrix(1.3333333,0,0,-1.3333333,813.76,1122.56)" />
      </g>
      <g
         id="g78"
         transform="translate(-151.56,-335.72002)">
        <path
           id="path79"
           d="m 206.6,622.83 h 172.75 v 18 H 206.6 Z"
           style="fill:#ffffff;fill-opacity:1;fill-rule:evenodd;stroke:#000000;stroke-width:0.5;stroke-linecap:butt;stroke-linejoin:round;stroke-miterlimit:8;stroke-dasharray:none;stroke-opacity:1"
           transform="matrix(1.3333333,0,0,-1.3333333,813.76,1122.56)" />
      </g>
      <g
         id="g79"
         transform="translate(-151.56,-335.72002)">
        <path
           id="path80"
           d="m 4.5125781,-0.28121094 c 0,0.0556641 -0.00879,0.10253907 -0.023437,0.140625 -0.017578,0.0322266 -0.041016,0.05859375 -0.070312,0.08203125 -0.023437,0.0234375 -0.055664,0.04394532 -0.09375,0.0585937525 C 4.2928516,0.00589844 4.260625,0.01175781 4.2313281,0.01175781 H 4.0086719 c -0.064453,0 -0.1230469,-0.00878906 -0.1757813,-0.0234375 -0.046875,-0.01464843 -0.09375,-0.03808593 -0.140625,-0.0703125 -0.046875,-0.03808593 -0.09375,-0.08789062 -0.140625,-0.15234375 -0.046875,-0.0703125 -0.099609,-0.15527343 -0.1523437,-0.2578125 L 1.7938281,-3.3866797 c -0.079101,-0.1464844 -0.1611328,-0.3046875 -0.2460937,-0.46875 -0.087891,-0.1640625 -0.1640625,-0.3193359 -0.234375,-0.46875 h -0.011719 c 0.00586,0.1875 0.011719,0.3808594 0.011719,0.5742188 0,0.196289 0,0.3925781 0,0.5859375 v 3.05859371 c 0,0.0234375 -0.00586,0.04394532 -0.011719,0.05859375 -0.00879,0.01757813 -0.029297,0.02929688 -0.058594,0.03515625 -0.023437,0.00878907 -0.055664,0.01464844 -0.09375,0.0234375 -0.041016,0.0058594 -0.09082,0.01171875 -0.15234377,0.01171875 -0.0644531,0 -0.1171875,-0.0058594 -0.1640625,-0.01171875 -0.0410156,-0.00878906 -0.0703125,-0.01464843 -0.09375,-0.0234375 -0.0234375,-0.0058594 -0.0410156,-0.01757812 -0.046875,-0.03515625 -0.008789,-0.01464843 -0.0117188,-0.03515625 -0.0117188,-0.05859375 V -4.7929297 c 0,-0.099609 0.0263672,-0.1699219 0.0820313,-0.2109375 0.0527344,-0.046875 0.1171875,-0.070312 0.1875,-0.070312 H 1.2782031 c 0.070312,0 0.1289063,0.00879 0.1757813,0.023437 0.052734,0.00879 0.099609,0.029297 0.140625,0.058594 0.046875,0.032226 0.084961,0.076172 0.1171875,0.1289062 0.038086,0.046875 0.082031,0.1142578 0.1289062,0.1992188 l 1.2304688,2.2265625 c 0.076172,0.1347656 0.1523437,0.2666015 0.2226562,0.3984375 0.070312,0.1347656 0.1347657,0.2636718 0.1992188,0.3867187 0.070312,0.1259766 0.1347656,0.2519531 0.1992187,0.375 0.061524,0.1171875 0.1230469,0.2402344 0.1875,0.36328126 h 0.011719 c -0.00879,-0.21093746 -0.011719,-0.42480466 -0.011719,-0.64453126 0,-0.2255859 0,-0.4453125 0,-0.65625 v -2.7539062 c 0,-0.014649 0.00293,-0.029297 0.011719,-0.046875 0.00586,-0.014649 0.023437,-0.026367 0.046875,-0.035156 0.029297,-0.014648 0.064453,-0.023437 0.1054687,-0.023437 0.038086,-0.00586 0.087891,-0.011719 0.1523438,-0.011719 0.061523,0 0.1113281,0.00586 0.1523437,0.011719 0.038086,0 0.070312,0.00879 0.09375,0.023437 0.029297,0.00879 0.049805,0.020508 0.058594,0.035156 0.00586,0.017578 0.011719,0.032226 0.011719,0.046875 z M 8.7723438,-2.0155859 c 0,0.102539 -0.029297,0.1757812 -0.082031,0.2226562 -0.046875,0.041016 -0.1025391,0.058594 -0.1640625,0.058594 H 6.2059375 c 0,0.196289 0.017578,0.3720703 0.058594,0.5273437 0.038086,0.1582031 0.1054687,0.29296876 0.1992187,0.41015626 0.09375,0.11132813 0.2109375,0.19628907 0.3515625,0.2578125 0.1464844,0.0556641 0.3310547,0.0820313 0.5507813,0.0820313 0.1640625,0 0.3105468,-0.0117188 0.4453125,-0.0351563 0.1318359,-0.0292969 0.2460937,-0.0615234 0.3398437,-0.09375 0.09375,-0.0292969 0.1699219,-0.0585938 0.234375,-0.0820313 0.061523,-0.0292969 0.1083984,-0.046875 0.140625,-0.046875 0.014648,0 0.029297,0.005859 0.046875,0.0117188 0.014648,0.008789 0.026367,0.0234375 0.035156,0.046875 0.00586,0.0175781 0.011719,0.0410156 0.011719,0.0703125 0.00586,0.0322266 0.011719,0.0703125 0.011719,0.1171875 0,0.0322266 -0.00586,0.0644531 -0.011719,0.09375 0,0.0234375 -0.00586,0.046875 -0.011719,0.0703125 0,0.0175781 -0.00586,0.0322266 -0.011719,0.046875 -0.00879,0.0175781 -0.020508,0.0322266 -0.035156,0.046875 -0.017578,0.0175781 -0.058594,0.0410156 -0.1289063,0.0703125 -0.070312,0.0322266 -0.1640625,0.06445313 -0.28125,0.09375 -0.1113281,0.03222657 -0.2402344,0.05859375 -0.3867187,0.08203125 -0.1494141,0.0234375 -0.3046875,0.03515625 -0.46875,0.03515625 -0.2900391,0 -0.5449219,-0.04101562 -0.7617188,-0.1171875 C 6.3143359,-0.12300781 6.1297656,-0.24019531 5.9832813,-0.39839844 5.8338672,-0.56246094 5.7196094,-0.76460937 5.6434375,-1.0077734 5.5643359,-1.2480078 5.52625,-1.5292578 5.52625,-1.8515234 c 0,-0.3046875 0.038086,-0.5771485 0.1171875,-0.8203125 0.076172,-0.2402344 0.1904297,-0.4453125 0.3398438,-0.609375 0.1464843,-0.1699219 0.328125,-0.2988282 0.5390625,-0.3867188 0.2109375,-0.09375 0.4453125,-0.140625 0.703125,-0.140625 0.2724609,0 0.5068359,0.046875 0.703125,0.140625 0.1933593,0.087891 0.3544921,0.2050781 0.4804687,0.3515625 0.1230469,0.1494141 0.2138672,0.3251953 0.2695313,0.5273438 0.061523,0.2050781 0.09375,0.421875 0.09375,0.65625 z M 8.1278125,-2.2148047 C 8.1336719,-2.5487891 8.0575,-2.8153906 7.8934375,-3.0116797 7.7352344,-3.2050391 7.5067188,-3.3046484 7.2020313,-3.3046484 c -0.1640625,0 -0.3105469,0.032227 -0.4335938,0.09375 -0.1171875,0.064453 -0.2197266,0.1464843 -0.3046875,0.2460937 -0.079102,0.09375 -0.140625,0.2080078 -0.1875,0.3398438 -0.041016,0.1347656 -0.064453,0.2695312 -0.070312,0.4101562 z m 6.5419925,-1.4296875 c 0,0.023437 -0.0059,0.052734 -0.01172,0.082031 0,0.023437 -0.0088,0.055664 -0.02344,0.09375 l -1.042968,3.35156246 c -0.0088,0.03222657 -0.02051,0.05566407 -0.03516,0.0703125 -0.01758,0.01757813 -0.04101,0.03222657 -0.07031,0.0468750025 -0.03223,0.0058593775 -0.07617,0.0117187475 -0.128906,0.0117187475 -0.04687,0.0058594 -0.111328,0.01171875 -0.1875,0.01171875 -0.08789,0 -0.158203,-0.0058594 -0.210938,-0.01171875 -0.05566,0 -0.09961,-0.00585937 -0.128906,-0.0117187475 -0.03223,-0.0146484325 -0.05566,-0.0292968725 -0.07031,-0.0468750025 -0.01758,-0.0234375 -0.0293,-0.046875 -0.03516,-0.0703125 l -0.738281,-2.56640626 -0.01172,-0.035156 -0.01172,0.035156 -0.679687,2.56640626 c -0.0088,0.03222657 -0.02344,0.05566407 -0.04687,0.0703125 -0.01758,0.01757813 -0.04395,0.03222657 -0.08203,0.0468750025 -0.03223,0.0058593775 -0.07617,0.0117187475 -0.128907,0.0117187475 -0.04687,0.0058594 -0.111328,0.01171875 -0.1875,0.01171875 -0.08789,0 -0.158203,-0.0058594 -0.210937,-0.01171875 -0.04687,0 -0.08789,-0.00585937 -0.117188,-0.0117187475 -0.03223,-0.0146484325 -0.05566,-0.0292968725 -0.07031,-0.0468750025 -0.01758,-0.0234375 -0.0293,-0.046875 -0.03516,-0.0703125 L 9.3729297,-3.4687109 c -0.017578,-0.038086 -0.029297,-0.070312 -0.035156,-0.09375 0,-0.029297 0,-0.058594 0,-0.082031 0,-0.023437 0.00293,-0.038086 0.011719,-0.046875 0.00586,-0.014648 0.023437,-0.026367 0.046875,-0.035156 0.029297,-0.014648 0.064453,-0.023437 0.1054687,-0.023437 0.046875,0 0.09668,0 0.1523438,0 0.076172,0 0.1347656,0.00586 0.1757812,0.011719 0.046875,0 0.082031,0.00586 0.1054688,0.011719 0.023437,0.00879 0.038086,0.020508 0.046875,0.035156 0.014648,0.017578 0.026367,0.035156 0.035156,0.058594 l 0.84375,2.91796871 0.01172,0.0351563 0.01172,-0.0351563 0.773438,-2.91796871 c 0.0059,-0.023437 0.01465,-0.041016 0.02344,-0.058594 0.01465,-0.014648 0.03516,-0.026367 0.05859,-0.035156 0.02344,-0.00586 0.05274,-0.011719 0.09375,-0.011719 0.03809,-0.00586 0.09375,-0.011719 0.164063,-0.011719 0.06152,0 0.111328,0.00586 0.152343,0.011719 0.03809,0 0.07031,0.00586 0.09375,0.011719 0.02344,0.00879 0.03809,0.020508 0.04687,0.035156 0.01465,0.017578 0.02637,0.035156 0.03516,0.058594 l 0.84375,2.91796871 v 0.0351563 l 0.01172,-0.0351563 0.832032,-2.91796871 c 0.0059,-0.023437 0.01465,-0.041016 0.02344,-0.058594 0.01465,-0.014648 0.03516,-0.026367 0.05859,-0.035156 0.02344,-0.00586 0.05273,-0.011719 0.09375,-0.011719 0.04687,-0.00586 0.105469,-0.011719 0.175781,-0.011719 0.06152,0 0.111328,0 0.152344,0 0.03809,0 0.07031,0.00879 0.09375,0.023437 0.02344,0.00879 0.03809,0.020508 0.04687,0.035156 0.0059,0.00879 0.01172,0.023437 0.01172,0.046875 z m 7.564453,0 c 0,0.023437 -0.0059,0.052734 -0.01172,0.082031 0,0.023437 -0.0088,0.055664 -0.02344,0.09375 l -1.042969,3.35156246 c -0.0088,0.03222657 -0.02051,0.05566407 -0.03516,0.0703125 -0.01758,0.01757813 -0.04102,0.03222657 -0.07031,0.0468750025 -0.03223,0.0058593775 -0.07617,0.0117187475 -0.128906,0.0117187475 -0.04687,0.0058594 -0.111328,0.01171875 -0.1875,0.01171875 -0.08789,0 -0.158203,-0.0058594 -0.210938,-0.01171875 -0.05566,0 -0.09961,-0.00585937 -0.128906,-0.0117187475 -0.03223,-0.0146484325 -0.05566,-0.0292968725 -0.07031,-0.0468750025 -0.01758,-0.0234375 -0.0293,-0.046875 -0.03516,-0.0703125 l -0.738281,-2.56640626 -0.01172,-0.035156 -0.01172,0.035156 -0.679688,2.56640626 c -0.0088,0.03222657 -0.02344,0.05566407 -0.04687,0.0703125 C 18.78308,-0.02925811 18.75671,-0.01460967 18.71863,3.87625e-5 18.6864,0.00589814 18.64246,0.01175751 18.589724,0.01175751 c -0.04687,0.0058594 -0.111329,0.01171875 -0.1875,0.01171875 -0.08789,0 -0.158204,-0.0058594 -0.210938,-0.01171875 -0.04687,0 -0.08789,-0.00585937 -0.117187,-0.0117187475 -0.03223,-0.0146484325 -0.05566,-0.0292968725 -0.07031,-0.0468750025 -0.01758,-0.0234375 -0.0293,-0.046875 -0.03516,-0.0703125 l -1.03125,-3.35156246 c -0.01758,-0.038086 -0.0293,-0.070312 -0.03516,-0.09375 0,-0.029297 0,-0.058594 0,-0.082031 0,-0.023437 0.0029,-0.038086 0.01172,-0.046875 0.0059,-0.014648 0.02344,-0.026367 0.04687,-0.035156 0.0293,-0.014648 0.06445,-0.023437 0.105469,-0.023437 0.04687,0 0.09668,0 0.152344,0 0.07617,0 0.134765,0.00586 0.175781,0.011719 0.04687,0 0.08203,0.00586 0.105469,0.011719 0.02344,0.00879 0.03809,0.020508 0.04687,0.035156 0.01465,0.017578 0.02637,0.035156 0.03516,0.058594 l 0.84375,2.91796871 0.01172,0.0351563 0.01172,-0.0351563 0.773437,-2.91796871 c 0.0059,-0.023437 0.01465,-0.041016 0.02344,-0.058594 0.01465,-0.014648 0.03516,-0.026367 0.05859,-0.035156 0.02344,-0.00586 0.05274,-0.011719 0.09375,-0.011719 0.03809,-0.00586 0.09375,-0.011719 0.164063,-0.011719 0.06152,0 0.111328,0.00586 0.152344,0.011719 0.03809,0 0.07031,0.00586 0.09375,0.011719 0.02344,0.00879 0.03809,0.020508 0.04687,0.035156 0.01465,0.017578 0.02637,0.035156 0.03516,0.058594 l 0.84375,2.91796871 v 0.0351563 l 0.01172,-0.0351563 0.832031,-2.91796871 c 0.0059,-0.023437 0.01465,-0.041016 0.02344,-0.058594 0.01465,-0.014648 0.03516,-0.026367 0.05859,-0.035156 0.02344,-0.00586 0.05273,-0.011719 0.09375,-0.011719 0.04687,-0.00586 0.105469,-0.011719 0.175781,-0.011719 0.06152,0 0.111328,0 0.152344,0 0.03809,0 0.07031,0.00879 0.09375,0.023437 0.02344,0.00879 0.03809,0.020508 0.04687,0.035156 0.0059,0.00879 0.01172,0.023437 0.01172,0.046875 z m 3.984375,1.7460938 c 0,0.28125 -0.04102,0.5449218 -0.117188,0.7851562 -0.0791,0.24316408 -0.193359,0.45410158 -0.339843,0.63281251 -0.149414,0.17285157 -0.336914,0.31054688 -0.5625,0.41015625 -0.228516,0.09375 -0.489258,0.140625 -0.785157,0.140625 -0.298828,0 -0.55664,-0.04394531 -0.773437,-0.12890625 -0.210938,-0.08496093 -0.392578,-0.2109375 -0.539063,-0.375 -0.140625,-0.1640625 -0.246093,-0.36328125 -0.316406,-0.59765621 -0.07031,-0.234375 -0.105469,-0.4980469 -0.105469,-0.796875 0,-0.2871094 0.03516,-0.553711 0.105469,-0.796875 0.07617,-0.2402344 0.19043,-0.4482422 0.339844,-0.6210938 0.155273,-0.1787109 0.342773,-0.3164062 0.5625,-0.4101562 0.225586,-0.099609 0.492187,-0.1523438 0.796875,-0.1523438 0.287109,0 0.539062,0.043945 0.75,0.1289063 0.216797,0.087891 0.398437,0.2109375 0.539062,0.375 0.146485,0.1640625 0.257813,0.3691406 0.328125,0.609375 0.07617,0.234375 0.117188,0.5009765 0.117188,0.796875 z m -0.691406,0.035156 c 0,-0.1875 -0.02051,-0.3662109 -0.05859,-0.5390625 -0.03223,-0.1699219 -0.08789,-0.3193359 -0.164063,-0.4453125 -0.0791,-0.1318359 -0.1875,-0.234375 -0.328125,-0.3046875 -0.140625,-0.076172 -0.313476,-0.1171875 -0.515625,-0.1171875 -0.196289,0 -0.363281,0.035156 -0.503906,0.1054688 -0.134766,0.070312 -0.246094,0.1699218 -0.339844,0.2929687 -0.08789,0.1259766 -0.152343,0.2753906 -0.199218,0.4453125 -0.04102,0.1640625 -0.05859,0.3486328 -0.05859,0.5507813 0,0.196289 0.01465,0.3808593 0.04687,0.5507812 0.03809,0.1640625 0.09668,0.3134766 0.175781,0.44531251 0.08496,0.12597657 0.199219,0.22851563 0.339844,0.3046875 0.140625,0.0703125 0.310547,0.10546875 0.515625,0.10546875 0.1875,0 0.351562,-0.0351563 0.492187,-0.10546875 0.140625,-0.0703125 0.251953,-0.1640625 0.339844,-0.28125 0.09375,-0.12304687 0.158203,-0.27246091 0.199219,-0.44531251 0.03809,-0.1699219 0.05859,-0.3574219 0.05859,-0.5625 z m 3.65625,-1.5351562 c 0,0.055664 0,0.102539 0,0.140625 0,0.041016 -0.0059,0.070312 -0.01172,0.09375 -0.0088,0.023437 -0.02051,0.043945 -0.03516,0.058594 -0.0088,0.00879 -0.02344,0.011719 -0.04687,0.011719 -0.02344,0 -0.05273,-0.00293 -0.08203,-0.011719 -0.02344,-0.014648 -0.05566,-0.026367 -0.09375,-0.035156 -0.04101,-0.014648 -0.08203,-0.026367 -0.128906,-0.035156 -0.04687,-0.014648 -0.09961,-0.023437 -0.152344,-0.023437 -0.06445,0 -0.128906,0.017578 -0.199218,0.046875 -0.06445,0.023437 -0.128907,0.067383 -0.199219,0.1289063 -0.06445,0.055664 -0.134766,0.1347656 -0.210938,0.234375 -0.0791,0.102539 -0.161132,0.2226562 -0.246093,0.3632812 v 2.33203126 c 0,0.01757813 -0.0088,0.03222657 -0.02344,0.046875 -0.0088,0.01757813 -0.02344,0.03222657 -0.04687,0.0468750025 -0.02344,0.0058582775 -0.0586,0.0117176475 -0.105474,0.0117176475 -0.04101,0.0058594 -0.09082,0.01171875 -0.152343,0.01171875 -0.06445,0 -0.117188,-0.0058594 -0.164063,-0.01171875 -0.04102,0 -0.07031,-0.00585937 -0.09375,-0.0117187475 -0.02344,-0.0146484325 -0.04395,-0.0292968725 -0.05859,-0.0468750025 -0.0088,-0.01464843 -0.01172,-0.02929687 -0.01172,-0.046875 V -3.6327734 c 0,-0.023437 0.0029,-0.038086 0.01172,-0.046875 0.0059,-0.014648 0.02344,-0.026367 0.04687,-0.035156 0.02344,-0.014648 0.05274,-0.023437 0.09375,-0.023437 0.03809,-0.00586 0.08496,-0.011719 0.140625,-0.011719 0.06152,0 0.108399,0.00586 0.140625,0.011719 0.03809,0 0.07031,0.00879 0.09375,0.023437 0.02344,0.00879 0.03809,0.020508 0.04687,0.035156 0.0059,0.00879 0.01172,0.023437 0.01172,0.046875 v 0.515625 c 0.09961,-0.140625 0.19043,-0.2519532 0.269531,-0.3398438 0.08496,-0.09375 0.166993,-0.1640625 0.246094,-0.2109375 0.07617,-0.052734 0.152344,-0.087891 0.222656,-0.1054687 0.07617,-0.023437 0.155274,-0.035156 0.234375,-0.035156 0.0293,0 0.06445,0.00586 0.105469,0.011719 0.04687,0 0.09375,0.00879 0.140625,0.023437 0.04687,0.00879 0.08789,0.020508 0.128906,0.035156 0.03809,0.00879 0.06445,0.020508 0.08203,0.035156 0.01465,0.00879 0.02344,0.020508 0.02344,0.035156 0.0059,0.00879 0.01172,0.023437 0.01172,0.046875 0.0059,0.017578 0.01172,0.043945 0.01172,0.082031 0,0.032227 0,0.079102 0,0.140625 z m 1.353515,3.30468746 c 0,0.01757813 -0.0088,0.03222657 -0.02344,0.046875 -0.0088,0.01757813 -0.02344,0.03222657 -0.04687,0.0468750025 -0.02344,0.0058593775 -0.05859,0.0117187475 -0.105469,0.0117187475 -0.04102,0.0058594 -0.09082,0.01171875 -0.152344,0.01171875 -0.06445,0 -0.117187,-0.0058594 -0.164062,-0.01171875 -0.04102,0 -0.07031,-0.00585937 -0.09375,-0.0117187475 -0.02344,-0.0146484325 -0.04395,-0.0292968725 -0.05859,-0.0468750025 -0.0088,-0.01464843 -0.01172,-0.02929687 -0.01172,-0.046875 V -5.3437109 c 0,-0.023437 0.0029,-0.041016 0.01172,-0.058594 0.01465,-0.014648 0.03516,-0.026367 0.05859,-0.035156 0.02344,-0.00586 0.05273,-0.014649 0.09375,-0.023437 0.04687,-0.00586 0.09961,-0.011719 0.164062,-0.011719 0.06152,0 0.111328,0.00586 0.152344,0.011719 0.04687,0.00879 0.08203,0.017578 0.105469,0.023437 0.02344,0.00879 0.03809,0.020508 0.04687,0.035156 0.01465,0.017578 0.02344,0.035156 0.02344,0.058594 z m 4.177735,0 c 0,0.01757813 -0.0088,0.03222657 -0.02344,0.046875 -0.0088,0.01757813 -0.02344,0.03222657 -0.04687,0.0468750025 -0.02344,0.0058593775 -0.05566,0.0117187475 -0.09375,0.0117187475 -0.03223,0.0058594 -0.07617,0.01171875 -0.128906,0.01171875 -0.05566,0 -0.102539,-0.0058594 -0.140625,-0.01171875 -0.03223,0 -0.05859,-0.00585937 -0.08203,-0.0117187475 -0.02344,-0.0146484325 -0.04395,-0.0292968725 -0.05859,-0.0468750025 -0.0088,-0.01464843 -0.01172,-0.02929687 -0.01172,-0.046875 v -0.46875 c -0.1875,0.20507813 -0.383789,0.36035157 -0.585937,0.46875 -0.196289,0.10839844 -0.410157,0.1640625 -0.644532,0.1640625 -0.257812,0 -0.480468,-0.046875 -0.667968,-0.140625 -0.181641,-0.09960937 -0.328125,-0.23730468 -0.445313,-0.41015625 -0.111328,-0.16992187 -0.193359,-0.375 -0.246094,-0.60937501 -0.05566,-0.234375 -0.08203,-0.4746094 -0.08203,-0.7265625 0,-0.3046875 0.0293,-0.5771484 0.09375,-0.8203125 0.07031,-0.2490234 0.166992,-0.4599609 0.292969,-0.6328125 0.131836,-0.1699219 0.292969,-0.3046875 0.480469,-0.3984375 0.1875,-0.09375 0.404296,-0.140625 0.65625,-0.140625 0.210937,0 0.398437,0.046875 0.5625,0.140625 0.169921,0.087891 0.342773,0.2197266 0.515625,0.3984375 v -2.0625 c 0,-0.014648 0.0029,-0.029297 0.01172,-0.046875 0.0059,-0.014648 0.02344,-0.026367 0.04687,-0.035156 0.0293,-0.014649 0.06445,-0.023437 0.105469,-0.023437 0.03809,-0.00586 0.08789,-0.011719 0.152344,-0.011719 0.07031,0 0.123047,0.00586 0.164062,0.011719 0.03809,0 0.07031,0.00879 0.09375,0.023437 0.02344,0.00879 0.04102,0.020508 0.05859,0.035156 0.01465,0.017578 0.02344,0.032227 0.02344,0.046875 z m -0.65625,-2.48437496 c -0.181641,-0.2167969 -0.351563,-0.3808594 -0.515625,-0.4921875 -0.158204,-0.1171875 -0.325196,-0.1757813 -0.503907,-0.1757813 -0.164062,0 -0.304687,0.041016 -0.421875,0.1171875 -0.117187,0.079102 -0.210937,0.1845703 -0.28125,0.3164063 -0.07031,0.1259765 -0.125976,0.2695312 -0.164062,0.4335937 -0.03223,0.1582031 -0.04687,0.3222656 -0.04687,0.4921875 0,0.1728516 0.01172,0.3457031 0.03516,0.515625 0.0293,0.1728516 0.08203,0.3251953 0.152344,0.45703126 0.07031,0.13476563 0.158203,0.24023438 0.269531,0.31640625 0.117188,0.0791016 0.257813,0.1171875 0.421875,0.1171875 0.09375,0 0.178711,-0.0117188 0.257813,-0.0351563 0.07617,-0.0234375 0.155273,-0.0615234 0.234375,-0.1171875 0.08496,-0.0527344 0.175781,-0.12304687 0.269531,-0.2109375 0.09375,-0.0849609 0.19043,-0.19335941 0.292969,-0.32812501 z m 4.889648,2.30859371 c 0,0.0556641 -0.0088,0.0996094 -0.02344,0.12890625 -0.0088,0.0322266 -0.02051,0.05859375 -0.03516,0.08203125 -0.0088,0.0234375 -0.02051,0.04101563 -0.03516,0.046875 -0.01758,0.00878907 -0.03516,0.0117187525 -0.05859,0.0117187525 h -2.648437 c -0.01758,0 -0.03223,-0.0029296825 -0.04687,-0.0117187525 -0.01758,-0.0058594 -0.03223,-0.0234375 -0.04687,-0.046875 -0.01758,-0.0234375 -0.0293,-0.04980468 -0.03516,-0.08203125 -0.0088,-0.0292969 -0.01172,-0.0732422 -0.01172,-0.12890625 0,-0.046875 0.0029,-0.0849609 0.01172,-0.1171875 0.0059,-0.0380859 0.01465,-0.0644531 0.02344,-0.0820313 0.01465,-0.0234375 0.0293,-0.0380859 0.04687,-0.046875 0.01465,-0.0146484 0.03516,-0.0234375 0.05859,-0.0234375 h 1.054687 V -4.4062109 l -0.972656,0.5859375 c -0.05566,0.023437 -0.09961,0.041016 -0.128906,0.046875 -0.02344,0.00879 -0.04687,0.00586 -0.07031,-0.011719 -0.01758,-0.023437 -0.0293,-0.052734 -0.03516,-0.09375 -0.0088,-0.038086 -0.01172,-0.084961 -0.01172,-0.140625 0,-0.046875 0,-0.084961 0,-0.1171875 0.0059,-0.029297 0.01465,-0.052734 0.02344,-0.070312 0.0059,-0.023437 0.01758,-0.041016 0.03516,-0.058594 0.01465,-0.014649 0.03516,-0.029297 0.05859,-0.046875 l 1.171875,-0.75 c 0.0059,-0.00586 0.01758,-0.014649 0.03516,-0.023437 0.01465,-0.00586 0.03516,-0.011719 0.05859,-0.011719 0.02344,-0.00586 0.0498,-0.011719 0.08203,-0.011719 0.0293,0 0.07031,0 0.117188,0 0.06152,0 0.111328,0.00586 0.152343,0.011719 0.04687,0 0.08203,0.00586 0.105469,0.011719 0.02344,0.00879 0.03809,0.020508 0.04687,0.035156 0.0059,0.017578 0.01172,0.032227 0.01172,0.046875 v 4.46484376 h 0.914062 c 0.02344,0 0.04102,0.008789 0.05859,0.0234375 0.02344,0.008789 0.03809,0.0234375 0.04687,0.046875 0.01465,0.0175781 0.02637,0.0439453 0.03516,0.0820313 0.0059,0.0322266 0.01172,0.0703125 0.01172,0.1171875 z m 0,0"
           style="fill:#000000;fill-opacity:1;fill-rule:nonzero;stroke:none"
           aria-label=" New world1"
           transform="matrix(1.3333333,0,0,1.3333333,1099.2667,283.38667)"
           clip-path="url(#clipPath81)" />
        <path
           id="path82"
           d="m 3.6442188,-0.26949219 c 0,0.0556641 -0.00879,0.0996094 -0.023437,0.12890625 -0.00879,0.0322266 -0.020508,0.05859375 -0.035156,0.08203125 -0.00879,0.0234375 -0.020508,0.04101563 -0.035156,0.046875 C 3.5328906,-0.00289062 3.5153125,3.90625e-5 3.491875,3.90625e-5 H 0.8434375 c -0.0175781,0 -0.0322266,-0.0029296825 -0.046875,-0.0117187525 -0.0175781,-0.0058594 -0.0322266,-0.0234375 -0.046875,-0.046875 -0.0175781,-0.0234375 -0.0292969,-0.04980468 -0.0351563,-0.08203125 -0.008789,-0.0292969 -0.0117188,-0.0732422 -0.0117188,-0.12890625 0,-0.046875 0.00293,-0.0849609 0.0117188,-0.1171875 0.005859,-0.0380859 0.0146484,-0.0644531 0.0234375,-0.0820313 0.0146484,-0.0234375 0.0292969,-0.0380859 0.046875,-0.046875 C 0.7994921,-0.53023439 0.82,-0.53902349 0.8434375,-0.53902349 H 1.898125 V -4.4062109 l -0.97265625,0.5859375 c -0.0556641,0.023437 -0.0996094,0.041016 -0.12890625,0.046875 -0.0234375,0.00879 -0.046875,0.00586 -0.0703125,-0.011719 -0.0175781,-0.023437 -0.0292969,-0.052734 -0.0351563,-0.09375 -0.008789,-0.038086 -0.0117188,-0.084961 -0.0117188,-0.140625 0,-0.046875 0,-0.084961 0,-0.1171875 0.005859,-0.029297 0.0146484,-0.052734 0.0234375,-0.070312 0.005859,-0.023437 0.0175781,-0.041016 0.0351563,-0.058594 0.0146484,-0.014649 0.0351563,-0.029297 0.0585938,-0.046875 l 1.171875,-0.75 c 0.00586,-0.00586 0.017578,-0.014649 0.035156,-0.023437 0.014648,-0.00586 0.035156,-0.011719 0.058594,-0.011719 0.023437,-0.00586 0.049805,-0.011719 0.082031,-0.011719 0.029297,0 0.070312,0 0.1171875,0 0.061523,0 0.1113281,0.00586 0.1523437,0.011719 0.046875,0 0.082031,0.00586 0.1054688,0.011719 0.023437,0.00879 0.038086,0.020508 0.046875,0.035156 0.00586,0.017578 0.011719,0.032227 0.011719,0.046875 v 4.46484376 H 3.491875 c 0.023437,0 0.041016,0.008789 0.058594,0.0234375 0.023437,0.008789 0.038086,0.0234375 0.046875,0.046875 0.014648,0.0175781 0.026367,0.0439453 0.035156,0.0820313 0.00586,0.0322266 0.011719,0.0703125 0.011719,0.11718715 z m 1.086914,1.21875 c -0.00879,0.0292969 -0.020508,0.0527344 -0.035156,0.0703125 -0.017578,0.023437 -0.041016,0.038086 -0.070312,0.046875 -0.023437,0.014649 -0.055664,0.023437 -0.09375,0.023437 -0.041016,0.00586 -0.087891,0.011719 -0.140625,0.011719 -0.064453,0 -0.1171875,-0.00586 -0.1640625,-0.011719 -0.041016,-0.00879 -0.070312,-0.023437 -0.09375,-0.046875 -0.023437,-0.017578 -0.041016,-0.035156 -0.046875,-0.0585937 -0.00879,-0.0234375 -0.00586,-0.0527344 0.011719,-0.0820313 L 6.4772266,-5.6132422 c 0.00586,-0.029297 0.017578,-0.052734 0.035156,-0.070312 0.023437,-0.023437 0.046875,-0.038086 0.070312,-0.046875 0.023437,-0.014648 0.052734,-0.023437 0.09375,-0.023437 0.038086,-0.00586 0.084961,-0.011719 0.140625,-0.011719 0.070312,0 0.1230469,0.00586 0.1640625,0.011719 0.038086,0.00879 0.070312,0.020508 0.09375,0.035156 0.023437,0.017578 0.038086,0.041016 0.046875,0.070312 0.00586,0.023437 0.00293,0.052734 -0.011719,0.082031 z M 11.024102,-1.4413672 c 0,0.087891 -0.01758,0.1582031 -0.04687,0.2109375 -0.02344,0.046875 -0.05859,0.070312 -0.105469,0.070312 h -0.574219 v 1.06640626 c 0,0.01757813 -0.0059,0.03222657 -0.01172,0.046875 -0.0088,0.01757813 -0.0293,0.03222657 -0.05859,0.0468750025 -0.02344,0.0058593775 -0.05859,0.0117187475 -0.105469,0.0117187475 -0.04102,0.0058594 -0.09082,0.01171875 -0.1523439,0.01171875 -0.064453,0 -0.1171875,-0.0058594 -0.1640625,-0.01171875 -0.041016,0 -0.070312,-0.00585937 -0.09375,-0.0117187475 C 9.6881641,-0.01460937 9.6676563,-0.02925781 9.6530078,-0.04683594 c -0.00879,-0.01464843 -0.011719,-0.02929687 -0.011719,-0.046875 V -1.1601172 h -2.097656 c -0.032227,0 -0.058594,-0.00293 -0.082031,-0.011719 -0.017578,-0.00586 -0.032227,-0.023437 -0.046875,-0.046875 -0.017578,-0.023437 -0.029297,-0.052734 -0.035156,-0.09375 -0.00879,-0.038086 -0.011719,-0.087891 -0.011719,-0.1523438 0,-0.046875 0,-0.087891 0,-0.1289062 0.00586,-0.038086 0.014648,-0.073242 0.023437,-0.1054688 0.00586,-0.038086 0.014648,-0.070312 0.023437,-0.09375 0.014648,-0.029297 0.029297,-0.064453 0.046875,-0.1054687 L 9.3014445,-4.98043 c 0.00586,-0.023437 0.023437,-0.041016 0.046875,-0.058594 0.029297,-0.014649 0.064453,-0.026367 0.1054688,-0.035156 0.038086,-0.00586 0.084961,-0.011719 0.140625,-0.011719 0.052734,-0.00586 0.1201172,-0.011719 0.1992187,-0.011719 0.084961,0 0.1582031,0.00586 0.222656,0.011719 0.07031,0 0.123047,0.00879 0.164063,0.023437 0.03809,0.00879 0.06445,0.020508 0.08203,0.035156 0.02344,0.017578 0.03516,0.035156 0.03516,0.058594 v 3.2460937 h 0.574219 c 0.04687,0 0.08203,0.023437 0.105469,0.070312 0.0293,0.046875 0.04687,0.1171875 0.04687,0.2109375 z M 9.6412891,-4.5116797 7.9889453,-1.7226172 h 1.6523438 z m 0,0"
           style="fill:#000000;fill-opacity:1;fill-rule:nonzero;stroke:none"
           aria-label=" 1/4"
           transform="matrix(1.3333333,0,0,1.3333333,1193.6667,283.38667)"
           clip-path="url(#clipPath83)" />
      </g>
    </g>
  </g>
</svg>
