<?xml version="1.0" encoding="UTF-8" standalone="no"?>
<!-- Created with Inkscape (http://www.inkscape.org/) -->

<svg
   width="1910"
   height="995.23285"
   viewBox="0 0 1910 995.23285"
   version="1.1"
   id="svg1"
   sodipodi:docname="uidraw-05.svg"
   inkscape:version="1.4 (e7c3feb100, 2024-10-09)"
   xmlns:inkscape="http://www.inkscape.org/namespaces/inkscape"
   xmlns:sodipodi="http://sodipodi.sourceforge.net/DTD/sodipodi-0.dtd"
   xmlns="http://www.w3.org/2000/svg"
   xmlns:svg="http://www.w3.org/2000/svg">
  <sodipodi:namedview
     id="namedview1"
     pagecolor="#ffffff"
     bordercolor="#000000"
     borderopacity="0.25"
     inkscape:showpageshadow="2"
     inkscape:pageopacity="0.0"
     inkscape:pagecheckerboard="0"
     inkscape:deskcolor="#d1d1d1"
     inkscape:zoom="0.48795812"
     inkscape:cx="955"
     inkscape:cy="497.99356"
     inkscape:window-width="1920"
     inkscape:window-height="1011"
     inkscape:window-x="0"
     inkscape:window-y="0"
     inkscape:window-maximized="1"
     inkscape:current-layer="svg1" />
  <defs
     id="defs1">
    <clipPath
       clipPathUnits="userSpaceOnUse"
       id="clipPath118">
      <path
         d="m 251.93,425.11 h 86.304 v 16.32 H 251.93 Z"
         transform="matrix(1,0,0,-1,-268.01003,430.99001)"
         clip-rule="evenodd"
         id="path118" />
    </clipPath>
    <clipPath
       clipPathUnits="userSpaceOnUse"
       id="clipPath120">
      <path
         d="m 251.93,425.11 h 86.304 v 16.32 H 251.93 Z"
         transform="matrix(1,0,0,-1,-294.53003,430.99001)"
         clip-rule="evenodd"
         id="path120" />
    </clipPath>
    <clipPath
       clipPathUnits="userSpaceOnUse"
       id="clipPath122">
      <path
         d="m 251.93,425.11 h 86.304 v 16.32 H 251.93 Z"
         transform="matrix(1,0,0,-1,-300.29003,430.99001)"
         clip-rule="evenodd"
         id="path122" />
    </clipPath>
    <clipPath
       clipPathUnits="userSpaceOnUse"
       id="clipPath125">
      <path
         d="m 251.93,385.61 h 86.304 v 16.44 H 251.93 Z"
         transform="matrix(1,0,0,-1,-269.33003,391.61001)"
         clip-rule="evenodd"
         id="path125" />
    </clipPath>
  </defs>
  <g
     id="layer1"
     transform="matrix(0.99476441,0,0,0.99476441,0.02613701,-39.556352)">
    <g
       id="g1"
       transform="matrix(3.176275,0,0,3.176275,-2847.2948,868.21509)">
      <g
         id="g114"
         transform="translate(-822.3867,-701.53335)">
        <path
           id="path115"
           d="m 70.15,276.27 h 450 v 234 h -450 z"
           style="fill:#d0cece;fill-opacity:1;fill-rule:evenodd;stroke:#c00000;stroke-width:1;stroke-linecap:butt;stroke-linejoin:miter;stroke-miterlimit:8;stroke-dasharray:none;stroke-opacity:1"
           transform="matrix(1.3333333,0,0,-1.3333333,1627.52,1122.56)" />
      </g>
      <g
         id="g115"
         transform="translate(-822.3867,-701.53335)">
        <path
           id="path116"
           d="m 250,442.42 c 0,2.51 2.04,4.55 4.55,4.55 h 80.9 c 2.51,0 4.55,-2.04 4.55,-4.55 v -18.2 c 0,-2.51 -2.04,-4.55 -4.55,-4.55 h -80.9 c -2.51,0 -4.55,2.04 -4.55,4.55 z"
           style="fill:#ffffff;fill-opacity:1;fill-rule:evenodd;stroke:#172c51;stroke-width:1;stroke-linecap:butt;stroke-linejoin:miter;stroke-miterlimit:8;stroke-dasharray:none;stroke-opacity:1"
           transform="matrix(1.3333333,0,0,-1.3333333,1627.52,1122.56)" />
      </g>
      <g
         id="g116"
         transform="translate(-822.3867,-701.53335)">
        <path
           id="path117"
           d="m 4.7585547,-1.9925 c 0,0.328125 -0.064453,0.6269531 -0.1875,0.890625 -0.1171875,0.2578125 -0.2871094,0.47753906 -0.5039063,0.65625 -0.2197265,0.18164062 -0.477539,0.31640625 -0.7734375,0.41015625 -0.290039,0.09375 -0.6064453,0.140625 -0.9492187,0.140625 -0.234375,0 -0.4541016,-0.02050781 -0.65625,-0.05859375 C 1.4831641,0.00554687 1.3015234,-0.03839844 1.1374609,-0.0940625 0.97925781,-0.15558594 0.84742188,-0.21710938 0.73902344,-0.2815625 0.62769531,-0.34308594 0.55152344,-0.39875 0.50464844,-0.445625 0.46363281,-0.4925 0.43433594,-0.54523438 0.41089844,-0.6096875 0.39332031,-0.68 0.38746094,-0.76789063 0.38746094,-0.87921875 c 0,-0.0849609 0.00293,-0.15234375 0.0117188,-0.19921875 0.005859,-0.052734 0.0175781,-0.09668 0.0351563,-0.1289063 0.0146484,-0.038086 0.0351563,-0.061523 0.0585938,-0.070312 0.0234375,-0.014648 0.046875,-0.023437 0.0703125,-0.023437 0.0527344,0 0.12890625,0.032227 0.22265625,0.09375 0.09375,0.064453 0.2109375,0.1347657 0.35156241,0.21093755 0.1464844,0.0703125 0.3222657,0.13769531 0.5273438,0.19921875 0.2109375,0.0644531 0.4511719,0.09375 0.7265626,0.09375 0.2021484,0 0.3896484,-0.0263672 0.5625,-0.0820313 0.1699218,-0.0527344 0.3164061,-0.13183594 0.4335936,-0.234375 0.1230469,-0.099609 0.2167969,-0.2226562 0.28125,-0.3632812 0.070312,-0.1464844 0.1054689,-0.3164063 0.1054689,-0.5039063 0,-0.2021485 -0.046875,-0.375 -0.140625,-0.515625 -0.087891,-0.1464844 -0.2080078,-0.272461 -0.3632814,-0.375 -0.149414,-0.1083985 -0.3222656,-0.2050782 -0.515625,-0.2929687 -0.1875,-0.09375 -0.383789,-0.1875 -0.5859375,-0.28125 C 1.9636328,-3.445625 1.7702734,-3.5452344 1.5827734,-3.6565625 1.3952734,-3.77375 1.2224219,-3.9085156 1.0671484,-4.0667188 0.91773438,-4.2219922 0.79761719,-4.4007031 0.70386719,-4.6057813 c -0.09375,-0.2109375 -0.140625,-0.4599609 -0.140625,-0.75 0,-0.2958984 0.0527344,-0.5566406 0.1640625,-0.7851562 0.10839844,-0.234375 0.2578125,-0.4277344 0.44531251,-0.5859375 0.1933594,-0.1552734 0.4248047,-0.2724609 0.6914062,-0.3515625 0.2636719,-0.084961 0.553711,-0.1289063 0.8671875,-0.1289063 0.1552735,0 0.3105469,0.017578 0.46875,0.046875 0.1552735,0.023437 0.3046875,0.058594 0.4453125,0.1054688 0.1464844,0.041016 0.2753907,0.09082 0.3867188,0.1523437 0.1083984,0.055664 0.1787109,0.1025391 0.2109375,0.140625 0.038086,0.032227 0.061523,0.058594 0.070312,0.082031 0.00586,0.017578 0.014648,0.041016 0.023437,0.070312 0.00586,0.032227 0.011719,0.070312 0.011719,0.1171875 0.00586,0.041016 0.011719,0.09375 0.011719,0.1640625 0,0.064453 -0.00586,0.1230469 -0.011719,0.1757812 0,0.055664 -0.00879,0.099609 -0.023437,0.1289063 -0.00879,0.032227 -0.023437,0.058594 -0.046875,0.082031 -0.017578,0.017578 -0.035156,0.023437 -0.058594,0.023437 -0.046875,0 -0.1142578,-0.023437 -0.1992188,-0.070312 C 3.9323819,-6.0413288 3.8269136,-6.0999229 3.7038667,-6.164376 3.5778901,-6.234688 3.4284761,-6.2932823 3.2585542,-6.3401573 c -0.1640625,-0.052734 -0.3515625,-0.082031 -0.5625,-0.082031 -0.2050781,0 -0.3808594,0.029297 -0.5273438,0.082031 -0.140625,0.046875 -0.2578125,0.1171875 -0.3515625,0.2109375 -0.09375,0.087891 -0.1699218,0.1933594 -0.2226562,0.3164063 -0.046875,0.1171875 -0.070312,0.2431641 -0.070312,0.375 0,0.1962891 0.046875,0.3691406 0.140625,0.515625 0.09375,0.140625 0.2138672,0.2666016 0.3632812,0.375 0.1552735,0.1113281 0.328125,0.2109375 0.515625,0.3046875 0.1933594,0.087891 0.3925782,0.1757812 0.5976563,0.2695312 0.2021484,0.09375 0.4013672,0.1992188 0.5976562,0.3164063 0.1933594,0.1113281 0.366211,0.2431641 0.515625,0.3984375 0.1552735,0.1494141 0.2753907,0.328125 0.3632813,0.5390625 0.09375,0.2050781 0.140625,0.4453125 0.140625,0.7265625 z m 2.0537109,1.8515625 c 0,0.0322266 -0.00879,0.05859375 -0.023437,0.08203125 -0.017578,0.01757812 -0.041016,0.03222656 -0.070312,0.046875 -0.032227,0.01464844 -0.079102,0.02636719 -0.140625,0.03515625 -0.055664,0.0058594 -0.1289062,0.01171875 -0.2226562,0.01171875 -0.087891,0 -0.1611328,-0.0058594 -0.2226563,-0.01171875 -0.055664,-0.0087891 -0.102539,-0.02050781 -0.140625,-0.03515625 -0.032227,-0.01464844 -0.055664,-0.02929688 -0.070312,-0.046875 -0.00879,-0.0234375 -0.011719,-0.04980469 -0.011719,-0.08203125 V -5.08625 c 0,-0.023437 0.00293,-0.046875 0.011719,-0.070312 0.014648,-0.023437 0.038086,-0.038086 0.070312,-0.046875 0.038086,-0.014648 0.084961,-0.026367 0.140625,-0.035156 0.061523,-0.00586 0.1347657,-0.011719 0.2226563,-0.011719 0.09375,0 0.1669922,0.00586 0.2226562,0.011719 0.061523,0.00879 0.1083985,0.020508 0.140625,0.035156 0.029297,0.00879 0.052734,0.023437 0.070312,0.046875 0.014648,0.023437 0.023437,0.046875 0.023437,0.070312 z m 0.1054688,-6.609375 c 0,0.2109375 -0.043945,0.3574219 -0.1289063,0.4335937 -0.079102,0.079102 -0.2226562,0.1171875 -0.4335937,0.1171875 -0.2109375,0 -0.3603516,-0.035156 -0.4453125,-0.1054687 -0.079102,-0.076172 -0.1171875,-0.2226563 -0.1171875,-0.4335938 0,-0.2109375 0.038086,-0.3544921 0.1171875,-0.4335937 0.084961,-0.076172 0.2373047,-0.1171875 0.4570312,-0.1171875 0.2109375,0 0.3544922,0.041016 0.4335938,0.1171875 0.076172,0.070312 0.1171875,0.2109375 0.1171875,0.421875 z m 5.7421876,6.609375 c 0,0.0322266 -0.0088,0.05859375 -0.02344,0.08203125 -0.01758,0.01757812 -0.04101,0.03222656 -0.07031,0.046875 -0.03223,0.01464844 -0.0791,0.02636719 -0.140625,0.03515625 -0.05566,0.0058594 -0.125977,0.01171875 -0.210938,0.01171875 -0.09375,0 -0.172851,-0.0058594 -0.234375,-0.01171875 -0.05566,-0.0087891 -0.102539,-0.02050781 -0.140625,-0.03515625 -0.03223,-0.01464844 -0.05566,-0.02929688 -0.07031,-0.046875 -0.0088,-0.0234375 -0.01172,-0.04980469 -0.01172,-0.08203125 v -2.8945313 c 0,-0.28125 -0.02344,-0.5068359 -0.07031,-0.6796875 -0.04687,-0.1699218 -0.114258,-0.3193359 -0.199219,-0.4453125 -0.0791,-0.1230468 -0.18457,-0.2167968 -0.316406,-0.28125 -0.134766,-0.070312 -0.290039,-0.1054687 -0.46875,-0.1054687 -0.228516,0 -0.454102,0.082031 -0.679688,0.2460937 -0.2285155,0.1640625 -0.4658202,0.3984375 -0.7148436,0.703125 v 3.4570313 c 0,0.0322266 -0.00879,0.05859375 -0.023437,0.08203125 -0.017578,0.01757812 -0.041016,0.03222656 -0.070312,0.046875 -0.032227,0.01464844 -0.079102,0.02636719 -0.140625,0.03515625 -0.055664,0.0058594 -0.1289063,0.01171875 -0.2226563,0.01171875 -0.087891,0 -0.1611328,-0.0058594 -0.2226562,-0.01171875 -0.055664,-0.0087891 -0.1025391,-0.02050781 -0.140625,-0.03515625 -0.032227,-0.01464844 -0.055664,-0.02929688 -0.070312,-0.046875 -0.00879,-0.0234375 -0.011719,-0.04980469 -0.011719,-0.08203125 V -5.08625 c 0,-0.023437 0.00293,-0.046875 0.011719,-0.070312 0.014648,-0.023437 0.038086,-0.041016 0.070312,-0.058594 0.029297,-0.014648 0.070312,-0.023437 0.1171875,-0.023437 0.052734,-0.00586 0.1230469,-0.011719 0.2109375,-0.011719 0.076172,0 0.1435547,0.00586 0.1992187,0.011719 0.052734,0 0.09375,0.00879 0.1171875,0.023437 0.029297,0.017578 0.052734,0.035156 0.070312,0.058594 0.014648,0.023437 0.023437,0.046875 0.023437,0.070312 V -4.43 c 0.272461,-0.3105469 0.5449219,-0.5390625 0.8203129,-0.6796875 0.28125,-0.1464844 0.5625,-0.2226563 0.84375,-0.2226563 0.328125,0 0.603515,0.058594 0.832031,0.1757813 0.225586,0.1113281 0.410156,0.2578125 0.550781,0.4453125 0.140625,0.1875 0.237305,0.4072266 0.292969,0.65625 0.06152,0.2519531 0.09375,0.5507812 0.09375,0.9023437 z m 5.633789,-4.7109375 c 0,0.1259766 -0.02051,0.2197266 -0.05859,0.28125 -0.03223,0.055664 -0.07617,0.082031 -0.128906,0.082031 H 17.40309 c 0.123047,0.1259766 0.210937,0.2695313 0.257812,0.4335938 0.05274,0.1582031 0.08203,0.3222656 0.08203,0.4921875 0,0.2900391 -0.04687,0.5449219 -0.140625,0.7617187 -0.08789,0.2197266 -0.216797,0.4072266 -0.386719,0.5625 -0.172852,0.1494141 -0.375,0.2666016 -0.609375,0.3515625 -0.234375,0.079102 -0.492188,0.1171875 -0.773438,0.1171875 -0.205078,0 -0.395507,-0.026367 -0.574218,-0.082031 -0.181641,-0.052734 -0.322266,-0.1201172 -0.421875,-0.1992188 -0.07031,0.064453 -0.125977,0.1376954 -0.164063,0.2226563 -0.04101,0.087891 -0.05859,0.1845703 -0.05859,0.2929687 0,0.1259766 0.05859,0.2314454 0.175782,0.3164063 0.117187,0.087891 0.272461,0.1347656 0.46875,0.140625 l 1.300781,0.046875 c 0.240234,0.00879 0.462891,0.0439453 0.667969,0.10546875 0.210937,0.0644531 0.389648,0.14941406 0.539062,0.2578125 0.146485,0.11132812 0.263672,0.24609375 0.351563,0.41015625 0.08496,0.1640625 0.128906,0.35449219 0.128906,0.57421875 0,0.22558594 -0.05273,0.43945312 -0.152344,0.64453125 -0.09375,0.2021484 -0.240234,0.3808594 -0.433594,0.5390625 -0.196289,0.1552734 -0.445312,0.2753906 -0.75,0.3632812 -0.304687,0.09375 -0.665039,0.140625 -1.078125,0.140625 -0.398437,0 -0.738281,-0.035156 -1.019531,-0.1054687 C 14.531992,1.8336719 14.300547,1.7457812 14.121836,1.6285937 13.940195,1.5114062 13.811289,1.3707812 13.735117,1.2067187 13.656016,1.0426562 13.61793,0.866875 13.61793,0.679375 c 0,-0.12597656 0.01172,-0.24609375 0.03516,-0.36328125 0.0293,-0.11132813 0.07617,-0.21679688 0.140625,-0.31640625 0.06152,-0.09960938 0.134766,-0.19921875 0.222656,-0.29296875 0.09375,-0.09375 0.199219,-0.1875 0.316406,-0.28125 C 14.151133,-0.65949219 14.019297,-0.77375 13.934336,-0.914375 13.846445,-1.055 13.80543,-1.2073438 13.80543,-1.3714063 c 0,-0.2167968 0.04101,-0.4130859 0.128906,-0.5859375 0.09375,-0.1787109 0.210937,-0.3398437 0.351562,-0.4804687 -0.117187,-0.1318359 -0.210937,-0.2841797 -0.28125,-0.4570313 -0.06445,-0.1699218 -0.09375,-0.3779296 -0.09375,-0.6210937 0,-0.28125 0.04687,-0.5302734 0.140625,-0.75 0.09961,-0.2255859 0.234375,-0.4160156 0.398438,-0.5742188 0.169922,-0.1552734 0.375,-0.2724609 0.609375,-0.3515625 0.234375,-0.084961 0.492187,-0.1289062 0.773437,-0.1289062 0.146485,0 0.28418,0.00879 0.410157,0.023437 0.131836,0.017578 0.257812,0.041016 0.375,0.070312 h 1.488281 c 0.06152,0 0.108398,0.032227 0.140625,0.09375 0.0293,0.064453 0.04687,0.1582031 0.04687,0.28125 z m -1.417969,1.3007812 c 0,-0.3339843 -0.09375,-0.5976562 -0.28125,-0.7851562 -0.18164,-0.1933594 -0.442383,-0.2929688 -0.785156,-0.2929688 -0.172852,0 -0.325195,0.032227 -0.457031,0.09375 -0.125977,0.055664 -0.231446,0.1376954 -0.316407,0.2460938 -0.08789,0.1025391 -0.152343,0.2197266 -0.199218,0.3515625 -0.04102,0.1347656 -0.05859,0.2753906 -0.05859,0.421875 0,0.3222656 0.08789,0.5742187 0.269531,0.7617187 0.1875,0.1875 0.448242,0.28125 0.785156,0.28125 0.178711,0 0.331055,-0.026367 0.457032,-0.082031 0.131836,-0.052734 0.240234,-0.1318359 0.328125,-0.234375 0.09375,-0.099609 0.158203,-0.2167969 0.199218,-0.3515625 0.03809,-0.1318359 0.05859,-0.2695313 0.05859,-0.4101565 z m 0.457031,3.91406255 c 0,-0.2109375 -0.08789,-0.375 -0.257812,-0.4921875 -0.172852,-0.1171875 -0.407227,-0.17871094 -0.703125,-0.1875 L 15.082773,-0.351875 c -0.117187,0.0878906 -0.216796,0.17285156 -0.292968,0.2578125 -0.07031,0.07910156 -0.128907,0.15527344 -0.175782,0.234375 -0.04101,0.0761719 -0.06738,0.15234375 -0.08203,0.22265625 -0.01758,0.0703125 -0.02344,0.14355469 -0.02344,0.22265625 0,0.24023437 0.120117,0.421875 0.363281,0.5390625 0.240234,0.1230469 0.577148,0.1875 1.007812,0.1875 0.272461,0 0.498047,-0.029297 0.679688,-0.082031 0.1875,-0.055664 0.339844,-0.1259765 0.457031,-0.2109375 0.117188,-0.0878906 0.199219,-0.18749995 0.246094,-0.30468745 0.04687,-0.11132813 0.07031,-0.22851563 0.07031,-0.3515625 z m 2.894532,-0.50390625 c 0,0.0322266 -0.0088,0.05859375 -0.02344,0.08203125 -0.01758,0.01757812 -0.04101,0.03222656 -0.07031,0.046875 -0.03223,0.01464844 -0.0791,0.02636719 -0.140625,0.03515625 -0.05566,0.0058594 -0.128907,0.01171875 -0.222657,0.01171875 -0.08789,0 -0.161132,-0.0058594 -0.222656,-0.01171875 -0.05566,-0.0087891 -0.102539,-0.02050781 -0.140625,-0.03515625 -0.03223,-0.01464844 -0.05566,-0.02929688 -0.07031,-0.046875 -0.0088,-0.0234375 -0.01172,-0.04980469 -0.01172,-0.08203125 V -7.476875 c 0,-0.029297 0.0029,-0.052734 0.01172,-0.070312 0.01465,-0.023437 0.03809,-0.041016 0.07031,-0.058594 0.03809,-0.014648 0.08496,-0.026367 0.140625,-0.035156 0.06152,-0.00586 0.134766,-0.011719 0.222656,-0.011719 0.09375,0 0.166993,0.00586 0.222657,0.011719 0.06152,0.00879 0.108398,0.020508 0.140625,0.035156 0.0293,0.017578 0.05273,0.035156 0.07031,0.058594 0.01465,0.017578 0.02344,0.041016 0.02344,0.070312 z m 5.856445,-2.6835938 c 0,0.140625 -0.04102,0.2431641 -0.117187,0.3046875 -0.07031,0.064453 -0.149415,0.09375 -0.234375,0.09375 h -3.246094 c 0,0.2753907 0.02637,0.5214844 0.08203,0.7382813 0.05273,0.2197266 0.143555,0.4101562 0.269531,0.5742187 0.131836,0.15820317 0.298828,0.27832036 0.503907,0.3632813 0.210937,0.0791016 0.46289,0.1171875 0.761718,0.1171875 0.234375,0 0.439453,-0.0175781 0.621094,-0.0585938 0.178711,-0.0380859 0.333984,-0.0820313 0.46875,-0.12890625 0.140625,-0.046875 0.251953,-0.0878906 0.339844,-0.12890625 0.08496,-0.0380859 0.146484,-0.0585937 0.1875,-0.0585937 0.0293,0 0.05273,0.008789 0.07031,0.0234375 0.02344,0.008789 0.03809,0.0292969 0.04687,0.0585938 0.01465,0.0234375 0.02344,0.0585938 0.02344,0.10546875 0.0059,0.046875 0.01172,0.10253906 0.01172,0.1640625 0,0.046875 -0.0059,0.0908203 -0.01172,0.12890625 0,0.0322266 -0.0059,0.0644531 -0.01172,0.09375 0,0.0234375 -0.0088,0.046875 -0.02344,0.0703125 -0.01758,0.0234375 -0.03516,0.046875 -0.05859,0.0703125 -0.01758,0.0175781 -0.07617,0.046875 -0.175781,0.09375 -0.09375,0.046875 -0.219727,0.09375 -0.375,0.140625 -0.158204,0.04101562 -0.339844,0.07324219 -0.550782,0.10546875 -0.205078,0.03808594 -0.421875,0.05859375 -0.65625,0.05859375 -0.407226,0 -0.767578,-0.05566406 -1.078125,-0.1640625 -0.304687,-0.1171875 -0.5625,-0.28417969 -0.773437,-0.50390625 -0.205078,-0.22558594 -0.360352,-0.50683585 -0.46875,-0.84374995 -0.102539,-0.3427734 -0.152344,-0.7382813 -0.152344,-1.1835938 0,-0.421875 0.05273,-0.7998046 0.164063,-1.1367188 0.108398,-0.3427733 0.263671,-0.6328124 0.46875,-0.8671874 0.210937,-0.234375 0.45996,-0.4130859 0.75,-0.5390625 0.295898,-0.1318359 0.624023,-0.1992188 0.984375,-0.1992188 0.389648,0 0.720703,0.064453 0.996093,0.1875 0.272461,0.1259766 0.495117,0.2929688 0.667969,0.5039063 0.178711,0.2109375 0.307617,0.4628905 0.386719,0.7499999 0.08496,0.28125 0.128906,0.5830078 0.128906,0.9023437 z m -0.914062,-0.2695312 c 0.0059,-0.4746094 -0.09961,-0.8466797 -0.316407,-1.1132813 C 24.633555,-4.4798047 24.30543,-4.6175 23.868906,-4.6175 c -0.228515,0 -0.427734,0.043945 -0.597656,0.1289062 -0.164062,0.079102 -0.304687,0.1875 -0.421875,0.328125 -0.111328,0.140625 -0.196289,0.3046875 -0.257812,0.4921875 -0.06445,0.1816407 -0.09961,0.3720704 -0.105469,0.5742188 z m 0,0"
           style="fill:#000000;fill-opacity:1;fill-rule:nonzero;stroke:none"
           aria-label=" Single"
           transform="matrix(1.3333333,0,0,1.3333333,1984.8667,547.90667)"
           clip-path="url(#clipPath118)" />
        <path
           id="path119"
           d="m 5.3908984,-2.6839063 c 0,0.4306641 -0.046875,0.8173829 -0.140625,1.1601563 -0.09375,0.3457031 -0.2314453,0.63867187 -0.4101562,0.87890625 -0.1816406,0.24316406 -0.4072266,0.43066406 -0.6796875,0.5625 -0.2666016,0.12304687 -0.5712891,0.1875 -0.9140625,0.1875 -0.1494141,0 -0.2871094,-0.01757813 -0.4101563,-0.046875 -0.1259765,-0.03222656 -0.2460937,-0.07617188 -0.3632812,-0.140625 -0.1171875,-0.06152344 -0.234375,-0.140625 -0.3515625,-0.234375 -0.1171875,-0.09375 -0.2431641,-0.20214844 -0.375,-0.328125 V 1.8278125 c 0,0.023437 -0.00879,0.046875 -0.023437,0.070312 -0.017578,0.023437 -0.041016,0.041016 -0.070312,0.058594 -0.032227,0.014649 -0.079102,0.026367 -0.140625,0.035156 -0.055664,0.00586 -0.1289063,0.011719 -0.2226563,0.011719 -0.087891,0 -0.1611328,-0.00586 -0.2226562,-0.011719 C 1.0110156,1.9830859 0.96414063,1.9713672 0.92605469,1.9567187 0.89382813,1.9391406 0.87039063,1.9215625 0.85574219,1.898125 0.84695313,1.8746875 0.84402344,1.85125 0.84402344,1.8278125 V -5.08625 c 0,-0.029297 0.00293,-0.052734 0.0117188,-0.070312 0.0146484,-0.023437 0.0380859,-0.041016 0.0703125,-0.058594 0.0292969,-0.014648 0.0703125,-0.023437 0.11718746,-0.023437 0.052734,-0.00586 0.1171875,-0.011719 0.1875,-0.011719 0.076172,0 0.140625,0.00586 0.1875001,0.011719 0.052734,0 0.09668,0.00879 0.1289062,0.023437 0.029297,0.017578 0.052734,0.035156 0.070312,0.058594 0.014649,0.017578 0.023437,0.041016 0.023437,0.070312 v 0.6679687 c 0.1464844,-0.1552734 0.2929688,-0.2871093 0.4335939,-0.3984375 0.140625,-0.1171875 0.28125,-0.2109375 0.421875,-0.28125 0.140625,-0.076172 0.2841797,-0.1347656 0.4335936,-0.1757812 0.1464844,-0.038086 0.3046875,-0.058594 0.46875,-0.058594 0.3574219,0 0.6621094,0.070312 0.9140625,0.2109375 0.2490235,0.140625 0.4511719,0.3339844 0.609375,0.5742188 0.1640625,0.2431641 0.28125,0.5244141 0.3515625,0.84375 0.076172,0.3222656 0.1171875,0.6621094 0.1171884,1.0195314 z m -0.9609375,0.1054688 c 0,-0.2578125 -0.020508,-0.5039063 -0.058594,-0.7382813 -0.041016,-0.234375 -0.1054688,-0.4394531 -0.1992188,-0.6210937 -0.087891,-0.1875 -0.2109375,-0.3339844 -0.375,-0.4453125 -0.1582031,-0.1083984 -0.3515625,-0.1640625 -0.5859375,-0.1640625 -0.1171875,0 -0.234375,0.020508 -0.3515625,0.058594 -0.1113281,0.032227 -0.2226562,0.087891 -0.3398437,0.1640625 -0.1171875,0.070312 -0.2431641,0.1699219 -0.375,0.2929688 C 2.0188281,-3.914375 1.8869922,-3.7649609 1.7463672,-3.58625 v 1.96875 c 0.2490234,0.3046875 0.4833984,0.5390625 0.703125,0.703125 C 2.6750781,-0.75617188 2.9123828,-0.68 3.1643359,-0.68 c 0.225586,0 0.4160157,-0.0527344 0.5742188,-0.1640625 0.1640625,-0.10839844 0.2958984,-0.2519531 0.3984375,-0.4335938 0.099609,-0.1875 0.1757812,-0.3925781 0.2226562,-0.6210937 0.046875,-0.2255859 0.070312,-0.4511719 0.070312,-0.6796875 z m 0,0"
           style="fill:#000000;fill-opacity:1;fill-rule:nonzero;stroke:none"
           aria-label="p"
           transform="matrix(1.3333333,0,0,1.3333333,2020.2267,547.90667)"
           clip-path="url(#clipPath120)" />
        <path
           id="path121"
           d="m 1.7461328,-0.1409375 c 0,0.0322266 -0.00879,0.05859375 -0.023437,0.08203125 -0.017578,0.01757812 -0.041016,0.03222656 -0.070312,0.046875 -0.032226,0.01464844 -0.079101,0.02636719 -0.140625,0.03515625 -0.055664,0.0058594 -0.1289062,0.01171875 -0.2226562,0.01171875 -0.087891,0 -0.1611328,-0.0058594 -0.2226563,-0.01171875 -0.055664,-0.0087891 -0.10253905,-0.02050781 -0.14062499,-0.03515625 -0.0322266,-0.01464844 -0.0556641,-0.02929688 -0.0703125,-0.046875 -0.008789,-0.0234375 -0.0117188,-0.04980469 -0.0117188,-0.08203125 V -7.476875 c 0,-0.029297 0.00293,-0.052734 0.0117188,-0.070312 0.0146484,-0.023437 0.0380859,-0.041016 0.0703125,-0.058594 0.0380859,-0.014648 0.084961,-0.026367 0.14062499,-0.035156 0.061524,-0.00586 0.1347656,-0.011719 0.2226563,-0.011719 0.09375,0 0.1669922,0.00586 0.2226562,0.011719 0.061524,0.00879 0.1083985,0.020508 0.140625,0.035156 0.029297,0.017578 0.052734,0.035156 0.070312,0.058594 0.014649,0.017578 0.023437,0.041016 0.023437,0.070312 z m 5.3642578,0.0117188 c 0,0.04101562 -0.017578,0.0703125 -0.046875,0.09375 -0.032226,0.0234375 -0.076172,0.03808594 -0.1289062,0.046875 -0.046875,0.01464844 -0.1230469,0.0234375 -0.2226563,0.0234375 -0.09375,0 -0.1699218,-0.0087891 -0.2226562,-0.0234375 -0.055664,-0.00878906 -0.099609,-0.0234375 -0.1289063,-0.046875 -0.023437,-0.0234375 -0.035156,-0.05273438 -0.035156,-0.09375 v -0.4921875 c -0.2197266,0.22851562 -0.4628906,0.40722656 -0.7265625,0.5390625 -0.2666016,0.12304687 -0.5478516,0.1875 -0.84375,0.1875 C 4.4971094,0.10515625 4.2627344,0.07 4.0517969,-3.125e-4 3.8408594,-0.06183594 3.6592188,-0.15558594 3.5127344,-0.2815625 3.3633203,-0.41339844 3.2461328,-0.57453125 3.1611719,-0.76203125 c -0.079102,-0.1875 -0.1171875,-0.40136715 -0.1171875,-0.64453125 0,-0.2724609 0.052734,-0.5097656 0.1640625,-0.7148438 0.1171875,-0.2109375 0.28125,-0.3808593 0.4921875,-0.515625 0.2167969,-0.1318359 0.4804687,-0.234375 0.7851562,-0.3046875 0.3046875,-0.070312 0.6503907,-0.1054687 1.0429688,-0.1054687 h 0.6796875 v -0.3867188 c 0,-0.1875 -0.023437,-0.3515625 -0.070312,-0.4921875 C 6.0967188,-4.0725781 6.0322656,-4.195625 5.9385156,-4.289375 5.850625,-4.3889844 5.7392969,-4.4651563 5.5986719,-4.5120313 c -0.140625,-0.052734 -0.3164063,-0.082031 -0.5273438,-0.082031 -0.2197265,0 -0.4189453,0.029297 -0.5976562,0.082031 -0.1816406,0.055664 -0.3369141,0.1142579 -0.46875,0.1757813 -0.1347656,0.064453 -0.2460938,0.1230469 -0.3398438,0.1757812 -0.087891,0.055664 -0.1523437,0.082031 -0.1992187,0.082031 -0.032227,0 -0.058594,-0.00586 -0.082031,-0.023437 -0.017578,-0.014648 -0.032227,-0.038086 -0.046875,-0.070312 -0.017578,-0.029297 -0.029297,-0.064453 -0.035156,-0.1054688 -0.00879,-0.046875 -0.011719,-0.09668 -0.011719,-0.1523437 0,-0.09375 0.00293,-0.1669922 0.011719,-0.2226563 0.014648,-0.052734 0.046875,-0.1054687 0.09375,-0.1523437 0.052734,-0.046875 0.140625,-0.099609 0.2578125,-0.1640625 0.1230469,-0.061523 0.2636719,-0.1201172 0.421875,-0.1757813 0.1552734,-0.052734 0.328125,-0.09668 0.515625,-0.1289062 0.1875,-0.038086 0.375,-0.058594 0.5625,-0.058594 0.3574219,0 0.6591797,0.043945 0.9023437,0.1289063 0.2490235,0.079102 0.4511719,0.1962891 0.609375,0.3515625 0.1552735,0.1582031 0.2695313,0.3515625 0.3398438,0.5859375 0.070312,0.2285156 0.1054687,0.4921875 0.1054687,0.796875 z M 6.2080469,-2.3909375 H 5.4346094 c -0.2519531,0 -0.46875,0.023437 -0.65625,0.070312 -0.1816406,0.041016 -0.3339844,0.1025391 -0.4570313,0.1875 -0.1171875,0.079102 -0.2080078,0.1757812 -0.2695312,0.2929687 -0.055664,0.1113282 -0.082031,0.2431641 -0.082031,0.3984375 0,0.2578125 0.082031,0.46289067 0.2460938,0.60937505 0.1640625,0.14941406 0.3925781,0.22265625 0.6914062,0.22265625 0.234375,0 0.4511719,-0.0585938 0.65625,-0.17578125 C 5.7656641,-0.90851563 5.9795313,-1.0930859 6.2080469,-1.33625 Z m 4.4472661,2.390625 -0.6562505,1.8164062 c -0.023437,0.061524 -0.082031,0.1083985 -0.1757812,0.140625 -0.087891,0.029297 -0.2226563,0.046875 -0.4101563,0.046875 -0.09375,0 -0.1728516,-0.00879 -0.234375,-0.023438 -0.055664,-0.00879 -0.099609,-0.023437 -0.1289062,-0.046875 -0.032227,-0.017578 -0.052734,-0.043945 -0.058594,-0.082031 0,-0.041016 0.011719,-0.082031 0.035156,-0.1289063 L 9.7060938,-3.125e-4 C 9.6738672,-0.01496094 9.6416406,-0.03839844 9.6123438,-0.070625 9.5889063,-0.09992188 9.5683984,-0.13507813 9.55375,-0.17609375 L 7.7959375,-4.89875 c -0.032227,-0.076172 -0.046875,-0.1347656 -0.046875,-0.1757813 0,-0.046875 0.011719,-0.082031 0.035156,-0.1054687 0.029297,-0.029297 0.076172,-0.049805 0.140625,-0.058594 0.070312,-0.00586 0.1582031,-0.011719 0.2695312,-0.011719 0.1083984,0 0.1933594,0.00586 0.2578125,0.011719 0.061523,0 0.1113281,0.00879 0.1523438,0.023437 0.038086,0.017578 0.064453,0.041016 0.082031,0.070312 0.014648,0.023437 0.029297,0.058594 0.046875,0.1054688 l 1.417969,3.9726562 h 0.01172 L 11.5225,-5.0628125 c 0.02344,-0.070312 0.0498,-0.1113281 0.08203,-0.1289063 0.0293,-0.023437 0.07617,-0.038086 0.140625,-0.046875 0.06152,-0.00586 0.152344,-0.011719 0.269532,-0.011719 0.09961,0 0.18164,0.00586 0.246093,0.011719 0.07031,0.00879 0.120117,0.029297 0.152344,0.058594 0.0293,0.023437 0.04687,0.058594 0.04687,0.1054687 0,0.041016 -0.01172,0.09082 -0.03516,0.1523438 z m 6.893554,-2.8242188 c 0,0.140625 -0.04102,0.2431641 -0.117187,0.3046875 -0.07031,0.064453 -0.149414,0.09375 -0.234375,0.09375 h -3.246094 c 0,0.2753907 0.02637,0.5214844 0.08203,0.7382813 0.05274,0.2197266 0.143555,0.4101562 0.269531,0.5742187 0.131836,0.15820317 0.298829,0.27832036 0.503907,0.3632813 0.210937,0.0791016 0.46289,0.1171875 0.761718,0.1171875 0.234375,0 0.439454,-0.0175781 0.621094,-0.0585938 0.178711,-0.0380859 0.333985,-0.0820313 0.46875,-0.12890625 0.140625,-0.046875 0.251953,-0.0878906 0.339844,-0.12890625 0.08496,-0.0380859 0.146484,-0.0585937 0.1875,-0.0585937 0.0293,0 0.05273,0.008789 0.07031,0.0234375 0.02344,0.008789 0.03809,0.0292969 0.04687,0.0585938 0.01465,0.0234375 0.02344,0.0585938 0.02344,0.10546875 0.0059,0.046875 0.01172,0.10253906 0.01172,0.1640625 0,0.046875 -0.0059,0.0908203 -0.01172,0.12890625 0,0.0322266 -0.0059,0.0644531 -0.01172,0.09375 0,0.0234375 -0.0088,0.046875 -0.02344,0.0703125 -0.01758,0.0234375 -0.03516,0.046875 -0.05859,0.0703125 -0.01758,0.0175781 -0.07617,0.046875 -0.175781,0.09375 -0.09375,0.046875 -0.219727,0.09375 -0.375,0.140625 -0.158203,0.04101562 -0.339844,0.07324219 -0.550782,0.10546875 -0.205078,0.03808594 -0.421875,0.05859375 -0.65625,0.05859375 -0.407226,0 -0.767578,-0.05566406 -1.078125,-0.1640625 -0.304687,-0.1171875 -0.5625,-0.28417969 -0.773437,-0.50390625 -0.205078,-0.22558594 -0.360352,-0.50683595 -0.46875,-0.84375005 -0.102539,-0.3427734 -0.152344,-0.7382813 -0.152344,-1.1835938 0,-0.421875 0.05274,-0.7998046 0.164063,-1.1367187 0.108398,-0.3427734 0.263672,-0.6328125 0.46875,-0.8671875 0.210937,-0.234375 0.459961,-0.4130859 0.75,-0.5390625 0.295898,-0.1318359 0.624023,-0.1992188 0.984375,-0.1992188 0.389648,0 0.720703,0.064453 0.996093,0.1875 0.272461,0.1259767 0.495118,0.2929688 0.667969,0.5039063 0.178711,0.2109375 0.307617,0.4628906 0.386719,0.75 0.08496,0.28125 0.128906,0.5830078 0.128906,0.9023437 z m -0.914062,-0.2695312 c 0.0059,-0.4746094 -0.09961,-0.8466797 -0.316407,-1.1132813 C 16.098672,-4.4798047 15.770547,-4.6175 15.334023,-4.6175 c -0.228515,0 -0.427734,0.043945 -0.597656,0.1289062 -0.164062,0.079102 -0.304687,0.1875 -0.421875,0.328125 -0.111328,0.140625 -0.196289,0.3046875 -0.257812,0.4921875 -0.06445,0.1816407 -0.09961,0.3720704 -0.105469,0.5742188 z m 5.077148,-1.6640625 c 0,0.079102 -0.0059,0.1464844 -0.01172,0.1992187 0,0.055664 -0.0059,0.099609 -0.01172,0.1289063 -0.0088,0.032227 -0.02344,0.058594 -0.04687,0.082031 -0.01758,0.017578 -0.03516,0.023437 -0.05859,0.023437 -0.03223,0 -0.07031,-0.00586 -0.117188,-0.023437 -0.04101,-0.023437 -0.08789,-0.041016 -0.140625,-0.058594 -0.05566,-0.014648 -0.114257,-0.029297 -0.175781,-0.046875 -0.06445,-0.014648 -0.134765,-0.023437 -0.210937,-0.023437 -0.09375,0 -0.184571,0.020508 -0.269532,0.058594 -0.08789,0.041016 -0.18164,0.1025391 -0.28125,0.1875 -0.09375,0.079102 -0.196289,0.1875 -0.304687,0.328125 -0.111328,0.140625 -0.228516,0.3134766 -0.351563,0.515625 v 3.2460938 c 0,0.0322266 -0.0088,0.05859375 -0.02344,0.08203125 -0.01758,0.01757812 -0.04102,0.03222656 -0.07031,0.046875 -0.03223,0.01464844 -0.0791,0.02636719 -0.140625,0.03515625 -0.05566,0.0058594 -0.128906,0.01171875 -0.222656,0.01171875 -0.08789,0 -0.161133,-0.0058594 -0.222656,-0.01171875 -0.05566,-0.0087891 -0.102539,-0.02050781 -0.140625,-0.03515625 -0.03223,-0.01464844 -0.05566,-0.02929688 -0.07031,-0.046875 -0.0088,-0.0234375 -0.01172,-0.04980469 -0.01172,-0.08203125 V -5.08625 c 0,-0.023437 0.0029,-0.046875 0.01172,-0.070312 0.01465,-0.023437 0.03809,-0.041016 0.07031,-0.058594 0.0293,-0.014648 0.07031,-0.023437 0.117187,-0.023437 0.05274,-0.00586 0.123047,-0.011719 0.210938,-0.011719 0.07617,0 0.143555,0.00586 0.199219,0.011719 0.05273,0 0.09375,0.00879 0.117187,0.023437 0.0293,0.017578 0.05273,0.035156 0.07031,0.058594 0.01465,0.023437 0.02344,0.046875 0.02344,0.070312 v 0.7265625 c 0.131836,-0.2021484 0.257813,-0.3632813 0.375,-0.4804688 0.117188,-0.1230468 0.228516,-0.2226562 0.339844,-0.2929687 0.108398,-0.076172 0.213867,-0.1289063 0.316406,-0.1523438 0.09961,-0.029297 0.205078,-0.046875 0.316406,-0.046875 0.04687,0 0.09668,0.00586 0.152344,0.011719 0.06152,0.00879 0.123047,0.020508 0.1875,0.035156 0.07031,0.00879 0.131836,0.023437 0.1875,0.046875 0.05273,0.017578 0.09375,0.035156 0.117188,0.058594 0.02344,0.017578 0.03516,0.032227 0.03516,0.046875 0.0059,0.017578 0.01465,0.041016 0.02344,0.070312 0.0059,0.023437 0.01172,0.058594 0.01172,0.1054687 0,0.046875 0,0.1142579 0,0.1992188 z m 0,0"
           style="fill:#000000;fill-opacity:1;fill-rule:nonzero;stroke:none"
           aria-label="layer"
           transform="matrix(1.3333333,0,0,1.3333333,2027.9067,547.90667)"
           clip-path="url(#clipPath122)" />
      </g>
      <g
         id="g123"
         transform="translate(-822.3867,-701.53335)">
        <path
           id="path123"
           d="m 250.05,403.02 c 0,2.51 2.04,4.55 4.55,4.55 h 80.9 c 2.51,0 4.55,-2.04 4.55,-4.55 v -18.2 c 0,-2.51 -2.04,-4.55 -4.55,-4.55 h -80.9 c -2.51,0 -4.55,2.04 -4.55,4.55 z"
           style="fill:#ffffff;fill-opacity:1;fill-rule:evenodd;stroke:#172c51;stroke-width:1;stroke-linecap:butt;stroke-linejoin:miter;stroke-miterlimit:8;stroke-dasharray:none;stroke-opacity:1"
           transform="matrix(1.3333333,0,0,-1.3333333,1627.52,1122.56)" />
      </g>
      <g
         id="g124"
         transform="translate(-822.3867,-701.53335)">
        <path
           id="path124"
           d="m 8.6709766,-0.14007812 c 0,0.0322266 -0.00879,0.05859375 -0.023437,0.08203125 -0.017578,0.01757812 -0.043945,0.03222656 -0.082031,0.046875 -0.032227,0.00878906 -0.076172,0.01464843 -0.1289062,0.0234375 -0.055664,0.01464843 -0.1289063,0.0234375 -0.2226563,0.0234375 -0.087891,0 -0.1611328,-0.0087891 -0.2226562,-0.0234375 C 7.935625,0.00347656 7.88875,-0.00238281 7.8506641,-0.01117187 7.8184375,-0.02582031 7.795,-0.04046875 7.7803516,-0.05804687 7.7627734,-0.08148437 7.7569141,-0.10785156 7.7569141,-0.14007812 V -6.3275781 h -0.011719 l -2.53125,6.21093748 c -0.017578,0.0234375 -0.035156,0.046875 -0.058594,0.0703125 C 5.1377734,-0.02875 5.1114063,-0.01410156 5.0733203,5.46875e-4 5.0323047,0.00640625 4.9854297,0.01519531 4.9326953,0.02398438 c -0.046875,0.0058594 -0.1113281,0.01171875 -0.1875,0.01171875 -0.070312,0 -0.1347656,-0.0058594 -0.1875,-0.01171875 C 4.5020313,0.01519531 4.4551563,0.00640625 4.4170703,5.46875e-4 4.3760547,-0.01410156 4.3467578,-0.02875 4.3233203,-0.04632812 c -0.017578,-0.0234375 -0.029297,-0.046875 -0.035156,-0.0703125 L 1.8623828,-6.3275781 v 6.18749998 c 0,0.0322266 -0.00879,0.05859375 -0.023437,0.08203125 -0.017578,0.01757812 -0.043945,0.03222656 -0.082031,0.046875 -0.032227,0.00878906 -0.079102,0.01464843 -0.140625,0.0234375 -0.055664,0.01464843 -0.1289063,0.0234375 -0.2226563,0.0234375 -0.087891,0 -0.1611328,-0.0087891 -0.2226562,-0.0234375 C 1.1153125,0.00347656 1.0684375,-0.00238281 1.0303516,-0.01117187 0.998125,-0.02582031 0.9746875,-0.04046875 0.96003906,-0.05804687 0.95125,-0.08148437 0.94832031,-0.10785156 0.94832031,-0.14007812 V -6.6791406 c 0,-0.1552735 0.0380859,-0.2636719 0.11718749,-0.328125 0.076172,-0.070312 0.1669922,-0.1054688 0.2695313,-0.1054688 h 0.5742187 c 0.1171875,0 0.2167969,0.011719 0.3046875,0.035156 0.084961,0.023437 0.1582031,0.058594 0.2226563,0.1054687 0.070312,0.046875 0.1230468,0.1113282 0.1640625,0.1875 0.046875,0.070312 0.087891,0.1582032 0.1289062,0.2578125 l 2.0507813,5.1445313 h 0.035156 l 2.1328125,-5.1328125 c 0.046875,-0.1083985 0.09375,-0.2021485 0.140625,-0.28125 0.046875,-0.076172 0.09668,-0.1347656 0.1523438,-0.1757813 0.052734,-0.046875 0.1171875,-0.082031 0.1875,-0.1054687 0.070312,-0.023437 0.1523437,-0.035156 0.2460937,-0.035156 h 0.5976563 c 0.052734,0 0.1054687,0.011719 0.1523437,0.035156 0.052734,0.017578 0.09668,0.043945 0.1289063,0.082031 0.038086,0.032227 0.064453,0.076172 0.082031,0.1289063 0.023437,0.046875 0.035156,0.1113281 0.035156,0.1875 z m 5.8769534,0 c 0,0.0322266 -0.0088,0.05859375 -0.02344,0.08203125 -0.0088,0.01757812 -0.03223,0.03222656 -0.07031,0.046875 -0.03223,0.01464843 -0.07617,0.02636718 -0.128907,0.03515625 -0.04687,0.0058594 -0.111328,0.01171875 -0.1875,0.01171875 -0.08789,0 -0.158203,-0.0058594 -0.210937,-0.01171875 -0.04687,-0.0087891 -0.08789,-0.02050782 -0.117188,-0.03515625 -0.03223,-0.01464844 -0.05566,-0.02929688 -0.07031,-0.046875 -0.0088,-0.0234375 -0.01172,-0.04980469 -0.01172,-0.08203125 v -0.65625 c -0.28125,0.31347656 -0.5625,0.54492187 -0.84375,0.69140625 -0.27539,0.140625 -0.550781,0.2109375 -0.832031,0.2109375 -0.328125,0 -0.606445,-0.05566407 -0.832031,-0.1640625 -0.228516,-0.10839844 -0.410157,-0.2578125 -0.550782,-0.4453125 -0.134765,-0.19335938 -0.231445,-0.41601563 -0.292968,-0.66796873 -0.06445,-0.2490235 -0.09375,-0.553711 -0.09375,-0.9140625 v -3 c 0,-0.023437 0.0059,-0.046875 0.02344,-0.070312 0.01465,-0.023437 0.03809,-0.041016 0.07031,-0.058594 0.03809,-0.014648 0.08496,-0.023437 0.140625,-0.023437 0.06152,-0.00586 0.134765,-0.011719 0.222656,-0.011719 0.09375,0 0.166992,0.00586 0.222656,0.011719 0.06152,0 0.108399,0.00879 0.140625,0.023437 0.0293,0.017578 0.05274,0.035156 0.07031,0.058594 0.01465,0.023437 0.02344,0.046875 0.02344,0.070312 v 2.8828125 c 0,0.290039 0.01758,0.524414 0.05859,0.703125 0.04687,0.1728515 0.111328,0.3222656 0.199219,0.4453125 0.08496,0.11718748 0.193359,0.21093748 0.328125,0.28124998 0.131836,0.0644531 0.284179,0.09375 0.457031,0.09375 0.225586,0 0.451172,-0.0761719 0.679687,-0.234375 0.225586,-0.16406248 0.462891,-0.40136718 0.714844,-0.71484378 v -3.4570312 c 0,-0.023437 0.0059,-0.046875 0.02344,-0.070312 0.01465,-0.023437 0.03809,-0.041016 0.07031,-0.058594 0.03809,-0.014648 0.08496,-0.023437 0.140625,-0.023437 0.06152,-0.00586 0.134766,-0.011719 0.222656,-0.011719 0.08496,0 0.155274,0.00586 0.210938,0.011719 0.06152,0 0.108398,0.00879 0.140625,0.023437 0.03809,0.017578 0.06445,0.035156 0.08203,0.058594 0.01465,0.023437 0.02344,0.046875 0.02344,0.070312 z m 2.43457,0 c 0,0.0322266 -0.0088,0.05859375 -0.02344,0.08203125 -0.01758,0.01757812 -0.04102,0.03222656 -0.07031,0.046875 -0.03223,0.01464843 -0.0791,0.02636718 -0.140625,0.03515625 -0.05566,0.0058594 -0.128906,0.01171875 -0.222656,0.01171875 -0.08789,0 -0.161133,-0.0058594 -0.222656,-0.01171875 -0.05567,-0.0087891 -0.10254,-0.02050782 -0.140625,-0.03515625 -0.03223,-0.01464844 -0.05567,-0.02929688 -0.07031,-0.046875 -0.0088,-0.0234375 -0.01172,-0.04980469 -0.01172,-0.08203125 V -7.4760156 c 0,-0.029297 0.0029,-0.052734 0.01172,-0.070312 0.01465,-0.023437 0.03809,-0.041016 0.07031,-0.058594 0.03808,-0.014648 0.08496,-0.026367 0.140625,-0.035156 0.06152,-0.00586 0.134765,-0.011719 0.222656,-0.011719 0.09375,0 0.166992,0.00586 0.222656,0.011719 0.06152,0.00879 0.108398,0.020508 0.140625,0.035156 0.0293,0.017578 0.05273,0.035156 0.07031,0.058594 0.01465,0.017578 0.02344,0.041016 0.02344,0.070312 z m 5.935547,-5.08593748 c 0.108398,0 0.181641,0.029297 0.222656,0.082031 0.03809,0.046875 0.05859,0.1171875 0.05859,0.2109375 v 4.79296878 c 0,0.0322266 -0.0088,0.05859375 -0.02344,0.08203125 -0.01758,0.01757812 -0.04395,0.03222656 -0.08203,0.046875 -0.03223,0.01464843 -0.0791,0.02636718 -0.140625,0.03515625 -0.05566,0.0058594 -0.123047,0.01171875 -0.199219,0.01171875 -0.09375,0 -0.172851,-0.0058594 -0.234375,-0.01171875 -0.05566,-0.0087891 -0.102539,-0.02050782 -0.140625,-0.03515625 -0.03223,-0.01464844 -0.05566,-0.02929688 -0.07031,-0.046875 -0.01758,-0.0234375 -0.02344,-0.04980469 -0.02344,-0.08203125 V -4.4760156 h -2.554687 v 2.765625 c 0,0.336914 0.0498,0.5947265 0.152344,0.77343748 0.09961,0.17285156 0.28125,0.2578125 0.539062,0.2578125 0.08496,0 0.158203,-0.005859 0.222656,-0.0234375 0.07031,-0.0146484 0.128907,-0.0292969 0.175782,-0.046875 0.05273,-0.0234375 0.09961,-0.0410156 0.140625,-0.0585938 0.03809,-0.0146484 0.07031,-0.0234375 0.09375,-0.0234375 0.02344,0 0.04101,0.005859 0.05859,0.0117188 0.01465,0.008789 0.02637,0.0292969 0.03516,0.0585938 0.0059,0.0234375 0.01465,0.0585938 0.02344,0.10546875 0.0059,0.0410156 0.01172,0.0908203 0.01172,0.15234375 0,0.11132812 -0.0088,0.19628906 -0.02344,0.2578125 -0.01758,0.0556641 -0.04101,0.0996094 -0.07031,0.12890625 -0.02344,0.03222656 -0.06738,0.06445312 -0.128906,0.09375 -0.05566,0.023437495 -0.123047,0.04101562 -0.199219,0.05859375 -0.07031,0.01464843 -0.149414,0.02636718 -0.234375,0.03515625 -0.08789,0.01464843 -0.172852,0.0234375 -0.257813,0.0234375 -0.257812,0 -0.477539,-0.03222657 -0.65625,-0.093750005 -0.18164,-0.070312495 -0.328125,-0.175781245 -0.445312,-0.316406245 -0.117188,-0.140625 -0.205078,-0.31054688 -0.257813,-0.515625 -0.05566,-0.21093758 -0.08203,-0.45996098 -0.08203,-0.75000008 v -2.8945311 h -0.691406 c -0.05566,0 -0.102539,-0.026367 -0.140625,-0.082031 -0.03223,-0.061523 -0.04687,-0.1552734 -0.04687,-0.28125 0,-0.070312 0.0029,-0.1289062 0.01172,-0.1757812 0.01465,-0.052734 0.0293,-0.09668 0.04687,-0.1289063 0.01465,-0.029297 0.03516,-0.049805 0.05859,-0.058594 0.02344,-0.014648 0.04687,-0.023437 0.07031,-0.023437 h 0.691406 V -6.39789 c 0,-0.023437 0.0029,-0.046875 0.01172,-0.070312 0.01465,-0.023437 0.03809,-0.041016 0.07031,-0.058594 0.03809,-0.014648 0.08496,-0.026367 0.140625,-0.035156 0.06152,-0.00586 0.134766,-0.011719 0.222657,-0.011719 0.09375,0 0.166992,0.00586 0.222656,0.011719 0.06152,0.00879 0.108398,0.020508 0.140625,0.035156 0.03809,0.017578 0.06152,0.035156 0.07031,0.058594 0.01465,0.023437 0.02344,0.046875 0.02344,0.070312 v 1.171875 z m 0.386719,-1.5234375 c 0,0.2109375 -0.04395,0.3574219 -0.128907,0.4335937 -0.0791,0.079102 -0.222656,0.1171875 -0.433593,0.1171875 -0.210938,0 -0.360352,-0.035156 -0.445313,-0.1054687 -0.0791,-0.076172 -0.117187,-0.2226563 -0.117187,-0.4335938 0,-0.2109375 0.03809,-0.3544922 0.117187,-0.4335937 0.08496,-0.076172 0.237305,-0.1171875 0.457031,-0.1171875 0.210938,0 0.354493,0.041016 0.433594,0.1171875 0.07617,0.070312 0.117188,0.2109375 0.117188,0.421875 z m -1.851563,1.5234375 z m 7.816406,2.5429687 c 0,0.4306641 -0.04687,0.8173828 -0.140625,1.1601563 -0.09375,0.3457031 -0.231445,0.63867185 -0.410156,0.87890623 -0.18164,0.24316406 -0.407226,0.43066406 -0.679687,0.5625 -0.266602,0.12304687 -0.571289,0.1875 -0.914063,0.1875 -0.149414,0 -0.287109,-0.01757813 -0.410156,-0.046875 -0.125977,-0.03222657 -0.246094,-0.07617188 -0.363281,-0.140625 -0.117188,-0.06152344 -0.234375,-0.140625 -0.351563,-0.234375 -0.117187,-0.09375 -0.243164,-0.20214844 -0.375,-0.328125 V 1.8286719 c 0,0.023437 -0.0088,0.046875 -0.02344,0.070312 -0.01758,0.023437 -0.04102,0.041016 -0.07031,0.058594 -0.03223,0.014648 -0.0791,0.026367 -0.140625,0.035156 -0.05566,0.00586 -0.128906,0.011719 -0.222656,0.011719 -0.08789,0 -0.161133,-0.00586 -0.222656,-0.011719 -0.05566,-0.00879 -0.102539,-0.020508 -0.140625,-0.035156 -0.03223,-0.017578 -0.05566,-0.035156 -0.07031,-0.058594 -0.0088,-0.023437 -0.01172,-0.046875 -0.01172,-0.070312 v -6.9140625 c 0,-0.029297 0.0029,-0.052734 0.01172,-0.070312 0.01465,-0.023437 0.03809,-0.041016 0.07031,-0.058594 0.0293,-0.014648 0.07031,-0.023437 0.117187,-0.023437 0.05274,-0.00586 0.117188,-0.011719 0.1875,-0.011719 0.07617,0 0.140625,0.00586 0.1875,0.011719 0.05274,0 0.09668,0.00879 0.128906,0.023437 0.0293,0.017578 0.05274,0.035156 0.07031,0.058594 0.01465,0.017578 0.02344,0.041016 0.02344,0.070312 v 0.6679687 c 0.146485,-0.1552734 0.292969,-0.2871093 0.433594,-0.3984375 0.140625,-0.1171875 0.28125,-0.2109375 0.421875,-0.28125 0.140625,-0.076172 0.28418,-0.1347656 0.433594,-0.1757812 0.146484,-0.038086 0.304687,-0.058594 0.46875,-0.058594 0.357422,0 0.662109,0.070312 0.914062,0.2109375 0.249024,0.140625 0.451172,0.3339844 0.609375,0.5742188 0.164063,0.243164 0.28125,0.524414 0.351563,0.84375 0.07617,0.3222656 0.117187,0.6621094 0.117187,1.0195314 z m -0.960937,0.1054688 c 0,-0.2578125 -0.02051,-0.5039063 -0.05859,-0.7382813 -0.04101,-0.234375 -0.105469,-0.4394531 -0.199219,-0.6210937 -0.08789,-0.1875 -0.210937,-0.3339844 -0.375,-0.4453125 -0.158203,-0.1083985 -0.351562,-0.1640625 -0.585937,-0.1640625 -0.117188,0 -0.234375,0.020508 -0.351563,0.058594 -0.111328,0.032227 -0.222656,0.087891 -0.339843,0.1640625 -0.117188,0.070312 -0.243164,0.1699219 -0.375,0.2929688 -0.125977,0.1171875 -0.257813,0.2666015 -0.398438,0.4453125 v 1.96875 c 0.249024,0.3046875 0.483399,0.5390625 0.703125,0.70312498 0.225586,0.15820312 0.462891,0.234375 0.714844,0.234375 0.225586,0 0.416016,-0.0527344 0.574219,-0.1640625 0.164062,-0.10839844 0.295898,-0.25195308 0.398437,-0.43359378 0.09961,-0.1875 0.175781,-0.3925781 0.222656,-0.6210937 0.04687,-0.225586 0.07031,-0.4511719 0.07031,-0.6796875 z m 3.079101,2.43749998 c 0,0.0322266 -0.0088,0.05859375 -0.02344,0.08203125 -0.01758,0.01757812 -0.04102,0.03222656 -0.07031,0.046875 -0.03223,0.01464843 -0.0791,0.02636718 -0.140625,0.03515625 -0.05566,0.0058594 -0.128906,0.01171875 -0.222656,0.01171875 -0.08789,0 -0.161133,-0.0058594 -0.222656,-0.01171875 -0.05566,-0.0087891 -0.102539,-0.02050782 -0.140625,-0.03515625 -0.03223,-0.01464844 -0.05566,-0.02929688 -0.07031,-0.046875 -0.0088,-0.0234375 -0.01172,-0.04980469 -0.01172,-0.08203125 V -7.4760156 c 0,-0.029297 0.0029,-0.052734 0.01172,-0.070312 0.01465,-0.023437 0.03809,-0.041016 0.07031,-0.058594 0.03809,-0.014648 0.08496,-0.026367 0.140625,-0.035156 0.06152,-0.00586 0.134766,-0.011719 0.222656,-0.011719 0.09375,0 0.166992,0.00586 0.222656,0.011719 0.06152,0.00879 0.108399,0.020508 0.140625,0.035156 0.0293,0.017578 0.05274,0.035156 0.07031,0.058594 0.01465,0.017578 0.02344,0.041016 0.02344,0.070312 z m 5.364258,0.0117188 c 0,0.04101562 -0.01758,0.0703125 -0.04687,0.09375 -0.03223,0.0234375 -0.07617,0.03808593 -0.128906,0.046875 -0.04687,0.01464843 -0.123047,0.0234375 -0.222656,0.0234375 -0.09375,0 -0.169922,-0.0087891 -0.222656,-0.0234375 -0.05566,-0.00878907 -0.09961,-0.0234375 -0.128907,-0.046875 -0.02344,-0.0234375 -0.03516,-0.05273438 -0.03516,-0.09375 v -0.4921875 c -0.219727,0.22851562 -0.462891,0.40722656 -0.726562,0.5390625 -0.266602,0.12304687 -0.547852,0.1875 -0.84375,0.1875 -0.257813,0 -0.492188,-0.03515625 -0.703125,-0.105468755 -0.210939,-0.061523485 -0.39258,-0.155273485 -0.539064,-0.281250045 -0.149414,-0.13183594 -0.266602,-0.29296875 -0.351562,-0.48046875 -0.0791,-0.1875 -0.117188,-0.40136723 -0.117188,-0.64453123 0,-0.272461 0.05273,-0.5097656 0.164063,-0.7148438 0.117187,-0.2109375 0.28125,-0.3808593 0.492187,-0.515625 0.216797,-0.1318359 0.480469,-0.234375 0.785156,-0.3046875 0.304688,-0.070312 0.650391,-0.1054687 1.042969,-0.1054687 h 0.679688 v -0.3867188 c 0,-0.1875 -0.02344,-0.3515625 -0.07031,-0.4921875 -0.04102,-0.1464843 -0.105469,-0.2695312 -0.199219,-0.3632812 -0.08789,-0.099609 -0.199218,-0.1757813 -0.339843,-0.2226563 -0.140625,-0.052734 -0.316407,-0.082031 -0.527344,-0.082031 -0.219727,0 -0.418946,0.029297 -0.597656,0.082031 -0.181641,0.055664 -0.336915,0.1142578 -0.46875,0.1757813 -0.134766,0.064453 -0.246094,0.1230469 -0.339844,0.1757812 -0.08789,0.055664 -0.152344,0.082031 -0.199219,0.082031 -0.03223,0 -0.05859,-0.00586 -0.08203,-0.023437 -0.01758,-0.014648 -0.03223,-0.038086 -0.04687,-0.070312 -0.01758,-0.029297 -0.0293,-0.064453 -0.03516,-0.1054688 -0.0088,-0.046875 -0.01172,-0.09668 -0.01172,-0.1523437 0,-0.09375 0.0029,-0.1669922 0.01172,-0.2226563 0.01465,-0.052734 0.04687,-0.1054687 0.09375,-0.1523437 0.05273,-0.046875 0.140625,-0.099609 0.257812,-0.1640625 0.123047,-0.061523 0.263672,-0.1201172 0.421875,-0.1757813 0.155273,-0.052734 0.328125,-0.09668 0.515625,-0.1289062 0.1875,-0.038086 0.375,-0.058594 0.5625,-0.058594 0.357422,0 0.65918,0.043945 0.902344,0.1289063 0.249023,0.079102 0.451172,0.196289 0.609375,0.3515625 0.155273,0.1582031 0.269531,0.3515625 0.339844,0.5859375 0.07031,0.2285156 0.105468,0.4921875 0.105468,0.796875 z M 35.849688,-2.3900781 H 35.07625 c -0.251953,0 -0.46875,0.023437 -0.65625,0.070312 -0.181641,0.041016 -0.333984,0.102539 -0.457031,0.1875 -0.117188,0.079102 -0.208008,0.1757812 -0.269531,0.2929687 -0.05566,0.1113282 -0.08203,0.2431641 -0.08203,0.3984375 0,0.2578125 0.08203,0.46289065 0.246094,0.60937503 0.164063,0.14941406 0.392578,0.22265625 0.691406,0.22265625 0.234375,0 0.451172,-0.0585938 0.65625,-0.17578125 0.202149,-0.12304688 0.416016,-0.30761723 0.644532,-0.55078123 z M 40.299883,5.46875e-4 39.643633,1.8169531 c -0.02344,0.061523 -0.08203,0.1083985 -0.175781,0.140625 -0.08789,0.029297 -0.222657,0.046875 -0.410157,0.046875 -0.09375,0 -0.172851,-0.00879 -0.234375,-0.023437 -0.05566,-0.00879 -0.09961,-0.023437 -0.128906,-0.046875 -0.03223,-0.017578 -0.05273,-0.043945 -0.05859,-0.082031 0,-0.041016 0.01172,-0.082031 0.03516,-0.1289063 l 0.67968,-1.722656925 c -0.03223,-0.014648435 -0.06445,-0.038085935 -0.09375,-0.070312495 -0.02344,-0.02929688 -0.04395,-0.06445313 -0.05859,-0.10546875 L 37.440508,-4.8978906 c -0.03223,-0.076172 -0.04687,-0.1347656 -0.04687,-0.1757813 0,-0.046875 0.01172,-0.082031 0.03516,-0.1054687 0.0293,-0.029297 0.07617,-0.049805 0.140625,-0.058594 0.07031,-0.00586 0.158203,-0.011719 0.269531,-0.011719 0.108399,0 0.19336,0.00586 0.257813,0.011719 0.06152,0 0.111328,0.00879 0.152344,0.023437 0.03809,0.017578 0.06445,0.041016 0.08203,0.070312 0.01465,0.023437 0.0293,0.058594 0.04687,0.1054688 l 1.417969,3.9726562 h 0.01172 l 1.359375,-3.9960937 c 0.02344,-0.070312 0.0498,-0.1113281 0.08203,-0.1289063 0.0293,-0.023437 0.07617,-0.038086 0.140625,-0.046875 0.06152,-0.00586 0.152343,-0.011719 0.269531,-0.011719 0.09961,0 0.18164,0.00586 0.246094,0.011719 0.07031,0.00879 0.120117,0.029297 0.152343,0.058594 0.0293,0.023437 0.04687,0.058594 0.04687,0.1054687 0,0.041016 -0.01172,0.09082 -0.03516,0.1523438 z M 47.190508,-2.8236719 c 0,0.140625 -0.04102,0.2431641 -0.117188,0.3046875 -0.07031,0.064453 -0.149414,0.09375 -0.234375,0.09375 h -3.246093 c 0,0.2753907 0.02637,0.5214844 0.08203,0.7382813 0.05273,0.2197265 0.143555,0.4101562 0.269531,0.5742187 0.131836,0.15820315 0.298828,0.27832034 0.503906,0.36328128 0.210938,0.0791016 0.462891,0.1171875 0.761719,0.1171875 0.234375,0 0.439453,-0.0175781 0.621094,-0.0585938 0.178711,-0.0380859 0.333984,-0.0820313 0.46875,-0.12890625 0.140625,-0.046875 0.251953,-0.0878906 0.339844,-0.12890625 0.08496,-0.0380859 0.146484,-0.0585937 0.1875,-0.0585937 0.0293,0 0.05273,0.008789 0.07031,0.0234375 0.02344,0.008789 0.03809,0.0292969 0.04687,0.0585938 0.01465,0.0234375 0.02344,0.0585938 0.02344,0.10546875 0.0059,0.046875 0.01172,0.10253906 0.01172,0.1640625 0,0.046875 -0.0059,0.0908203 -0.01172,0.12890625 0,0.0322266 -0.0059,0.0644531 -0.01172,0.09375 0,0.0234375 -0.0088,0.046875 -0.02344,0.0703125 -0.01758,0.0234375 -0.03516,0.046875 -0.05859,0.0703125 -0.01758,0.0175781 -0.07617,0.046875 -0.175782,0.09375 -0.09375,0.046875 -0.219726,0.09375 -0.375,0.140625 -0.158203,0.04101562 -0.339843,0.07324218 -0.550781,0.10546875 -0.205078,0.03808593 -0.421875,0.05859375 -0.65625,0.05859375 -0.407226,0 -0.767578,-0.05566407 -1.078125,-0.1640625 -0.304687,-0.1171875 -0.5625,-0.28417969 -0.773437,-0.50390625 -0.205079,-0.22558594 -0.360352,-0.50683593 -0.46875,-0.84374993 -0.102539,-0.3427735 -0.152344,-0.7382813 -0.152344,-1.1835938 0,-0.421875 0.05273,-0.7998048 0.164062,-1.1367187 0.108399,-0.3427735 0.263672,-0.6328125 0.46875,-0.8671875 0.210938,-0.234375 0.459961,-0.413086 0.75,-0.5390625 0.295899,-0.131836 0.624024,-0.1992188 0.984375,-0.1992188 0.389649,0 0.720703,0.064453 0.996094,0.1875 0.272461,0.1259766 0.495117,0.2929688 0.667969,0.5039063 0.178711,0.2109375 0.307617,0.4628906 0.386719,0.75 0.08496,0.28125 0.128906,0.5830078 0.128906,0.9023437 z m -0.914063,-0.2695312 c 0.0059,-0.4746094 -0.09961,-0.8466797 -0.316406,-1.1132813 -0.219726,-0.2724609 -0.547851,-0.4101562 -0.984375,-0.4101562 -0.228516,0 -0.427734,0.043945 -0.597656,0.1289062 -0.164063,0.079102 -0.304688,0.1875 -0.421875,0.328125 -0.111328,0.140625 -0.196289,0.3046875 -0.257813,0.4921875 -0.06445,0.1816407 -0.09961,0.3720703 -0.105468,0.5742188 z m 5.077149,-1.6640625 c 0,0.079102 -0.0059,0.1464844 -0.01172,0.1992187 0,0.055664 -0.0059,0.099609 -0.01172,0.1289063 -0.0088,0.032227 -0.02344,0.058594 -0.04687,0.082031 -0.01758,0.017578 -0.03516,0.023437 -0.05859,0.023437 -0.03223,0 -0.07031,-0.00586 -0.117188,-0.023437 -0.04102,-0.023437 -0.08789,-0.041016 -0.140625,-0.058594 -0.05566,-0.014648 -0.114258,-0.029297 -0.175781,-0.046875 -0.06445,-0.014648 -0.134766,-0.023437 -0.210938,-0.023437 -0.09375,0 -0.18457,0.020508 -0.269531,0.058594 -0.08789,0.041016 -0.181641,0.1025391 -0.28125,0.1875 -0.09375,0.079102 -0.196289,0.1875 -0.304687,0.328125 -0.111329,0.140625 -0.228516,0.3134766 -0.351563,0.515625 v 3.24609378 c 0,0.0322266 -0.0088,0.05859375 -0.02344,0.08203125 -0.01758,0.01757812 -0.04102,0.03222656 -0.07031,0.046875 -0.03223,0.01464843 -0.0791,0.02636718 -0.140625,0.03515625 -0.05566,0.0058594 -0.128906,0.01171875 -0.222656,0.01171875 -0.08789,0 -0.161133,-0.0058594 -0.222656,-0.01171875 -0.05566,-0.0087891 -0.10254,-0.02050782 -0.140625,-0.03515625 -0.03223,-0.01464844 -0.05566,-0.02929688 -0.07031,-0.046875 -0.0088,-0.0234375 -0.01172,-0.04980469 -0.01172,-0.08203125 V -5.0853906 c 0,-0.023437 0.0029,-0.046875 0.01172,-0.070312 0.01465,-0.023437 0.03809,-0.041016 0.07031,-0.058594 0.0293,-0.014648 0.07031,-0.023437 0.117187,-0.023437 0.05273,-0.00586 0.123047,-0.011719 0.210938,-0.011719 0.07617,0 0.143554,0.00586 0.199218,0.011719 0.05273,0 0.09375,0.00879 0.117188,0.023437 0.0293,0.017578 0.05273,0.035156 0.07031,0.058594 0.01465,0.023437 0.02344,0.046875 0.02344,0.070312 v 0.7265625 c 0.131836,-0.2021485 0.257812,-0.3632813 0.375,-0.4804688 0.117187,-0.1230468 0.228515,-0.2226562 0.339844,-0.2929687 0.108398,-0.076172 0.213867,-0.1289063 0.316406,-0.1523438 0.09961,-0.029297 0.205078,-0.046875 0.316406,-0.046875 0.04687,0 0.09668,0.00586 0.152344,0.011719 0.06152,0.00879 0.123047,0.020508 0.1875,0.035156 0.07031,0.00879 0.131836,0.023437 0.1875,0.046875 0.05273,0.017578 0.09375,0.035156 0.117187,0.058594 0.02344,0.017578 0.03516,0.032227 0.03516,0.046875 0.0059,0.017578 0.01465,0.041016 0.02344,0.070312 0.0059,0.023437 0.01172,0.058594 0.01172,0.1054687 0,0.046875 0,0.1142578 0,0.1992188 z m 0,0"
           style="fill:#000000;fill-opacity:1;fill-rule:nonzero;stroke:none"
           aria-label="  Multplayer"
           transform="matrix(1.3333333,0,0,1.3333333,1986.6267,600.41333)"
           clip-path="url(#clipPath125)" />
      </g>
    </g>
  </g>
</svg>
