<?xml version="1.0" encoding="UTF-8" standalone="no"?>
<!-- Created with Inkscape (http://www.inkscape.org/) -->

<svg
   width="1920"
   height="1080"
   viewBox="0 0 1920 1080"
   version="1.1"
   id="svg1"
   xmlns="http://www.w3.org/2000/svg"
   xmlns:svg="http://www.w3.org/2000/svg">
  <defs
     id="defs1">
    <clipPath
       clipPathUnits="userSpaceOnUse"
       id="clipPath36">
      <path
         d="m 253.61,641.26 h 86.304 V 657.7 H 253.61 Z"
         transform="matrix(1,0,0,-1,-276.29001,647.26001)"
         clip-rule="evenodd"
         id="path36" />
    </clipPath>
    <clipPath
       clipPathUnits="userSpaceOnUse"
       id="clipPath39">
      <path
         d="m 253.37,599.14 h 86.304 v 16.32 H 253.37 Z"
         transform="matrix(1,0,0,-1,-287.33001,605.02001)"
         clip-rule="evenodd"
         id="path39" />
    </clipPath>
    <clipPath
       clipPathUnits="userSpaceOnUse"
       id="clipPath42">
      <path
         d="m 253.61,557.23 h 86.304 v 16.44 H 253.61 Z"
         transform="matrix(1,0,0,-1,-279.17001,563.23001)"
         clip-rule="evenodd"
         id="path42" />
    </clipPath>
    <clipPath
       clipPathUnits="userSpaceOnUse"
       id="clipPath45">
      <path
         d="m 274.73,510.31 h 43.464 v 17.28 H 274.73 Z"
         transform="matrix(1,0,0,-1,-286.73001,517.15001)"
         clip-rule="evenodd"
         id="path45" />
    </clipPath>
  </defs>
  <g
     id="layer1"
     transform="translate(-55.380657,-10.936883)">
    <g
       id="g1"
       transform="matrix(0.99479168,0,0,0.99479168,5.2884276,2.869456)">
      <g
         id="g33"
         transform="matrix(3.1929047,0,0,3.1929047,-247.09383,-518.17539)">
        <path
           id="path33"
           d="m 71.55,473.79 h 450 v 234 h -450 z"
           style="fill:#d0cece;fill-opacity:1;fill-rule:evenodd;stroke:#c00000;stroke-width:1;stroke-linecap:butt;stroke-linejoin:miter;stroke-miterlimit:10;stroke-dasharray:none;stroke-opacity:1"
           transform="matrix(1.3333333,0,0,-1.3333333,0,1122.56)" />
      </g>
      <g
         id="g34"
         transform="matrix(3.1929047,0,0,3.1929047,-247.09383,-518.17539)">
        <path
           id="path34"
           d="m 251.65,658.55 c 0,2.51 2.04,4.55 4.55,4.55 h 80.9 c 2.51,0 4.55,-2.04 4.55,-4.55 v -18.2 c 0,-2.52 -2.04,-4.55 -4.55,-4.55 h -80.9 c -2.51,0 -4.55,2.03 -4.55,4.55 z"
           style="fill:#ffffff;fill-opacity:1;fill-rule:evenodd;stroke:#172c51;stroke-width:1;stroke-linecap:butt;stroke-linejoin:miter;stroke-miterlimit:10;stroke-dasharray:none;stroke-opacity:1"
           transform="matrix(1.3333333,0,0,-1.3333333,0,1122.56)" />
      </g>
      <g
         id="g35"
         transform="matrix(3.1929047,0,0,3.1929047,-247.09383,-518.17539)">
        <path
           id="path35"
           d="m 5.6953516,-1.0076562 c 0,0.0644531 -0.00586,0.11718745 -0.011719,0.16406245 0,0.0410156 -0.00879,0.0761719 -0.023437,0.10546875 -0.00879,0.0322266 -0.020508,0.0644531 -0.035156,0.09375 -0.00879,0.0234375 -0.032227,0.0556641 -0.070312,0.09375 -0.041016,0.0322266 -0.1171875,0.0878906 -0.234375,0.1640625 C 5.2031651,-0.3074609 5.0566807,-0.23421875 4.8867588,-0.16390625 4.7139063,-0.09359375 4.5146875,-0.035 4.2891016,0.011875 4.0605859,0.06460938 3.8144922,0.09390625 3.5508203,0.09390625 c -0.4628906,0 -0.8789062,-0.07910156 -1.2539062,-0.234375 C 1.9277734,-0.29574219 1.6113672,-0.52132812 1.3476953,-0.82015625 1.0898828,-1.1248437 0.88480469,-1.4939844 0.73832031,-1.9334375 0.59769531,-2.37875 0.52738281,-2.8855859 0.52738281,-3.456875 c 0,-0.5917969 0.0732422,-1.1191406 0.22265625,-1.5820312 0.15527344,-0.459961 0.36914064,-0.8496094 0.64453124,-1.171875 0.28125,-0.319336 0.6123047,-0.5625 0.9960938,-0.7265625 0.3808593,-0.1699219 0.8027343,-0.2578125 1.265625,-0.2578125 0.2021484,0 0.4013672,0.020508 0.5976562,0.058594 0.1933594,0.041016 0.375,0.09082 0.5390625,0.1523438 0.1640625,0.055664 0.3076172,0.1230468 0.4335938,0.1992187 0.1318359,0.070312 0.2226562,0.1347656 0.2695312,0.1875 0.052734,0.046875 0.087891,0.087891 0.1054688,0.1171875 0.014648,0.023437 0.026367,0.055664 0.035156,0.09375 0.00586,0.032227 0.011719,0.070312 0.011719,0.1171875 0.00586,0.046875 0.011719,0.1025391 0.011719,0.1640625 0,0.079102 -0.00586,0.1464844 -0.011719,0.1992188 -0.00879,0.046875 -0.020508,0.09082 -0.035156,0.1289062 -0.00879,0.032227 -0.023437,0.055664 -0.046875,0.070312 -0.017578,0.017578 -0.041016,0.023437 -0.070312,0.023437 -0.055664,0 -0.1289062,-0.035156 -0.2226562,-0.1054687 -0.087891,-0.070312 -0.2050782,-0.1464844 -0.3515625,-0.234375 -0.140625,-0.084961 -0.3164063,-0.1640625 -0.5273438,-0.234375 -0.2050781,-0.076172 -0.4511719,-0.1171875 -0.7382812,-0.1171875 -0.3222657,0 -0.609375,0.067383 -0.8671875,0.1992187 -0.2578125,0.1259766 -0.4804688,0.3105469 -0.6679688,0.5507813 -0.1816406,0.243164 -0.3222656,0.5449218 -0.421875,0.9023437 -0.09375,0.3515625 -0.140625,0.7558594 -0.140625,1.2070313 0,0.4541015 0.046875,0.852539 0.140625,1.1953125 0.099609,0.3457031 0.2402344,0.6328125 0.421875,0.8671875 0.178711,0.234375 0.3984375,0.4101562 0.65625,0.5273437 0.2636719,0.1171875 0.5654297,0.17578125 0.9023438,0.17578125 0.28125,0 0.5273437,-0.0351563 0.7382812,-0.10546875 0.2109375,-0.0703125 0.3896485,-0.1464844 0.5390625,-0.234375 0.1464844,-0.084961 0.2695313,-0.1582031 0.3632813,-0.2226562 0.09375,-0.070312 0.1669922,-0.1054688 0.2226562,-0.1054688 0.029297,0 0.052734,0.00586 0.070312,0.011719 0.014648,0.00879 0.026367,0.029297 0.035156,0.058594 0.014648,0.032227 0.026367,0.076172 0.035156,0.1289063 0.00586,0.055664 0.011719,0.1259765 0.011719,0.2109377 z M 11.323281,-2.66 c 0,0.3984375 -0.05566,0.7705078 -0.164062,1.1132813 -0.102539,0.336914 -0.257813,0.62988276 -0.46875,0.8789062 -0.210938,0.24316406 -0.477539,0.43359375 -0.7968752,0.57421875 C 9.5801172,0.03824219 9.2139063,0.105625 8.7920313,0.105625 8.3848047,0.105625 8.0303125,0.04703125 7.725625,-0.07015625 7.4267969,-0.19320312 7.1777734,-0.36898437 6.975625,-0.5975 6.7793359,-0.831875 6.6299219,-1.113125 6.5303125,-1.44125 6.4277734,-1.769375 6.3779688,-2.144375 6.3779688,-2.56625 c 0,-0.3984375 0.049805,-0.7646484 0.1523437,-1.1015625 C 6.6387109,-4.0105859 6.7998438,-4.3035547 7.0107813,-4.5467187 7.2217188,-4.7957422 7.4824609,-4.9861719 7.7959375,-5.1209375 8.1064844,-5.2615625 8.475625,-5.331875 8.8975,-5.331875 c 0.4042969,0 0.7617188,0.064453 1.0664063,0.1875 0.3046877,0.1171875 0.5537107,0.2929688 0.7499997,0.5273438 0.202149,0.2285156 0.354492,0.5097656 0.457032,0.84375 0.09961,0.328125 0.152343,0.7001953 0.152343,1.1132812 z m -0.949218,0.058594 c 0,-0.2636719 -0.0293,-0.515625 -0.08203,-0.75 C 10.245163,-3.5916404 10.163127,-3.8025779 10.04594,-3.9842185 9.9346114,-4.1629295 9.7822676,-4.3035545 9.5889083,-4.4060935 9.3926192,-4.514492 9.1494551,-4.570156 8.8623458,-4.570156 c -0.2666016,0 -0.4980469,0.046875 -0.6914063,0.140625 -0.1875,0.09375 -0.3457031,0.2314453 -0.46875,0.4101562 -0.1259766,0.1728516 -0.2197266,0.3808594 -0.28125,0.6210938 -0.064453,0.234375 -0.09375,0.4921875 -0.09375,0.7734375 0,0.2753906 0.023437,0.5332031 0.070312,0.7734375 0.052734,0.234375 0.1347656,0.4423828 0.2460938,0.6210937 0.1171875,0.1728516 0.2724609,0.31347656 0.46875,0.421875 0.1933593,0.10253906 0.4365234,0.15234375 0.7265625,0.15234375 0.2636718,0 0.4951171,-0.046875 0.6914062,-0.140625 0.1933594,-0.0996094 0.3544922,-0.23730465 0.480468,-0.41015625 0.123047,-0.1699219 0.213868,-0.375 0.269532,-0.609375 0.06152,-0.2402344 0.09375,-0.5039062 0.09375,-0.7851562 z m 6.46875,2.46093745 c 0,0.0322266 -0.0088,0.05859375 -0.02344,0.08203125 -0.01758,0.01757813 -0.04102,0.03222656 -0.07031,0.046875 -0.03223,0.01464844 -0.0791,0.02636719 -0.140625,0.03515625 -0.05567,0.0058594 -0.125977,0.01171875 -0.210938,0.01171875 -0.09375,0 -0.172852,-0.0058594 -0.234375,-0.01171875 -0.05566,-0.0087891 -0.102539,-0.02050781 -0.140625,-0.03515625 -0.03223,-0.01464844 -0.05566,-0.02929687 -0.07031,-0.046875 -0.0088,-0.0234375 -0.01172,-0.04980469 -0.01172,-0.08203125 V -3.035 c 0,-0.28125 -0.02344,-0.5068359 -0.07031,-0.6796875 C 15.82329,-3.8846094 15.755902,-4.0340234 15.670942,-4.16 c -0.0791,-0.1230469 -0.184571,-0.2167969 -0.316407,-0.28125 -0.134765,-0.070312 -0.290039,-0.1054687 -0.46875,-0.1054687 -0.228515,0 -0.454101,0.082031 -0.679687,0.2460937 -0.228516,0.1640625 -0.465821,0.3984375 -0.714844,0.703125 v 3.45703125 c 0,0.0322266 -0.0088,0.05859375 -0.02344,0.08203125 -0.01758,0.01757813 -0.04102,0.03222656 -0.07031,0.046875 -0.03223,0.01464844 -0.0791,0.02636719 -0.140625,0.03515625 -0.05566,0.0058594 -0.128906,0.01171875 -0.222656,0.01171875 -0.08789,0 -0.161133,-0.0058594 -0.222656,-0.01171875 -0.05566,-0.0087891 -0.10254,-0.02050781 -0.140625,-0.03515625 -0.03223,-0.01464844 -0.05566,-0.02929687 -0.07031,-0.046875 -0.0088,-0.0234375 -0.01172,-0.04980469 -0.01172,-0.08203125 V -5.0857812 c 0,-0.023437 0.0029,-0.046875 0.01172,-0.070312 0.01465,-0.023437 0.03809,-0.041016 0.07031,-0.058594 0.0293,-0.014648 0.07031,-0.023437 0.117187,-0.023437 0.05273,-0.00586 0.123047,-0.011719 0.210938,-0.011719 0.07617,0 0.143554,0.00586 0.199218,0.011719 0.05274,0 0.09375,0.00879 0.117188,0.023437 0.0293,0.017578 0.05273,0.035156 0.07031,0.058594 0.01465,0.023437 0.02344,0.046875 0.02344,0.070312 v 0.65625 c 0.272461,-0.3105469 0.544922,-0.5390625 0.820312,-0.6796875 0.28125,-0.1464844 0.5625,-0.2226563 0.84375,-0.2226563 0.328125,0 0.603516,0.058594 0.832032,0.1757813 0.225585,0.1113281 0.410156,0.2578125 0.550781,0.4453125 0.140625,0.1875 0.237304,0.4072265 0.292969,0.65625 0.06152,0.2519531 0.09375,0.5507812 0.09375,0.9023437 z M 22.532266,-5.226406 c 0.108398,0 0.18164,0.029297 0.222656,0.082031 0.03809,0.046875 0.05859,0.1171875 0.05859,0.2109375 v 4.79296875 c 0,0.0322266 -0.0088,0.05859375 -0.02344,0.08203125 -0.01758,0.01757813 -0.04395,0.03222656 -0.08203,0.046875 -0.03223,0.01464844 -0.0791,0.02636719 -0.140625,0.03515625 -0.05566,0.0058594 -0.123047,0.01171875 -0.199219,0.01171875 -0.09375,0 -0.172851,-0.0058594 -0.234375,-0.01171875 -0.05566,-0.0087891 -0.102539,-0.02050781 -0.140625,-0.03515625 -0.03223,-0.01464844 -0.05566,-0.02929687 -0.07031,-0.046875 -0.01758,-0.0234375 -0.02344,-0.04980469 -0.02344,-0.08203125 V -4.4764062 h -2.554687 v 2.765625 c 0,0.336914 0.0498,0.5947265 0.152343,0.77343745 0.09961,0.17285156 0.28125,0.2578125 0.539063,0.2578125 0.08496,0 0.158203,-0.005859 0.222656,-0.0234375 0.07031,-0.0146484 0.128906,-0.0292969 0.175781,-0.046875 0.05274,-0.0234375 0.09961,-0.0410156 0.140625,-0.0585938 0.03809,-0.0146484 0.07031,-0.0234375 0.09375,-0.0234375 0.02344,0 0.04102,0.005859 0.05859,0.0117188 0.01465,0.008789 0.02637,0.0292969 0.03516,0.0585938 0.0059,0.0234375 0.01465,0.0585938 0.02344,0.10546875 0.0059,0.0410156 0.01172,0.0908203 0.01172,0.15234375 0,0.11132813 -0.0088,0.19628906 -0.02344,0.2578125 -0.01758,0.0556641 -0.04102,0.0996094 -0.07031,0.12890625 -0.02344,0.03222656 -0.06738,0.06445313 -0.128907,0.09375 -0.05566,0.0234375 -0.123046,0.04101563 -0.199218,0.05859375 -0.07031,0.01464844 -0.149414,0.02636719 -0.234375,0.03515625 -0.08789,0.01464844 -0.172852,0.0234375 -0.257813,0.0234375 -0.257812,0 -0.477539,-0.03222656 -0.65625,-0.09375 -0.18164,-0.0703125 -0.328125,-0.17578125 -0.445312,-0.31640625 -0.117188,-0.140625 -0.205078,-0.31054687 -0.257813,-0.515625 -0.05566,-0.21093745 -0.08203,-0.45996085 -0.08203,-0.74999995 v -2.8945312 h -0.691406 c -0.05566,0 -0.102539,-0.026367 -0.140625,-0.082031 -0.03223,-0.061523 -0.04687,-0.1552734 -0.04687,-0.28125 0,-0.070312 0.0029,-0.1289062 0.01172,-0.1757812 0.01465,-0.052734 0.0293,-0.09668 0.04687,-0.1289063 0.01465,-0.029297 0.03516,-0.049805 0.05859,-0.058594 0.02344,-0.014649 0.04687,-0.023437 0.07031,-0.023437 h 0.691406 v -1.171875 c 0,-0.023437 0.0029,-0.046875 0.01172,-0.070312 0.01465,-0.023437 0.03809,-0.041016 0.07031,-0.058594 0.03809,-0.014648 0.08496,-0.026367 0.140625,-0.035156 0.06152,-0.00586 0.134766,-0.011719 0.222656,-0.011719 0.09375,0 0.166993,0.00586 0.222657,0.011719 0.06152,0.00879 0.108398,0.020508 0.140625,0.035156 0.03809,0.017578 0.06152,0.035156 0.07031,0.058594 0.01465,0.023437 0.02344,0.046875 0.02344,0.070312 v 1.171875 z m 0.386718,-1.5234375 c 0,0.2109375 -0.04394,0.3574218 -0.128906,0.4335937 -0.0791,0.079102 -0.222656,0.1171875 -0.433594,0.1171875 -0.210937,0 -0.360351,-0.035156 -0.445312,-0.1054687 -0.0791,-0.076172 -0.117188,-0.2226563 -0.117188,-0.4335938 0,-0.2109375 0.03809,-0.3544922 0.117188,-0.4335937 0.08496,-0.076172 0.237305,-0.1171875 0.457031,-0.1171875 0.210938,0 0.354492,0.041016 0.433594,0.1171875 0.07617,0.070312 0.117187,0.2109375 0.117187,0.421875 z m -1.851562,1.5234375 z m 7.567383,5.08593745 c 0,0.0322266 -0.0088,0.05859375 -0.02344,0.08203125 -0.01758,0.01757813 -0.04102,0.03222656 -0.07031,0.046875 -0.03223,0.01464844 -0.0791,0.02636719 -0.140625,0.03515625 -0.05566,0.0058594 -0.125977,0.01171875 -0.210938,0.01171875 -0.09375,0 -0.172851,-0.0058594 -0.234375,-0.01171875 -0.05566,-0.0087891 -0.102539,-0.02050781 -0.140625,-0.03515625 -0.03223,-0.01464844 -0.05566,-0.02929687 -0.07031,-0.046875 -0.0088,-0.0234375 -0.01172,-0.04980469 -0.01172,-0.08203125 V -3.035 c 0,-0.28125 -0.02344,-0.5068359 -0.07031,-0.6796875 C 27.615273,-3.8846094 27.547891,-4.0340234 27.46293,-4.16 c -0.0791,-0.1230469 -0.184571,-0.2167969 -0.316407,-0.28125 -0.134765,-0.070312 -0.290039,-0.1054687 -0.46875,-0.1054687 -0.228515,0 -0.454101,0.082031 -0.679687,0.2460937 -0.228516,0.1640625 -0.46582,0.3984375 -0.714844,0.703125 v 3.45703125 c 0,0.0322266 -0.0088,0.05859375 -0.02344,0.08203125 -0.01758,0.01757813 -0.04102,0.03222656 -0.07031,0.046875 -0.03223,0.01464844 -0.0791,0.02636719 -0.140625,0.03515625 -0.05566,0.0058594 -0.128906,0.01171875 -0.222656,0.01171875 -0.08789,0 -0.161133,-0.0058594 -0.222656,-0.01171875 C 24.547895,0.01480465 24.501016,0.00308594 24.46293,-0.0115625 24.4307,-0.02621094 24.40727,-0.04085937 24.39262,-0.0584375 24.38382,-0.081875 24.3809,-0.10824219 24.3809,-0.14046875 V -5.0857812 c 0,-0.023437 0.0029,-0.046875 0.01172,-0.070312 0.01465,-0.023437 0.03809,-0.041016 0.07031,-0.058594 0.0293,-0.014648 0.07031,-0.023437 0.117187,-0.023437 0.05273,-0.00586 0.123047,-0.011719 0.210938,-0.011719 0.07617,0 0.143554,0.00586 0.199218,0.011719 0.05274,0 0.09375,0.00879 0.117188,0.023437 0.0293,0.017578 0.05273,0.035156 0.07031,0.058594 0.01465,0.023437 0.02344,0.046875 0.02344,0.070312 v 0.65625 c 0.272461,-0.3105469 0.544922,-0.5390625 0.820312,-0.6796875 0.28125,-0.1464844 0.5625,-0.2226563 0.84375,-0.2226563 0.328125,0 0.603516,0.058594 0.832032,0.1757813 0.225586,0.1113281 0.410156,0.2578125 0.550781,0.4453125 0.140625,0.1875 0.237305,0.4072265 0.292969,0.65625 0.06152,0.2519531 0.09375,0.5507812 0.09375,0.9023437 z m 5.707031,0 c 0,0.0322266 -0.0088,0.05859375 -0.02344,0.08203125 -0.0088,0.01757813 -0.03223,0.03222656 -0.07031,0.046875 -0.03223,0.01464844 -0.07617,0.02636719 -0.128906,0.03515625 -0.04687,0.0058594 -0.111328,0.01171875 -0.1875,0.01171875 -0.08789,0 -0.158203,-0.0058594 -0.210938,-0.01171875 -0.04687,-0.0087891 -0.08789,-0.02050781 -0.117187,-0.03515625 -0.03223,-0.01464844 -0.05566,-0.02929687 -0.07031,-0.046875 -0.0088,-0.0234375 -0.01172,-0.04980469 -0.01172,-0.08203125 v -0.65625 c -0.28125,0.31347656 -0.5625,0.54492188 -0.84375,0.69140625 -0.27539,0.140625 -0.550781,0.2109375 -0.832031,0.2109375 -0.328125,0 -0.606445,-0.05566406 -0.832031,-0.1640625 C 30.785195,-0.16683594 30.603555,-0.31625 30.46293,-0.50375 c -0.134766,-0.19335937 -0.231446,-0.41601562 -0.292969,-0.6679687 -0.06445,-0.2490235 -0.09375,-0.553711 -0.09375,-0.9140625 v -3 c 0,-0.023437 0.0059,-0.046875 0.02344,-0.070312 0.01465,-0.023437 0.03809,-0.041016 0.07031,-0.058594 0.03809,-0.014648 0.08496,-0.023437 0.140625,-0.023437 0.06152,-0.00586 0.134766,-0.011719 0.222656,-0.011719 0.09375,0 0.166992,0.00586 0.222656,0.011719 0.06152,0 0.108399,0.00879 0.140625,0.023437 0.0293,0.017578 0.05274,0.035156 0.07031,0.058594 0.01465,0.023437 0.02344,0.046875 0.02344,0.070312 v 2.8828125 c 0,0.290039 0.01758,0.524414 0.05859,0.703125 0.04687,0.1728515 0.111328,0.3222656 0.199219,0.4453125 0.08496,0.11718745 0.193359,0.21093745 0.328125,0.28124995 0.131836,0.0644531 0.28418,0.09375 0.457031,0.09375 0.225586,0 0.451172,-0.0761719 0.679688,-0.234375 0.225586,-0.16406245 0.46289,-0.40136715 0.714843,-0.71484375 v -3.4570312 c 0,-0.023437 0.0059,-0.046875 0.02344,-0.070312 0.01465,-0.023437 0.03809,-0.041016 0.07031,-0.058594 0.03809,-0.014648 0.08496,-0.023437 0.140625,-0.023437 0.06152,-0.00586 0.134766,-0.011719 0.222657,-0.011719 0.08496,0 0.155273,0.00586 0.210937,0.011719 0.06152,0 0.108399,0.00879 0.140625,0.023437 0.03809,0.017578 0.06445,0.035156 0.08203,0.058594 0.01465,0.023437 0.02344,0.046875 0.02344,0.070312 z m 5.750977,-2.68359375 c 0,0.140625 -0.04102,0.2431641 -0.117188,0.3046875 -0.07031,0.064453 -0.149414,0.09375 -0.234375,0.09375 h -3.246094 c 0,0.2753906 0.02637,0.5214844 0.08203,0.7382813 0.05273,0.2197265 0.143554,0.4101562 0.269531,0.5742187 0.131836,0.15820313 0.298828,0.27832031 0.503906,0.36328125 0.210938,0.0791016 0.462891,0.1171875 0.761719,0.1171875 0.234375,0 0.439453,-0.0175781 0.621094,-0.0585938 0.17871,-0.0380859 0.333984,-0.0820313 0.46875,-0.12890625 0.140625,-0.046875 0.251953,-0.0878906 0.339843,-0.12890625 0.08496,-0.0380859 0.146485,-0.0585937 0.1875,-0.0585937 0.0293,0 0.05273,0.008789 0.07031,0.0234374 0.02344,0.008789 0.03809,0.0292969 0.04687,0.0585938 0.01465,0.0234375 0.02344,0.0585938 0.02344,0.10546875 0.0059,0.046875 0.01172,0.10253906 0.01172,0.1640625 0,0.046875 -0.0059,0.0908203 -0.01172,0.12890625 0,0.0322266 -0.0059,0.0644531 -0.01172,0.09375 0,0.0234375 -0.0088,0.046875 -0.02344,0.0703125 -0.01758,0.0234375 -0.03516,0.046875 -0.05859,0.0703125 -0.01758,0.0175781 -0.07617,0.046875 -0.175781,0.09375 -0.09375,0.046875 -0.219727,0.09375 -0.375,0.140625 -0.158203,0.04101563 -0.339844,0.07324219 -0.550781,0.10546875 -0.205078,0.03808594 -0.421875,0.05859375 -0.65625,0.05859375 -0.407227,0 -0.767578,-0.05566406 -1.078125,-0.1640625 -0.304688,-0.1171875 -0.5625,-0.28417969 -0.773438,-0.50390625 -0.205078,-0.22558594 -0.360351,-0.506836 -0.46875,-0.84375 -0.102539,-0.3427735 -0.152343,-0.7382813 -0.152343,-1.1835938 0,-0.421875 0.05273,-0.7998047 0.164062,-1.1367187 0.108398,-0.3427735 0.263672,-0.6328125 0.46875,-0.8671875 0.210938,-0.234375 0.459961,-0.413086 0.75,-0.5390625 0.295898,-0.131836 0.624023,-0.1992187 0.984375,-0.1992187 0.389648,0 0.720703,0.064453 0.996094,0.1875 0.272461,0.1259765 0.495117,0.2929687 0.667969,0.5039062 0.17871,0.2109375 0.307617,0.4628906 0.386718,0.75 0.08496,0.28125 0.128907,0.5830078 0.128907,0.9023437 z M 39.17875,-3.0935937 c 0.0059,-0.4746094 -0.09961,-0.8466797 -0.316406,-1.1132813 -0.219727,-0.2724609 -0.547852,-0.4101562 -0.984375,-0.4101562 -0.228516,0 -0.427735,0.043945 -0.597656,0.1289062 -0.164063,0.079102 -0.304688,0.1875 -0.421875,0.328125 -0.111329,0.140625 -0.19629,0.3046875 -0.257813,0.4921875 -0.06445,0.1816406 -0.09961,0.3720703 -0.105469,0.5742188 z m 0,0"
           style="fill:#000000;fill-opacity:1;fill-rule:nonzero;stroke:none"
           aria-label="                                Contnue"
           transform="matrix(1.3333333,0,0,1.3333333,368.38667,259.54667)"
           clip-path="url(#clipPath36)" />
      </g>
      <g
         id="g37"
         transform="matrix(3.1929047,0,0,3.1929047,-247.09383,-518.17539)">
        <path
           id="path37"
           d="m 251.45,616.44 c 0,2.51 2.04,4.55 4.55,4.55 h 80.9 c 2.51,0 4.55,-2.04 4.55,-4.55 v -18.2 c 0,-2.51 -2.04,-4.55 -4.55,-4.55 H 256 c -2.51,0 -4.55,2.04 -4.55,4.55 z"
           style="fill:#ffffff;fill-opacity:1;fill-rule:evenodd;stroke:#172c51;stroke-width:1;stroke-linecap:butt;stroke-linejoin:miter;stroke-miterlimit:10;stroke-dasharray:none;stroke-opacity:1"
           transform="matrix(1.3333333,0,0,-1.3333333,0,1122.56)" />
      </g>
      <g
         id="g38"
         transform="matrix(3.1929047,0,0,3.1929047,-247.09383,-518.17539)">
        <path
           id="path38"
           d="m 5.3076953,-5.0269531 c 0,0.3603515 -0.058594,0.6855468 -0.1757812,0.9726562 -0.1171875,0.28125 -0.2871094,0.5244141 -0.5039063,0.7265625 -0.2109375,0.1962891 -0.477539,0.3486328 -0.796875,0.4570313 -0.3222656,0.1113281 -0.7001953,0.1640625 -1.1367187,0.1640625 H 1.8858203 v 2.56640622 c 0,0.0322266 -0.00879,0.05859375 -0.023437,0.08203125 -0.017578,0.01757813 -0.043945,0.03222657 -0.082031,0.046875 -0.032227,0.00878907 -0.079102,0.01464844 -0.140625,0.0234375 -0.055664,0.01464844 -0.1289063,0.0234375 -0.2226563,0.0234375 -0.09375,0 -0.1728515,-0.0087891 -0.234375,-0.0234375 C 1.1270313,0.00332031 1.0801563,-0.00253906 1.0420703,-0.01132813 1.0010547,-0.02597656 0.9746875,-0.040625 0.96003906,-0.05820313 0.95125,-0.08164063 0.94832031,-0.10800781 0.94832031,-0.14023438 V -6.7027344 c 0,-0.1464844 0.0351563,-0.2519531 0.10546879,-0.3164062 0.076172,-0.061523 0.1669922,-0.09375 0.2695312,-0.09375 h 1.5117188 c 0.1552734,0 0.3046875,0.00879 0.4453125,0.023437 0.140625,0.017578 0.3046875,0.043945 0.4921875,0.082031 0.1933593,0.041016 0.3896484,0.1171875 0.5859375,0.234375 0.2021484,0.1171875 0.375,0.2636719 0.515625,0.4335938 0.140625,0.1640625 0.2460937,0.3603515 0.3164062,0.5859375 0.076172,0.2197265 0.1171875,0.4628906 0.1171875,0.7265632 z m -0.9960937,0.082031 c 0,-0.2871094 -0.055664,-0.5302734 -0.1640625,-0.7265625 C 4.045,-5.8648438 3.9131641,-6.0113281 3.7491016,-6.1050781 3.5908984,-6.1988281 3.4268359,-6.2574219 3.2569141,-6.2808594 3.0840625,-6.3101563 2.92,-6.3277344 2.7647266,-6.3277344 H 1.8858203 v 2.8476563 h 0.8554688 c 0.28125,0 0.515625,-0.035156 0.703125,-0.1054688 0.1933593,-0.070312 0.3544922,-0.1699219 0.4804687,-0.3046875 0.131836,-0.1318359 0.2285156,-0.2871094 0.2929688,-0.46875 0.061523,-0.1787109 0.09375,-0.375 0.09375,-0.5859377 z m 3.1875,4.80468752 c 0,0.0322266 -0.00879,0.05859375 -0.023437,0.08203125 -0.017578,0.01757813 -0.041016,0.03222657 -0.070312,0.046875 C 7.373125,0.00332031 7.32625,0.01503906 7.2647266,0.02382812 7.2090625,0.0296875 7.1358203,0.03554687 7.0420703,0.03554687 c -0.087891,0 -0.1611328,-0.0058594 -0.2226562,-0.01171875 C 6.76375,0.01503906 6.716875,0.00332031 6.6787891,-0.01132813 6.6465625,-0.02597656 6.623125,-0.040625 6.6084766,-0.05820313 6.5996875,-0.08164063 6.5967578,-0.10800781 6.5967578,-0.14023438 V -7.4761719 c 0,-0.029297 0.00293,-0.052734 0.011719,-0.070312 0.014648,-0.023437 0.038086,-0.041016 0.070312,-0.058594 0.038086,-0.014648 0.084961,-0.026367 0.140625,-0.035156 0.061523,-0.00586 0.1347656,-0.011719 0.2226562,-0.011719 0.09375,0 0.1669922,0.00586 0.2226563,0.011719 0.061523,0.00879 0.1083984,0.020508 0.140625,0.035156 0.029297,0.017578 0.052734,0.035156 0.070312,0.058594 0.014648,0.017578 0.023437,0.041016 0.023437,0.070312 z m 5.3613284,0.0117188 c 0,0.04101563 -0.01758,0.0703125 -0.04687,0.09375 -0.03223,0.0234375 -0.07617,0.03808594 -0.128907,0.046875 -0.04687,0.01464844 -0.123046,0.0234375 -0.222656,0.0234375 -0.09375,0 -0.169922,-0.0087891 -0.222656,-0.0234375 -0.05566,-0.00878906 -0.09961,-0.0234375 -0.128906,-0.046875 -0.02344,-0.0234375 -0.03516,-0.05273437 -0.03516,-0.09375 v -0.4921875 c -0.219726,0.22851563 -0.46289,0.40722657 -0.726562,0.5390625 -0.266602,0.12304688 -0.547852,0.1875 -0.84375,0.1875 -0.257813,0 -0.492188,-0.03515625 -0.7031251,-0.105468745 C 9.5908984,-0.06113281 9.4092578,-0.15488281 9.2627734,-0.28085938 9.1133594,-0.41269531 8.9961719,-0.57382813 8.9112109,-0.76132813 c -0.079102,-0.1875 -0.1171875,-0.40136717 -0.1171875,-0.64453127 0,-0.2724609 0.052734,-0.5097656 0.1640625,-0.7148437 0.1171875,-0.2109375 0.28125,-0.3808594 0.4921875,-0.515625 0.2167969,-0.131836 0.4804688,-0.234375 0.7851566,-0.3046875 0.304687,-0.070312 0.65039,-0.1054688 1.042968,-0.1054688 h 0.679688 v -0.3867187 c 0,-0.1875 -0.02344,-0.3515625 -0.07031,-0.4921875 -0.04101,-0.1464844 -0.105468,-0.2695313 -0.199218,-0.3632813 -0.08789,-0.099609 -0.199219,-0.1757812 -0.339844,-0.2226562 -0.140625,-0.052734 -0.316406,-0.082031 -0.527344,-0.082031 -0.219726,0 -0.418945,0.029297 -0.597656,0.082031 -0.181641,0.055664 -0.3369141,0.1142578 -0.4687501,0.1757812 -0.1347656,0.064453 -0.2460937,0.1230469 -0.3398437,0.1757813 -0.087891,0.055664 -0.1523438,0.082031 -0.1992188,0.082031 -0.032227,0 -0.058594,-0.00586 -0.082031,-0.023437 -0.017578,-0.014648 -0.032227,-0.038086 -0.046875,-0.070312 -0.017578,-0.029297 -0.029297,-0.064453 -0.035156,-0.1054687 -0.00879,-0.046875 -0.011719,-0.09668 -0.011719,-0.1523438 0,-0.09375 0.00293,-0.1669922 0.011719,-0.2226562 0.014648,-0.052734 0.046875,-0.1054688 0.09375,-0.1523438 0.052734,-0.046875 0.140625,-0.099609 0.2578125,-0.1640625 0.1230469,-0.061523 0.2636719,-0.1201172 0.421875,-0.1757812 0.1552735,-0.052734 0.3281251,-0.09668 0.5156251,-0.1289063 0.1875,-0.038086 0.375,-0.058594 0.5625,-0.058594 0.357422,0 0.65918,0.043945 0.902344,0.1289062 0.249024,0.079102 0.451172,0.1962891 0.609375,0.3515625 0.155274,0.1582031 0.269531,0.3515625 0.339844,0.5859375 0.07031,0.2285156 0.105469,0.4921875 0.105469,0.796875 z M 11.958086,-2.3902344 h -0.773438 c -0.251953,0 -0.46875,0.023437 -0.65625,0.070312 -0.18164,0.041016 -0.333984,0.1025391 -0.457031,0.1875 -0.1171873,0.079102 -0.2080076,0.1757813 -0.2695311,0.2929688 -0.055664,0.1113281 -0.082031,0.243164 -0.082031,0.3984375 0,0.2578125 0.082031,0.4628906 0.2460937,0.60937497 0.1640624,0.14941407 0.3925784,0.22265625 0.6914064,0.22265625 0.234375,0 0.451172,-0.0585938 0.65625,-0.17578125 C 11.515703,-0.907813 11.72957,-1.0923833 11.958086,-1.3355474 Z M 16.408281,3.90625e-4 15.752031,1.8167969 c -0.02344,0.061523 -0.08203,0.1083984 -0.175781,0.140625 -0.08789,0.029297 -0.222656,0.046875 -0.410156,0.046875 -0.09375,0 -0.172852,-0.00879 -0.234375,-0.023437 -0.05566,-0.00879 -0.09961,-0.023437 -0.128906,-0.046875 -0.03223,-0.017578 -0.05274,-0.043945 -0.05859,-0.082031 0,-0.041016 0.01172,-0.082031 0.03516,-0.1289062 l 0.67968,-1.722657075 c -0.03223,-0.014648435 -0.06445,-0.038085935 -0.09375,-0.070312505 -0.02344,-0.02929687 -0.04395,-0.06445312 -0.05859,-0.10546875 L 13.548906,-4.8980469 c -0.03223,-0.076172 -0.04687,-0.1347656 -0.04687,-0.1757812 0,-0.046875 0.01172,-0.082031 0.03516,-0.1054688 0.0293,-0.029297 0.07617,-0.049805 0.140625,-0.058594 0.07031,-0.00586 0.158203,-0.011719 0.269531,-0.011719 0.108398,0 0.193359,0.00586 0.257812,0.011719 0.06152,0 0.111328,0.00879 0.152344,0.023437 0.03809,0.017578 0.06445,0.041016 0.08203,0.070312 0.01465,0.023437 0.0293,0.058594 0.04687,0.1054687 l 1.417969,3.9726563 h 0.01172 l 1.359375,-3.9960938 c 0.02344,-0.070312 0.0498,-0.1113281 0.08203,-0.1289062 0.0293,-0.023437 0.07617,-0.038086 0.140625,-0.046875 0.06152,-0.00586 0.152344,-0.011719 0.269531,-0.011719 0.09961,0 0.181641,0.00586 0.246094,0.011719 0.07031,0.00879 0.120117,0.029297 0.152344,0.058594 0.0293,0.023437 0.04687,0.058594 0.04687,0.1054688 0,0.041016 -0.01172,0.09082 -0.03516,0.1523437 z m 0,0"
           style="fill:#000000;fill-opacity:1;fill-rule:nonzero;stroke:none"
           aria-label="  Play"
           transform="matrix(1.3333333,0,0,1.3333333,383.10667,315.86667)"
           clip-path="url(#clipPath39)" />
      </g>
      <g
         id="g40"
         transform="matrix(3.1929047,0,0,3.1929047,-247.09383,-518.17539)">
        <path
           id="path40"
           d="m 251.7,574.6 c 0,2.51 2.04,4.55 4.55,4.55 h 80.9 c 2.51,0 4.55,-2.04 4.55,-4.55 v -18.2 c 0,-2.52 -2.04,-4.55 -4.55,-4.55 h -80.9 c -2.51,0 -4.55,2.03 -4.55,4.55 z"
           style="fill:#ffffff;fill-opacity:1;fill-rule:evenodd;stroke:#172c51;stroke-width:1;stroke-linecap:butt;stroke-linejoin:miter;stroke-miterlimit:10;stroke-dasharray:none;stroke-opacity:1"
           transform="matrix(1.3333333,0,0,-1.3333333,0,1122.56)" />
      </g>
      <g
         id="g41"
         transform="matrix(3.1929047,0,0,3.1929047,-247.09383,-518.17539)">
        <path
           id="path41"
           d="m 4.7577344,-1.9927344 c 0,0.328125 -0.064453,0.6269532 -0.1875,0.890625 -0.1171875,0.25781253 -0.2871094,0.47753909 -0.5039063,0.65625003 -0.2197265,0.18164062 -0.477539,0.31640625 -0.7734375,0.41015625 -0.290039,0.09375 -0.6064453,0.140625 -0.9492187,0.140625 -0.234375,0 -0.4541016,-0.02050782 -0.65625,-0.05859375 -0.2050782,-0.04101563 -0.3867188,-0.08496094 -0.5507813,-0.140625 -0.1582031,-0.06152344 -0.29003904,-0.12304688 -0.39843748,-0.1875 -0.11132812,-0.0615234 -0.1875,-0.1171875 -0.234375,-0.1640625 -0.0410156,-0.046875 -0.0703125,-0.0996094 -0.09375,-0.1640625 C 0.3925,-0.68023437 0.38664062,-0.768125 0.38664062,-0.87945312 c 0,-0.0849609 0.00293,-0.15234378 0.0117188,-0.19921878 0.005859,-0.052734 0.0175781,-0.09668 0.0351563,-0.1289062 0.0146484,-0.038086 0.0351563,-0.061523 0.0585938,-0.070312 0.0234375,-0.014648 0.046875,-0.023437 0.0703125,-0.023437 0.0527344,0 0.12890625,0.032227 0.22265625,0.09375 0.09375,0.064453 0.2109375,0.1347656 0.35156243,0.21093748 0.1464844,0.0703125 0.3222656,0.13769531 0.5273438,0.19921875 0.2109375,0.0644531 0.4511719,0.09375 0.7265626,0.09375 0.2021484,0 0.3896484,-0.0263672 0.5625,-0.0820313 0.1699218,-0.0527344 0.3164061,-0.13183594 0.4335936,-0.23437503 0.1230469,-0.099609 0.2167969,-0.2226562 0.28125,-0.3632812 0.070312,-0.1464843 0.1054689,-0.3164063 0.1054689,-0.5039063 0,-0.2021485 -0.046875,-0.375 -0.140625,-0.515625 -0.087891,-0.1464844 -0.2080078,-0.272461 -0.3632814,-0.375 -0.149414,-0.1083985 -0.3222656,-0.2050781 -0.515625,-0.2929688 -0.1875,-0.09375 -0.383789,-0.1875 -0.5859375,-0.28125 C 1.9628125,-3.4458594 1.7694531,-3.5454687 1.5819531,-3.6567969 1.3944531,-3.7739844 1.2216016,-3.90875 1.0663281,-4.0669531 0.91691406,-4.2222266 0.79679687,-4.4009375 0.70304687,-4.6060156 c -0.09375,-0.2109375 -0.140625,-0.459961 -0.140625,-0.75 0,-0.2958985 0.0527344,-0.5566406 0.1640625,-0.7851563 0.10839844,-0.234375 0.2578125,-0.4277343 0.44531253,-0.5859375 0.1933593,-0.1552734 0.4248047,-0.2724609 0.6914062,-0.3515625 0.2636719,-0.084961 0.553711,-0.1289062 0.8671875,-0.1289062 0.1552735,0 0.3105469,0.017578 0.46875,0.046875 0.1552735,0.023437 0.3046875,0.058594 0.4453125,0.1054687 0.1464844,0.041016 0.2753906,0.09082 0.3867188,0.1523438 0.1083984,0.055664 0.1787109,0.102539 0.2109375,0.140625 0.038086,0.032227 0.061523,0.058594 0.070312,0.082031 0.00586,0.017578 0.014648,0.041016 0.023437,0.070312 0.00586,0.032227 0.011719,0.070312 0.011719,0.1171875 0.00586,0.041016 0.011719,0.09375 0.011719,0.1640625 0,0.064453 -0.00586,0.1230469 -0.011719,0.1757813 0,0.055664 -0.00879,0.099609 -0.023437,0.1289062 -0.00879,0.032227 -0.023437,0.058594 -0.046875,0.082031 -0.017578,0.017578 -0.035156,0.023437 -0.058594,0.023437 -0.046875,0 -0.1142578,-0.023437 -0.1992188,-0.070312 -0.087891,-0.052734 -0.1933594,-0.1113281 -0.3164062,-0.1757813 -0.1259766,-0.070312 -0.2753907,-0.1289062 -0.4453125,-0.1757812 -0.1640625,-0.052734 -0.3515625,-0.082031 -0.5625,-0.082031 -0.2050782,0 -0.3808594,0.029297 -0.5273438,0.082031 -0.140625,0.046875 -0.2578125,0.1171875 -0.3515625,0.2109375 -0.09375,0.087891 -0.1699219,0.1933594 -0.2226562,0.3164062 -0.046875,0.1171875 -0.070312,0.2431641 -0.070312,0.375 0,0.1962891 0.046875,0.3691407 0.140625,0.515625 0.09375,0.140625 0.2138672,0.2666016 0.3632812,0.375 0.1552735,0.1113282 0.328125,0.2109375 0.515625,0.3046875 0.1933594,0.087891 0.3925781,0.1757813 0.5976563,0.2695313 0.2021484,0.09375 0.4013672,0.1992187 0.5976562,0.3164062 0.1933594,0.1113282 0.366211,0.2431641 0.515625,0.3984375 0.1552735,0.1494141 0.2753906,0.328125 0.3632813,0.5390625 0.09375,0.2050782 0.140625,0.4453125 0.140625,0.7265635 z m 5.3730466,-0.8320312 c 0,0.140625 -0.04102,0.243164 -0.117187,0.3046875 -0.070313,0.064453 -0.1494143,0.09375 -0.2343753,0.09375 H 6.533125 c 0,0.2753906 0.026367,0.5214844 0.082031,0.7382812 0.052734,0.2197266 0.1435547,0.4101563 0.2695313,0.5742188 0.1318359,0.1582031 0.2988281,0.27832029 0.5039062,0.36328123 0.2109375,0.0791016 0.4628907,0.1171875 0.7617188,0.1171875 0.234375,0 0.4394531,-0.0175781 0.6210937,-0.0585938 0.178711,-0.0380859 0.3339844,-0.0820313 0.46875,-0.12890625 0.140625,-0.046875 0.2519532,-0.0878906 0.3398438,-0.12890625 0.084961,-0.0380859 0.1464844,-0.0585938 0.1875,-0.0585938 0.029297,0 0.052734,0.008789 0.070312,0.0234375 0.023437,0.008789 0.038086,0.0292969 0.046875,0.0585938 0.014648,0.0234375 0.023437,0.0585938 0.023437,0.10546875 0.00586,0.046875 0.011719,0.10253906 0.011719,0.1640625 0,0.046875 -0.00586,0.0908203 -0.011719,0.12890625 0,0.0322266 -0.00586,0.0644531 -0.011719,0.09375 0,0.0234375 -0.00879,0.046875 -0.023437,0.0703125 -0.017578,0.0234375 -0.035156,0.046875 -0.058594,0.0703125 -0.017578,0.0175781 -0.076172,0.046875 -0.1757813,0.09375 -0.09375,0.046875 -0.2197265,0.09375 -0.375,0.140625 -0.1582019,0.04101567 -0.3398425,0.07324223 -0.55078,0.1054688 -0.2050781,0.03808593 -0.421875,0.05859375 -0.65625,0.05859375 -0.4072266,0 -0.7675781,-0.05566407 -1.078125,-0.1640625 C 6.67375,-0.17632812 6.4159375,-0.34332031 6.205,-0.56304687 5.9999219,-0.78863281 5.8446484,-1.0698828 5.73625,-1.4067969 5.6337109,-1.7495703 5.5839062,-2.1450781 5.5839062,-2.5903906 c 0,-0.421875 0.052734,-0.7998047 0.1640625,-1.1367188 0.1083985,-0.3427734 0.2636719,-0.6328125 0.46875,-0.8671875 0.2109375,-0.234375 0.459961,-0.4130859 0.75,-0.5390625 0.2958985,-0.1318359 0.6240235,-0.1992187 0.984375,-0.1992187 0.3896485,0 0.7207032,0.064453 0.9960938,0.1875 0.2724609,0.1259765 0.4951172,0.2929687 0.6679687,0.5039062 0.178711,0.2109375 0.3076172,0.4628907 0.3867188,0.75 0.08496,0.28125 0.128906,0.5830078 0.128906,0.9023438 z M 9.2167187,-3.0942969 c 0.00586,-0.4746093 -0.099609,-0.8466797 -0.3164062,-1.1132812 -0.2197266,-0.272461 -0.5478516,-0.4101563 -0.984375,-0.4101563 -0.2285156,0 -0.4277344,0.043945 -0.5976563,0.1289063 -0.1640625,0.079102 -0.3046875,0.1875 -0.421875,0.328125 -0.1113281,0.140625 -0.196289,0.3046875 -0.2578125,0.4921875 -0.064453,0.1816406 -0.099609,0.3720703 -0.1054687,0.5742187 z m 3.1845703,-1.3828125 v 2.765625 c 0,0.3369141 0.0498,0.5947266 0.152344,0.77343753 0.09961,0.17285156 0.28125,0.2578125 0.539062,0.2578125 0.08496,0 0.158203,-0.005859 0.222657,-0.0234375 0.07031,-0.0146484 0.128906,-0.0292969 0.175781,-0.046875 0.05273,-0.0234375 0.09961,-0.0410156 0.140625,-0.0585938 0.03809,-0.0146484 0.07031,-0.0234375 0.09375,-0.0234375 0.02344,0 0.04101,0.005859 0.05859,0.0117188 0.01465,0.008789 0.02637,0.0292969 0.03516,0.0585938 0.0059,0.0234375 0.01465,0.0585938 0.02344,0.10546875 0.0059,0.0410156 0.01172,0.0908203 0.01172,0.15234375 0,0.11132812 -0.0088,0.19628906 -0.02344,0.2578125 -0.01758,0.0644531 -0.04102,0.11132812 -0.07031,0.140625 -0.03223,0.0234375 -0.07617,0.05273437 -0.128906,0.08203125 -0.05566,0.023437495 -0.123047,0.04101562 -0.199219,0.05859375 -0.07031,0.01464843 -0.149414,0.02636718 -0.234375,0.03515625 -0.08789,0.01464843 -0.172852,0.0234375 -0.257812,0.0234375 -0.257813,0 -0.47754,-0.03222657 -0.65625,-0.093750005 C 12.102461,-0.07085937 11.955977,-0.17632812 11.838789,-0.31695312 11.721602,-0.45757812 11.633711,-0.6275 11.580977,-0.83257812 11.525312,-1.0435156 11.498945,-1.2925391 11.498945,-1.5825781 v -2.8945313 h -0.691406 c -0.05566,0 -0.102539,-0.026367 -0.140625,-0.082031 -0.03223,-0.061523 -0.04687,-0.1552735 -0.04687,-0.28125 0,-0.070312 0.0029,-0.1289063 0.01172,-0.1757813 0.01465,-0.052734 0.0293,-0.09668 0.04687,-0.1289062 0.01465,-0.029297 0.03516,-0.049805 0.05859,-0.058594 0.02344,-0.014648 0.04687,-0.023437 0.07031,-0.023437 h 0.691406 v -1.171875 c 0,-0.023437 0.0029,-0.046875 0.01172,-0.070312 0.01465,-0.023437 0.03809,-0.041016 0.07031,-0.058594 0.03808,-0.014648 0.08496,-0.026367 0.140625,-0.035156 0.06152,-0.00586 0.134765,-0.011719 0.222656,-0.011719 0.09375,0 0.166992,0.00586 0.222656,0.011719 0.06152,0.00879 0.108398,0.020508 0.140625,0.035156 0.03809,0.017578 0.06152,0.035156 0.07031,0.058594 0.01465,0.023437 0.02344,0.046875 0.02344,0.070312 v 1.171875 h 2.460938 v -1.40625 c 0,-0.029297 0.0059,-0.058594 0.02344,-0.082031 0.01465,-0.023437 0.03809,-0.038086 0.07031,-0.046875 0.03808,-0.014648 0.08496,-0.026367 0.140625,-0.035156 0.06152,-0.00586 0.134765,-0.011719 0.222656,-0.011719 0.08496,0 0.155273,0.00586 0.210937,0.011719 0.06152,0.00879 0.108399,0.020508 0.140625,0.035156 0.03809,0.00879 0.06445,0.023437 0.08203,0.046875 0.01465,0.023437 0.02344,0.052734 0.02344,0.082031 v 1.40625 h 3.175781 c 0.108399,0 0.181641,0.029297 0.222657,0.082031 0.03808,0.046875 0.05859,0.1171875 0.05859,0.2109375 v 4.79296873 c 0,0.0322266 -0.0088,0.05859375 -0.02344,0.08203125 -0.0088,0.01757812 -0.03223,0.03222656 -0.07031,0.046875 -0.03223,0.01464843 -0.0791,0.02636718 -0.140625,0.03515625 -0.05566,0.0058594 -0.128906,0.01171875 -0.222656,0.01171875 -0.08789,0 -0.161133,-0.0058594 -0.222656,-0.01171875 -0.05566,-0.0087891 -0.102539,-0.02050782 -0.140625,-0.03515625 -0.03223,-0.01464844 -0.05566,-0.02929688 -0.07031,-0.046875 -0.0088,-0.0234375 -0.01172,-0.04980469 -0.01172,-0.08203125 V -4.4771094 h -2.554688 v 2.765625 c 0,0.3369141 0.04687,0.5947266 0.140625,0.77343753 0.09961,0.17285156 0.28125,0.2578125 0.539063,0.2578125 0.08496,0 0.158203,-0.005859 0.222656,-0.0234375 0.07031,-0.0146484 0.128906,-0.0292969 0.175781,-0.046875 0.05273,-0.0234375 0.09961,-0.0410156 0.140625,-0.0585938 0.03809,-0.0146484 0.07031,-0.0234375 0.09375,-0.0234375 0.02344,0 0.04102,0.005859 0.05859,0.0117188 0.01465,0.008789 0.02637,0.0292969 0.03516,0.0585938 0.0059,0.0234375 0.01465,0.0585938 0.02344,0.10546875 0.0059,0.0410156 0.01172,0.0908203 0.01172,0.15234375 0,0.11132812 -0.0088,0.19628906 -0.02344,0.2578125 -0.01758,0.0644531 -0.04102,0.11132812 -0.07031,0.140625 -0.03223,0.0234375 -0.07617,0.05273437 -0.128906,0.08203125 -0.05566,0.023437495 -0.123047,0.04101562 -0.199219,0.05859375 -0.07031,0.01464843 -0.149414,0.02636718 -0.234375,0.03515625 -0.08789,0.01464843 -0.169922,0.0234375 -0.246093,0.0234375 -0.266602,0 -0.492188,-0.03222657 -0.679688,-0.093750005 -0.181641,-0.070312495 -0.328125,-0.175781245 -0.445312,-0.316406245 -0.111329,-0.140625 -0.19336,-0.31054688 -0.246094,-0.515625 -0.05566,-0.21093743 -0.08203,-0.45996093 -0.08203,-0.74999993 v -2.8945313 z m 6.9375,-2.2734375 c 0,0.2109375 -0.04394,0.3574219 -0.128906,0.4335938 -0.0791,0.079102 -0.222656,0.1171875 -0.433594,0.1171875 -0.210937,0 -0.360352,-0.035156 -0.445312,-0.1054688 -0.0791,-0.076172 -0.117188,-0.2226562 -0.117188,-0.4335937 0,-0.2109375 0.03809,-0.3544922 0.117188,-0.4335938 0.08496,-0.076172 0.237304,-0.1171875 0.457031,-0.1171875 0.210937,0 0.354492,0.041016 0.433594,0.1171875 0.07617,0.070312 0.117187,0.2109375 0.117187,0.421875 z m -1.851562,1.5234375 z m 7.505859,5.08593753 c 0,0.0322266 -0.0088,0.05859375 -0.02344,0.08203125 -0.01758,0.01757812 -0.04101,0.03222656 -0.07031,0.046875 -0.03223,0.01464843 -0.0791,0.02636718 -0.140625,0.03515625 -0.05566,0.0058594 -0.125977,0.01171875 -0.210938,0.01171875 -0.09375,0 -0.172851,-0.0058594 -0.234375,-0.01171875 -0.05566,-0.0087891 -0.102539,-0.02050782 -0.140625,-0.03515625 -0.03223,-0.01464844 -0.05566,-0.02929688 -0.07031,-0.046875 -0.0088,-0.0234375 -0.01172,-0.04980469 -0.01172,-0.08203125 V -3.0357031 c 0,-0.28125 -0.02344,-0.506836 -0.07031,-0.6796875 -0.04687,-0.1699219 -0.114258,-0.319336 -0.199219,-0.4453125 -0.0791,-0.1230469 -0.18457,-0.2167969 -0.316406,-0.28125 -0.134766,-0.070312 -0.290039,-0.1054688 -0.46875,-0.1054688 -0.228516,0 -0.454102,0.082031 -0.679688,0.2460938 -0.228515,0.1640625 -0.46582,0.3984375 -0.714844,0.703125 v 3.45703123 c 0,0.0322266 -0.0088,0.05859375 -0.02344,0.08203125 -0.01758,0.01757812 -0.04102,0.03222656 -0.07031,0.046875 -0.03223,0.01464843 -0.0791,0.02636718 -0.140625,0.03515625 -0.05566,0.0058594 -0.128906,0.01171875 -0.222656,0.01171875 -0.08789,0 -0.161133,-0.0058594 -0.222656,-0.01171875 -0.05566,-0.0087891 -0.102539,-0.02050782 -0.140625,-0.03515625 -0.03223,-0.01464844 -0.05566,-0.02929688 -0.07031,-0.046875 -0.0088,-0.0234375 -0.01172,-0.04980469 -0.01172,-0.08203125 V -5.0864844 c 0,-0.023437 0.0029,-0.046875 0.01172,-0.070312 0.01465,-0.023437 0.03809,-0.041016 0.07031,-0.058594 0.0293,-0.014648 0.07031,-0.023437 0.117187,-0.023437 0.05274,-0.00586 0.123047,-0.011719 0.210938,-0.011719 0.07617,0 0.143555,0.00586 0.199219,0.011719 0.05273,0 0.09375,0.00879 0.117187,0.023437 0.0293,0.017578 0.05274,0.035156 0.07031,0.058594 0.01465,0.023437 0.02344,0.046875 0.02344,0.070312 v 0.65625 c 0.272461,-0.3105468 0.544922,-0.5390625 0.820313,-0.6796875 0.28125,-0.1464843 0.5625,-0.2226562 0.84375,-0.2226562 0.328125,0 0.603515,0.058594 0.832031,0.1757812 0.225586,0.1113282 0.410156,0.2578125 0.550781,0.4453125 0.140625,0.1875 0.237305,0.4072266 0.292969,0.65625 0.06152,0.2519532 0.09375,0.5507813 0.09375,0.9023438 z m 5.666016,-4.71093753 c 0,0.1259766 -0.02051,0.2197266 -0.05859,0.28125 -0.03223,0.055664 -0.07617,0.082031 -0.128906,0.082031 h -0.703125 c 0.123046,0.1259765 0.210937,0.2695312 0.257812,0.4335937 0.05273,0.1582032 0.08203,0.3222657 0.08203,0.4921875 0,0.2900391 -0.04687,0.5449219 -0.140625,0.7617188 -0.08789,0.2197265 -0.216797,0.4072265 -0.386718,0.5625 -0.172852,0.149414 -0.375,0.2666015 -0.609375,0.3515625 -0.234375,0.079102 -0.492188,0.1171875 -0.773438,0.1171875 -0.205078,0 -0.395508,-0.026367 -0.574219,-0.082031 -0.18164,-0.052734 -0.322265,-0.1201172 -0.421875,-0.1992187 -0.07031,0.064453 -0.125976,0.1376953 -0.164062,0.2226562 -0.04102,0.087891 -0.05859,0.1845703 -0.05859,0.2929688 0,0.1259765 0.05859,0.2314453 0.175781,0.3164062 0.117188,0.087891 0.272461,0.1347657 0.46875,0.140625 l 1.300782,0.046875 c 0.240234,0.00879 0.46289,0.0439453 0.667968,0.10546878 0.210938,0.0644531 0.389649,0.14941406 0.539063,0.2578125 0.146484,0.11132812 0.263672,0.24609375 0.351562,0.41015625 0.08496,0.1640625 0.128907,0.35449218 0.128907,0.57421875 0,0.22558593 -0.05274,0.43945312 -0.152344,0.64453125 C 30.36614,1.1625391 30.219655,1.34125 30.026296,1.4994531 c -0.196289,0.1552735 -0.445312,0.2753907 -0.75,0.3632813 -0.304687,0.09375 -0.665039,0.140625 -1.078125,0.140625 -0.398437,0 -0.738281,-0.035156 -1.019531,-0.1054688 C 26.897383,1.8334375 26.665937,1.7455469 26.487227,1.6283594 26.305586,1.5111719 26.17668,1.3705469 26.100508,1.2064844 26.021406,1.0424219 25.98332,0.86664063 25.98332,0.67914063 c 0,-0.12597657 0.01172,-0.24609375 0.03516,-0.36328125 0.0293,-0.11132813 0.07617,-0.21679688 0.140625,-0.316406255 0.06152,-0.099609375 0.134765,-0.199218745 0.222656,-0.292968745 0.09375,-0.09375 0.199219,-0.1875 0.316406,-0.28125 -0.181641,-0.0849609 -0.313477,-0.19921875 -0.398437,-0.33984375 -0.08789,-0.14062503 -0.128907,-0.29296873 -0.128907,-0.45703123 0,-0.2167969 0.04102,-0.413086 0.128907,-0.5859375 0.09375,-0.178711 0.210937,-0.3398438 0.351562,-0.4804688 -0.117187,-0.1318359 -0.210937,-0.2841797 -0.28125,-0.4570312 -0.06445,-0.1699219 -0.09375,-0.3779297 -0.09375,-0.6210938 0,-0.28125 0.04687,-0.5302734 0.140625,-0.75 0.09961,-0.2255859 0.234375,-0.4160156 0.398438,-0.5742187 0.169921,-0.1552735 0.375,-0.272461 0.609375,-0.3515625 0.234375,-0.084961 0.492187,-0.1289063 0.773437,-0.1289063 0.146484,0 0.28418,0.00879 0.410156,0.023437 0.131836,0.017578 0.257813,0.041016 0.375,0.070312 h 1.488282 c 0.06152,0 0.108398,0.032227 0.140625,0.09375 0.0293,0.064453 0.04687,0.1582032 0.04687,0.28125 z m -1.417969,1.3007813 c 0,-0.3339844 -0.09375,-0.5976563 -0.28125,-0.7851563 -0.181641,-0.1933593 -0.442383,-0.2929687 -0.785156,-0.2929687 -0.172852,0 -0.325196,0.032227 -0.457032,0.09375 -0.125976,0.055664 -0.231445,0.1376953 -0.316406,0.2460937 -0.08789,0.1025391 -0.152344,0.2197266 -0.199219,0.3515625 -0.04101,0.1347657 -0.05859,0.2753907 -0.05859,0.421875 0,0.3222657 0.08789,0.5742188 0.269531,0.7617188 0.1875,0.1875 0.448242,0.28125 0.785156,0.28125 0.178711,0 0.331055,-0.026367 0.457031,-0.082031 0.131836,-0.052734 0.240235,-0.1318359 0.328125,-0.234375 0.09375,-0.099609 0.158203,-0.2167968 0.199219,-0.3515625 0.03809,-0.1318359 0.05859,-0.2695312 0.05859,-0.4101562 z m 0.457031,3.91406248 c 0,-0.2109375 -0.08789,-0.375 -0.257812,-0.4921875 -0.172852,-0.1171875 -0.407227,-0.17871094 -0.703125,-0.1875 l -1.289063,-0.0351563 c -0.117187,0.0878906 -0.216797,0.17285156 -0.292969,0.2578125 -0.07031,0.07910156 -0.128906,0.15527343 -0.175781,0.234375 -0.04102,0.0761719 -0.06738,0.15234375 -0.08203,0.22265625 -0.01758,0.0703125 -0.02344,0.14355468 -0.02344,0.22265625 0,0.24023437 0.120117,0.42187492 0.363282,0.53906242 0.240234,0.123047 0.577148,0.1875 1.007812,0.1875 0.272461,0 0.498047,-0.029297 0.679688,-0.082031 0.1875,-0.055664 0.339843,-0.1259766 0.457031,-0.2109375 0.117187,-0.0878907 0.199219,-0.18750007 0.246094,-0.30468757 0.04687,-0.11132813 0.07031,-0.22851563 0.07031,-0.3515625 z M 34.79582,-1.4888281 c 0,0.2578125 -0.04687,0.4863281 -0.140625,0.67968748 -0.09375,0.19628906 -0.228515,0.36328125 -0.398437,0.50390625 -0.172852,0.13476562 -0.38086,0.234375 -0.621094,0.304687495 -0.234375,0.070312505 -0.498047,0.105468755 -0.785156,0.105468755 -0.172852,0 -0.339844,-0.01757813 -0.503906,-0.046875 -0.158204,-0.0234375 -0.301758,-0.05566407 -0.433594,-0.09375 -0.125977,-0.046875 -0.231446,-0.09375 -0.316406,-0.140625 -0.08789,-0.046875 -0.149415,-0.0849609 -0.1875,-0.1171875 -0.04102,-0.0380859 -0.07031,-0.0878906 -0.09375,-0.15234375 -0.01758,-0.0703125 -0.02344,-0.15820313 -0.02344,-0.26953125 0,-0.0703125 0.0029,-0.12890625 0.01172,-0.17578125 0.0059,-0.0527344 0.01465,-0.09375 0.02344,-0.11718753 0.01465,-0.029297 0.0293,-0.049805 0.04687,-0.058594 0.02344,-0.014648 0.04687,-0.023437 0.07031,-0.023437 0.03809,0 0.09668,0.023437 0.175781,0.070312 0.07617,0.046875 0.175781,0.10253904 0.292969,0.16406248 0.117187,0.0556641 0.251953,0.11132812 0.410156,0.1640625 0.155273,0.046875 0.339844,0.0703125 0.550781,0.0703125 0.146485,0 0.28418,-0.0146484 0.410157,-0.046875 0.123046,-0.0292969 0.234375,-0.0761719 0.328125,-0.140625 0.09375,-0.0703125 0.164062,-0.15234375 0.210937,-0.24609378 0.04687,-0.099609 0.07031,-0.2167968 0.07031,-0.3515625 0,-0.140625 -0.03516,-0.2578125 -0.105469,-0.3515625 -0.07031,-0.099609 -0.164063,-0.1875 -0.28125,-0.2578125 -0.117188,-0.070312 -0.251953,-0.1318359 -0.398438,-0.1875 -0.149414,-0.061523 -0.301758,-0.1230468 -0.457031,-0.1875 -0.149414,-0.061523 -0.298828,-0.1318359 -0.445312,-0.2109375 -0.149415,-0.076172 -0.28125,-0.1699218 -0.398438,-0.28125 -0.117187,-0.1171875 -0.216797,-0.2519531 -0.292969,-0.4101562 -0.07031,-0.1552735 -0.105468,-0.3457031 -0.105468,-0.5742188 0,-0.1875 0.03808,-0.3691406 0.117187,-0.5507812 0.07617,-0.178711 0.19043,-0.3339844 0.339844,-0.46875 0.146484,-0.131836 0.333984,-0.2373047 0.5625,-0.3164063 0.225586,-0.084961 0.486328,-0.1289062 0.785156,-0.1289062 0.131836,0 0.263672,0.011719 0.398438,0.035156 0.131835,0.023437 0.249023,0.052734 0.351562,0.082031 0.108398,0.032227 0.199219,0.067383 0.269531,0.1054687 0.07617,0.041016 0.134766,0.076172 0.175782,0.1054688 0.03809,0.032227 0.06152,0.058594 0.07031,0.082031 0.01465,0.017578 0.02637,0.041016 0.03516,0.070312 0.0059,0.023437 0.01172,0.058594 0.01172,0.1054688 0.0059,0.041016 0.01172,0.087891 0.01172,0.140625 0,0.064453 -0.0059,0.1171875 -0.01172,0.1640625 0,0.046875 -0.0088,0.087891 -0.02344,0.1171875 -0.01758,0.023437 -0.03223,0.043945 -0.04687,0.058594 -0.01758,0.017578 -0.03516,0.023437 -0.05859,0.023437 -0.03223,0 -0.0791,-0.017578 -0.140625,-0.058594 -0.06445,-0.046875 -0.146485,-0.087891 -0.246094,-0.1289063 -0.102539,-0.046875 -0.219727,-0.087891 -0.351562,-0.1289062 -0.134766,-0.046875 -0.28711,-0.070312 -0.457032,-0.070312 -0.158203,0 -0.292968,0.020508 -0.410156,0.058594 -0.117187,0.032227 -0.216797,0.082031 -0.292969,0.1523438 -0.07031,0.064453 -0.125976,0.1376953 -0.164062,0.2226562 -0.04102,0.087891 -0.05859,0.1816407 -0.05859,0.28125 0,0.1494141 0.03516,0.2695313 0.105469,0.3632813 0.07617,0.09375 0.175781,0.1816406 0.292969,0.2578125 0.117187,0.070312 0.249023,0.1376953 0.398437,0.1992187 0.155273,0.055664 0.307617,0.1142578 0.457031,0.1757813 0.155274,0.064453 0.307617,0.1347656 0.457032,0.2109375 0.155273,0.079102 0.292968,0.1728515 0.410156,0.28125 0.117187,0.1113281 0.210937,0.243164 0.28125,0.3984375 0.07617,0.149414 0.117187,0.328125 0.117187,0.5390625 z m 0,0"
           style="fill:#000000;fill-opacity:1;fill-rule:nonzero;stroke:none"
           aria-label="  Setngs"
           transform="matrix(1.3333333,0,0,1.3333333,372.22667,371.58667)"
           clip-path="url(#clipPath42)" />
      </g>
      <g
         id="g42"
         transform="matrix(3.1929047,0,0,3.1929047,-247.09383,-518.17539)">
        <path
           id="path43"
           d="m 264.9,519 c 0,9.91 14.1,17.95 31.5,17.95 17.4,0 31.5,-8.04 31.5,-17.95 0,-9.92 -14.1,-17.95 -31.5,-17.95 -17.4,0 -31.5,8.03 -31.5,17.95 z"
           style="fill:#ffffff;fill-opacity:1;fill-rule:evenodd;stroke:#172c51;stroke-width:1;stroke-linecap:butt;stroke-linejoin:miter;stroke-miterlimit:10;stroke-dasharray:none;stroke-opacity:1"
           transform="matrix(1.3333333,0,0,-1.3333333,0,1122.56)" />
      </g>
      <g
         id="g43"
         transform="matrix(3.1929047,0,0,3.1929047,-247.09383,-518.17539)">
        <path
           id="path44"
           d="m 7.7709766,0.62160156 c 0,0.0849609 -0.00586,0.15527344 -0.011719,0.2109375 -0.00879,0.0615234 -0.023437,0.10839844 -0.046875,0.140625 -0.017578,0.0292968 -0.035156,0.0498047 -0.058594,0.0585937 -0.017578,0.014648 -0.035156,0.023437 -0.058594,0.023437 -0.079102,0 -0.1992187,-0.032227 -0.3632812,-0.09375 C 7.0737109,0.89699219 6.8862109,0.80910156 6.6694141,0.69191406 6.4584766,0.58058594 6.2299609,0.43996094 5.9897266,0.27003906 5.7465625,0.10597656 5.5121875,-0.08445312 5.2866016,-0.30417969 5.1049609,-0.19285156 4.879375,-0.09617187 4.6069141,-0.01121094 4.3315234,0.06496094 4.0151172,0.10597656 3.6576953,0.10597656 c -0.5390625,0 -1.0048828,-0.07910156 -1.3945312,-0.234375 C 1.8705859,-0.28367187 1.5483203,-0.51511719 1.2905078,-0.81980469 1.0385547,-1.1244922 0.85105469,-1.5024219 0.72800781,-1.9565234 c -0.12597656,-0.4511719 -0.1875,-0.9726563 -0.1875,-1.5585938 0,-0.5625 0.0644531,-1.0693359 0.19921875,-1.5234375 0.140625,-0.4599609 0.34277344,-0.8496094 0.60937504,-1.171875 0.2724609,-0.3193359 0.6123047,-0.5654297 1.0195312,-0.7382812 0.413086,-0.1699219 0.890625,-0.2578125 1.4296875,-0.2578125 0.506836,0 0.9521485,0.079102 1.3359375,0.234375 0.3896485,0.1582031 0.7148438,0.3867187 0.9726563,0.6914062 0.2636718,0.2988281 0.4628906,0.6679688 0.5976562,1.1132813 0.131836,0.4453125 0.1992188,0.9550781 0.1992188,1.5234375 0,0.2988281 -0.020508,0.5830078 -0.058594,0.8554687 -0.032227,0.2753906 -0.087891,0.5332031 -0.1640625,0.7734375 -0.070312,0.234375 -0.1640625,0.4570313 -0.28125,0.6679688 -0.1113281,0.2050781 -0.243164,0.38671871 -0.3984375,0.55078121 0.2636719,0.21972657 0.4980469,0.39257813 0.703125,0.515625 0.2021485,0.12597657 0.366211,0.21972657 0.4921875,0.2812500025 0.131836,0.0615234375 0.234375,0.1054687475 0.3046875,0.1289062475 0.076172,0.0292969 0.1347656,0.0615234 0.1757813,0.09375 0.038086,0.0292969 0.061523,0.0761719 0.070312,0.140625 0.014648,0.0703125 0.023437,0.15527344 0.023437,0.2578125 z M 5.9076953,-3.5737109 c 0,-0.4042969 -0.035156,-0.7792969 -0.1054687,-1.125 C 5.7319141,-5.0414844 5.6088672,-5.3373828 5.4389453,-5.5893359 5.2748828,-5.8471484 5.0522266,-6.0463672 4.7709766,-6.1869922 4.4955859,-6.3334766 4.1528125,-6.4096484 3.7397266,-6.4096484 c -0.4072266,0 -0.75,0.079102 -1.03125,0.234375 -0.28125,0.149414 -0.5097657,0.3515625 -0.6796875,0.609375 -0.1728516,0.2578125 -0.2988282,0.5595703 -0.375,0.9023437 -0.070312,0.3457031 -0.1054688,0.703125 -0.1054688,1.078125 0,0.421875 0.035156,0.8085938 0.1054688,1.1601563 0.070312,0.3457031 0.1875,0.6445312 0.3515625,0.9023437 0.1640625,0.2578125 0.3808593,0.4570313 0.65625,0.59765626 0.28125,0.140625 0.6269531,0.2109375 1.0429687,0.2109375 0.413086,0 0.7617188,-0.0732422 1.0429688,-0.22265625 0.28125,-0.15527341 0.5068359,-0.36328121 0.6796875,-0.62109371 0.1699218,-0.2636719 0.2929687,-0.5683594 0.3632812,-0.9140625 0.076172,-0.3515625 0.1171875,-0.7177735 0.1171875,-1.1015625 z m 6.5976567,3.43359371 c 0,0.0322266 -0.0088,0.05859375 -0.02344,0.08203125 -0.0088,0.01757813 -0.03223,0.03222657 -0.07031,0.046875 -0.03223,0.01464844 -0.07617,0.02636719 -0.128907,0.03515625 -0.04687,0.0058594 -0.111328,0.01171875 -0.1875,0.01171875 -0.08789,0 -0.158203,-0.0058594 -0.210937,-0.01171875 -0.04687,-0.0087891 -0.08789,-0.02050781 -0.117188,-0.03515625 -0.03223,-0.01464843 -0.05566,-0.02929687 -0.07031,-0.046875 -0.0088,-0.0234375 -0.01172,-0.04980468 -0.01172,-0.08203125 v -0.65625 c -0.28125,0.31347657 -0.5625,0.54492188 -0.84375,0.69140625 -0.275391,0.140625 -0.550781,0.2109375 -0.832031,0.2109375 -0.3281252,0 -0.6064455,-0.05566406 -0.8320314,-0.1640625 C 8.9487109,-0.16648437 8.7670703,-0.31589844 8.6264453,-0.50339844 8.4916797,-0.69675781 8.395,-0.91941406 8.3334766,-1.1713672 c -0.064453,-0.2490234 -0.09375,-0.5537109 -0.09375,-0.9140625 v -3 c 0,-0.023437 0.00586,-0.046875 0.023437,-0.070312 0.014648,-0.023437 0.038086,-0.041016 0.070312,-0.058594 0.038086,-0.014648 0.084961,-0.023437 0.140625,-0.023437 0.061523,-0.00586 0.1347656,-0.011719 0.2226562,-0.011719 0.09375,0 0.1669922,0.00586 0.2226563,0.011719 0.061523,0 0.1083984,0.00879 0.140625,0.023437 0.029297,0.017578 0.052734,0.035156 0.070312,0.058594 0.014648,0.023437 0.023437,0.046875 0.023437,0.070312 v 2.8828125 c 0,0.2900391 0.017578,0.5244141 0.058594,0.703125 0.046875,0.1728516 0.1113281,0.3222656 0.1992188,0.4453125 0.084961,0.11718751 0.1933593,0.21093751 0.328125,0.28125001 0.1318359,0.0644531 0.2841791,0.09375 0.4570311,0.09375 0.225586,0 0.451172,-0.0761719 0.679687,-0.234375 0.225586,-0.16406251 0.462891,-0.40136721 0.714844,-0.71484371 v -3.4570313 c 0,-0.023437 0.0059,-0.046875 0.02344,-0.070312 0.01465,-0.023437 0.03809,-0.041016 0.07031,-0.058594 0.03809,-0.014648 0.08496,-0.023437 0.140625,-0.023437 0.06152,-0.00586 0.134766,-0.011719 0.222656,-0.011719 0.08496,0 0.155274,0.00586 0.210938,0.011719 0.06152,0 0.108398,0.00879 0.140625,0.023437 0.03809,0.017578 0.06445,0.035156 0.08203,0.058594 0.01465,0.023437 0.02344,0.046875 0.02344,0.070312 z m 2.466796,0 c 0,0.0322266 -0.0088,0.05859375 -0.02344,0.08203125 -0.01758,0.01757813 -0.04102,0.03222657 -0.07031,0.046875 -0.03223,0.01464844 -0.0791,0.02636719 -0.140625,0.03515625 -0.05566,0.0058594 -0.128906,0.01171875 -0.222656,0.01171875 -0.08789,0 -0.161133,-0.0058594 -0.222656,-0.01171875 -0.05566,-0.0087891 -0.102539,-0.02050781 -0.140625,-0.03515625 -0.03223,-0.01464843 -0.05566,-0.02929687 -0.07031,-0.046875 -0.0088,-0.0234375 -0.01172,-0.04980468 -0.01172,-0.08203125 V -5.0854297 c 0,-0.023437 0.0029,-0.046875 0.01172,-0.070312 0.01465,-0.023437 0.03809,-0.038086 0.07031,-0.046875 0.03809,-0.014648 0.08496,-0.026367 0.140625,-0.035156 0.06152,-0.00586 0.134766,-0.011719 0.222656,-0.011719 0.09375,0 0.166992,0.00586 0.222656,0.011719 0.06152,0.00879 0.108399,0.020508 0.140625,0.035156 0.0293,0.00879 0.05274,0.023437 0.07031,0.046875 0.01465,0.023437 0.02344,0.046875 0.02344,0.070312 z m 0.105469,-6.60937501 c 0,0.2109375 -0.04395,0.3574219 -0.128906,0.4335938 -0.0791,0.079102 -0.222656,0.1171875 -0.433594,0.1171875 -0.210937,0 -0.360351,-0.035156 -0.445312,-0.1054688 -0.0791,-0.076172 -0.117188,-0.2226562 -0.117188,-0.4335937 0,-0.2109375 0.03809,-0.3544922 0.117188,-0.4335938 0.08496,-0.076172 0.237304,-0.1171875 0.457031,-0.1171875 0.210937,0 0.354492,0.041016 0.433594,0.1171875 0.07617,0.070312 0.117187,0.2109375 0.117187,0.421875 z m 4.054688,6.24609376 c 0,0.11132813 -0.0088,0.19628907 -0.02344,0.2578125 -0.01758,0.0644531 -0.04102,0.11132813 -0.07031,0.140625 -0.02344,0.0234375 -0.06738,0.05273438 -0.128907,0.08203125 -0.05566,0.0234375025 -0.123046,0.04101563 -0.199218,0.05859375 -0.07031,0.01464844 -0.149414,0.02636719 -0.234375,0.03515625 -0.08789,0.01464844 -0.172852,0.0234375 -0.257813,0.0234375 -0.257812,0 -0.477539,-0.03222656 -0.65625,-0.0937499975 C 17.380352,-0.06980469 17.233867,-0.17527344 17.11668,-0.31589844 c -0.117188,-0.140625 -0.205078,-0.31054687 -0.257813,-0.515625 -0.05566,-0.21093746 -0.08203,-0.45996096 -0.08203,-0.74999996 V -4.4760547 H 16.08543 c -0.05566,0 -0.102539,-0.026367 -0.140625,-0.082031 -0.03223,-0.061523 -0.04687,-0.1552735 -0.04687,-0.28125 0,-0.070312 0.0029,-0.1289063 0.01172,-0.1757813 0.01465,-0.052734 0.0293,-0.09668 0.04687,-0.1289062 0.01465,-0.029297 0.03516,-0.049805 0.05859,-0.058594 0.02344,-0.014648 0.04687,-0.023437 0.07031,-0.023437 h 0.691406 v -1.171875 c 0,-0.023437 0.0029,-0.046875 0.01172,-0.070312 0.01465,-0.023437 0.03809,-0.041016 0.07031,-0.058594 0.03809,-0.014648 0.08496,-0.026367 0.140625,-0.035156 0.06152,-0.00586 0.134766,-0.011719 0.222656,-0.011719 0.09375,0 0.166993,0.00586 0.222657,0.011719 0.06152,0.00879 0.108398,0.020508 0.140625,0.035156 0.03809,0.017578 0.06152,0.035156 0.07031,0.058594 0.01465,0.023437 0.02344,0.046875 0.02344,0.070312 v 1.171875 h 1.277343 c 0.02344,0 0.04687,0.00879 0.07031,0.023437 0.02344,0.00879 0.04102,0.029297 0.05859,0.058594 0.01465,0.032227 0.02637,0.076172 0.03516,0.1289062 0.0059,0.046875 0.01172,0.1054688 0.01172,0.1757813 0,0.1259765 -0.01758,0.2197265 -0.04687,0.28125 -0.03223,0.055664 -0.07617,0.082031 -0.128907,0.082031 h -1.27734 v 2.765625 c 0,0.3369141 0.0498,0.5947266 0.152343,0.77343751 0.09961,0.17285157 0.28125,0.2578125 0.539063,0.2578125 0.08496,0 0.158203,-0.005859 0.222656,-0.0234375 0.07031,-0.0146484 0.128906,-0.0292969 0.175781,-0.046875 0.05273,-0.0234375 0.09961,-0.0410156 0.140625,-0.0585938 0.03809,-0.0146484 0.07031,-0.0234375 0.09375,-0.0234375 0.02344,0 0.04102,0.005859 0.05859,0.0117188 0.01465,0.008789 0.02637,0.0292969 0.03516,0.0585938 0.0059,0.0234375 0.01465,0.0585938 0.02344,0.10546875 0.0059,0.0410156 0.01172,0.0908203 0.01172,0.15234375 z m 0,0"
           style="fill:#000000;fill-opacity:1;fill-rule:nonzero;stroke:none"
           aria-label=" Quit"
           transform="matrix(1.3333333,0,0,1.3333333,382.30667,433.02667)"
           clip-path="url(#clipPath45)" />
      </g>
    </g>
  </g>
</svg>
