<?xml version="1.0" encoding="UTF-8" standalone="no"?>
<!-- Created with Inkscape (http://www.inkscape.org/) -->

<svg
   width="1910"
   height="995.23285"
   viewBox="0 0 1910 995.23285"
   version="1.1"
   id="svg1"
   sodipodi:docname="uidraw-04.svg"
   inkscape:version="1.4 (e7c3feb100, 2024-10-09)"
   xmlns:inkscape="http://www.inkscape.org/namespaces/inkscape"
   xmlns:sodipodi="http://sodipodi.sourceforge.net/DTD/sodipodi-0.dtd"
   xmlns="http://www.w3.org/2000/svg"
   xmlns:svg="http://www.w3.org/2000/svg">
  <sodipodi:namedview
     id="namedview1"
     pagecolor="#ffffff"
     bordercolor="#000000"
     borderopacity="0.25"
     inkscape:showpageshadow="2"
     inkscape:pageopacity="0.0"
     inkscape:pagecheckerboard="0"
     inkscape:deskcolor="#d1d1d1"
     inkscape:zoom="0.48795812"
     inkscape:cx="1182.4785"
     inkscape:cy="491.84549"
     inkscape:window-width="1920"
     inkscape:window-height="1011"
     inkscape:window-x="0"
     inkscape:window-y="0"
     inkscape:window-maximized="1"
     inkscape:current-layer="svg1" />
  <defs
     id="defs1">
    <clipPath
       clipPathUnits="userSpaceOnUse"
       id="clipPath88">
      <path
         d="m 133.94,730.06 h 44.64 v 10.32 h -44.64 z"
         transform="matrix(1,0,0,-1,-142.70003,732.82002)"
         clip-rule="evenodd"
         id="path88" />
    </clipPath>
    <clipPath
       clipPathUnits="userSpaceOnUse"
       id="clipPath91">
      <path
         d="m 178.94,730.3 h 44.664 v 10.2 H 178.94 Z"
         transform="matrix(1,0,0,-1,-191.93003,732.94002)"
         clip-rule="evenodd"
         id="path91" />
    </clipPath>
    <clipPath
       clipPathUnits="userSpaceOnUse"
       id="clipPath94">
      <path
         d="m 223.85,730.06 h 44.64 v 10.32 h -44.64 z"
         transform="matrix(1,0,0,-1,-235.85003,732.70002)"
         clip-rule="evenodd"
         id="path94" />
    </clipPath>
    <clipPath
       clipPathUnits="userSpaceOnUse"
       id="clipPath97">
      <path
         d="m 268.61,730.06 h 198.05 v 10.32 H 268.61 Z"
         transform="matrix(1,0,0,-1,-303.77003,732.70002)"
         clip-rule="evenodd"
         id="path97" />
    </clipPath>
    <clipPath
       clipPathUnits="userSpaceOnUse"
       id="clipPath99">
      <path
         d="m 268.61,730.06 h 198.05 v 10.32 H 268.61 Z"
         transform="matrix(1,0,0,-1,-431.70999,732.70002)"
         clip-rule="evenodd"
         id="path99" />
    </clipPath>
  </defs>
  <g
     id="layer1"
     transform="matrix(0.99476441,0,0,0.99476441,0.02618677,-39.556352)">
    <g
       id="g1"
       transform="matrix(3.176275,0,0,3.176275,-2777.4168,820.57098)">
      <g
         id="g85"
         transform="translate(-844.5867,-338.80003)">
        <path
           id="path85"
           d="m 70.3,537.07 h 450 v 234 h -450 z"
           style="fill:#d0cece;fill-opacity:1;fill-rule:evenodd;stroke:#c00000;stroke-width:1;stroke-linecap:butt;stroke-linejoin:miter;stroke-miterlimit:10;stroke-dasharray:none;stroke-opacity:1"
           transform="matrix(1.3333333,0,0,-1.3333333,1627.52,1122.56)" />
      </g>
      <g
         id="g86"
         transform="translate(-844.5867,-338.80003)">
        <path
           id="path86"
           d="m 133.65,726.27 h 45.15 v 18 h -45.15 z"
           style="fill:#c5e0b4;fill-opacity:1;fill-rule:evenodd;stroke:#000000;stroke-width:0.5;stroke-linecap:butt;stroke-linejoin:round;stroke-miterlimit:10;stroke-dasharray:none;stroke-opacity:1"
           transform="matrix(1.3333333,0,0,-1.3333333,1627.52,1122.56)" />
      </g>
      <g
         id="g87"
         transform="translate(-844.5867,-338.80003)">
        <path
           id="path87"
           d="m 4.065625,-0.71621094 c 0,0.0410156 -0.00586,0.0761719 -0.011719,0.10546875 0,0.0322266 -0.00586,0.0585938 -0.011719,0.0820313 0,0.0234375 -0.00879,0.046875 -0.023437,0.0703125 -0.00879,0.0175781 -0.029297,0.0410156 -0.058594,0.0703125 -0.023437,0.0234375 -0.079102,0.0644531 -0.1640625,0.1171875 -0.079102,0.046875 -0.1816407,0.0996094 -0.3046875,0.15234375 -0.1259766,0.046875 -0.2695313,0.08789063 -0.4335938,0.1171875 -0.1582031,0.03808594 -0.3339844,0.05859375 -0.5273437,0.05859375 -0.328125,0 -0.6269532,-0.05566406 -0.890625,-0.1640625 C 1.3732422,-0.21523438 1.1476563,-0.37636719 0.96015625,-0.58730469 0.77265625,-0.80410156 0.62617188,-1.0707031 0.5265625,-1.3841797 0.42402344,-1.6947266 0.37421875,-2.0580078 0.37421875,-2.4740234 c 0,-0.421875 0.0527344,-0.796875 0.1640625,-1.125 0.10839844,-0.328125 0.26074219,-0.6035157 0.45703125,-0.8320313 0.2021484,-0.234375 0.4394531,-0.4101562 0.7148438,-0.5273437 0.2724609,-0.1230469 0.5742187,-0.1875 0.9023437,-0.1875 0.1464844,0 0.2871094,0.017578 0.421875,0.046875 0.140625,0.023437 0.2695313,0.058594 0.3867188,0.1054687 0.1171875,0.041016 0.2226562,0.087891 0.3164062,0.140625 0.09375,0.055664 0.1552734,0.1025391 0.1875,0.140625 0.038086,0.032227 0.061523,0.058594 0.070312,0.082031 0.014648,0.017578 0.023437,0.035156 0.023437,0.058594 0.00586,0.023437 0.011719,0.055664 0.011719,0.09375 0.00586,0.032227 0.011719,0.070312 0.011719,0.1171875 0,0.055664 -0.00586,0.1025391 -0.011719,0.140625 0,0.032227 -0.00879,0.058594 -0.023437,0.082031 -0.00879,0.023437 -0.020508,0.043945 -0.035156,0.058594 -0.00879,0.00879 -0.023437,0.011719 -0.046875,0.011719 -0.041016,0 -0.09082,-0.023437 -0.1523437,-0.070312 C 3.7082033,-4.1908192 3.6232422,-4.2464837 3.5148438,-4.3021477 3.4123047,-4.3636707 3.2863281,-4.4222649 3.1398438,-4.477929 2.9904297,-4.530663 2.8146484,-4.55996 2.6125,-4.55996 c -0.2285156,0 -0.4335937,0.046875 -0.6210937,0.140625 -0.1816407,0.09375 -0.3369141,0.2285156 -0.46875,0.3984375 C 1.3878906,-3.848046 1.2882813,-3.6341788 1.2179688,-3.3763663 1.1476563,-3.1244141 1.1125,-2.8373047 1.1125,-2.5091797 c 0,0.3222656 0.035156,0.6064453 0.1054688,0.8554688 0.070312,0.243164 0.1669921,0.4511718 0.2929687,0.6210937 0.1318359,0.16406251 0.2929688,0.29003907 0.4804688,0.37500001 0.1875,0.0791016 0.3984375,0.1171875 0.6328125,0.1171875 0.2021484,0 0.3779296,-0.0234375 0.5273437,-0.0703125 0.1552734,-0.046875 0.2841797,-0.0996094 0.3867188,-0.1640625 0.1083984,-0.0615234 0.1933593,-0.1171875 0.2578125,-0.1640625 0.070312,-0.0527344 0.1230468,-0.0820312 0.1640625,-0.0820312 0.023437,0 0.038086,0.00586 0.046875,0.011719 0.014648,0.00879 0.026367,0.0234375 0.035156,0.046875 0.00586,0.0234375 0.011719,0.0556641 0.011719,0.09375 0.00586,0.0410156 0.011719,0.0908203 0.011719,0.15234345 z M 8.1994141,-1.8998047 c 0,0.28125 -0.041016,0.5449219 -0.1171875,0.7851563 -0.079102,0.24316402 -0.1933594,0.45410152 -0.3398438,0.63281246 -0.149414,0.17285156 -0.336914,0.31054688 -0.5625,0.41015625 -0.2285156,0.09375 -0.4892578,0.140625 -0.7851562,0.140625 -0.2988282,0 -0.5566407,-0.04394531 -0.7734375,-0.12890625 -0.2109375,-0.08496094 -0.3925782,-0.2109375 -0.5390625,-0.375 -0.140625,-0.1640625 -0.2460938,-0.36328125 -0.3164063,-0.59765626 -0.070312,-0.234375 -0.1054687,-0.4980469 -0.1054687,-0.796875 0,-0.2871094 0.035156,-0.5537109 0.1054687,-0.796875 0.076172,-0.2402344 0.1904297,-0.4482422 0.3398438,-0.6210937 0.1552734,-0.178711 0.3427734,-0.3164063 0.5625,-0.4101563 0.2255859,-0.099609 0.4921875,-0.1523437 0.796875,-0.1523437 0.2871093,0 0.5390625,0.043945 0.75,0.1289062 0.2167968,0.087891 0.3984375,0.2109375 0.5390625,0.375 0.1464843,0.1640625 0.2578125,0.3691406 0.328125,0.609375 0.076172,0.234375 0.1171875,0.5009766 0.1171875,0.796875 z m -0.6914063,0.035156 c 0,-0.1875 -0.020508,-0.366211 -0.058594,-0.5390625 -0.032227,-0.1699219 -0.087891,-0.319336 -0.1640625,-0.4453125 -0.079102,-0.131836 -0.1875,-0.234375 -0.328125,-0.3046875 -0.140625,-0.076172 -0.3134766,-0.1171875 -0.515625,-0.1171875 -0.1962891,0 -0.3632813,0.035156 -0.5039063,0.1054687 -0.1347656,0.070312 -0.2460937,0.1699219 -0.3398437,0.2929688 -0.087891,0.1259765 -0.1523438,0.2753906 -0.1992188,0.4453125 -0.041016,0.1640625 -0.058594,0.3486328 -0.058594,0.5507812 0,0.1962891 0.014648,0.3808594 0.046875,0.5507813 0.038086,0.1640625 0.09668,0.3134765 0.1757812,0.44531246 0.084961,0.12597656 0.1992188,0.22851563 0.3398438,0.3046875 0.140625,0.0703125 0.3105468,0.10546875 0.515625,0.10546875 0.1875,0 0.3515625,-0.0351562 0.4921875,-0.10546875 0.140625,-0.0703125 0.2519531,-0.1640625 0.3398437,-0.28125 0.09375,-0.12304687 0.1582031,-0.27246096 0.1992188,-0.44531246 0.038086,-0.1699219 0.058594,-0.3574219 0.058594,-0.5625 z m 4.6435552,1.76953121 c 0,0.01757813 -0.0088,0.03222656 -0.02344,0.046875 -0.0088,0.01757813 -0.02344,0.03222656 -0.04687,0.046875 -0.02344,0.00585938 -0.05859,0.01171875 -0.105469,0.01171875 -0.04101,0.0058594 -0.09082,0.01171875 -0.152343,0.01171875 -0.06445,0 -0.117188,-0.0058594 -0.164063,-0.01171875 -0.04102,0 -0.07031,-0.00585937 -0.09375,-0.01171875 -0.02344,-0.01464844 -0.04102,-0.02929687 -0.04687,-0.046875 -0.0088,-0.01464844 -0.01172,-0.02929687 -0.01172,-0.046875 V -2.1693359 c 0,-0.2021485 -0.01758,-0.3632813 -0.04687,-0.4804688 -0.03223,-0.1230469 -0.0791,-0.2285156 -0.140625,-0.3164062 -0.06445,-0.09375 -0.140625,-0.1640625 -0.234375,-0.2109375 -0.09375,-0.046875 -0.205078,-0.070312 -0.328125,-0.070312 -0.164062,0 -0.328125,0.058594 -0.492187,0.1757812 -0.164063,0.1113281 -0.3339846,0.2783203 -0.5039065,0.5039063 v 2.47265621 c 0,0.01757813 -0.00879,0.03222656 -0.023437,0.046875 -0.00879,0.01757813 -0.023437,0.03222656 -0.046875,0.046875 -0.023437,0.00585938 -0.058594,0.01171875 -0.1054687,0.01171875 -0.041016,0.0058594 -0.09082,0.01171875 -0.1523438,0.01171875 -0.064453,0 -0.1171875,-0.0058594 -0.1640625,-0.01171875 -0.041016,0 -0.070312,-0.00585937 -0.09375,-0.01171875 -0.023437,-0.01464844 -0.043945,-0.02929687 -0.058594,-0.046875 -0.00879,-0.01464844 -0.011719,-0.02929687 -0.011719,-0.046875 V -3.6341797 c 0,-0.023437 0.00293,-0.038086 0.011719,-0.046875 0.00586,-0.014648 0.023437,-0.026367 0.046875,-0.035156 0.023437,-0.014648 0.052734,-0.023437 0.09375,-0.023437 0.038086,-0.00586 0.084961,-0.011719 0.140625,-0.011719 0.061523,0 0.1083984,0.00586 0.140625,0.011719 0.038086,0 0.070312,0.00879 0.09375,0.023437 0.023437,0.00879 0.038086,0.020508 0.046875,0.035156 0.00586,0.00879 0.011719,0.023437 0.011719,0.046875 v 0.46875 c 0.2021484,-0.2167969 0.4013675,-0.3779297 0.5976565,-0.4804687 0.19336,-0.1083985 0.392578,-0.1640625 0.597657,-0.1640625 0.234375,0 0.427733,0.043945 0.585936,0.1289062 0.164064,0.079102 0.295898,0.1845703 0.398439,0.3164063 0.09961,0.1347656 0.169921,0.290039 0.210936,0.46875 0.04687,0.1816406 0.07031,0.3955078 0.07031,0.6445312 z m 3.014648,-0.2578125 c 0,0.0703125 -0.0088,0.12890625 -0.02344,0.17578125 -0.0088,0.046875 -0.02344,0.08203125 -0.04687,0.10546875 -0.01758,0.01757813 -0.04687,0.03515625 -0.09375,0.05859375 -0.04101,0.01464844 -0.08789,0.02636719 -0.140625,0.03515625 -0.04687,0.01464844 -0.102539,0.02636719 -0.164062,0.03515625 -0.06445,0.0058594 -0.125977,0.01171875 -0.1875,0.01171875 -0.181641,0 -0.336914,-0.0234375 -0.46875,-0.0703125 -0.134766,-0.05273437 -0.243164,-0.12890625 -0.328125,-0.22265625 -0.0791,-0.0996094 -0.137695,-0.22558594 -0.175781,-0.375 -0.04102,-0.14648437 -0.05859,-0.32226562 -0.05859,-0.52734376 V -3.2005862 H 12.98653 c -0.04101,0 -0.07031,-0.017578 -0.09375,-0.058594 -0.02344,-0.038086 -0.03516,-0.1054687 -0.03516,-0.1992187 0,-0.052734 0.0029,-0.09668 0.01172,-0.1289063 0.0059,-0.038086 0.01465,-0.064453 0.02344,-0.082031 0.0059,-0.023437 0.01758,-0.038086 0.03516,-0.046875 0.02344,-0.014648 0.04101,-0.023437 0.05859,-0.023437 h 0.492188 v -0.8320313 c 0,-0.023437 0.0029,-0.041016 0.01172,-0.058594 0.01465,-0.014648 0.03516,-0.026367 0.05859,-0.035156 0.02344,-0.014648 0.05274,-0.023437 0.09375,-0.023437 0.04687,-0.00586 0.09961,-0.011719 0.164063,-0.011719 0.06152,0 0.111328,0.00586 0.152344,0.011719 0.04687,0 0.08203,0.00879 0.105468,0.023437 0.02344,0.00879 0.03809,0.020508 0.04687,0.035156 0.01465,0.017578 0.02344,0.035156 0.02344,0.058594 v 0.8320313 h 0.902344 c 0.02344,0 0.04101,0.00879 0.05859,0.023437 0.01465,0.00879 0.02637,0.023437 0.03516,0.046875 0.01465,0.017578 0.02344,0.043945 0.02344,0.082031 0.0059,0.032227 0.01172,0.076172 0.01172,0.1289063 0,0.09375 -0.01172,0.1611328 -0.03516,0.1992187 -0.02344,0.041016 -0.05566,0.058594 -0.09375,0.058594 h -0.902344 v 1.96875 c 0,0.25195309 0.03516,0.43945309 0.105469,0.56249996 0.07031,0.1171875 0.199218,0.17578125 0.386718,0.17578125 0.05274,0 0.105469,-0.00293 0.152344,-0.0117187 0.05274,-0.0146484 0.09668,-0.0263672 0.128906,-0.0351563 0.03809,-0.0146484 0.07031,-0.0263672 0.09375,-0.0351563 0.0293,-0.0146484 0.05274,-0.0234375 0.07031,-0.0234375 0.01465,0 0.02637,0.005859 0.03516,0.0117188 0.01465,0.008789 0.02637,0.0205078 0.03516,0.0351563 0.0059,0.0175781 0.01172,0.0410156 0.01172,0.0703125 0.0059,0.0322266 0.01172,0.0761719 0.01172,0.12890625 z M 18.008008,-3.399805 c 0,0.055664 0,0.1025391 0,0.140625 0,0.041016 -0.0059,0.070312 -0.01172,0.09375 -0.0088,0.023437 -0.02051,0.043945 -0.03516,0.058594 -0.0088,0.00879 -0.02344,0.011719 -0.04687,0.011719 -0.02344,0 -0.05274,-0.00293 -0.08203,-0.011719 -0.02344,-0.014648 -0.05566,-0.026367 -0.09375,-0.035156 -0.04102,-0.014648 -0.08203,-0.026367 -0.128907,-0.035156 -0.04687,-0.014648 -0.09961,-0.023437 -0.152343,-0.023437 -0.06445,0 -0.128907,0.017578 -0.199219,0.046875 -0.06445,0.023437 -0.128906,0.067383 -0.199219,0.1289062 -0.06445,0.055664 -0.134766,0.1347656 -0.210937,0.234375 -0.0791,0.1025391 -0.161133,0.2226563 -0.246094,0.3632813 v 2.33203121 c 0,0.01757813 -0.0088,0.03222656 -0.02344,0.046875 -0.0088,0.01757813 -0.02344,0.03222656 -0.04687,0.046875 -0.02344,0.00585938 -0.05859,0.01171875 -0.105468,0.01171875 -0.04102,0.0058594 -0.09082,0.01171875 -0.152344,0.01171875 -0.06445,0 -0.117188,-0.0058594 -0.164063,-0.01171875 -0.04102,0 -0.07031,-0.00585937 -0.09375,-0.01171875 -0.02344,-0.01464844 -0.04395,-0.02929687 -0.05859,-0.046875 -0.0088,-0.01464844 -0.01172,-0.02929687 -0.01172,-0.046875 V -3.6341797 c 0,-0.023437 0.0029,-0.038086 0.01172,-0.046875 0.0059,-0.014648 0.02344,-0.026367 0.04687,-0.035156 0.02344,-0.014648 0.05273,-0.023437 0.09375,-0.023437 0.03809,-0.00586 0.08496,-0.011719 0.140625,-0.011719 0.06152,0 0.108398,0.00586 0.140625,0.011719 0.03809,0 0.07031,0.00879 0.09375,0.023437 0.02344,0.00879 0.03809,0.020508 0.04687,0.035156 0.0059,0.00879 0.01172,0.023437 0.01172,0.046875 v 0.515625 c 0.09961,-0.140625 0.19043,-0.2519531 0.269532,-0.3398437 0.08496,-0.09375 0.166992,-0.1640625 0.246093,-0.2109375 0.07617,-0.052734 0.152344,-0.087891 0.222657,-0.1054688 0.07617,-0.023437 0.155273,-0.035156 0.234375,-0.035156 0.0293,0 0.06445,0.00586 0.105468,0.011719 0.04687,0 0.09375,0.00879 0.140625,0.023437 0.04687,0.00879 0.08789,0.020508 0.128907,0.035156 0.03809,0.00879 0.06445,0.020508 0.08203,0.035156 0.01465,0.00879 0.02344,0.020508 0.02344,0.035156 0.0059,0.00879 0.01172,0.023437 0.01172,0.046875 0.0059,0.017578 0.01172,0.043945 0.01172,0.082031 0,0.032227 0,0.079102 0,0.140625 z m 3.867187,1.5 c 0,0.28125 -0.04102,0.5449219 -0.117187,0.7851563 -0.0791,0.24316402 -0.19336,0.45410152 -0.339844,0.63281246 -0.149414,0.17285156 -0.336914,0.31054688 -0.5625,0.41015625 -0.228516,0.09375 -0.489258,0.140625 -0.785156,0.140625 -0.298828,0 -0.556641,-0.04394531 -0.773438,-0.12890625 -0.210937,-0.08496094 -0.392578,-0.2109375 -0.539062,-0.375 -0.140625,-0.1640625 -0.246094,-0.36328125 -0.316406,-0.59765626 -0.07031,-0.234375 -0.105469,-0.4980469 -0.105469,-0.796875 0,-0.2871094 0.03516,-0.5537109 0.105469,-0.796875 0.07617,-0.2402344 0.190429,-0.4482422 0.339843,-0.6210937 0.155274,-0.178711 0.342774,-0.3164063 0.5625,-0.4101563 0.225586,-0.099609 0.492188,-0.1523437 0.796875,-0.1523437 0.28711,0 0.539063,0.043945 0.75,0.1289062 0.216797,0.087891 0.398438,0.2109375 0.539063,0.375 0.146484,0.1640625 0.257812,0.3691406 0.328125,0.609375 0.07617,0.234375 0.117187,0.5009766 0.117187,0.796875 z m -0.691406,0.035156 c 0,-0.1875 -0.02051,-0.366211 -0.05859,-0.5390625 -0.03223,-0.1699219 -0.08789,-0.319336 -0.164062,-0.4453125 -0.0791,-0.131836 -0.1875,-0.234375 -0.328125,-0.3046875 -0.140625,-0.076172 -0.313477,-0.1171875 -0.515625,-0.1171875 -0.196289,0 -0.363281,0.035156 -0.503906,0.1054687 -0.134766,0.070312 -0.246094,0.1699219 -0.339844,0.2929688 -0.08789,0.1259765 -0.152344,0.2753906 -0.199219,0.4453125 -0.04102,0.1640625 -0.05859,0.3486328 -0.05859,0.5507812 0,0.1962891 0.01465,0.3808594 0.04687,0.5507813 0.03809,0.1640625 0.09668,0.3134765 0.175782,0.44531246 0.08496,0.12597656 0.199218,0.22851563 0.339843,0.3046875 0.140625,0.0703125 0.310547,0.10546875 0.515625,0.10546875 0.1875,0 0.351563,-0.0351562 0.492188,-0.10546875 0.140625,-0.0703125 0.251953,-0.1640625 0.339844,-0.28125 0.09375,-0.12304687 0.158203,-0.27246096 0.199218,-0.44531246 0.03809,-0.1699219 0.05859,-0.3574219 0.05859,-0.5625 z m 2.25293,1.76953121 c 0,0.01757813 -0.0088,0.03222656 -0.02344,0.046875 -0.0088,0.01757813 -0.02344,0.03222656 -0.04687,0.046875 -0.02344,0.00585938 -0.05859,0.01171875 -0.105468,0.01171875 -0.04102,0.0058594 -0.09082,0.01171875 -0.152344,0.01171875 -0.06445,0 -0.117188,-0.0058594 -0.164063,-0.01171875 -0.04102,0 -0.07031,-0.00585937 -0.09375,-0.01171875 -0.02344,-0.01464844 -0.04395,-0.02929687 -0.05859,-0.046875 -0.0088,-0.01464844 -0.01172,-0.02929687 -0.01172,-0.046875 V -5.3451172 c 0,-0.023437 0.0029,-0.041016 0.01172,-0.058594 0.01465,-0.014648 0.03516,-0.026367 0.05859,-0.035156 0.02344,-0.00586 0.05273,-0.014648 0.09375,-0.023437 0.04687,-0.00586 0.09961,-0.011719 0.164063,-0.011719 0.06152,0 0.111328,0.00586 0.152344,0.011719 0.04687,0.00879 0.08203,0.017578 0.105468,0.023437 0.02344,0.00879 0.03809,0.020508 0.04687,0.035156 0.01465,0.017578 0.02344,0.035156 0.02344,0.058594 z m 3.37207,-0.96093751 c 0,0.18164064 -0.03516,0.33984376 -0.105469,0.48046876 -0.07031,0.140625 -0.169922,0.26367188 -0.292968,0.36328125 -0.117188,0.09375 -0.263672,0.1640625 -0.433594,0.2109375 -0.172852,0.046875 -0.360352,0.0703125 -0.5625,0.0703125 -0.125977,0 -0.246094,-0.01171875 -0.363281,-0.03515625 -0.111329,-0.01757812 -0.210938,-0.03515625 -0.304688,-0.05859375 -0.08789,-0.02929687 -0.161133,-0.06152344 -0.222656,-0.09375 -0.06445,-0.0380859 -0.111328,-0.0703125 -0.140625,-0.09375 -0.03223,-0.0234375 -0.05566,-0.0585938 -0.07031,-0.10546875 -0.0088,-0.046875 -0.01172,-0.11132812 -0.01172,-0.19921875 0,-0.046875 0,-0.0849609 0,-0.1171875 0.0059,-0.0380859 0.01465,-0.0644531 0.02344,-0.0820313 0.0059,-0.0234375 0.01758,-0.0380859 0.03516,-0.046875 0.01465,-0.0146484 0.03516,-0.0234375 0.05859,-0.0234375 0.02344,0 0.06152,0.0205078 0.117188,0.0585938 0.06152,0.0322266 0.131836,0.0703125 0.210937,0.1171875 0.08496,0.0410156 0.181641,0.0791016 0.292969,0.1171875 0.117187,0.0322266 0.246094,0.046875 0.386719,0.046875 0.108398,0 0.205078,-0.0117188 0.292968,-0.0351563 0.09375,-0.0234375 0.169922,-0.0585937 0.234375,-0.10546875 0.07031,-0.046875 0.120118,-0.10546875 0.152344,-0.17578125 0.03809,-0.0703125 0.05859,-0.15234375 0.05859,-0.24609371 0,-0.099609 -0.0293,-0.1816406 -0.08203,-0.2460937 -0.04687,-0.070312 -0.114258,-0.131836 -0.199219,-0.1875 -0.08789,-0.052734 -0.181641,-0.099609 -0.28125,-0.140625 -0.102539,-0.038086 -0.210938,-0.076172 -0.328125,-0.1171875 -0.111328,-0.046875 -0.219727,-0.09668 -0.328125,-0.1523438 -0.102539,-0.061523 -0.196289,-0.1318359 -0.28125,-0.2109375 -0.0791,-0.084961 -0.146485,-0.1816407 -0.199219,-0.2929687 -0.04687,-0.1083985 -0.07031,-0.2402344 -0.07031,-0.3984375 0,-0.140625 0.02344,-0.272461 0.07031,-0.3984375 0.05273,-0.131836 0.134766,-0.2460938 0.246094,-0.3398438 0.108398,-0.09375 0.240234,-0.1669923 0.398437,-0.2226562 0.164063,-0.061523 0.351563,-0.09375 0.5625,-0.09375 0.09375,0 0.1875,0.00879 0.28125,0.023437 0.09961,0.017578 0.1875,0.035156 0.257813,0.058594 0.07617,0.023437 0.143555,0.052734 0.199219,0.082031 0.05273,0.023437 0.09375,0.046875 0.117187,0.070312 0.0293,0.023437 0.0498,0.043945 0.05859,0.058594 0.0059,0.017578 0.01172,0.035156 0.01172,0.058594 0.0059,0.017578 0.01172,0.041016 0.01172,0.070312 0.0059,0.023437 0.01172,0.055664 0.01172,0.09375 0,0.046875 -0.0059,0.087891 -0.01172,0.1171875 0,0.032227 -0.0059,0.058594 -0.01172,0.082031 -0.0088,0.023437 -0.02051,0.041016 -0.03516,0.046875 -0.01758,0.00879 -0.03223,0.011719 -0.04687,0.011719 -0.02344,0 -0.05859,-0.011719 -0.105468,-0.035156 -0.04102,-0.029297 -0.09375,-0.061523 -0.164063,-0.09375 -0.07031,-0.038086 -0.158203,-0.070312 -0.257812,-0.09375 -0.09375,-0.029297 -0.199219,-0.046875 -0.316407,-0.046875 -0.111328,0 -0.208007,0.011719 -0.292968,0.035156 -0.08789,0.023437 -0.158204,0.058594 -0.210938,0.1054687 -0.05566,0.046875 -0.09961,0.1025391 -0.128906,0.1640625 -0.02344,0.064453 -0.03516,0.1347656 -0.03516,0.2109375 0,0.1025391 0.02637,0.1875 0.08203,0.2578125 0.05273,0.064453 0.120117,0.1230469 0.199219,0.1757813 0.08496,0.055664 0.18164,0.102539 0.292968,0.140625 0.108399,0.041016 0.216797,0.082031 0.328125,0.1289062 0.108399,0.046875 0.216797,0.099609 0.328125,0.1523438 0.108399,0.055664 0.202149,0.1230468 0.28125,0.1992187 0.08496,0.079102 0.155274,0.1728516 0.210938,0.28125 0.05273,0.1113281 0.08203,0.2431641 0.08203,0.3984375 z m 0,0"
           style="fill:#000000;fill-opacity:1;fill-rule:nonzero;stroke:none"
           aria-label="  Controls"
           transform="matrix(1.3333333,0,0,1.3333333,1817.7867,145.46667)"
           clip-path="url(#clipPath88)" />
      </g>
      <g
         id="g88"
         transform="translate(-844.5867,-338.80003)">
        <path
           id="path89"
           d="m 178.7,726.42 h 45.15 v 18 H 178.7 Z"
           style="fill:#ffffff;fill-opacity:1;fill-rule:evenodd;stroke:#000000;stroke-width:0.5;stroke-linecap:butt;stroke-linejoin:round;stroke-miterlimit:10;stroke-dasharray:none;stroke-opacity:1"
           transform="matrix(1.3333333,0,0,-1.3333333,1627.52,1122.56)" />
      </g>
      <g
         id="g89"
         transform="translate(-844.5867,-338.80003)">
        <path
           id="path90"
           d="m 2.7301562,-0.11574219 c -0.017578,0.03222656 -0.032227,0.05566406 -0.046875,0.0703125 -0.017578,0.01757813 -0.043945,0.03222656 -0.082031,0.046875 -0.032227,0.00585938 -0.076172,0.01171875 -0.1289063,0.01171875 -0.046875,0.0058594 -0.1054687,0.01171875 -0.1757812,0.01171875 -0.064453,0 -0.1171875,0 -0.1640625,0 -0.041016,0 -0.076172,-0.0058594 -0.1054688,-0.01171875 C 1.9948047,0.004375 1.9684375,0.00144531 1.945,0.00144531 1.921563,-0.00441406 1.901055,-0.01320313 1.886406,-0.02199219 1.868828,-0.03664063 1.857109,-0.05128906 1.85125,-0.06886719 1.84246,-0.08351563 1.833672,-0.09816406 1.827813,-0.11574219 L 0.16375,-4.8383984 c -0.0175781,-0.052734 -0.0292969,-0.09668 -0.0351563,-0.1289063 0,-0.038086 0.0117188,-0.064453 0.0351563,-0.082031 0.0234375,-0.023437 0.0615234,-0.035156 0.1171875,-0.035156 0.0527344,-0.00586 0.12304687,-0.011719 0.2109375,-0.011719 0.0761719,0 0.13476562,0.00586 0.17578125,0.011719 0.046875,0 0.0820313,0.00586 0.10546875,0.011719 0.0234375,0.00879 0.0380859,0.023437 0.046875,0.046875 0.0146484,0.017578 0.0263672,0.035156 0.0351563,0.058594 l 1.4531249,4.27734276 H 2.32 L 3.7379687,-4.9555859 c 0.00586,-0.029297 0.014648,-0.052734 0.023437,-0.070312 0.00586,-0.023437 0.023437,-0.038086 0.046875,-0.046875 0.029297,-0.00586 0.070312,-0.011719 0.1171875,-0.011719 0.046875,-0.00586 0.1083985,-0.011719 0.1875,-0.011719 0.076172,0 0.140625,0.00586 0.1875,0.011719 0.046875,0 0.076172,0.011719 0.09375,0.035156 0.023437,0.017578 0.029297,0.043945 0.023437,0.082031 0,0.032227 -0.011719,0.076172 -0.035156,0.1289063 z m 3.0820313,0.0234375 c 0,0.01757813 -0.00879,0.03222656 -0.023437,0.046875 -0.00879,0.01757813 -0.023437,0.03222656 -0.046875,0.046875 -0.023437,0.00585938 -0.058594,0.01171875 -0.1054688,0.01171875 -0.041016,0.0058594 -0.09082,0.01171875 -0.1523437,0.01171875 -0.064453,0 -0.1171875,-0.0058594 -0.1640625,-0.01171875 -0.041016,0 -0.070312,-0.00585937 -0.09375,-0.01171875 -0.023437,-0.01464844 -0.043945,-0.02929687 -0.058594,-0.046875 -0.00879,-0.01464844 -0.011719,-0.02929687 -0.011719,-0.046875 V -3.6313672 c 0,-0.014648 0.00293,-0.029297 0.011719,-0.046875 0.014649,-0.014648 0.035156,-0.026367 0.058594,-0.035156 0.023437,-0.014648 0.052734,-0.023437 0.09375,-0.023437 0.046875,-0.00586 0.099609,-0.011719 0.1640625,-0.011719 0.061523,0 0.1113281,0.00586 0.1523437,0.011719 0.046875,0 0.082031,0.00879 0.1054688,0.023437 0.023437,0.00879 0.038086,0.020508 0.046875,0.035156 0.014648,0.017578 0.023437,0.032227 0.023437,0.046875 z M 5.8825,-4.8266797 c 0,0.1582031 -0.032227,0.2636719 -0.09375,0.3164063 -0.055664,0.055664 -0.1611328,0.082031 -0.3164063,0.082031 -0.149414,0 -0.2519531,-0.026367 -0.3046875,-0.082031 -0.055664,-0.052734 -0.082031,-0.1552735 -0.082031,-0.3046875 0,-0.1464844 0.026367,-0.2490235 0.082031,-0.3046875 0.052734,-0.052734 0.1582032,-0.082031 0.3164063,-0.082031 0.1464844,0 0.2490234,0.029297 0.3046875,0.082031 0.061523,0.046875 0.09375,0.1464843 0.09375,0.2929687 z m 4.1103516,4.73437501 c 0,0.01757813 -0.00879,0.03222656 -0.023437,0.046875 -0.00879,0.01757813 -0.023437,0.03222656 -0.046875,0.046875 -0.023437,0.00585938 -0.055664,0.01171875 -0.09375,0.01171875 -0.032227,0.0058594 -0.076172,0.01171875 -0.1289063,0.01171875 -0.055664,0 -0.1025391,-0.0058594 -0.140625,-0.01171875 -0.032227,0 -0.058594,-0.00585937 -0.082031,-0.01171875 -0.023437,-0.01464844 -0.043945,-0.02929687 -0.058594,-0.046875 -0.00879,-0.01464844 -0.011719,-0.02929687 -0.011719,-0.046875 v -0.46875 c -0.1875,0.20507813 -0.3837891,0.36035156 -0.5859375,0.46875 -0.1962891,0.10839844 -0.4101563,0.1640625 -0.6445313,0.1640625 -0.2578125,0 -0.4804687,-0.046875 -0.6679687,-0.140625 -0.1816407,-0.09960937 -0.328125,-0.23730469 -0.4453125,-0.41015625 -0.1113282,-0.16992187 -0.1933594,-0.375 -0.2460938,-0.60937496 -0.055664,-0.234375 -0.082031,-0.4746094 -0.082031,-0.7265625 0,-0.3046875 0.029297,-0.5771485 0.09375,-0.8203125 0.070312,-0.2490235 0.1669921,-0.459961 0.2929687,-0.6328125 0.1318359,-0.1699219 0.2929688,-0.3046875 0.4804688,-0.3984375 0.1875,-0.09375 0.4042968,-0.140625 0.65625,-0.140625 0.2109375,0 0.3984375,0.046875 0.5625,0.140625 0.1699218,0.087891 0.3427734,0.2197265 0.515625,0.3984375 v -2.0625 c 0,-0.014648 0.00293,-0.029297 0.011719,-0.046875 0.00586,-0.014648 0.023437,-0.026367 0.046875,-0.035156 0.029297,-0.014648 0.064453,-0.023437 0.1054688,-0.023437 0.038086,-0.00586 0.087891,-0.011719 0.1523437,-0.011719 0.070312,0 0.1230469,0.00586 0.1640625,0.011719 0.038086,0 0.070312,0.00879 0.09375,0.023437 0.023437,0.00879 0.041016,0.020508 0.058594,0.035156 0.014648,0.017578 0.023437,0.032227 0.023437,0.046875 z M 9.3366016,-2.5766797 C 9.1549609,-2.7934766 8.9850391,-2.9575391 8.8209766,-3.0688672 8.6627734,-3.1860547 8.4957812,-3.2446484 8.3170703,-3.2446484 c -0.1640625,0 -0.3046875,0.041016 -0.421875,0.1171875 -0.1171875,0.079102 -0.2109375,0.1845703 -0.28125,0.3164062 -0.070312,0.1259766 -0.1259766,0.2695313 -0.1640625,0.4335938 -0.032227,0.1582031 -0.046875,0.3222656 -0.046875,0.4921875 0,0.1728515 0.011719,0.3457031 0.035156,0.515625 0.029297,0.1728515 0.082031,0.3251953 0.1523437,0.45703121 0.070312,0.13476563 0.1582031,0.24023438 0.2695313,0.31640625 0.1171875,0.0791016 0.2578125,0.1171875 0.421875,0.1171875 0.09375,0 0.1787109,-0.0117188 0.2578125,-0.0351562 0.076172,-0.0234375 0.1552734,-0.0615234 0.234375,-0.1171875 0.084961,-0.0527344 0.1757812,-0.12304687 0.2695312,-0.2109375 0.09375,-0.0849609 0.1904297,-0.19335936 0.2929688,-0.32812496 z m 4.8544924,0.5625 c 0,0.1025391 -0.0293,0.1757813 -0.08203,0.2226563 -0.04687,0.041016 -0.102539,0.058594 -0.164062,0.058594 h -2.320313 c 0,0.1962891 0.01758,0.3720703 0.05859,0.5273438 0.03809,0.1582031 0.105469,0.29296871 0.199219,0.41015621 0.09375,0.11132813 0.210937,0.19628906 0.351562,0.2578125 0.146485,0.0556641 0.331055,0.0820312 0.550782,0.0820312 0.164062,0 0.310547,-0.0117188 0.445312,-0.0351563 0.131836,-0.0292969 0.246094,-0.0615234 0.339844,-0.09375 0.09375,-0.0292969 0.169922,-0.0585938 0.234375,-0.0820313 0.06152,-0.0292969 0.108398,-0.046875 0.140625,-0.046875 0.01465,0 0.0293,0.005859 0.04687,0.0117188 0.01465,0.008789 0.02637,0.0234375 0.03516,0.046875 0.0059,0.0175781 0.01172,0.0410156 0.01172,0.0703125 0.0059,0.0322266 0.01172,0.0703125 0.01172,0.1171875 0,0.0322266 -0.0059,0.0644531 -0.01172,0.09375 0,0.0234375 -0.0059,0.046875 -0.01172,0.0703125 0,0.0175781 -0.0059,0.0322266 -0.01172,0.046875 -0.0088,0.0175781 -0.02051,0.0322266 -0.03516,0.046875 -0.01758,0.0175781 -0.05859,0.0410156 -0.128906,0.0703125 -0.07031,0.0322266 -0.164063,0.06445313 -0.28125,0.09375 -0.111328,0.03222656 -0.240234,0.05859375 -0.386719,0.08203125 -0.149414,0.0234375 -0.304687,0.03515625 -0.46875,0.03515625 -0.290039,0 -0.544922,-0.04101562 -0.761719,-0.1171875 -0.219726,-0.07617187 -0.404296,-0.19335937 -0.550781,-0.3515625 -0.149414,-0.1640625 -0.263672,-0.36621094 -0.339844,-0.60937501 -0.0791,-0.2402344 -0.117187,-0.5214844 -0.117187,-0.84375 0,-0.3046875 0.03809,-0.5771484 0.117187,-0.8203125 0.07617,-0.2402344 0.19043,-0.4453125 0.339844,-0.609375 0.146485,-0.1699219 0.328125,-0.2988281 0.539063,-0.3867187 0.210937,-0.09375 0.445312,-0.140625 0.703125,-0.140625 0.272461,0 0.506836,0.046875 0.703125,0.140625 0.193359,0.087891 0.354492,0.2050781 0.480468,0.3515625 0.123047,0.149414 0.213868,0.3251953 0.269532,0.5273437 0.06152,0.2050781 0.09375,0.421875 0.09375,0.65625 z m -0.644532,-0.1992187 c 0.0059,-0.3339844 -0.07031,-0.600586 -0.234375,-0.796875 -0.158203,-0.1933594 -0.386718,-0.2929688 -0.691406,-0.2929688 -0.164062,0 -0.310547,0.032227 -0.433594,0.09375 -0.117187,0.064453 -0.219726,0.1464844 -0.304687,0.2460938 -0.0791,0.09375 -0.140625,0.2080078 -0.1875,0.3398437 -0.04102,0.1347656 -0.06445,0.2695313 -0.07031,0.4101563 z m 4.863282,0.3164062 c 0,0.28125 -0.04102,0.5449219 -0.117188,0.7851563 -0.0791,0.24316402 -0.193359,0.45410152 -0.339844,0.63281246 -0.149414,0.17285156 -0.336914,0.31054688 -0.5625,0.41015625 -0.228515,0.09375 -0.489257,0.140625 -0.785156,0.140625 -0.298828,0 -0.55664,-0.04394531 -0.773437,-0.12890625 -0.210938,-0.08496094 -0.392578,-0.2109375 -0.539063,-0.375 -0.140625,-0.1640625 -0.246094,-0.36328125 -0.316406,-0.59765626 -0.07031,-0.234375 -0.105469,-0.4980469 -0.105469,-0.796875 0,-0.2871094 0.03516,-0.5537109 0.105469,-0.796875 0.07617,-0.2402344 0.19043,-0.4482422 0.339844,-0.6210937 0.155273,-0.178711 0.342773,-0.3164063 0.5625,-0.4101563 0.225586,-0.099609 0.492187,-0.1523437 0.796875,-0.1523437 0.287109,0 0.539062,0.043945 0.75,0.1289062 0.216797,0.087891 0.398437,0.2109375 0.539062,0.375 0.146485,0.1640625 0.257813,0.3691406 0.328125,0.609375 0.07617,0.234375 0.117188,0.5009766 0.117188,0.796875 z m -0.691407,0.035156 c 0,-0.1875 -0.02051,-0.366211 -0.05859,-0.5390625 -0.03223,-0.1699219 -0.08789,-0.319336 -0.164063,-0.4453125 -0.0791,-0.131836 -0.1875,-0.234375 -0.328125,-0.3046875 -0.140625,-0.076172 -0.313476,-0.1171875 -0.515625,-0.1171875 -0.196289,0 -0.363281,0.035156 -0.503906,0.1054687 -0.134766,0.070312 -0.246094,0.1699219 -0.339844,0.2929688 -0.08789,0.1259765 -0.152344,0.2753906 -0.199219,0.4453125 -0.04101,0.1640625 -0.05859,0.3486328 -0.05859,0.5507812 0,0.1962891 0.01465,0.3808594 0.04687,0.5507813 0.03809,0.1640625 0.09668,0.3134765 0.175781,0.44531246 0.08496,0.12597656 0.199219,0.22851563 0.339844,0.3046875 0.140625,0.0703125 0.310547,0.10546875 0.515625,0.10546875 0.1875,0 0.351562,-0.0351562 0.492187,-0.10546875 0.140625,-0.0703125 0.251953,-0.1640625 0.339844,-0.28125 0.09375,-0.12304687 0.158203,-0.27246096 0.199219,-0.44531246 0.03809,-0.1699219 0.05859,-0.3574219 0.05859,-0.5625 z m 0,0"
           style="fill:#000000;fill-opacity:1;fill-rule:nonzero;stroke:none"
           aria-label=" Video"
           transform="matrix(1.3333333,0,0,1.3333333,1883.4267,145.30667)"
           clip-path="url(#clipPath91)" />
      </g>
      <g
         id="g91"
         transform="translate(-844.5867,-338.80003)">
        <path
           id="path92"
           d="m 223.55,726.22 h 45.15 v 18 h -45.15 z"
           style="fill:#ffffff;fill-opacity:1;fill-rule:evenodd;stroke:#000000;stroke-width:0.5;stroke-linecap:butt;stroke-linejoin:round;stroke-miterlimit:10;stroke-dasharray:none;stroke-opacity:1"
           transform="matrix(1.3333333,0,0,-1.3333333,1627.52,1122.56)" />
      </g>
      <g
         id="g92"
         transform="translate(-844.5867,-338.80003)">
        <path
           id="path93"
           d="m 3.3970703,-1.4309375 c 0,0.2431641 -0.043945,0.45703125 -0.1289062,0.64453125 -0.087891,0.18164063 -0.2080079,0.33691406 -0.3632813,0.46875 -0.1582031,0.13476563 -0.3398437,0.23144531 -0.5507812,0.29296875 -0.2109375,0.06152344 -0.4394532,0.09375 -0.6796875,0.09375 -0.1728516,0 -0.3339844,-0.01757812 -0.4804688,-0.046875 -0.140625,-0.0234375 -0.26953124,-0.05273437 -0.38671874,-0.09375 -0.11132812,-0.046875 -0.20507812,-0.08789062 -0.28125,-0.12890625 -0.0791016,-0.046875 -0.13476562,-0.0849609 -0.1640625,-0.1171875 -0.0322266,-0.0292969 -0.0556641,-0.0703125 -0.0703125,-0.1171875 -0.008789,-0.0527344 -0.0117188,-0.12011719 -0.0117188,-0.19921875 0,-0.0527344 0,-0.0996094 0,-0.140625 0.005859,-0.0380859 0.0146484,-0.0703125 0.0234375,-0.09375 0.0146484,-0.0234375 0.0292969,-0.0380859 0.046875,-0.046875 0.0146484,-0.005859 0.0351563,-0.0117188 0.0585938,-0.0117188 0.0292969,0 0.0761719,0.0234375 0.140625,0.0703125 0.0703125,0.0410156 0.15527344,0.0878906 0.2578125,0.140625 0.10839844,0.046875 0.23730464,0.09375 0.38671874,0.140625 0.1464844,0.046875 0.3193359,0.0703125 0.515625,0.0703125 0.140625,0 0.2724609,-0.0175781 0.3984375,-0.0585938 0.1230469,-0.0380859 0.2285156,-0.09375 0.3164063,-0.1640625 0.084961,-0.0703125 0.1523437,-0.15527344 0.1992187,-0.2578125 0.046875,-0.1083984 0.070312,-0.2285156 0.070312,-0.3632812 0,-0.1464844 -0.035156,-0.272461 -0.1054687,-0.375 C 2.5240234,-1.8235156 2.4390625,-1.9143359 2.3306641,-1.9934375 2.228125,-2.0696094 2.1080078,-2.1399219 1.9673828,-2.204375 1.8326172,-2.2658984 1.6919922,-2.3274219 1.5455078,-2.391875 1.4048828,-2.4621875 1.2642578,-2.5354297 1.1236328,-2.6145312 0.98886719,-2.6994922 0.86875,-2.7961719 0.76035156,-2.9075 c -0.10253906,-0.1083984 -0.1875,-0.2373047 -0.2578125,-0.3867187 -0.0644531,-0.1464844 -0.09375,-0.3222657 -0.09375,-0.5273438 0,-0.2109375 0.0351563,-0.3984375 0.10546875,-0.5625 0.0761719,-0.1699219 0.18164063,-0.3105469 0.31640625,-0.421875 C 0.97128906,-4.923125 1.1353516,-5.0080859 1.3228516,-5.06375 1.5162109,-5.125273 1.7242187,-5.1575 1.9439453,-5.1575 c 0.1171875,0 0.2285156,0.011719 0.3398438,0.035156 0.1171875,0.017578 0.2226562,0.043945 0.3164062,0.082031 0.099609,0.032227 0.1904297,0.067383 0.2695313,0.1054688 0.084961,0.041016 0.140625,0.070312 0.1640625,0.09375 0.023437,0.023437 0.038086,0.043945 0.046875,0.058594 0.00586,0.017578 0.011719,0.035156 0.011719,0.058594 0.00586,0.023437 0.011719,0.052734 0.011719,0.082031 0.00586,0.032227 0.011719,0.070312 0.011719,0.1171875 0,0.046875 -0.00586,0.09082 -0.011719,0.1289063 0,0.041016 -0.00586,0.070312 -0.011719,0.09375 -0.00879,0.023437 -0.020508,0.043945 -0.035156,0.058594 -0.017578,0.00879 -0.032227,0.011719 -0.046875,0.011719 -0.032227,0 -0.079102,-0.014648 -0.140625,-0.046875 C 2.8052734,-4.3166797 2.7320312,-4.360625 2.6470703,-4.4075 2.5591797,-4.454375 2.4537109,-4.4953906 2.3306641,-4.5364062 2.2134766,-4.5744922 2.0757812,-4.595 1.9205078,-4.595 c -0.140625,0 -0.2666016,0.020508 -0.375,0.058594 -0.1025391,0.041016 -0.1875,0.09082 -0.2578125,0.1523437 -0.064453,0.064453 -0.1142578,0.1376953 -0.1523437,0.2226563 -0.032227,0.087891 -0.046875,0.1757812 -0.046875,0.2695312 0,0.140625 0.029297,0.2666016 0.09375,0.375 0.070312,0.1025391 0.1582031,0.1933594 0.2695312,0.2695313 0.1083984,0.079102 0.2285156,0.149414 0.3632813,0.2109375 0.140625,0.064453 0.28125,0.1289062 0.421875,0.1992187 0.1464843,0.070312 0.2929687,0.1464844 0.4335937,0.2226563 0.140625,0.079102 0.2607422,0.1728515 0.3632813,0.28125 0.1083984,0.1113281 0.1933593,0.2402343 0.2578125,0.3867187 0.070312,0.1494141 0.1054687,0.3222656 0.1054687,0.5156248 z m 4.2070313,-0.46875 c 0,0.28125 -0.041016,0.5449219 -0.1171875,0.7851563 -0.079102,0.24316401 -0.1933594,0.45410151 -0.3398438,0.63281245 -0.1494141,0.17285156 -0.3369141,0.31054688 -0.5625,0.41015625 -0.2285156,0.09375 -0.4892578,0.140625 -0.7851562,0.140625 -0.2988282,0 -0.5566407,-0.04394531 -0.7734375,-0.12890625 -0.2109375,-0.08496094 -0.3925782,-0.2109375 -0.5390625,-0.375 C 4.3462891,-0.59890625 4.2408203,-0.798125 4.1705078,-1.0325 4.1001953,-1.266875 4.0650391,-1.5305469 4.0650391,-1.829375 c 0,-0.2871094 0.035156,-0.5537109 0.1054687,-0.796875 0.076172,-0.2402344 0.1904297,-0.4482422 0.3398438,-0.6210937 0.1552734,-0.178711 0.3427734,-0.3164063 0.5625,-0.4101563 0.2255859,-0.099609 0.4921875,-0.1523437 0.796875,-0.1523437 0.2871093,0 0.5390625,0.043945 0.75,0.1289062 0.2167968,0.087891 0.3984375,0.2109375 0.5390625,0.375 0.1464843,0.1640625 0.2578125,0.3691406 0.328125,0.609375 0.076172,0.234375 0.1171875,0.5009766 0.1171875,0.796875 z m -0.6914063,0.035156 c 0,-0.1875 -0.020508,-0.366211 -0.058594,-0.5390625 -0.032227,-0.1699219 -0.087891,-0.319336 -0.1640625,-0.4453125 -0.079102,-0.131836 -0.1875,-0.234375 -0.328125,-0.3046875 -0.140625,-0.076172 -0.3134766,-0.1171875 -0.515625,-0.1171875 -0.1962891,0 -0.3632813,0.035156 -0.5039063,0.1054687 -0.1347656,0.070312 -0.2460937,0.1699219 -0.3398437,0.2929688 -0.087891,0.1259765 -0.1523438,0.2753906 -0.1992188,0.4453125 -0.041016,0.1640625 -0.058594,0.3486328 -0.058594,0.5507812 0,0.1962891 0.014648,0.3808594 0.046875,0.5507813 0.038086,0.1640625 0.09668,0.3134765 0.1757812,0.44531245 0.084961,0.12597656 0.1992188,0.22851563 0.3398438,0.3046875 C 5.4478516,-0.50515625 5.6177734,-0.47 5.8228516,-0.47 c 0.1875,0 0.3515625,-0.0351563 0.4921875,-0.10546875 0.140625,-0.0703125 0.2519531,-0.1640625 0.3398437,-0.28125 0.09375,-0.12304687 0.1582031,-0.27246095 0.1992188,-0.44531245 0.038086,-0.1699219 0.058594,-0.3574219 0.058594,-0.5625003 z M 11.544531,-0.095 c 0,0.01757813 -0.0088,0.03222656 -0.02344,0.046875 -0.0088,0.01757813 -0.02344,0.03222656 -0.04687,0.046875 -0.02344,0.00585938 -0.05566,0.01171875 -0.09375,0.01171875 -0.04102,0.0058594 -0.08789,0.01171875 -0.140625,0.01171875 -0.05566,0 -0.102539,-0.0058594 -0.140625,-0.01171875 -0.04102,0 -0.07031,-0.00585937 -0.09375,-0.01171875 -0.02344,-0.01464844 -0.04102,-0.02929687 -0.04687,-0.046875 -0.0088,-0.01464844 -0.01172,-0.02929687 -0.01172,-0.046875 v -0.46875 c -0.205078,0.21972656 -0.404297,0.38085938 -0.597656,0.48046875 C 10.15293,0.01632813 9.9537109,0.0690625 9.7515625,0.0690625 9.5171875,0.0690625 9.3179687,0.02804688 9.1539062,-0.048125 8.9957031,-0.12429687 8.8667969,-0.22976562 8.7671875,-0.36453125 8.6734375,-0.49636719 8.603125,-0.65164062 8.55625,-0.83328125 8.5152344,-1.0119922 8.4976562,-1.2317187 8.4976562,-1.4895312 v -2.1445313 c 0,-0.023437 0.00293,-0.038086 0.011719,-0.046875 0.00586,-0.014648 0.023437,-0.026367 0.046875,-0.035156 0.029297,-0.014648 0.064453,-0.023437 0.1054687,-0.023437 0.038086,-0.00586 0.087891,-0.011719 0.1523438,-0.011719 0.061523,0 0.1113281,0.00586 0.1523437,0.011719 0.046875,0 0.082031,0.00879 0.1054688,0.023437 0.023437,0.00879 0.038086,0.020508 0.046875,0.035156 0.014648,0.00879 0.023437,0.023437 0.023437,0.046875 v 2.0625 c 0,0.2050781 0.014648,0.3691406 0.046875,0.4921875 0.029297,0.12597656 0.076172,0.23144531 0.140625,0.31640625 0.061523,0.0878906 0.140625,0.15820313 0.234375,0.2109375 0.09375,0.046875 0.2021484,0.0703125 0.328125,0.0703125 0.1640628,0 0.3222658,-0.0585938 0.4804688,-0.17578125 0.164063,-0.1171875 0.333985,-0.28417969 0.515625,-0.5039062 v -2.4726563 c 0,-0.023437 0.0029,-0.038086 0.01172,-0.046875 0.0059,-0.014648 0.02344,-0.026367 0.04687,-0.035156 0.0293,-0.014648 0.06445,-0.023437 0.105469,-0.023437 0.03809,-0.00586 0.09375,-0.011719 0.164062,-0.011719 0.06152,0 0.111328,0.00586 0.152344,0.011719 0.03809,0 0.07031,0.00879 0.09375,0.023437 0.02344,0.00879 0.04102,0.020508 0.05859,0.035156 0.01465,0.00879 0.02344,0.023437 0.02344,0.046875 z m 4.233399,0 c 0,0.01757813 -0.0088,0.03222656 -0.02344,0.046875 -0.0088,0.01757813 -0.02344,0.03222656 -0.04687,0.046875 -0.02344,0.00585938 -0.05859,0.01171875 -0.105469,0.01171875 -0.04101,0.0058594 -0.09082,0.01171875 -0.152343,0.01171875 -0.06445,0 -0.117188,-0.0058594 -0.164063,-0.01171875 -0.04102,0 -0.07031,-0.00585937 -0.09375,-0.01171875 -0.02344,-0.01464844 -0.04102,-0.02929687 -0.04687,-0.046875 -0.0088,-0.01464844 -0.01172,-0.02929687 -0.01172,-0.046875 v -2.0742187 c 0,-0.2021485 -0.01758,-0.3632813 -0.04687,-0.4804688 -0.03223,-0.1230469 -0.0791,-0.2285156 -0.140625,-0.3164062 -0.06445,-0.09375 -0.140625,-0.1640625 -0.234375,-0.2109375 -0.09375,-0.046875 -0.205078,-0.070312 -0.328125,-0.070312 -0.164062,0 -0.328125,0.058594 -0.492187,0.1757812 -0.164063,0.1113281 -0.333984,0.2783203 -0.503906,0.5039063 V -0.095 c 0,0.01757813 -0.0088,0.03222656 -0.02344,0.046875 -0.0088,0.01757813 -0.02344,0.03222656 -0.04687,0.046875 -0.02344,0.00585938 -0.05859,0.01171875 -0.105469,0.01171875 -0.04101,0.0058594 -0.09082,0.01171875 -0.152343,0.01171875 -0.06445,0 -0.117188,-0.0058594 -0.164063,-0.01171875 -0.04102,0 -0.07031,-0.00585937 -0.09375,-0.01171875 -0.02344,-0.01464844 -0.04395,-0.02929687 -0.05859,-0.046875 -0.0088,-0.01464844 -0.01172,-0.02929687 -0.01172,-0.046875 v -3.5390625 c 0,-0.023437 0.0029,-0.038086 0.01172,-0.046875 0.0059,-0.014648 0.02344,-0.026367 0.04687,-0.035156 0.02344,-0.014648 0.05274,-0.023437 0.09375,-0.023437 0.03809,-0.00586 0.08496,-0.011719 0.140625,-0.011719 0.06152,0 0.108399,0.00586 0.140625,0.011719 0.03809,0 0.07031,0.00879 0.09375,0.023437 0.02344,0.00879 0.03809,0.020508 0.04687,0.035156 0.0059,0.00879 0.01172,0.023437 0.01172,0.046875 v 0.46875 c 0.202149,-0.2167969 0.401367,-0.3779297 0.597656,-0.4804687 0.19336,-0.1083985 0.392579,-0.1640625 0.597657,-0.1640625 0.234375,0 0.427734,0.043945 0.585937,0.1289062 0.164063,0.079102 0.295899,0.1845703 0.398438,0.3164063 0.09961,0.1347656 0.169922,0.290039 0.210937,0.46875 0.04687,0.1816406 0.07031,0.3955078 0.07031,0.6445312 z m 4.168945,0 c 0,0.01757813 -0.0088,0.03222656 -0.02344,0.046875 -0.0088,0.01757813 -0.02344,0.03222656 -0.04687,0.046875 -0.02344,0.00585938 -0.05566,0.01171875 -0.09375,0.01171875 -0.03223,0.0058594 -0.07617,0.01171875 -0.128906,0.01171875 -0.05566,0 -0.102539,-0.0058594 -0.140625,-0.01171875 -0.03223,0 -0.05859,-0.00585937 -0.08203,-0.01171875 -0.02344,-0.01464844 -0.04394,-0.02929687 -0.05859,-0.046875 -0.0088,-0.01464844 -0.01172,-0.02929687 -0.01172,-0.046875 v -0.46875 c -0.1875,0.20507813 -0.383789,0.36035156 -0.585937,0.46875 -0.196289,0.10839844 -0.410156,0.1640625 -0.644531,0.1640625 -0.257813,0 -0.480469,-0.046875 -0.667969,-0.140625 -0.181641,-0.09960937 -0.328125,-0.23730469 -0.445313,-0.41015625 -0.111328,-0.16992187 -0.193359,-0.375 -0.246093,-0.60937495 -0.05566,-0.234375 -0.08203,-0.4746094 -0.08203,-0.7265625 0,-0.3046875 0.0293,-0.5771485 0.09375,-0.8203125 0.07031,-0.2490235 0.166993,-0.459961 0.292969,-0.6328125 0.131836,-0.1699219 0.292969,-0.3046875 0.480469,-0.3984375 0.1875,-0.09375 0.404297,-0.140625 0.65625,-0.140625 0.210937,0 0.398437,0.046875 0.5625,0.140625 0.169922,0.087891 0.342773,0.2197265 0.515625,0.3984375 v -2.0625 c 0,-0.014648 0.0029,-0.029297 0.01172,-0.046875 0.0059,-0.014648 0.02344,-0.026367 0.04687,-0.035156 0.0293,-0.014648 0.06445,-0.023437 0.105468,-0.023437 0.03809,-0.00586 0.08789,-0.011719 0.152344,-0.011719 0.07031,0 0.123047,0.00586 0.164063,0.011719 0.03809,0 0.07031,0.00879 0.09375,0.023437 0.02344,0.00879 0.04101,0.020508 0.05859,0.035156 0.01465,0.017578 0.02344,0.032227 0.02344,0.046875 z m -0.65625,-2.484375 C 19.108984,-2.7961719 18.939062,-2.9602344 18.775,-3.0715625 18.616797,-3.18875 18.449805,-3.2473437 18.271094,-3.2473437 c -0.164063,0 -0.304688,0.041016 -0.421875,0.1171875 -0.117188,0.079102 -0.210938,0.1845703 -0.28125,0.3164062 -0.07031,0.1259766 -0.125977,0.2695313 -0.164063,0.4335938 -0.03223,0.1582031 -0.04687,0.3222656 -0.04687,0.4921875 0,0.1728515 0.01172,0.3457031 0.03516,0.515625 0.0293,0.1728515 0.08203,0.3251953 0.152344,0.4570312 0.07031,0.13476563 0.158203,0.24023438 0.269531,0.31640625 0.117188,0.0791016 0.257813,0.1171875 0.421875,0.1171875 0.09375,0 0.178711,-0.0117188 0.257813,-0.0351563 0.07617,-0.0234375 0.155273,-0.0615234 0.234375,-0.1171875 0.08496,-0.0527344 0.175781,-0.12304687 0.269531,-0.2109375 0.09375,-0.0849609 0.19043,-0.19335935 0.292969,-0.32812495 z m 0,0"
           style="fill:#000000;fill-opacity:1;fill-rule:nonzero;stroke:none"
           aria-label=" Sound"
           transform="matrix(1.3333333,0,0,1.3333333,1941.9867,145.62667)"
           clip-path="url(#clipPath94)" />
      </g>
      <g
         id="g94"
         transform="translate(-844.5867,-338.80003)">
        <path
           id="path95"
           d="M 268.35,726.27 H 466.8 v 18 H 268.35 Z"
           style="fill:#d6dce5;fill-opacity:1;fill-rule:evenodd;stroke:#000000;stroke-width:0.5;stroke-linecap:butt;stroke-linejoin:round;stroke-miterlimit:10;stroke-dasharray:none;stroke-opacity:1"
           transform="matrix(1.3333333,0,0,-1.3333333,1627.52,1122.56)" />
      </g>
      <g
         id="g95"
         transform="translate(-844.5867,-338.80003)">
        <path
           id="path96"
           d="m 4.0200391,1.170625 c 0,0.09375 -0.011719,0.1582031 -0.035156,0.1992188 -0.017578,0.038086 -0.046875,0.058594 -0.09375,0.058594 H 0.10597656 c -0.04101562,0 -0.0703125,-0.020508 -0.09375,-0.058594 -0.0234375,-0.041016 -0.03515625,-0.1054688 -0.03515625,-0.1992188 0,-0.087891 0.01171875,-0.1523437 0.03515625,-0.19921875 0.0234375,-0.0410156 0.05273438,-0.0585938 0.09375,-0.0585938 H 3.8911328 c 0.038086,0 0.070312,0.0175781 0.09375,0.0585938 0.023438,0.0380858 0.035156,0.10546875 0.035156,0.19921875 z m 3.9638672,0 c 0,0.09375 -0.011719,0.1582031 -0.035156,0.1992188 -0.017578,0.038086 -0.046875,0.058594 -0.09375,0.058594 H 4.0698438 c -0.041016,0 -0.070312,-0.020508 -0.09375,-0.058594 -0.023437,-0.041016 -0.035156,-0.1054688 -0.035156,-0.1992188 0,-0.087891 0.011719,-0.1523437 0.035156,-0.19921875 0.023437,-0.0410156 0.052734,-0.0585938 0.09375,-0.0585938 H 7.855 c 0.038086,0 0.070312,0.0175781 0.09375,0.0585938 C 7.972187,1.0094921 7.983906,1.076875 7.9839063,1.170625 Z m 3.9638667,0 c 0,0.09375 -0.01172,0.1582031 -0.03516,0.1992188 -0.01758,0.038086 -0.04687,0.058594 -0.09375,0.058594 H 8.0337109 c -0.041016,0 -0.070313,-0.020508 -0.09375,-0.058594 -0.023437,-0.041016 -0.035156,-0.1054688 -0.035156,-0.1992188 0,-0.087891 0.011719,-0.1523437 0.035156,-0.19921875 0.023437,-0.0410156 0.052734,-0.0585938 0.09375,-0.0585938 h 3.7851561 c 0.03809,0 0.07031,0.0175781 0.09375,0.0585938 0.02344,0.0380858 0.03516,0.10546875 0.03516,0.19921875 z m 6.802735,-1.60546875 c 0,0.1875 -0.03223,0.31347656 -0.09375,0.375 -0.06445,0.06152344 -0.175781,0.09375 -0.339844,0.09375 -0.158203,0 -0.266601,-0.02929687 -0.328125,-0.08203125 -0.05566,-0.06152344 -0.08203,-0.1875 -0.08203,-0.375 0,-0.17871094 0.02637,-0.29882812 0.08203,-0.36328125 0.06152,-0.0615234 0.175781,-0.09375 0.339844,-0.09375 0.155273,0 0.263672,0.0322266 0.328125,0.09375 0.06152,0.0556641 0.09375,0.17285156 0.09375,0.3515625 z m 0,0"
           style="fill:#ffffff;fill-opacity:1;fill-rule:nonzero;stroke:none"
           aria-label="   ___   .                                                            "
           transform="matrix(1.3333333,0,0,1.3333333,2032.5467,145.62667)"
           clip-path="url(#clipPath97)" />
        <path
           id="path98"
           d="m 1.5585547,-3.141875 c 0,0.087891 -0.00879,0.1582031 -0.023437,0.2109375 -0.00879,0.055664 -0.029297,0.1025391 -0.058594,0.140625 -0.032226,0.041016 -0.076172,0.067383 -0.1289062,0.082031 -0.055664,0.00879 -0.1230469,0.011719 -0.1992188,0.011719 -0.087891,0 -0.15820309,-0.00293 -0.21093746,-0.011719 -0.046875,-0.014648 -0.0878906,-0.041016 -0.1171875,-0.082031 -0.0322266,-0.038086 -0.0556641,-0.084961 -0.0703125,-0.140625 -0.008789,-0.052734 -0.0117188,-0.1230469 -0.0117188,-0.2109375 0,-0.084961 0.00293,-0.1552734 0.0117188,-0.2109375 0.0146484,-0.061523 0.0380859,-0.1083984 0.0703125,-0.140625 0.0292969,-0.038086 0.0703125,-0.064453 0.1171875,-0.082031 0.0527344,-0.014648 0.12304686,-0.023437 0.21093746,-0.023437 0.076172,0 0.1435547,0.00879 0.1992188,0.023437 0.052734,0.017578 0.09668,0.043945 0.1289062,0.082031 0.029297,0.032227 0.049805,0.079102 0.058594,0.140625 0.014648,0.055664 0.023437,0.1259766 0.023437,0.2109375 z m 0,2.71875 c 0,0.09375 -0.00879,0.16992188 -0.023437,0.22265625 -0.00879,0.0556641 -0.029297,0.10253906 -0.058594,0.140625 -0.032226,0.03222656 -0.076172,0.05566406 -0.1289062,0.0703125 -0.055664,0.01464844 -0.1230469,0.0234375 -0.1992188,0.0234375 -0.087891,0 -0.15820309,-0.0087891 -0.21093746,-0.0234375 -0.046875,-0.01464844 -0.0878906,-0.03808594 -0.1171875,-0.0703125 -0.0322266,-0.03808594 -0.0556641,-0.08496094 -0.0703125,-0.140625 -0.008789,-0.0527344 -0.0117188,-0.12890625 -0.0117188,-0.22265625 0,-0.0849609 0.00293,-0.15527344 0.0117188,-0.2109375 0.0146484,-0.0615234 0.0380859,-0.10839844 0.0703125,-0.140625 0.0292969,-0.0292969 0.0703125,-0.0527344 0.1171875,-0.0703125 0.0527344,-0.0146484 0.12304686,-0.0234375 0.21093746,-0.0234375 0.076172,0 0.1435547,0.008789 0.1992188,0.0234375 0.052734,0.0175781 0.09668,0.0410156 0.1289062,0.0703125 0.029297,0.0322266 0.049805,0.0791016 0.058594,0.140625 0.014648,0.0556641 0.023437,0.12597656 0.023437,0.2109375 z m 3.9931641,-1.0078125 c 0,0.2431641 -0.043945,0.45703125 -0.1289063,0.64453125 -0.087891,0.18164063 -0.2080078,0.33691406 -0.3632812,0.46875 -0.1582032,0.13476563 -0.3398438,0.23144531 -0.5507813,0.29296875 -0.2109375,0.06152344 -0.4394531,0.09375 -0.6796875,0.09375 -0.1728516,0 -0.3339844,-0.01757812 -0.4804687,-0.046875 -0.140625,-0.0234375 -0.2695313,-0.05273437 -0.3867188,-0.09375 -0.1113281,-0.046875 -0.2050781,-0.08789062 -0.28125,-0.12890625 -0.079102,-0.046875 -0.1347656,-0.0849609 -0.1640625,-0.1171875 -0.032227,-0.0292969 -0.055664,-0.0703125 -0.070312,-0.1171875 -0.00879,-0.0527344 -0.011719,-0.12011719 -0.011719,-0.19921875 0,-0.0527344 0,-0.0996094 0,-0.140625 0.00586,-0.0380859 0.014648,-0.0703125 0.023437,-0.09375 0.014648,-0.0234375 0.029297,-0.0380859 0.046875,-0.046875 0.014648,-0.005859 0.035156,-0.0117188 0.058594,-0.0117188 0.029297,0 0.076172,0.0234375 0.140625,0.0703125 0.070312,0.0410156 0.1552734,0.0878906 0.2578125,0.140625 0.1083984,0.046875 0.2373047,0.09375 0.3867188,0.140625 0.1464843,0.046875 0.3193359,0.0703125 0.515625,0.0703125 0.140625,0 0.2724609,-0.0175781 0.3984375,-0.0585938 0.1230468,-0.0380859 0.2285156,-0.09375 0.3164062,-0.1640625 0.084961,-0.0703125 0.1523438,-0.15527344 0.1992188,-0.2578125 0.046875,-0.1083984 0.070312,-0.2285156 0.070312,-0.3632812 0,-0.1464844 -0.035156,-0.272461 -0.1054688,-0.375 C 4.6786719,-1.8235156 4.5937109,-1.9143359 4.4853125,-1.9934375 4.3827734,-2.0696094 4.2626563,-2.1399219 4.1220313,-2.204375 3.9872656,-2.2658984 3.8466406,-2.3274219 3.7001563,-2.391875 3.5595313,-2.4621875 3.4189063,-2.5354297 3.2782813,-2.6145312 3.1435156,-2.6994922 3.0233984,-2.7961719 2.915,-2.9075 2.8124609,-3.0158984 2.7275,-3.1448047 2.6571875,-3.2942187 c -0.064453,-0.1464844 -0.09375,-0.3222657 -0.09375,-0.5273438 0,-0.2109375 0.035156,-0.3984375 0.1054688,-0.5625 0.076172,-0.1699219 0.1816406,-0.3105469 0.3164062,-0.421875 C 3.1259375,-4.923125 3.29,-5.0080859 3.4775,-5.06375 3.6708594,-5.1252734 3.8788672,-5.1575 4.0985938,-5.1575 c 0.1171875,0 0.2285156,0.011719 0.3398437,0.035156 0.1171875,0.017578 0.2226563,0.043945 0.3164063,0.082031 0.099609,0.032227 0.1904296,0.067383 0.2695312,0.1054688 0.084961,0.041016 0.140625,0.070312 0.1640625,0.09375 0.023437,0.023437 0.038086,0.043945 0.046875,0.058594 0.00586,0.017578 0.011719,0.035156 0.011719,0.058594 0.00586,0.023437 0.011719,0.052734 0.011719,0.082031 0.00586,0.032227 0.011719,0.070312 0.011719,0.1171875 0,0.046875 -0.00586,0.09082 -0.011719,0.1289063 0,0.041016 -0.00586,0.070312 -0.011719,0.09375 -0.00879,0.023437 -0.020508,0.043945 -0.035156,0.058594 -0.017578,0.00879 -0.032227,0.011719 -0.046875,0.011719 -0.032227,0 -0.079102,-0.014648 -0.140625,-0.046875 C 4.9599219,-4.3166797 4.8866797,-4.360625 4.8017188,-4.4075 4.7138281,-4.454375 4.6083594,-4.4953906 4.4853125,-4.5364062 4.368125,-4.5744922 4.2304297,-4.595 4.0751563,-4.595 c -0.140625,0 -0.2666016,0.020508 -0.375,0.058594 -0.1025391,0.041016 -0.1875,0.09082 -0.2578125,0.1523437 C 3.3778908,-4.3196093 3.3280859,-4.246367 3.29,-4.161406 c -0.032227,0.087891 -0.046875,0.1757812 -0.046875,0.2695312 0,0.140625 0.029297,0.2666016 0.09375,0.375 0.070312,0.1025391 0.1582031,0.1933594 0.2695313,0.2695313 0.1083984,0.079102 0.2285156,0.149414 0.3632812,0.2109375 0.140625,0.064453 0.28125,0.1289062 0.421875,0.1992187 0.1464844,0.070312 0.2929688,0.1464844 0.4335938,0.2226563 0.140625,0.079102 0.2607421,0.1728515 0.3632812,0.28125 0.1083984,0.1113281 0.1933594,0.2402343 0.2578125,0.3867187 0.070312,0.1494141 0.1054688,0.3222656 0.1054688,0.5156248 z M 9.4775,-2.016875 c 0,0.1025391 -0.029297,0.1757813 -0.082031,0.2226563 -0.046875,0.041016 -0.1025391,0.058594 -0.1640625,0.058594 H 6.9110938 c 0,0.1962891 0.017578,0.3720703 0.058594,0.5273438 0.038086,0.1582031 0.1054688,0.2929687 0.1992188,0.4101562 0.09375,0.11132813 0.2109375,0.19628906 0.3515625,0.2578125 0.1464843,0.0556641 0.3310546,0.0820313 0.5507812,0.0820313 0.1640625,0 0.3105469,-0.0117188 0.4453125,-0.0351563 0.1318359,-0.0292969 0.2460938,-0.0615234 0.3398438,-0.09375 0.09375,-0.0292969 0.1699218,-0.0585938 0.234375,-0.0820313 0.061523,-0.0292969 0.1083984,-0.046875 0.140625,-0.046875 0.014648,0 0.029297,0.005859 0.046875,0.0117188 0.014648,0.008789 0.026367,0.0234375 0.035156,0.046875 0.00586,0.0175781 0.011719,0.0410156 0.011719,0.0703125 0.00586,0.0322266 0.011719,0.0703125 0.011719,0.1171875 0,0.0322266 -0.00586,0.0644531 -0.011719,0.09375 0,0.0234375 -0.00586,0.046875 -0.011719,0.0703125 0,0.0175781 -0.00586,0.0322266 -0.011719,0.046875 -0.00879,0.0175781 -0.020508,0.0322266 -0.035156,0.046875 -0.017578,0.0175781 -0.058594,0.0410156 -0.1289062,0.0703125 -0.070312,0.0322266 -0.1640625,0.06445313 -0.28125,0.09375 C 8.7450781,-0.01589844 8.6161719,0.01046875 8.4696875,0.03390625 8.3202734,0.05734375 8.165,0.0690625 8.0009375,0.0690625 7.7108984,0.0690625 7.4560156,0.02804688 7.2392188,-0.048125 7.0194922,-0.12429687 6.8349219,-0.24148437 6.6884375,-0.3996875 6.5390234,-0.56375 6.4247656,-0.76589844 6.3485938,-1.0090625 c -0.079102,-0.2402344 -0.1171875,-0.5214844 -0.1171875,-0.84375 0,-0.3046875 0.038086,-0.5771484 0.1171875,-0.8203125 0.076172,-0.2402344 0.1904296,-0.4453125 0.3398437,-0.609375 0.1464844,-0.1699219 0.328125,-0.2988281 0.5390625,-0.3867187 0.2109375,-0.09375 0.4453125,-0.140625 0.703125,-0.140625 0.2724609,0 0.5068359,0.046875 0.703125,0.140625 0.1933594,0.087891 0.3544922,0.2050781 0.4804688,0.3515625 0.1230468,0.149414 0.2138671,0.3251953 0.2695312,0.5273437 0.061523,0.2050781 0.09375,0.421875 0.09375,0.65625 z M 8.8329688,-2.2160937 c 0.00586,-0.3339844 -0.070312,-0.600586 -0.234375,-0.796875 -0.1582032,-0.1933594 -0.3867188,-0.2929688 -0.6914063,-0.2929688 -0.1640625,0 -0.3105469,0.032227 -0.4335937,0.09375 -0.1171875,0.064453 -0.2197266,0.1464844 -0.3046875,0.2460938 -0.079102,0.09375 -0.140625,0.2080078 -0.1875,0.3398437 -0.041016,0.1347656 -0.064453,0.2695313 -0.070312,0.4101563 z m 2.4052732,-0.984375 v 1.96875 c 0,0.25195308 0.03516,0.43945308 0.105469,0.56249995 0.07031,0.1171875 0.199219,0.17578125 0.386719,0.17578125 0.05273,0 0.105468,-0.00293 0.152343,-0.0117188 0.05274,-0.0146484 0.09668,-0.0263672 0.128907,-0.0351563 0.03809,-0.0146484 0.07031,-0.0263672 0.09375,-0.0351563 0.0293,-0.0146484 0.05273,-0.0234375 0.07031,-0.0234375 0.01465,0 0.02637,0.005859 0.03516,0.0117188 0.01465,0.008789 0.02637,0.0205078 0.03516,0.0351563 0.0059,0.0175781 0.01172,0.0410156 0.01172,0.0703125 0.0059,0.0322266 0.01172,0.0761719 0.01172,0.12890625 0,0.0703125 -0.0088,0.12890625 -0.02344,0.17578125 -0.0088,0.046875 -0.02344,0.08203125 -0.04687,0.10546875 -0.01758,0.01757813 -0.04687,0.03515625 -0.09375,0.05859375 -0.04102,0.01464844 -0.08789,0.02636719 -0.140625,0.03515625 -0.04687,0.01464844 -0.102539,0.02636719 -0.164063,0.03515625 -0.06445,0.0058594 -0.125976,0.01171875 -0.1875,0.01171875 -0.18164,0 -0.336914,-0.0234375 -0.46875,-0.0703125 -0.134765,-0.05273437 -0.243164,-0.12890625 -0.328125,-0.22265625 -0.0791,-0.0996094 -0.137695,-0.22558594 -0.175781,-0.375 -0.04102,-0.14648437 -0.05859,-0.32226562 -0.05859,-0.5273438 v -2.0742186 h -0.492187 c -0.04102,0 -0.07031,-0.017578 -0.09375,-0.058594 -0.023437,-0.038086 -0.035156,-0.1054687 -0.035156,-0.1992187 0,-0.052734 0.00293,-0.09668 0.011719,-0.1289063 0.00586,-0.038086 0.014648,-0.064453 0.023437,-0.082031 0.00586,-0.023437 0.017578,-0.038086 0.035156,-0.046875 0.02344,-0.014648 0.04102,-0.023437 0.05859,-0.023437 h 0.492187 V -4.571562 c 0,-0.023437 0.0029,-0.041016 0.01172,-0.058594 0.01465,-0.014648 0.03516,-0.026367 0.05859,-0.035156 0.02344,-0.014648 0.05273,-0.023437 0.09375,-0.023437 0.04687,-0.00586 0.09961,-0.011719 0.164062,-0.011719 0.06152,0 0.111328,0.00586 0.152344,0.011719 0.04687,0 0.08203,0.00879 0.105469,0.023437 0.02344,0.00879 0.03809,0.020508 0.04687,0.035156 0.01465,0.017578 0.02344,0.035156 0.02344,0.058594 v 0.8320313 h 1.746094 v -1.0078125 c 0,-0.014648 0.0029,-0.029297 0.01172,-0.046875 0.01465,-0.014648 0.03516,-0.026367 0.05859,-0.035156 0.02344,-0.014648 0.05274,-0.023437 0.09375,-0.023437 0.04687,-0.00586 0.09961,-0.011719 0.164063,-0.011719 0.06152,0 0.111328,0.00586 0.152344,0.011719 0.04687,0 0.08203,0.00879 0.105468,0.023437 0.02344,0.00879 0.03809,0.020508 0.04687,0.035156 0.01465,0.017578 0.02344,0.032227 0.02344,0.046875 v 1.0078124 h 2.273437 c 0.07617,0 0.128907,0.020508 0.152344,0.058594 0.0293,0.032227 0.04687,0.082031 0.04687,0.1523438 V -0.095 c 0,0.01757813 -0.0059,0.03222656 -0.01172,0.046875 -0.0088,0.01757813 -0.0293,0.03222656 -0.05859,0.046875 -0.02344,0.00585938 -0.05566,0.01171875 -0.09375,0.01171875 -0.04102,0.0058594 -0.09375,0.01171875 -0.164063,0.01171875 -0.06445,0 -0.114258,-0.0058594 -0.152344,-0.01171875 -0.04101,0 -0.07617,-0.00585937 -0.105468,-0.01171875 -0.02344,-0.01464844 -0.04102,-0.02929687 -0.04687,-0.046875 -0.0088,-0.01464844 -0.01172,-0.02929687 -0.01172,-0.046875 v -3.1054687 h -1.828125 v 1.96875 c 0,0.25195308 0.03516,0.43945308 0.105469,0.56249995 0.07031,0.1171875 0.199218,0.17578125 0.386718,0.17578125 0.05274,0 0.105469,-0.00293 0.152344,-0.0117188 0.05274,-0.0146484 0.09668,-0.0263672 0.128906,-0.0351563 0.03809,-0.0146484 0.07031,-0.0263672 0.09375,-0.0351563 0.0293,-0.0146484 0.05274,-0.0234375 0.07031,-0.0234375 0.01465,0 0.02637,0.005859 0.03516,0.0117188 0.01465,0.008789 0.02637,0.0205078 0.03516,0.0351563 0.0059,0.0175781 0.01172,0.0410156 0.01172,0.0703125 0.0059,0.0322266 0.01172,0.0761719 0.01172,0.12890625 0,0.0703125 -0.0088,0.12890625 -0.02344,0.17578125 -0.0088,0.046875 -0.02344,0.08203125 -0.04687,0.10546875 -0.01758,0.01757813 -0.04395,0.03515625 -0.08203,0.05859375 -0.04101,0.01464844 -0.08789,0.02636719 -0.140625,0.03515625 -0.05566,0.01464844 -0.114258,0.02636719 -0.175781,0.03515625 -0.06445,0.0058594 -0.123047,0.01171875 -0.175781,0.01171875 -0.1875,0 -0.348633,-0.0234375 -0.480469,-0.0703125 -0.134766,-0.05273437 -0.243164,-0.12890625 -0.328125,-0.22265625 -0.0791,-0.0996094 -0.137695,-0.22558594 -0.175781,-0.375 -0.04102,-0.14648437 -0.05859,-0.32226562 -0.05859,-0.5273438 v -2.0742186 z m 4.945313,-1.6289063 c 0,0.1582031 -0.03223,0.2636719 -0.09375,0.3164063 -0.05566,0.055664 -0.161133,0.082031 -0.316407,0.082031 -0.149414,0 -0.251953,-0.026367 -0.304687,-0.082031 -0.05566,-0.052734 -0.08203,-0.1552735 -0.08203,-0.3046875 0,-0.1464844 0.02637,-0.2490235 0.08203,-0.3046875 0.05273,-0.052734 0.158203,-0.082031 0.316406,-0.082031 0.146485,0 0.249024,0.029297 0.304688,0.082031 0.06152,0.046875 0.09375,0.1464843 0.09375,0.2929687 z m -1.324219,1.0898438 z M 20.320273,-0.095 c 0,0.01757813 -0.0088,0.03222656 -0.02344,0.046875 -0.0088,0.01757813 -0.02344,0.03222656 -0.04687,0.046875 -0.02344,0.00585938 -0.05859,0.01171875 -0.105469,0.01171875 -0.04101,0.0058594 -0.09082,0.01171875 -0.152344,0.01171875 -0.06445,0 -0.117187,-0.0058594 -0.164062,-0.01171875 -0.04102,0 -0.07031,-0.00585937 -0.09375,-0.01171875 -0.02344,-0.01464844 -0.04102,-0.02929687 -0.04687,-0.046875 -0.0088,-0.01464844 -0.01172,-0.02929687 -0.01172,-0.046875 v -2.0742187 c 0,-0.2021485 -0.01758,-0.3632813 -0.04687,-0.4804688 -0.03223,-0.1230469 -0.0791,-0.2285156 -0.140625,-0.3164062 -0.06445,-0.09375 -0.140625,-0.1640625 -0.234375,-0.2109375 -0.09375,-0.046875 -0.205078,-0.070312 -0.328125,-0.070312 -0.164062,0 -0.328125,0.058594 -0.492187,0.1757812 -0.164063,0.1113281 -0.333985,0.2783203 -0.503907,0.5039063 V -0.095 c 0,0.01757813 -0.0088,0.03222656 -0.02344,0.046875 -0.0088,0.01757813 -0.02344,0.03222656 -0.04687,0.046875 -0.02344,0.00585938 -0.05859,0.01171875 -0.105469,0.01171875 -0.04101,0.0058594 -0.09082,0.01171875 -0.152344,0.01171875 -0.06445,0 -0.117187,-0.0058594 -0.164062,-0.01171875 -0.04102,0 -0.07031,-0.00585937 -0.09375,-0.01171875 -0.02344,-0.01464844 -0.04394,-0.02929687 -0.05859,-0.046875 -0.0088,-0.01464844 -0.01172,-0.02929687 -0.01172,-0.046875 v -3.5390625 c 0,-0.023437 0.0029,-0.038086 0.01172,-0.046875 0.0059,-0.014648 0.02344,-0.026367 0.04687,-0.035156 0.02344,-0.014648 0.05274,-0.023437 0.09375,-0.023437 0.03809,-0.00586 0.08496,-0.011719 0.140625,-0.011719 0.06152,0 0.108399,0.00586 0.140625,0.011719 0.03809,0 0.07031,0.00879 0.09375,0.023437 0.02344,0.00879 0.03809,0.020508 0.04687,0.035156 0.0059,0.00879 0.01172,0.023437 0.01172,0.046875 v 0.46875 c 0.202148,-0.2167969 0.401367,-0.3779297 0.597656,-0.4804687 0.19336,-0.1083985 0.392578,-0.1640625 0.597656,-0.1640625 0.234375,0 0.427735,0.043945 0.585938,0.1289062 0.164062,0.079102 0.295898,0.1845703 0.398437,0.3164063 0.09961,0.1347656 0.169922,0.290039 0.210938,0.46875 0.04687,0.1816406 0.07031,0.3955078 0.07031,0.6445312 z m 4.12793,-3.375 c 0,0.09375 -0.01172,0.1611328 -0.03516,0.1992188 -0.02344,0.041016 -0.05566,0.058594 -0.09375,0.058594 h -0.503906 c 0.08496,0.09375 0.146484,0.1992188 0.1875,0.3164063 0.03809,0.1113281 0.05859,0.2285156 0.05859,0.3515625 0,0.2050781 -0.03516,0.383789 -0.105468,0.5390625 -0.06445,0.1582031 -0.158203,0.290039 -0.28125,0.3984375 -0.117188,0.1113281 -0.263672,0.196289 -0.433594,0.2578125 -0.164063,0.055664 -0.348633,0.082031 -0.550781,0.082031 -0.149414,0 -0.290039,-0.017578 -0.421875,-0.058594 -0.125977,-0.038086 -0.222657,-0.084961 -0.292969,-0.140625 -0.04687,0.046875 -0.08789,0.102539 -0.117188,0.1640625 -0.03223,0.055664 -0.04687,0.1230468 -0.04687,0.1992187 0,0.09375 0.04102,0.17285156 0.128907,0.234375 0.08496,0.0556641 0.199218,0.0878906 0.339843,0.09375 l 0.925782,0.0351563 c 0.169922,0.008789 0.331054,0.0351563 0.480468,0.0820313 0.146485,0.0410156 0.272461,0.10253906 0.375,0.1875 0.108399,0.0791016 0.19336,0.17578125 0.257813,0.29296875 0.06152,0.11132813 0.09375,0.24023438 0.09375,0.3984375 0,0.1640625 -0.03516,0.31640625 -0.105469,0.45703125 -0.07031,0.14648438 -0.175781,0.27539063 -0.316406,0.3867188 -0.134766,0.1171875 -0.310547,0.2050781 -0.527344,0.2695312 -0.219726,0.061523 -0.477539,0.09375 -0.773437,0.09375 -0.28125,0 -0.524414,-0.023437 -0.726563,-0.070312 C 21.75875,1.31125 21.591758,1.2438672 21.459922,1.1589063 21.333945,1.0710156 21.243125,0.97140625 21.190391,0.85421875 c -0.05566,-0.11132812 -0.08203,-0.234375 -0.08203,-0.375 0,-0.0878906 0.0059,-0.17285156 0.02344,-0.2578125 0.02344,-0.0791016 0.05273,-0.15234375 0.09375,-0.22265625 0.04687,-0.0703125 0.09961,-0.13476562 0.164062,-0.19921875 0.07031,-0.0703125 0.143555,-0.140625 0.222657,-0.2109375 -0.125977,-0.0615234 -0.219727,-0.14355469 -0.28125,-0.24609375 -0.06445,-0.0996094 -0.09375,-0.20507812 -0.09375,-0.31640625 0,-0.16406245 0.0293,-0.30761715 0.09375,-0.43359375 0.07031,-0.1230469 0.152343,-0.2373047 0.246093,-0.3398437 -0.0791,-0.09375 -0.140625,-0.1992188 -0.1875,-0.3164063 -0.04687,-0.1230469 -0.07031,-0.2724609 -0.07031,-0.4453125 0,-0.2021484 0.0293,-0.3808594 0.09375,-0.5390625 0.07031,-0.1640625 0.164062,-0.2988281 0.28125,-0.4101562 0.123047,-0.1083985 0.269531,-0.1904297 0.433594,-0.2460938 0.169922,-0.061523 0.357422,-0.09375 0.5625,-0.09375 0.09961,0 0.199218,0.00879 0.292968,0.023437 0.09375,0.00879 0.181641,0.020508 0.269532,0.035156 h 1.066406 c 0.03809,0 0.07031,0.023437 0.09375,0.070312 0.02344,0.046875 0.03516,0.1142578 0.03516,0.1992187 z m -1.007812,0.9257813 c 0,-0.2402344 -0.06738,-0.4277344 -0.199219,-0.5625 -0.134766,-0.131836 -0.322266,-0.1992188 -0.5625,-0.1992188 -0.125977,0 -0.234375,0.023437 -0.328125,0.070312 -0.09375,0.041016 -0.172852,0.09375 -0.234375,0.1640625 -0.06445,0.070312 -0.111328,0.1582031 -0.140625,0.2578125 -0.03223,0.09375 -0.04687,0.1933594 -0.04687,0.2929688 0,0.234375 0.06445,0.4189453 0.199219,0.5507812 0.131836,0.1347656 0.319336,0.1992188 0.5625,0.1992188 0.123047,0 0.234375,-0.017578 0.328125,-0.058594 0.09375,-0.038086 0.169922,-0.09375 0.234375,-0.1640625 0.06152,-0.076172 0.108398,-0.1640625 0.140625,-0.2578125 0.0293,-0.09375 0.04687,-0.1904297 0.04687,-0.292968 z m 0.328125,2.8007812 c 0,-0.14941406 -0.06445,-0.26074219 -0.1875,-0.33984375 -0.125977,-0.08496094 -0.292969,-0.13183594 -0.503907,-0.140625 L 22.163047,-0.2590625 C 22.075156,-0.18875 22.004844,-0.12136719 21.952109,-0.05984375 21.896445,-0.00417969 21.8525,0.045625 21.823203,0.0925 c -0.03223,0.05273438 -0.05566,0.10839844 -0.07031,0.1640625 -0.0088,0.0527344 -0.01172,0.10839844 -0.01172,0.1640625 0,0.16992188 0.08496,0.29882813 0.257812,0.38671875 0.169922,0.0849609 0.413086,0.12890625 0.726563,0.12890625 0.193359,0 0.357422,-0.0205078 0.492187,-0.0585938 0.131836,-0.0410156 0.237305,-0.0908203 0.316407,-0.15234375 0.07617,-0.0644531 0.134765,-0.13769531 0.175781,-0.22265625 0.03809,-0.0791016 0.05859,-0.16113281 0.05859,-0.24609375 z m 3.761718,-1.3125 c 0,0.18164063 -0.03516,0.33984375 -0.105468,0.48046875 -0.07031,0.140625 -0.169922,0.26367188 -0.292969,0.36328125 -0.117188,0.09375 -0.263672,0.1640625 -0.433594,0.2109375 -0.172851,0.046875 -0.360351,0.0703125 -0.5625,0.0703125 -0.125976,0 -0.246094,-0.01171875 -0.363281,-0.03515625 C 25.661094,0.01632813 25.561484,-0.00125 25.467734,-0.0246875 c -0.08789,-0.02929687 -0.161132,-0.06152344 -0.222656,-0.09375 -0.06445,-0.0380859 -0.111328,-0.0703125 -0.140625,-0.09375 -0.03223,-0.0234375 -0.05566,-0.0585937 -0.07031,-0.10546875 -0.0088,-0.046875 -0.01172,-0.11132812 -0.01172,-0.19921875 0,-0.046875 0,-0.0849609 0,-0.1171875 0.0059,-0.0380859 0.01465,-0.0644531 0.02344,-0.0820313 0.0059,-0.0234375 0.01758,-0.0380859 0.03516,-0.046875 0.01465,-0.0146484 0.03516,-0.0234375 0.05859,-0.0234375 0.02344,0 0.06152,0.0205078 0.117188,0.0585938 0.06152,0.0322266 0.131836,0.0703125 0.210937,0.1171875 0.08496,0.0410156 0.181641,0.0791016 0.292969,0.1171875 0.117188,0.0322266 0.246094,0.046875 0.386719,0.046875 0.108398,0 0.205078,-0.0117188 0.292969,-0.0351563 0.09375,-0.0234375 0.169922,-0.0585938 0.234375,-0.10546875 0.07031,-0.046875 0.120117,-0.10546875 0.152343,-0.17578125 0.03809,-0.0703125 0.05859,-0.15234375 0.05859,-0.2460937 0,-0.099609 -0.0293,-0.1816406 -0.08203,-0.2460937 -0.04687,-0.070312 -0.114258,-0.131836 -0.199219,-0.1875 -0.08789,-0.052734 -0.18164,-0.099609 -0.28125,-0.140625 -0.102539,-0.038086 -0.210937,-0.076172 -0.328125,-0.1171875 -0.111328,-0.046875 -0.219726,-0.09668 -0.328125,-0.1523438 -0.102539,-0.061523 -0.196289,-0.1318359 -0.28125,-0.2109376 -0.0791,-0.084961 -0.146484,-0.1816406 -0.199219,-0.2929686 -0.04687,-0.1083985 -0.07031,-0.2402344 -0.07031,-0.3984375 0,-0.140625 0.02344,-0.272461 0.07031,-0.3984375 0.05273,-0.131836 0.134766,-0.2460939 0.246094,-0.3398439 0.108399,-0.09375 0.240235,-0.1669922 0.398438,-0.2226561 0.164062,-0.061523 0.351562,-0.09375 0.5625,-0.09375 0.09375,0 0.1875,0.00879 0.28125,0.023437 0.09961,0.017578 0.1875,0.035156 0.257812,0.058594 0.07617,0.023437 0.143555,0.052734 0.199219,0.082031 0.05273,0.023437 0.09375,0.046875 0.117187,0.070312 0.0293,0.023437 0.0498,0.043945 0.05859,0.058594 0.0059,0.017578 0.01172,0.035156 0.01172,0.058594 0.0059,0.017578 0.01172,0.041016 0.01172,0.070312 0.0059,0.023437 0.01172,0.055664 0.01172,0.09375 0,0.046875 -0.0059,0.087891 -0.01172,0.1171875 0,0.032227 -0.0059,0.058594 -0.01172,0.082031 -0.0088,0.023437 -0.02051,0.041016 -0.03516,0.046875 -0.01758,0.00879 -0.03223,0.011719 -0.04687,0.011719 -0.02344,0 -0.05859,-0.011719 -0.105469,-0.035156 -0.04102,-0.029297 -0.09375,-0.061523 -0.164063,-0.09375 -0.07031,-0.038086 -0.158203,-0.070312 -0.257812,-0.09375 -0.09375,-0.029297 -0.199219,-0.046875 -0.316406,-0.046875 -0.111328,0 -0.208008,0.011719 -0.292969,0.035156 -0.08789,0.023437 -0.158203,0.058594 -0.210938,0.1054687 -0.05566,0.046875 -0.09961,0.1025391 -0.128906,0.1640625 -0.02344,0.064453 -0.03516,0.1347656 -0.03516,0.2109375 0,0.1025391 0.02637,0.1875 0.08203,0.2578125 0.05274,0.064453 0.120117,0.1230469 0.199219,0.1757813 0.08496,0.055664 0.181641,0.102539 0.292969,0.140625 0.108398,0.041016 0.216797,0.082031 0.328125,0.1289062 0.108398,0.046875 0.216797,0.099609 0.328125,0.1523438 0.108398,0.055664 0.202148,0.1230468 0.28125,0.1992187 0.08496,0.079102 0.155273,0.1728516 0.210937,0.28125 0.05274,0.1113281 0.08203,0.2431641 0.08203,0.3984375 z m 0,0"
           style="fill:#000000;fill-opacity:1;fill-rule:nonzero;stroke:none"
           aria-label=":Setngs"
           transform="matrix(1.3333333,0,0,1.3333333,2203.1333,145.62667)"
           clip-path="url(#clipPath99)" />
      </g>
      <g
         id="g99"
         transform="translate(-844.5867,-338.80003)">
        <path
           id="path100"
           d="m 131.35,694.22 c 0,7.46 6.05,13.5 13.5,13.5 7.46,0 13.51,-6.04 13.51,-13.5 0,-7.46 -6.05,-13.5 -13.51,-13.5 -7.45,0 -13.5,6.04 -13.5,13.5 z"
           style="fill:#8497b0;fill-opacity:1;fill-rule:evenodd;stroke:none"
           transform="matrix(1.3333333,0,0,-1.3333333,1627.52,1122.56)" />
      </g>
      <g
         id="g100"
         transform="translate(-844.5867,-338.80003)">
        <path
           id="path101"
           d="m 144.98,680.72 h 301.44 v 27 H 144.98 Z"
           style="fill:#8497b0;fill-opacity:1;fill-rule:evenodd;stroke:none"
           transform="matrix(1.3333333,0,0,-1.3333333,1627.52,1122.56)" />
      </g>
      <g
         id="g101"
         transform="translate(-844.5867,-338.80003)">
        <path
           id="path102"
           d="m 432.29,694.22 c 0,7.46 6.05,13.5 13.51,13.5 7.45,0 13.5,-6.04 13.5,-13.5 0,-7.46 -6.05,-13.5 -13.5,-13.5 -7.46,0 -13.51,6.04 -13.51,13.5 z"
           style="fill:#8497b0;fill-opacity:1;fill-rule:evenodd;stroke:none"
           transform="matrix(1.3333333,0,0,-1.3333333,1627.52,1122.56)" />
      </g>
      <g
         id="g102"
         transform="translate(-844.5867,-338.80003)">
        <path
           id="path103"
           d="m 131.45,658.62 c 0,7.46 6.05,13.5 13.5,13.5 7.46,0 13.51,-6.04 13.51,-13.5 0,-7.46 -6.05,-13.5 -13.51,-13.5 -7.45,0 -13.5,6.04 -13.5,13.5 z"
           style="fill:#8497b0;fill-opacity:1;fill-rule:evenodd;stroke:none"
           transform="matrix(1.3333333,0,0,-1.3333333,1627.52,1122.56)" />
      </g>
      <g
         id="g103"
         transform="translate(-844.5867,-338.80003)">
        <path
           id="path104"
           d="m 145.08,645.12 h 301.44 v 27 H 145.08 Z"
           style="fill:#8497b0;fill-opacity:1;fill-rule:evenodd;stroke:none"
           transform="matrix(1.3333333,0,0,-1.3333333,1627.52,1122.56)" />
      </g>
      <g
         id="g104"
         transform="translate(-844.5867,-338.80003)">
        <path
           id="path105"
           d="m 432.39,658.62 c 0,7.46 6.05,13.5 13.51,13.5 7.45,0 13.5,-6.04 13.5,-13.5 0,-7.46 -6.05,-13.5 -13.5,-13.5 -7.46,0 -13.51,6.04 -13.51,13.5 z"
           style="fill:#8497b0;fill-opacity:1;fill-rule:evenodd;stroke:none"
           transform="matrix(1.3333333,0,0,-1.3333333,1627.52,1122.56)" />
      </g>
      <g
         id="g105"
         transform="translate(-844.5867,-338.80003)">
        <path
           id="path106"
           d="m 131.35,622.62 c 0,7.46 6.05,13.5 13.5,13.5 7.46,0 13.51,-6.04 13.51,-13.5 0,-7.46 -6.05,-13.5 -13.51,-13.5 -7.45,0 -13.5,6.04 -13.5,13.5 z"
           style="fill:#8497b0;fill-opacity:1;fill-rule:evenodd;stroke:none"
           transform="matrix(1.3333333,0,0,-1.3333333,1627.52,1122.56)" />
      </g>
      <g
         id="g106"
         transform="translate(-844.5867,-338.80003)">
        <path
           id="path107"
           d="m 144.98,609.12 h 301.44 v 27 H 144.98 Z"
           style="fill:#8497b0;fill-opacity:1;fill-rule:evenodd;stroke:none"
           transform="matrix(1.3333333,0,0,-1.3333333,1627.52,1122.56)" />
      </g>
      <g
         id="g107"
         transform="translate(-844.5867,-338.80003)">
        <path
           id="path108"
           d="m 432.29,622.62 c 0,7.46 6.05,13.5 13.51,13.5 7.45,0 13.5,-6.04 13.5,-13.5 0,-7.46 -6.05,-13.5 -13.5,-13.5 -7.46,0 -13.51,6.04 -13.51,13.5 z"
           style="fill:#8497b0;fill-opacity:1;fill-rule:evenodd;stroke:none"
           transform="matrix(1.3333333,0,0,-1.3333333,1627.52,1122.56)" />
      </g>
      <g
         id="g108"
         transform="translate(-844.5867,-338.80003)">
        <path
           id="path109"
           d="m 131.2,587.62 c 0,7.46 6.05,13.5 13.5,13.5 7.46,0 13.51,-6.04 13.51,-13.5 0,-7.46 -6.05,-13.5 -13.51,-13.5 -7.45,0 -13.5,6.04 -13.5,13.5 z"
           style="fill:#8497b0;fill-opacity:1;fill-rule:evenodd;stroke:none"
           transform="matrix(1.3333333,0,0,-1.3333333,1627.52,1122.56)" />
      </g>
      <g
         id="g109"
         transform="translate(-844.5867,-338.80003)">
        <path
           id="path110"
           d="m 144.83,574.12 h 301.44 v 27 H 144.83 Z"
           style="fill:#8497b0;fill-opacity:1;fill-rule:evenodd;stroke:none"
           transform="matrix(1.3333333,0,0,-1.3333333,1627.52,1122.56)" />
      </g>
      <g
         id="g110"
         transform="translate(-844.5867,-338.80003)">
        <path
           id="path111"
           d="m 432.14,587.62 c 0,7.46 6.05,13.5 13.51,13.5 7.45,0 13.5,-6.04 13.5,-13.5 0,-7.46 -6.05,-13.5 -13.5,-13.5 -7.46,0 -13.51,6.04 -13.51,13.5 z"
           style="fill:#8497b0;fill-opacity:1;fill-rule:evenodd;stroke:none"
           transform="matrix(1.3333333,0,0,-1.3333333,1627.52,1122.56)" />
      </g>
      <g
         id="g111"
         transform="translate(-844.5867,-338.80003)">
        <path
           id="path112"
           d="m 459.45,573.07 h 7.35 v 144 h -7.35 z"
           style="fill:#dae3f3;fill-opacity:1;fill-rule:evenodd;stroke:#172c51;stroke-width:1;stroke-linecap:butt;stroke-linejoin:miter;stroke-miterlimit:8;stroke-dasharray:none;stroke-opacity:1"
           transform="matrix(1.3333333,0,0,-1.3333333,1627.52,1122.56)" />
      </g>
      <g
         id="g112"
         transform="translate(-844.5867,-338.80003)">
        <path
           id="path113"
           d="m 459.45,706.34 c 0,0.68 0.55,1.23 1.23,1.23 h 4.9 c 0.67,0 1.22,-0.55 1.22,-1.23 v -15 c 0,-0.67 -0.55,-1.22 -1.22,-1.22 h -4.9 c -0.68,0 -1.23,0.55 -1.23,1.22 z"
           style="fill:#4472c4;fill-opacity:1;fill-rule:evenodd;stroke:#172c51;stroke-width:1;stroke-linecap:butt;stroke-linejoin:miter;stroke-miterlimit:8;stroke-dasharray:none;stroke-opacity:1"
           transform="matrix(1.3333333,0,0,-1.3333333,1627.52,1122.56)" />
      </g>
      <g
         id="g113"
         transform="translate(-844.5867,-338.80003)">
        <path
           id="path114"
           d="M 131.5,573.12 H 459.05 V 717.17 H 131.5 Z"
           style="fill:none;stroke:#000000;stroke-width:0.5;stroke-linecap:butt;stroke-linejoin:miter;stroke-miterlimit:8;stroke-dasharray:none;stroke-opacity:1"
           transform="matrix(1.3333333,0,0,-1.3333333,1627.52,1122.56)" />
      </g>
    </g>
  </g>
</svg>
